M48
; DRILL file {KiCad 7.0.7} date Sat Jan 13 12:59:27 2024
; FORMAT={-:-/ absolute / inch / decimal}
; #@! TF.CreationDate,2024-01-13T12:59:27-05:00
; #@! TF.GenerationSoftware,Kicad,Pcbnew,7.0.7
; #@! TF.FileFunction,Plated,1,4,PTH
FMAT,2
INCH
; #@! TA.AperFunction,Plated,PTH,ComponentDrill
T1C0.0197
; #@! TA.AperFunction,Plated,PTH,ComponentDrill
T2C0.0315
; #@! TA.AperFunction,Plated,PTH,ComponentDrill
T3C0.0394
; #@! TA.AperFunction,Plated,PTH,ComponentDrill
T4C0.0433
; #@! TA.AperFunction,Plated,PTH,ComponentDrill
T5C0.0504
%
G90
G05
T1
X5.345Y-2.855
X5.97Y-2.855
T2
X5.405Y-3.0619
X5.405Y-3.1406
X5.405Y-3.2193
X5.405Y-3.2981
X5.405Y-3.3768
X5.405Y-3.4556
X5.405Y-3.5343
X5.405Y-3.613
X5.91Y-3.9456
X5.91Y-4.0244
X5.9562Y-3.0638
X5.9562Y-3.1426
X5.9562Y-3.2213
X5.9562Y-3.3
X5.9562Y-3.3788
X5.9562Y-3.4575
X5.9562Y-3.5363
X5.9562Y-3.615
X6.035Y-3.9456
X6.035Y-4.0244
T3
X5.005Y-2.96
X5.005Y-3.06
X5.005Y-3.1996
X5.005Y-3.2996
X5.005Y-3.3996
X5.005Y-3.4996
X5.226Y-2.898
X5.226Y-2.998
X5.226Y-3.098
X5.226Y-3.198
X5.226Y-3.298
X5.226Y-3.398
X5.226Y-3.498
X5.226Y-3.598
X5.245Y-3.775
X5.245Y-4.07
X5.345Y-3.775
X5.345Y-4.07
X5.54Y-2.895
X5.64Y-2.895
X5.685Y-3.945
X5.74Y-2.895
X5.84Y-2.895
X6.126Y-2.898
X6.126Y-2.998
X6.126Y-3.098
X6.126Y-3.198
X6.126Y-3.298
X6.126Y-3.398
X6.126Y-3.498
X6.126Y-3.598
T4
X5.96Y-3.7478
X6.06Y-3.7478
X6.16Y-3.7478
T5
X5.5905Y-3.8505
X5.5905Y-4.0395
X5.7795Y-3.8505
X5.7795Y-4.0395
T0
M30
