%TF.GenerationSoftware,KiCad,Pcbnew,7.0.7*%
%TF.CreationDate,2024-01-13T12:59:25-05:00*%
%TF.ProjectId,sx7_footprints,7378375f-666f-46f7-9470-72696e74732e,rev?*%
%TF.SameCoordinates,Original*%
%TF.FileFunction,Legend,Bot*%
%TF.FilePolarity,Positive*%
%FSLAX46Y46*%
G04 Gerber Fmt 4.6, Leading zero omitted, Abs format (unit mm)*
G04 Created by KiCad (PCBNEW 7.0.7) date 2024-01-13 12:59:25*
%MOMM*%
%LPD*%
G01*
G04 APERTURE LIST*
%ADD10C,0.150000*%
%ADD11C,0.300000*%
%ADD12C,0.125000*%
G04 APERTURE END LIST*
D10*
X143891000Y-86868000D02*
X144399000Y-86233000D01*
X143891000Y-84709000D02*
X143891000Y-86868000D01*
X143891000Y-86868000D02*
X143383000Y-86233000D01*
D11*
G36*
X146505564Y-77045409D02*
G01*
X146537179Y-77046371D01*
X146568377Y-77047974D01*
X146599159Y-77050218D01*
X146629524Y-77053103D01*
X146659472Y-77056629D01*
X146689003Y-77060797D01*
X146718117Y-77065605D01*
X146746815Y-77071055D01*
X146775096Y-77077146D01*
X146802961Y-77083878D01*
X146830408Y-77091251D01*
X146857439Y-77099265D01*
X146884053Y-77107920D01*
X146910250Y-77117217D01*
X146936031Y-77127154D01*
X146961287Y-77137598D01*
X146986058Y-77148559D01*
X147010343Y-77160038D01*
X147034143Y-77172034D01*
X147057458Y-77184548D01*
X147080287Y-77197579D01*
X147102630Y-77211127D01*
X147124489Y-77225193D01*
X147145861Y-77239777D01*
X147166749Y-77254878D01*
X147187151Y-77270497D01*
X147207067Y-77286633D01*
X147226498Y-77303286D01*
X147245444Y-77320457D01*
X147263904Y-77338146D01*
X147281879Y-77356352D01*
X147299279Y-77375030D01*
X147316161Y-77394133D01*
X147332526Y-77413663D01*
X147348374Y-77433618D01*
X147363704Y-77453999D01*
X147378517Y-77474807D01*
X147392812Y-77496040D01*
X147406589Y-77517699D01*
X147419849Y-77539784D01*
X147432592Y-77562294D01*
X147444817Y-77585231D01*
X147456525Y-77608594D01*
X147467715Y-77632382D01*
X147478387Y-77656597D01*
X147488543Y-77681237D01*
X147498180Y-77706303D01*
X147507266Y-77731731D01*
X147515766Y-77757457D01*
X147523679Y-77783480D01*
X147531006Y-77809801D01*
X147537748Y-77836420D01*
X147543903Y-77863336D01*
X147549471Y-77890550D01*
X147554454Y-77918062D01*
X147558850Y-77945871D01*
X147562660Y-77973978D01*
X147565884Y-78002383D01*
X147568522Y-78031085D01*
X147570574Y-78060085D01*
X147572039Y-78089383D01*
X147572919Y-78118978D01*
X147573212Y-78148871D01*
X147572932Y-78180550D01*
X147572094Y-78211840D01*
X147570697Y-78242740D01*
X147568742Y-78273252D01*
X147566228Y-78303374D01*
X147563155Y-78333107D01*
X147559523Y-78362450D01*
X147555333Y-78391404D01*
X147550584Y-78419969D01*
X147545276Y-78448145D01*
X147539410Y-78475931D01*
X147532985Y-78503329D01*
X147526001Y-78530336D01*
X147518459Y-78556955D01*
X147510357Y-78583184D01*
X147501697Y-78609025D01*
X147492421Y-78634434D01*
X147482619Y-78659372D01*
X147472290Y-78683838D01*
X147461434Y-78707833D01*
X147450051Y-78731356D01*
X147438142Y-78754407D01*
X147425707Y-78776987D01*
X147412744Y-78799094D01*
X147399255Y-78820731D01*
X147385239Y-78841895D01*
X147370697Y-78862588D01*
X147355628Y-78882809D01*
X147340032Y-78902558D01*
X147323910Y-78921836D01*
X147307261Y-78940642D01*
X147290085Y-78958976D01*
X147272324Y-78976811D01*
X147254063Y-78994119D01*
X147235302Y-79010901D01*
X147216043Y-79027156D01*
X147196285Y-79042885D01*
X147176027Y-79058086D01*
X147155270Y-79072762D01*
X147134014Y-79086910D01*
X147112259Y-79100532D01*
X147090005Y-79113627D01*
X147067251Y-79126196D01*
X147043998Y-79138238D01*
X147020247Y-79149753D01*
X146995996Y-79160742D01*
X146971245Y-79171204D01*
X146945996Y-79181139D01*
X146920257Y-79190509D01*
X146894036Y-79199274D01*
X146867335Y-79207435D01*
X146840153Y-79214991D01*
X146812491Y-79221943D01*
X146784347Y-79228290D01*
X146755722Y-79234033D01*
X146726617Y-79239171D01*
X146697031Y-79243705D01*
X146666964Y-79247634D01*
X146636416Y-79250959D01*
X146605387Y-79253679D01*
X146573878Y-79255795D01*
X146541887Y-79257306D01*
X146509416Y-79258213D01*
X146476464Y-79258515D01*
X146464482Y-79258473D01*
X146440728Y-79258134D01*
X146417253Y-79257456D01*
X146382564Y-79255804D01*
X146348505Y-79253390D01*
X146315073Y-79250212D01*
X146282270Y-79246273D01*
X146250096Y-79241571D01*
X146218551Y-79236106D01*
X146187633Y-79229879D01*
X146157345Y-79222890D01*
X146127685Y-79215138D01*
X146108185Y-79209516D01*
X146079451Y-79200612D01*
X146051334Y-79191141D01*
X146023837Y-79181103D01*
X145996957Y-79170498D01*
X145970695Y-79159327D01*
X145945052Y-79147589D01*
X145920027Y-79135285D01*
X145895620Y-79122413D01*
X145871832Y-79108975D01*
X145848662Y-79094970D01*
X145833481Y-79085262D01*
X145811207Y-79070286D01*
X145789531Y-79054817D01*
X145768452Y-79038852D01*
X145747971Y-79022393D01*
X145728088Y-79005440D01*
X145708802Y-78987992D01*
X145690114Y-78970049D01*
X145672024Y-78951612D01*
X145654531Y-78932680D01*
X145637636Y-78913254D01*
X145626695Y-78900067D01*
X145610748Y-78880020D01*
X145595357Y-78859654D01*
X145580523Y-78838969D01*
X145566245Y-78817964D01*
X145552524Y-78796640D01*
X145539359Y-78774997D01*
X145526750Y-78753034D01*
X145514698Y-78730751D01*
X145503202Y-78708150D01*
X145492263Y-78685228D01*
X145485196Y-78669788D01*
X145475026Y-78646431D01*
X145465371Y-78622837D01*
X145456232Y-78599005D01*
X145447607Y-78574937D01*
X145439498Y-78550631D01*
X145431904Y-78526089D01*
X145424825Y-78501310D01*
X145418262Y-78476293D01*
X145412213Y-78451040D01*
X145406680Y-78425549D01*
X145403202Y-78408463D01*
X145398405Y-78382782D01*
X145394114Y-78357039D01*
X145390327Y-78331235D01*
X145387045Y-78305368D01*
X145384268Y-78279440D01*
X145381996Y-78253450D01*
X145380229Y-78227398D01*
X145378967Y-78201284D01*
X145378807Y-78195766D01*
X145915487Y-78195766D01*
X145915615Y-78218501D01*
X145916288Y-78252131D01*
X145917538Y-78285195D01*
X145919365Y-78317692D01*
X145921770Y-78349623D01*
X145924751Y-78380986D01*
X145928309Y-78411783D01*
X145932445Y-78442013D01*
X145937157Y-78471677D01*
X145942446Y-78500774D01*
X145948313Y-78529304D01*
X145952553Y-78547897D01*
X145959430Y-78575168D01*
X145966924Y-78601697D01*
X145975037Y-78627485D01*
X145983768Y-78652530D01*
X145993117Y-78676834D01*
X146003084Y-78700396D01*
X146013670Y-78723216D01*
X146024874Y-78745294D01*
X146036696Y-78766630D01*
X146049136Y-78787224D01*
X146053383Y-78793883D01*
X146066520Y-78813309D01*
X146084967Y-78837929D01*
X146104476Y-78861083D01*
X146125047Y-78882772D01*
X146146681Y-78902995D01*
X146169377Y-78921753D01*
X146193136Y-78939046D01*
X146217957Y-78954872D01*
X146243703Y-78968886D01*
X146270530Y-78981031D01*
X146298438Y-78991307D01*
X146327427Y-78999715D01*
X146357496Y-79006255D01*
X146380757Y-79009934D01*
X146404626Y-79012561D01*
X146429104Y-79014138D01*
X146454189Y-79014663D01*
X146472935Y-79014409D01*
X146500462Y-79013075D01*
X146527278Y-79010596D01*
X146553383Y-79006975D01*
X146578778Y-79002209D01*
X146603461Y-78996300D01*
X146627433Y-78989247D01*
X146650694Y-78981050D01*
X146673245Y-78971709D01*
X146695084Y-78961225D01*
X146716212Y-78949597D01*
X146729837Y-78941248D01*
X146749706Y-78927918D01*
X146768896Y-78913620D01*
X146787405Y-78898353D01*
X146805234Y-78882117D01*
X146822384Y-78864913D01*
X146838853Y-78846740D01*
X146854642Y-78827599D01*
X146869751Y-78807489D01*
X146884180Y-78786410D01*
X146897929Y-78764363D01*
X146906651Y-78749154D01*
X146919192Y-78725637D01*
X146931085Y-78701275D01*
X146942328Y-78676068D01*
X146952923Y-78650016D01*
X146962868Y-78623119D01*
X146972164Y-78595378D01*
X146980810Y-78566791D01*
X146988808Y-78537359D01*
X146996156Y-78507083D01*
X147002856Y-78475961D01*
X147006902Y-78454705D01*
X147012481Y-78422246D01*
X147017474Y-78389096D01*
X147021879Y-78355256D01*
X147025696Y-78320726D01*
X147027915Y-78297322D01*
X147029873Y-78273611D01*
X147031570Y-78249594D01*
X147033005Y-78225269D01*
X147034180Y-78200638D01*
X147035094Y-78175700D01*
X147035746Y-78150456D01*
X147036138Y-78124904D01*
X147036268Y-78099046D01*
X147036154Y-78078241D01*
X147035553Y-78047325D01*
X147034436Y-78016760D01*
X147032805Y-77986545D01*
X147030658Y-77956681D01*
X147027996Y-77927167D01*
X147024819Y-77898003D01*
X147021127Y-77869190D01*
X147016920Y-77840727D01*
X147012197Y-77812614D01*
X147006959Y-77784852D01*
X147003156Y-77766607D01*
X146996927Y-77739789D01*
X146990070Y-77713630D01*
X146982584Y-77688131D01*
X146974469Y-77663292D01*
X146965726Y-77639112D01*
X146956355Y-77615591D01*
X146946355Y-77592730D01*
X146935726Y-77570528D01*
X146924469Y-77548986D01*
X146912584Y-77528103D01*
X146908446Y-77521260D01*
X146895621Y-77501267D01*
X146877559Y-77475860D01*
X146858398Y-77451881D01*
X146838138Y-77429332D01*
X146816779Y-77408211D01*
X146794321Y-77388519D01*
X146770764Y-77370255D01*
X146746108Y-77353421D01*
X146733264Y-77345613D01*
X146706575Y-77331508D01*
X146678548Y-77319418D01*
X146649184Y-77309343D01*
X146626283Y-77303109D01*
X146602630Y-77298008D01*
X146578225Y-77294041D01*
X146553068Y-77291208D01*
X146527159Y-77289508D01*
X146500497Y-77288941D01*
X146481895Y-77289190D01*
X146454576Y-77290501D01*
X146427957Y-77292934D01*
X146402039Y-77296491D01*
X146376822Y-77301171D01*
X146352305Y-77306973D01*
X146328489Y-77313899D01*
X146305374Y-77321949D01*
X146282959Y-77331121D01*
X146261245Y-77341416D01*
X146240232Y-77352835D01*
X146226603Y-77360959D01*
X146206710Y-77373935D01*
X146187475Y-77387859D01*
X146168901Y-77402731D01*
X146150986Y-77418551D01*
X146133730Y-77435319D01*
X146117133Y-77453035D01*
X146101197Y-77471699D01*
X146085919Y-77491311D01*
X146071301Y-77511871D01*
X146057343Y-77533379D01*
X146048337Y-77548233D01*
X146035404Y-77571261D01*
X146023161Y-77595185D01*
X146011609Y-77620005D01*
X146000746Y-77645722D01*
X145990575Y-77672336D01*
X145981093Y-77699846D01*
X145972302Y-77728252D01*
X145964202Y-77757555D01*
X145956791Y-77787754D01*
X145950071Y-77818850D01*
X145945883Y-77839969D01*
X145940108Y-77872256D01*
X145934941Y-77905275D01*
X145930381Y-77939026D01*
X145926429Y-77973509D01*
X145924133Y-77996903D01*
X145922106Y-78020623D01*
X145920350Y-78044668D01*
X145918864Y-78069038D01*
X145917648Y-78093733D01*
X145916702Y-78118754D01*
X145916027Y-78144099D01*
X145915622Y-78169770D01*
X145915487Y-78195766D01*
X145378807Y-78195766D01*
X145378209Y-78175109D01*
X145377957Y-78148871D01*
X145378216Y-78119688D01*
X145378992Y-78090757D01*
X145380286Y-78062077D01*
X145382097Y-78033650D01*
X145384426Y-78005474D01*
X145387272Y-77977550D01*
X145390635Y-77949878D01*
X145394517Y-77922458D01*
X145398915Y-77895290D01*
X145403831Y-77868373D01*
X145409265Y-77841709D01*
X145415216Y-77815296D01*
X145421685Y-77789136D01*
X145428671Y-77763227D01*
X145436175Y-77737570D01*
X145444196Y-77712165D01*
X145452677Y-77687096D01*
X145461708Y-77662449D01*
X145471288Y-77638223D01*
X145481418Y-77614419D01*
X145492098Y-77591036D01*
X145503327Y-77568074D01*
X145515105Y-77545533D01*
X145527434Y-77523414D01*
X145540311Y-77501716D01*
X145553739Y-77480439D01*
X145567715Y-77459584D01*
X145582242Y-77439150D01*
X145597318Y-77419138D01*
X145612943Y-77399546D01*
X145629118Y-77380376D01*
X145645842Y-77361628D01*
X145663114Y-77343341D01*
X145680931Y-77325559D01*
X145699293Y-77308280D01*
X145718199Y-77291505D01*
X145737651Y-77275234D01*
X145757648Y-77259467D01*
X145778189Y-77244203D01*
X145799276Y-77229443D01*
X145820907Y-77215187D01*
X145843084Y-77201435D01*
X145865805Y-77188186D01*
X145889072Y-77175441D01*
X145912883Y-77163200D01*
X145937239Y-77151463D01*
X145962141Y-77140229D01*
X145987587Y-77129499D01*
X146013528Y-77119278D01*
X146040060Y-77109715D01*
X146067182Y-77100813D01*
X146094895Y-77092570D01*
X146123199Y-77084986D01*
X146152094Y-77078062D01*
X146181579Y-77071797D01*
X146211655Y-77066191D01*
X146242322Y-77061245D01*
X146273580Y-77056959D01*
X146305429Y-77053332D01*
X146337868Y-77050364D01*
X146370898Y-77048056D01*
X146404519Y-77046408D01*
X146438730Y-77045419D01*
X146473533Y-77045089D01*
X146505564Y-77045409D01*
G37*
G36*
X144315794Y-79258515D02*
G01*
X144342361Y-79258229D01*
X144369672Y-79257370D01*
X144397728Y-79255939D01*
X144426527Y-79253936D01*
X144450103Y-79251921D01*
X144474155Y-79249539D01*
X144498683Y-79246792D01*
X144523495Y-79243751D01*
X144548398Y-79240490D01*
X144573394Y-79237010D01*
X144598480Y-79233309D01*
X144623659Y-79229389D01*
X144648929Y-79225249D01*
X144674290Y-79220890D01*
X144699743Y-79216310D01*
X144725233Y-79211410D01*
X144750705Y-79206382D01*
X144776158Y-79201225D01*
X144801593Y-79195940D01*
X144827009Y-79190527D01*
X144852407Y-79184986D01*
X144877787Y-79179316D01*
X144903149Y-79173519D01*
X144928300Y-79167629D01*
X144953048Y-79161685D01*
X144977393Y-79155686D01*
X145001334Y-79149632D01*
X145024873Y-79143523D01*
X145048009Y-79137359D01*
X145070742Y-79131140D01*
X145093072Y-79124866D01*
X145101865Y-78508201D01*
X144902563Y-78508201D01*
X144814049Y-78790155D01*
X144802165Y-78811107D01*
X144801153Y-78812430D01*
X144785445Y-78830895D01*
X144782981Y-78833533D01*
X144765401Y-78850150D01*
X144763637Y-78851704D01*
X144746052Y-78865773D01*
X144725572Y-78877716D01*
X144702821Y-78890099D01*
X144681050Y-78901295D01*
X144657541Y-78912828D01*
X144650504Y-78916184D01*
X144628797Y-78925932D01*
X144606760Y-78935391D01*
X144584394Y-78944562D01*
X144561697Y-78953444D01*
X144538671Y-78962037D01*
X144530923Y-78964838D01*
X144507601Y-78972703D01*
X144484239Y-78980033D01*
X144460835Y-78986826D01*
X144437390Y-78993084D01*
X144413904Y-78998806D01*
X144406066Y-79000595D01*
X144382696Y-79005376D01*
X144356370Y-79009703D01*
X144331053Y-79012685D01*
X144306746Y-79014320D01*
X144290002Y-79014663D01*
X144266234Y-79014324D01*
X144237271Y-79012948D01*
X144209138Y-79010512D01*
X144181835Y-79007017D01*
X144155363Y-79002463D01*
X144129720Y-78996850D01*
X144114733Y-78992974D01*
X144090364Y-78985724D01*
X144067083Y-78977530D01*
X144044889Y-78968391D01*
X144019692Y-78956177D01*
X143996062Y-78942603D01*
X143977566Y-78930253D01*
X143956731Y-78914130D01*
X143937752Y-78896978D01*
X143920626Y-78878795D01*
X143905356Y-78859581D01*
X143891940Y-78839337D01*
X143887880Y-78832360D01*
X143877123Y-78810763D01*
X143868591Y-78788177D01*
X143862285Y-78764601D01*
X143858205Y-78740036D01*
X143856350Y-78714483D01*
X143856226Y-78705745D01*
X143857180Y-78679430D01*
X143860041Y-78654855D01*
X143865646Y-78628898D01*
X143873743Y-78605212D01*
X143876157Y-78599646D01*
X143886964Y-78578103D01*
X143900043Y-78558027D01*
X143915394Y-78539415D01*
X143933016Y-78522270D01*
X143952763Y-78506040D01*
X143974489Y-78490762D01*
X143995121Y-78478176D01*
X144017269Y-78466319D01*
X144023875Y-78463065D01*
X144047885Y-78451753D01*
X144069537Y-78442012D01*
X144092179Y-78432230D01*
X144115809Y-78422407D01*
X144140429Y-78412543D01*
X144144628Y-78410895D01*
X144168190Y-78401649D01*
X144191834Y-78392815D01*
X144215561Y-78384393D01*
X144239370Y-78376383D01*
X144263262Y-78368786D01*
X144271244Y-78366345D01*
X144295122Y-78359132D01*
X144318834Y-78352002D01*
X144342383Y-78344954D01*
X144365766Y-78337988D01*
X144388984Y-78331105D01*
X144396687Y-78328829D01*
X144419768Y-78322015D01*
X144442849Y-78315200D01*
X144465930Y-78308386D01*
X144489011Y-78301572D01*
X144512092Y-78294757D01*
X144519785Y-78292486D01*
X144542763Y-78285328D01*
X144565535Y-78277923D01*
X144588101Y-78270270D01*
X144610460Y-78262371D01*
X144632614Y-78254224D01*
X144639953Y-78251453D01*
X144662851Y-78242257D01*
X144685235Y-78232549D01*
X144707107Y-78222327D01*
X144728466Y-78211593D01*
X144749312Y-78200345D01*
X144769646Y-78188585D01*
X144794341Y-78173163D01*
X144808773Y-78163526D01*
X144831874Y-78146807D01*
X144853916Y-78129259D01*
X144874899Y-78110881D01*
X144894823Y-78091672D01*
X144913688Y-78071634D01*
X144931494Y-78050766D01*
X144938320Y-78042186D01*
X144954571Y-78019972D01*
X144969621Y-77996928D01*
X144983468Y-77973055D01*
X144996114Y-77948351D01*
X145007557Y-77922817D01*
X145017798Y-77896453D01*
X145021558Y-77885675D01*
X145030001Y-77857923D01*
X145035726Y-77835062D01*
X145040534Y-77811614D01*
X145044427Y-77787581D01*
X145047404Y-77762961D01*
X145049464Y-77737755D01*
X145050609Y-77711963D01*
X145050867Y-77692235D01*
X145050381Y-77668082D01*
X145048925Y-77644278D01*
X145046498Y-77620821D01*
X145042099Y-77591990D01*
X145036183Y-77563703D01*
X145028749Y-77535959D01*
X145019799Y-77508759D01*
X145009306Y-77482189D01*
X144997611Y-77456335D01*
X144984714Y-77431196D01*
X144970615Y-77406773D01*
X144955313Y-77383065D01*
X144938810Y-77360073D01*
X144931872Y-77351076D01*
X144913757Y-77329072D01*
X144894583Y-77307754D01*
X144874350Y-77287123D01*
X144853058Y-77267179D01*
X144835262Y-77251718D01*
X144816788Y-77236697D01*
X144797636Y-77222116D01*
X144777779Y-77208038D01*
X144757482Y-77194529D01*
X144736746Y-77181587D01*
X144715570Y-77169213D01*
X144693955Y-77157407D01*
X144671900Y-77146169D01*
X144649405Y-77135498D01*
X144626471Y-77125396D01*
X144602987Y-77115870D01*
X144579136Y-77106931D01*
X144554920Y-77098578D01*
X144530337Y-77090811D01*
X144505387Y-77083630D01*
X144480071Y-77077036D01*
X144454389Y-77071027D01*
X144428341Y-77065605D01*
X144401880Y-77060797D01*
X144375255Y-77056629D01*
X144348464Y-77053103D01*
X144321509Y-77050218D01*
X144294389Y-77047974D01*
X144267104Y-77046371D01*
X144239654Y-77045409D01*
X144212039Y-77045089D01*
X144188363Y-77045217D01*
X144164522Y-77045602D01*
X144140516Y-77046243D01*
X144116345Y-77047140D01*
X144092009Y-77048295D01*
X144067509Y-77049705D01*
X144042843Y-77051372D01*
X144018013Y-77053295D01*
X143993036Y-77055301D01*
X143968224Y-77057509D01*
X143943577Y-77059917D01*
X143919094Y-77062528D01*
X143894777Y-77065340D01*
X143870624Y-77068353D01*
X143846637Y-77071568D01*
X143822814Y-77074984D01*
X143799083Y-77078400D01*
X143775663Y-77081908D01*
X143746826Y-77086422D01*
X143718476Y-77091079D01*
X143690612Y-77095879D01*
X143663235Y-77100822D01*
X143641683Y-77104879D01*
X143615354Y-77109994D01*
X143589854Y-77115080D01*
X143565185Y-77120138D01*
X143541345Y-77125167D01*
X143518336Y-77130167D01*
X143491820Y-77136130D01*
X143487517Y-77137120D01*
X143487517Y-77720371D01*
X143685061Y-77720371D01*
X143770644Y-77462451D01*
X143781635Y-77441348D01*
X143798061Y-77422629D01*
X143799367Y-77421418D01*
X143817270Y-77406063D01*
X143836358Y-77392361D01*
X143838641Y-77390937D01*
X143860028Y-77379588D01*
X143883264Y-77368625D01*
X143903121Y-77359869D01*
X143927413Y-77349879D01*
X143950484Y-77341389D01*
X143974948Y-77333265D01*
X143997496Y-77326457D01*
X144020718Y-77319785D01*
X144044219Y-77313618D01*
X144068001Y-77307956D01*
X144092064Y-77302799D01*
X144105940Y-77300078D01*
X144129766Y-77295739D01*
X144153032Y-77292465D01*
X144178934Y-77290029D01*
X144204103Y-77288984D01*
X144210281Y-77288941D01*
X144238482Y-77289513D01*
X144265567Y-77291231D01*
X144291536Y-77294093D01*
X144316389Y-77298100D01*
X144340125Y-77303252D01*
X144362746Y-77309549D01*
X144371481Y-77312388D01*
X144396458Y-77321655D01*
X144419951Y-77331870D01*
X144441960Y-77343032D01*
X144462486Y-77355143D01*
X144484557Y-77370470D01*
X144487545Y-77372765D01*
X144506940Y-77389254D01*
X144524090Y-77406922D01*
X144538996Y-77425767D01*
X144551659Y-77445791D01*
X144557887Y-77457762D01*
X144568145Y-77481795D01*
X144575473Y-77505829D01*
X144579869Y-77529862D01*
X144581334Y-77553896D01*
X144580455Y-77579248D01*
X144577817Y-77603721D01*
X144573421Y-77627315D01*
X144567266Y-77650030D01*
X144557354Y-77674203D01*
X144545740Y-77694756D01*
X144531488Y-77714429D01*
X144516854Y-77730923D01*
X144497327Y-77749058D01*
X144478017Y-77764385D01*
X144456631Y-77779207D01*
X144436648Y-77791510D01*
X144422479Y-77799506D01*
X144399487Y-77811294D01*
X144374476Y-77822917D01*
X144352091Y-77832477D01*
X144328303Y-77841922D01*
X144303112Y-77851253D01*
X144276519Y-77860469D01*
X144254180Y-77867661D01*
X144228326Y-77875896D01*
X144202697Y-77883962D01*
X144177292Y-77891860D01*
X144159283Y-77897399D01*
X144133810Y-77905120D01*
X144108168Y-77912898D01*
X144082358Y-77920732D01*
X144056380Y-77928622D01*
X144041460Y-77933156D01*
X144018778Y-77939853D01*
X143996013Y-77946757D01*
X143973165Y-77953867D01*
X143950235Y-77961183D01*
X143927223Y-77968705D01*
X143919534Y-77971258D01*
X143896185Y-77979157D01*
X143872301Y-77987469D01*
X143847880Y-77996193D01*
X143822924Y-78005330D01*
X143797432Y-78014878D01*
X143788815Y-78018152D01*
X143762806Y-78029063D01*
X143737169Y-78040546D01*
X143711905Y-78052602D01*
X143687012Y-78065230D01*
X143662491Y-78078431D01*
X143638343Y-78092204D01*
X143628787Y-78097873D01*
X143605234Y-78112634D01*
X143582568Y-78128339D01*
X143560790Y-78144988D01*
X143539898Y-78162582D01*
X143519894Y-78181121D01*
X143500777Y-78200604D01*
X143493379Y-78208662D01*
X143475648Y-78229384D01*
X143459090Y-78251252D01*
X143443705Y-78274264D01*
X143429494Y-78298421D01*
X143416457Y-78323723D01*
X143404593Y-78350170D01*
X143400176Y-78361069D01*
X143392070Y-78383472D01*
X143385045Y-78406718D01*
X143379101Y-78430807D01*
X143374237Y-78455738D01*
X143370455Y-78481512D01*
X143367753Y-78508128D01*
X143366132Y-78535587D01*
X143365591Y-78563889D01*
X143366101Y-78589504D01*
X143367631Y-78614914D01*
X143370182Y-78640117D01*
X143373752Y-78665115D01*
X143378342Y-78689906D01*
X143383953Y-78714492D01*
X143390584Y-78738871D01*
X143398234Y-78763044D01*
X143406905Y-78787011D01*
X143416596Y-78810772D01*
X143423623Y-78826498D01*
X143434920Y-78849767D01*
X143447268Y-78872530D01*
X143460666Y-78894788D01*
X143475116Y-78916542D01*
X143490617Y-78937790D01*
X143507168Y-78958534D01*
X143524771Y-78978773D01*
X143543424Y-78998506D01*
X143563129Y-79017735D01*
X143583885Y-79036460D01*
X143598306Y-79048662D01*
X143620829Y-79066342D01*
X143644433Y-79083331D01*
X143669120Y-79099630D01*
X143694889Y-79115239D01*
X143721739Y-79130158D01*
X143749672Y-79144386D01*
X143778686Y-79157924D01*
X143808782Y-79170771D01*
X143839960Y-79182928D01*
X143872220Y-79194395D01*
X143894328Y-79201655D01*
X143916857Y-79208541D01*
X143939895Y-79214982D01*
X143963441Y-79220979D01*
X143987495Y-79226532D01*
X144012057Y-79231640D01*
X144037128Y-79236304D01*
X144062707Y-79240524D01*
X144088794Y-79244300D01*
X144115390Y-79247632D01*
X144142494Y-79250519D01*
X144170107Y-79252962D01*
X144198227Y-79254961D01*
X144226856Y-79256516D01*
X144255994Y-79257627D01*
X144285640Y-79258293D01*
X144315794Y-79258515D01*
G37*
G36*
X143154565Y-78869876D02*
G01*
X143154565Y-79136589D01*
X142101195Y-79136589D01*
X142101195Y-79483023D01*
X142104112Y-79506152D01*
X142116436Y-79526987D01*
X142117364Y-79527899D01*
X142136817Y-79542360D01*
X142158055Y-79552779D01*
X142336840Y-79624293D01*
X142336840Y-79746219D01*
X141391327Y-79746219D01*
X141391327Y-79624293D01*
X141564251Y-79552779D01*
X141565925Y-79552079D01*
X141586955Y-79541565D01*
X141606457Y-79526987D01*
X141617891Y-79507572D01*
X141621111Y-79483023D01*
X141621111Y-79136589D01*
X141248885Y-79136589D01*
X141248885Y-78883358D01*
X141621111Y-78883358D01*
X141621111Y-77998222D01*
X142084782Y-77998222D01*
X142101195Y-78259073D01*
X142101195Y-78883358D01*
X142629346Y-78883358D01*
X142836854Y-78883358D01*
X142836854Y-78859911D01*
X142107057Y-77998222D01*
X142084782Y-77998222D01*
X141621111Y-77998222D01*
X141621111Y-77495277D01*
X142005061Y-77495277D01*
X143154565Y-78869876D01*
G37*
G36*
X140999757Y-78927908D02*
G01*
X140968630Y-78909288D01*
X140937970Y-78890942D01*
X140907777Y-78872871D01*
X140878051Y-78855075D01*
X140848792Y-78837553D01*
X140820001Y-78820307D01*
X140791676Y-78803335D01*
X140763819Y-78786638D01*
X140736428Y-78770216D01*
X140709505Y-78754068D01*
X140683049Y-78738196D01*
X140657060Y-78722598D01*
X140631538Y-78707274D01*
X140606484Y-78692226D01*
X140581896Y-78677452D01*
X140557775Y-78662953D01*
X140534063Y-78648629D01*
X140510844Y-78634377D01*
X140488120Y-78620199D01*
X140465891Y-78606094D01*
X140444157Y-78592062D01*
X140422917Y-78578103D01*
X140402171Y-78564218D01*
X140381921Y-78550406D01*
X140362164Y-78536668D01*
X140342903Y-78523002D01*
X140314938Y-78502642D01*
X140288086Y-78482446D01*
X140262346Y-78462415D01*
X140237720Y-78442549D01*
X140214206Y-78422624D01*
X140191805Y-78402638D01*
X140170517Y-78382590D01*
X140150342Y-78362480D01*
X140131279Y-78342308D01*
X140113330Y-78322074D01*
X140096493Y-78301779D01*
X140080769Y-78281422D01*
X140066158Y-78261003D01*
X140052660Y-78240522D01*
X140044279Y-78226833D01*
X140032651Y-78206033D01*
X140022167Y-78184738D01*
X140012826Y-78162949D01*
X140004630Y-78140665D01*
X139997576Y-78117886D01*
X139991667Y-78094613D01*
X139986902Y-78070845D01*
X139983280Y-78046582D01*
X139980802Y-78021825D01*
X139979467Y-77996573D01*
X139979213Y-77979464D01*
X139979831Y-77951740D01*
X139981686Y-77924839D01*
X139984777Y-77898763D01*
X139989105Y-77873512D01*
X139994669Y-77849084D01*
X139996799Y-77841125D01*
X140003833Y-77817824D01*
X140012186Y-77795842D01*
X140023598Y-77771864D01*
X140036806Y-77749681D01*
X140049555Y-77732095D01*
X140066040Y-77713073D01*
X140084208Y-77696015D01*
X140104060Y-77680920D01*
X140125594Y-77667789D01*
X140138655Y-77661167D01*
X140162890Y-77651346D01*
X140188920Y-77643936D01*
X140212660Y-77639506D01*
X140237720Y-77636847D01*
X140264098Y-77635961D01*
X140288534Y-77637213D01*
X140314361Y-77640969D01*
X140338486Y-77646409D01*
X140357301Y-77651788D01*
X140379837Y-77658989D01*
X140402822Y-77667255D01*
X140426255Y-77676588D01*
X140450138Y-77686987D01*
X140463986Y-77693407D01*
X140488233Y-77705228D01*
X140509240Y-77715807D01*
X140530452Y-77726798D01*
X140551871Y-77738201D01*
X140573495Y-77750016D01*
X140577120Y-77752025D01*
X140598476Y-77764198D01*
X140619462Y-77776535D01*
X140640077Y-77789037D01*
X140660321Y-77801704D01*
X140680194Y-77814536D01*
X140686736Y-77818850D01*
X140708995Y-77833897D01*
X140730638Y-77848775D01*
X140751663Y-77863485D01*
X140772071Y-77878027D01*
X140783456Y-77886261D01*
X140802530Y-77900314D01*
X140822680Y-77915619D01*
X140843247Y-77931874D01*
X140859660Y-77945466D01*
X140949932Y-77945466D01*
X140965173Y-77549792D01*
X140941176Y-77539278D01*
X140917834Y-77529176D01*
X140896086Y-77519847D01*
X140872730Y-77509900D01*
X140852039Y-77501139D01*
X140830106Y-77492220D01*
X140807171Y-77483416D01*
X140783234Y-77474726D01*
X140758296Y-77466151D01*
X140732356Y-77457691D01*
X140705413Y-77449344D01*
X140694356Y-77446038D01*
X140671623Y-77439572D01*
X140648267Y-77433362D01*
X140624289Y-77427408D01*
X140599688Y-77421711D01*
X140574463Y-77416271D01*
X140548616Y-77411087D01*
X140522147Y-77406159D01*
X140495054Y-77401488D01*
X140467375Y-77397092D01*
X140439147Y-77393281D01*
X140410369Y-77390057D01*
X140381041Y-77387420D01*
X140351164Y-77385368D01*
X140320738Y-77383903D01*
X140289762Y-77383023D01*
X140266169Y-77382748D01*
X140258236Y-77382730D01*
X140227417Y-77383024D01*
X140196948Y-77383905D01*
X140166829Y-77385373D01*
X140137061Y-77387429D01*
X140107643Y-77390072D01*
X140078576Y-77393302D01*
X140049858Y-77397120D01*
X140021491Y-77401525D01*
X139993475Y-77406517D01*
X139965809Y-77412097D01*
X139947559Y-77416143D01*
X139920631Y-77422691D01*
X139894363Y-77429806D01*
X139868754Y-77437487D01*
X139843805Y-77445736D01*
X139819515Y-77454551D01*
X139795884Y-77463932D01*
X139772913Y-77473881D01*
X139750602Y-77484396D01*
X139728950Y-77495478D01*
X139707957Y-77507127D01*
X139694328Y-77515207D01*
X139674397Y-77527701D01*
X139649072Y-77545273D01*
X139625176Y-77563889D01*
X139602708Y-77583549D01*
X139581670Y-77604253D01*
X139562060Y-77626001D01*
X139543880Y-77648794D01*
X139527128Y-77672630D01*
X139523163Y-77678752D01*
X139508325Y-77703876D01*
X139495466Y-77730007D01*
X139484585Y-77757145D01*
X139475682Y-77785291D01*
X139468758Y-77814445D01*
X139463812Y-77844606D01*
X139460844Y-77875774D01*
X139459917Y-77899812D01*
X139459855Y-77907950D01*
X139460313Y-77934475D01*
X139461687Y-77960413D01*
X139463977Y-77985766D01*
X139467182Y-78010532D01*
X139471304Y-78034712D01*
X139476341Y-78058306D01*
X139482295Y-78081314D01*
X139489164Y-78103735D01*
X139498982Y-78130955D01*
X139510116Y-78157659D01*
X139522566Y-78183849D01*
X139536334Y-78209523D01*
X139548295Y-78229691D01*
X139561100Y-78249530D01*
X139574747Y-78269039D01*
X139589255Y-78288227D01*
X139604642Y-78307104D01*
X139620909Y-78325669D01*
X139638055Y-78343923D01*
X139656080Y-78361866D01*
X139674984Y-78379497D01*
X139694768Y-78396817D01*
X139715431Y-78413826D01*
X139736790Y-78430688D01*
X139758955Y-78447568D01*
X139781926Y-78464466D01*
X139805703Y-78481383D01*
X139830286Y-78498318D01*
X139855675Y-78515272D01*
X139881870Y-78532244D01*
X139902045Y-78544985D01*
X139908871Y-78549234D01*
X139929541Y-78561910D01*
X139950664Y-78574657D01*
X139972241Y-78587477D01*
X139994271Y-78600369D01*
X140016754Y-78613333D01*
X140039691Y-78626370D01*
X140063081Y-78639478D01*
X140086924Y-78652659D01*
X140111221Y-78665911D01*
X140135971Y-78679236D01*
X140152723Y-78688159D01*
X140178093Y-78701551D01*
X140203865Y-78715128D01*
X140230039Y-78728891D01*
X140256615Y-78742839D01*
X140283592Y-78756973D01*
X140310972Y-78771292D01*
X140338753Y-78785797D01*
X140366936Y-78800487D01*
X140395521Y-78815362D01*
X140424508Y-78830423D01*
X140444056Y-78840567D01*
X140444056Y-78863428D01*
X140190825Y-78836464D01*
X139672639Y-78836464D01*
X139647628Y-78833561D01*
X139625259Y-78823000D01*
X139620469Y-78818878D01*
X139605494Y-78800202D01*
X139595236Y-78778820D01*
X139593505Y-78773742D01*
X139530197Y-78573854D01*
X139353170Y-78573854D01*
X139362549Y-79221000D01*
X140999757Y-79221000D01*
X140999757Y-78927908D01*
G37*
D12*
X153103621Y-73473309D02*
X153341716Y-73473309D01*
X153341716Y-73473309D02*
X153365525Y-73711404D01*
X153365525Y-73711404D02*
X153341716Y-73687595D01*
X153341716Y-73687595D02*
X153294097Y-73663785D01*
X153294097Y-73663785D02*
X153175049Y-73663785D01*
X153175049Y-73663785D02*
X153127430Y-73687595D01*
X153127430Y-73687595D02*
X153103621Y-73711404D01*
X153103621Y-73711404D02*
X153079811Y-73759023D01*
X153079811Y-73759023D02*
X153079811Y-73878071D01*
X153079811Y-73878071D02*
X153103621Y-73925690D01*
X153103621Y-73925690D02*
X153127430Y-73949500D01*
X153127430Y-73949500D02*
X153175049Y-73973309D01*
X153175049Y-73973309D02*
X153294097Y-73973309D01*
X153294097Y-73973309D02*
X153341716Y-73949500D01*
X153341716Y-73949500D02*
X153365525Y-73925690D01*
X152936954Y-73473309D02*
X152770288Y-73973309D01*
X152770288Y-73973309D02*
X152603621Y-73473309D01*
X136244335Y-73346309D02*
X135934811Y-73346309D01*
X135934811Y-73346309D02*
X136101478Y-73536785D01*
X136101478Y-73536785D02*
X136030049Y-73536785D01*
X136030049Y-73536785D02*
X135982430Y-73560595D01*
X135982430Y-73560595D02*
X135958621Y-73584404D01*
X135958621Y-73584404D02*
X135934811Y-73632023D01*
X135934811Y-73632023D02*
X135934811Y-73751071D01*
X135934811Y-73751071D02*
X135958621Y-73798690D01*
X135958621Y-73798690D02*
X135982430Y-73822500D01*
X135982430Y-73822500D02*
X136030049Y-73846309D01*
X136030049Y-73846309D02*
X136172906Y-73846309D01*
X136172906Y-73846309D02*
X136220525Y-73822500D01*
X136220525Y-73822500D02*
X136244335Y-73798690D01*
X135720526Y-73798690D02*
X135696716Y-73822500D01*
X135696716Y-73822500D02*
X135720526Y-73846309D01*
X135720526Y-73846309D02*
X135744335Y-73822500D01*
X135744335Y-73822500D02*
X135720526Y-73798690D01*
X135720526Y-73798690D02*
X135720526Y-73846309D01*
X135530050Y-73346309D02*
X135220526Y-73346309D01*
X135220526Y-73346309D02*
X135387193Y-73536785D01*
X135387193Y-73536785D02*
X135315764Y-73536785D01*
X135315764Y-73536785D02*
X135268145Y-73560595D01*
X135268145Y-73560595D02*
X135244336Y-73584404D01*
X135244336Y-73584404D02*
X135220526Y-73632023D01*
X135220526Y-73632023D02*
X135220526Y-73751071D01*
X135220526Y-73751071D02*
X135244336Y-73798690D01*
X135244336Y-73798690D02*
X135268145Y-73822500D01*
X135268145Y-73822500D02*
X135315764Y-73846309D01*
X135315764Y-73846309D02*
X135458621Y-73846309D01*
X135458621Y-73846309D02*
X135506240Y-73822500D01*
X135506240Y-73822500D02*
X135530050Y-73798690D01*
X135077669Y-73346309D02*
X134911003Y-73846309D01*
X134911003Y-73846309D02*
X134744336Y-73346309D01*
D10*
G36*
X149103828Y-93197062D02*
G01*
X149115826Y-93197377D01*
X149127680Y-93197901D01*
X149139391Y-93198636D01*
X149150959Y-93199581D01*
X149162384Y-93200735D01*
X149173666Y-93202099D01*
X149184805Y-93203674D01*
X149195801Y-93205458D01*
X149206653Y-93207452D01*
X149217363Y-93209656D01*
X149227929Y-93212069D01*
X149238353Y-93214693D01*
X149248633Y-93217527D01*
X149258770Y-93220570D01*
X149268764Y-93223824D01*
X149278627Y-93227254D01*
X149288311Y-93230888D01*
X149297815Y-93234726D01*
X149307140Y-93238768D01*
X149316286Y-93243015D01*
X149325252Y-93247466D01*
X149334039Y-93252121D01*
X149342647Y-93256980D01*
X149351075Y-93262043D01*
X149359324Y-93267310D01*
X149371361Y-93275594D01*
X149382995Y-93284338D01*
X149394225Y-93293540D01*
X149405051Y-93303203D01*
X149412064Y-93309866D01*
X149422203Y-93320233D01*
X149431887Y-93331046D01*
X149441117Y-93342306D01*
X149449891Y-93354013D01*
X149455487Y-93362065D01*
X149460882Y-93370316D01*
X149466074Y-93378765D01*
X149471063Y-93387413D01*
X149475851Y-93396259D01*
X149480436Y-93405304D01*
X149484819Y-93414547D01*
X149489000Y-93423988D01*
X149492979Y-93433628D01*
X149496735Y-93443506D01*
X149500249Y-93453660D01*
X149503520Y-93464091D01*
X149506549Y-93474798D01*
X149509336Y-93485783D01*
X149511881Y-93497044D01*
X149514183Y-93508581D01*
X149516243Y-93520396D01*
X149518060Y-93532486D01*
X149519635Y-93544854D01*
X149520968Y-93557498D01*
X149522059Y-93570420D01*
X149522907Y-93583617D01*
X149523513Y-93597092D01*
X149523876Y-93610843D01*
X149523997Y-93624870D01*
X149523997Y-93811716D01*
X149523263Y-93818663D01*
X149520000Y-93828165D01*
X149514716Y-93837117D01*
X149509908Y-93842161D01*
X149500443Y-93847218D01*
X149490674Y-93849443D01*
X149480522Y-93850062D01*
X148676475Y-93850062D01*
X148669071Y-93849746D01*
X148658813Y-93847926D01*
X148649608Y-93843944D01*
X148642281Y-93837117D01*
X148638664Y-93831394D01*
X148634531Y-93821800D01*
X148633000Y-93811716D01*
X148633000Y-93766287D01*
X148695526Y-93766287D01*
X149461471Y-93766287D01*
X149461471Y-93629511D01*
X149461362Y-93617555D01*
X149461032Y-93605865D01*
X149460484Y-93594443D01*
X149459716Y-93583288D01*
X149458728Y-93572400D01*
X149457521Y-93561779D01*
X149456095Y-93551426D01*
X149454449Y-93541339D01*
X149452584Y-93531520D01*
X149450499Y-93521968D01*
X149446961Y-93508140D01*
X149442929Y-93494914D01*
X149438403Y-93482289D01*
X149433383Y-93470265D01*
X149429787Y-93462534D01*
X149424075Y-93451256D01*
X149417981Y-93440360D01*
X149411504Y-93429847D01*
X149404646Y-93419715D01*
X149397405Y-93409966D01*
X149389782Y-93400598D01*
X149381777Y-93391613D01*
X149373390Y-93383010D01*
X149364621Y-93374789D01*
X149355470Y-93366950D01*
X149349167Y-93361905D01*
X149339434Y-93354652D01*
X149329366Y-93347777D01*
X149318964Y-93341280D01*
X149308226Y-93335160D01*
X149297154Y-93329419D01*
X149285746Y-93324055D01*
X149274004Y-93319069D01*
X149261927Y-93314461D01*
X149249515Y-93310230D01*
X149236768Y-93306378D01*
X149228143Y-93304012D01*
X149215034Y-93300749D01*
X149201719Y-93297829D01*
X149188198Y-93295253D01*
X149174471Y-93293021D01*
X149160537Y-93291132D01*
X149146398Y-93289586D01*
X149132053Y-93288384D01*
X149117501Y-93287525D01*
X149107685Y-93287144D01*
X149097778Y-93286915D01*
X149087780Y-93286838D01*
X149081442Y-93286859D01*
X149068930Y-93287023D01*
X149056638Y-93287351D01*
X149044565Y-93287843D01*
X149032711Y-93288500D01*
X149021077Y-93289320D01*
X149009663Y-93290305D01*
X148998468Y-93291454D01*
X148987492Y-93292766D01*
X148976736Y-93294243D01*
X148966199Y-93295884D01*
X148955882Y-93297689D01*
X148945784Y-93299659D01*
X148935905Y-93301792D01*
X148926246Y-93304089D01*
X148912169Y-93307843D01*
X148903077Y-93310551D01*
X148889803Y-93314920D01*
X148876968Y-93319658D01*
X148864570Y-93324766D01*
X148852610Y-93330243D01*
X148841088Y-93336089D01*
X148830004Y-93342304D01*
X148819358Y-93348889D01*
X148809150Y-93355843D01*
X148799380Y-93363166D01*
X148790048Y-93370858D01*
X148784101Y-93376161D01*
X148775549Y-93384422D01*
X148767440Y-93393053D01*
X148759773Y-93402054D01*
X148752548Y-93411423D01*
X148745765Y-93421162D01*
X148739425Y-93431270D01*
X148733526Y-93441747D01*
X148728070Y-93452593D01*
X148723056Y-93463809D01*
X148718484Y-93475394D01*
X148717072Y-93479344D01*
X148713104Y-93491525D01*
X148709539Y-93504200D01*
X148706377Y-93517368D01*
X148703620Y-93531030D01*
X148701265Y-93545186D01*
X148699920Y-93554898D01*
X148698754Y-93564829D01*
X148697768Y-93574979D01*
X148696961Y-93585349D01*
X148696333Y-93595938D01*
X148695884Y-93606747D01*
X148695615Y-93617775D01*
X148695526Y-93629023D01*
X148695526Y-93766287D01*
X148633000Y-93766287D01*
X148633000Y-93636594D01*
X148633115Y-93622704D01*
X148633461Y-93609059D01*
X148634038Y-93595661D01*
X148634847Y-93582510D01*
X148635886Y-93569604D01*
X148637155Y-93556944D01*
X148638656Y-93544531D01*
X148640388Y-93532363D01*
X148642350Y-93520442D01*
X148644544Y-93508767D01*
X148646968Y-93497338D01*
X148649623Y-93486156D01*
X148652509Y-93475219D01*
X148655626Y-93464529D01*
X148658974Y-93454085D01*
X148662553Y-93443886D01*
X148666358Y-93433883D01*
X148670384Y-93424084D01*
X148674631Y-93414489D01*
X148679100Y-93405098D01*
X148683791Y-93395911D01*
X148688702Y-93386928D01*
X148693835Y-93378150D01*
X148699189Y-93369576D01*
X148704765Y-93361205D01*
X148710562Y-93353040D01*
X148716580Y-93345078D01*
X148722820Y-93337320D01*
X148729281Y-93329767D01*
X148735963Y-93322418D01*
X148742867Y-93315273D01*
X148749992Y-93308332D01*
X148757336Y-93301567D01*
X148764898Y-93295013D01*
X148772678Y-93288668D01*
X148780675Y-93282534D01*
X148788889Y-93276609D01*
X148797322Y-93270894D01*
X148805971Y-93265389D01*
X148814838Y-93260094D01*
X148823923Y-93255008D01*
X148833225Y-93250133D01*
X148842745Y-93245468D01*
X148852482Y-93241012D01*
X148862437Y-93236767D01*
X148872609Y-93232731D01*
X148882999Y-93228905D01*
X148893607Y-93225289D01*
X148904427Y-93221858D01*
X148915455Y-93218649D01*
X148926691Y-93215661D01*
X148938135Y-93212894D01*
X148949787Y-93210348D01*
X148961647Y-93208024D01*
X148973715Y-93205921D01*
X148985991Y-93204040D01*
X148998476Y-93202380D01*
X149011168Y-93200941D01*
X149024068Y-93199724D01*
X149037176Y-93198728D01*
X149050492Y-93197953D01*
X149064016Y-93197400D01*
X149077748Y-93197068D01*
X149091688Y-93196957D01*
X149103828Y-93197062D01*
G37*
G36*
X148664018Y-92524556D02*
G01*
X148654018Y-92525313D01*
X148650585Y-92526022D01*
X148641340Y-92530029D01*
X148640815Y-92530418D01*
X148634953Y-92537745D01*
X148633000Y-92546538D01*
X148633000Y-92962728D01*
X148634531Y-92972812D01*
X148638664Y-92982406D01*
X148642281Y-92988129D01*
X148649608Y-92994956D01*
X148658813Y-92998938D01*
X148669071Y-93000758D01*
X148676475Y-93001074D01*
X149480522Y-93001074D01*
X149490674Y-93000455D01*
X149500443Y-92998230D01*
X149509908Y-92993173D01*
X149514716Y-92988129D01*
X149520000Y-92979177D01*
X149523263Y-92969675D01*
X149523997Y-92962728D01*
X149523997Y-92552644D01*
X149522043Y-92543852D01*
X149515937Y-92537013D01*
X149506678Y-92533020D01*
X149505923Y-92532861D01*
X149496137Y-92531511D01*
X149491757Y-92531395D01*
X149481981Y-92532152D01*
X149478568Y-92532861D01*
X149469538Y-92536653D01*
X149469043Y-92537013D01*
X149463425Y-92543852D01*
X149461471Y-92552644D01*
X149461471Y-92917299D01*
X149133209Y-92917299D01*
X149133209Y-92602714D01*
X149131011Y-92593189D01*
X149125149Y-92586350D01*
X149116060Y-92582442D01*
X149114891Y-92582198D01*
X149104978Y-92580848D01*
X149100480Y-92580732D01*
X149090381Y-92581489D01*
X149087047Y-92582198D01*
X149077997Y-92586168D01*
X149077766Y-92586350D01*
X149072392Y-92593189D01*
X149070683Y-92602714D01*
X149070683Y-92917299D01*
X148695526Y-92917299D01*
X148695526Y-92546538D01*
X148693572Y-92537745D01*
X148687710Y-92530418D01*
X148678694Y-92526182D01*
X148677940Y-92526022D01*
X148667911Y-92524648D01*
X148664018Y-92524556D01*
G37*
G36*
X148864297Y-91880976D02*
G01*
X148853549Y-91881163D01*
X148843011Y-91881724D01*
X148832684Y-91882657D01*
X148822566Y-91883965D01*
X148812659Y-91885645D01*
X148802963Y-91887700D01*
X148793477Y-91890128D01*
X148781156Y-91893946D01*
X148769209Y-91898428D01*
X148760494Y-91902226D01*
X148749290Y-91907809D01*
X148738512Y-91913934D01*
X148728163Y-91920601D01*
X148718240Y-91927810D01*
X148708745Y-91935561D01*
X148699678Y-91943854D01*
X148691038Y-91952688D01*
X148682825Y-91962065D01*
X148675120Y-91971881D01*
X148667880Y-91982154D01*
X148661107Y-91992885D01*
X148654798Y-92004075D01*
X148648955Y-92015722D01*
X148644879Y-92024758D01*
X148641064Y-92034052D01*
X148637512Y-92043603D01*
X148634221Y-92053412D01*
X148631209Y-92063390D01*
X148628493Y-92073539D01*
X148626074Y-92083860D01*
X148623951Y-92094353D01*
X148622124Y-92105018D01*
X148620594Y-92115854D01*
X148619359Y-92126862D01*
X148618421Y-92138042D01*
X148617779Y-92149394D01*
X148617434Y-92160917D01*
X148617368Y-92168695D01*
X148617494Y-92179304D01*
X148617872Y-92189760D01*
X148618501Y-92200064D01*
X148619383Y-92210216D01*
X148620516Y-92220215D01*
X148621902Y-92230061D01*
X148623539Y-92239754D01*
X148625428Y-92249295D01*
X148628024Y-92260852D01*
X148630776Y-92272016D01*
X148633682Y-92282786D01*
X148636743Y-92293163D01*
X148639960Y-92303146D01*
X148643331Y-92312736D01*
X148644723Y-92316461D01*
X148649028Y-92327218D01*
X148653333Y-92337321D01*
X148657637Y-92346772D01*
X148661942Y-92355571D01*
X148666965Y-92365011D01*
X148667682Y-92366287D01*
X148673315Y-92375629D01*
X148679104Y-92384242D01*
X148685393Y-92392039D01*
X148687466Y-92394131D01*
X148695129Y-92400317D01*
X148704074Y-92405122D01*
X148713844Y-92407686D01*
X148723995Y-92408528D01*
X148725568Y-92408541D01*
X148735674Y-92408110D01*
X148741199Y-92407320D01*
X148750442Y-92404007D01*
X148751457Y-92403412D01*
X148756586Y-92397306D01*
X148758052Y-92389246D01*
X148755668Y-92379368D01*
X148751045Y-92370424D01*
X148745595Y-92362135D01*
X148740147Y-92353962D01*
X148734489Y-92344831D01*
X148729472Y-92336241D01*
X148724300Y-92326948D01*
X148718973Y-92316950D01*
X148714517Y-92307980D01*
X148710157Y-92298474D01*
X148705893Y-92288432D01*
X148701723Y-92277852D01*
X148697649Y-92266736D01*
X148694459Y-92257457D01*
X148692106Y-92250272D01*
X148689244Y-92240365D01*
X148686763Y-92230061D01*
X148684664Y-92219360D01*
X148682947Y-92208262D01*
X148681611Y-92196767D01*
X148680657Y-92184876D01*
X148680085Y-92172587D01*
X148679894Y-92159902D01*
X148680089Y-92149510D01*
X148680673Y-92139340D01*
X148681646Y-92129391D01*
X148683008Y-92119663D01*
X148685259Y-92107814D01*
X148688117Y-92096312D01*
X148691584Y-92085155D01*
X148692351Y-92082965D01*
X148696511Y-92072213D01*
X148701209Y-92061938D01*
X148706443Y-92052139D01*
X148712214Y-92042818D01*
X148718522Y-92033974D01*
X148725366Y-92025606D01*
X148728254Y-92022393D01*
X148735850Y-92014735D01*
X148743982Y-92007638D01*
X148752651Y-92001102D01*
X148761857Y-91995126D01*
X148771599Y-91989710D01*
X148781878Y-91984855D01*
X148786140Y-91983070D01*
X148797134Y-91978989D01*
X148808594Y-91975600D01*
X148820519Y-91972902D01*
X148830393Y-91971242D01*
X148840566Y-91970024D01*
X148851036Y-91969250D01*
X148861803Y-91968918D01*
X148864542Y-91968904D01*
X148875037Y-91969182D01*
X148885150Y-91970018D01*
X148894881Y-91971411D01*
X148906509Y-91973936D01*
X148917541Y-91977331D01*
X148927976Y-91981597D01*
X148937815Y-91986734D01*
X148947170Y-91992586D01*
X148956157Y-91998998D01*
X148964773Y-92005971D01*
X148973020Y-92013505D01*
X148980897Y-92021599D01*
X148988404Y-92030254D01*
X148991304Y-92033872D01*
X148998447Y-92043152D01*
X149005376Y-92052825D01*
X149012091Y-92062892D01*
X149017308Y-92071229D01*
X149022387Y-92079817D01*
X149027329Y-92088658D01*
X149032134Y-92097750D01*
X149033314Y-92100062D01*
X149038015Y-92109370D01*
X149042717Y-92118732D01*
X149047419Y-92128146D01*
X149052120Y-92137615D01*
X149056822Y-92147136D01*
X149061524Y-92156711D01*
X149066225Y-92166340D01*
X149070927Y-92176022D01*
X149075678Y-92185704D01*
X149080529Y-92195332D01*
X149085478Y-92204907D01*
X149090527Y-92214429D01*
X149095676Y-92223897D01*
X149100923Y-92233312D01*
X149106270Y-92242673D01*
X149111715Y-92251981D01*
X149117383Y-92261140D01*
X149123271Y-92270055D01*
X149129381Y-92278726D01*
X149135712Y-92287152D01*
X149142265Y-92295334D01*
X149149039Y-92303272D01*
X149156034Y-92310966D01*
X149163251Y-92318415D01*
X149170799Y-92325506D01*
X149178669Y-92332246D01*
X149186858Y-92338634D01*
X149195369Y-92344672D01*
X149204200Y-92350358D01*
X149213351Y-92355693D01*
X149222823Y-92360677D01*
X149232616Y-92365310D01*
X149242756Y-92369489D01*
X149253269Y-92373111D01*
X149264157Y-92376175D01*
X149275419Y-92378682D01*
X149287055Y-92380632D01*
X149299065Y-92382025D01*
X149311449Y-92382861D01*
X149324207Y-92383140D01*
X149336621Y-92382850D01*
X149348707Y-92381980D01*
X149360465Y-92380529D01*
X149371895Y-92378499D01*
X149382997Y-92375889D01*
X149393770Y-92372698D01*
X149404215Y-92368928D01*
X149414332Y-92364577D01*
X149424156Y-92359704D01*
X149433597Y-92354365D01*
X149442657Y-92348560D01*
X149451335Y-92342290D01*
X149459632Y-92335554D01*
X149467547Y-92328353D01*
X149475080Y-92320686D01*
X149482232Y-92312554D01*
X149488987Y-92303917D01*
X149495329Y-92294861D01*
X149501260Y-92285385D01*
X149506778Y-92275490D01*
X149511884Y-92265174D01*
X149516579Y-92254439D01*
X149520860Y-92243284D01*
X149524730Y-92231709D01*
X149528222Y-92219783D01*
X149531248Y-92207575D01*
X149533809Y-92195084D01*
X149535904Y-92182311D01*
X149537170Y-92172546D01*
X149538174Y-92162622D01*
X149538916Y-92152539D01*
X149539396Y-92142297D01*
X149539614Y-92131897D01*
X149539629Y-92128394D01*
X149539431Y-92117753D01*
X149538839Y-92107077D01*
X149537852Y-92096366D01*
X149536469Y-92085621D01*
X149534692Y-92074842D01*
X149534011Y-92071242D01*
X149531885Y-92060546D01*
X149529535Y-92050073D01*
X149526962Y-92039823D01*
X149524165Y-92029797D01*
X149521146Y-92019994D01*
X149520090Y-92016775D01*
X149516807Y-92007264D01*
X149512781Y-91996667D01*
X149508545Y-91986608D01*
X149504099Y-91977086D01*
X149500794Y-91970614D01*
X149495681Y-91961348D01*
X149490548Y-91953004D01*
X149484294Y-91944839D01*
X149483453Y-91943991D01*
X149476343Y-91937035D01*
X149474660Y-91935687D01*
X149468310Y-91932756D01*
X149459029Y-91930558D01*
X149448920Y-91929851D01*
X149446084Y-91929825D01*
X149436146Y-91930375D01*
X149433139Y-91930802D01*
X149423651Y-91933707D01*
X149423125Y-91933977D01*
X149416775Y-91939106D01*
X149414577Y-91946189D01*
X149416958Y-91955776D01*
X149421358Y-91964704D01*
X149424102Y-91969392D01*
X149429771Y-91978685D01*
X149435103Y-91988016D01*
X149439993Y-91997007D01*
X149445094Y-92006769D01*
X149445840Y-92008227D01*
X149450242Y-92017246D01*
X149454472Y-92026900D01*
X149458531Y-92037190D01*
X149462418Y-92048115D01*
X149465526Y-92057705D01*
X149467333Y-92063670D01*
X149470148Y-92073966D01*
X149472485Y-92084703D01*
X149474346Y-92095881D01*
X149475729Y-92107500D01*
X149476635Y-92119561D01*
X149477017Y-92129527D01*
X149477103Y-92137187D01*
X149476912Y-92147163D01*
X149476137Y-92159182D01*
X149474765Y-92170700D01*
X149472798Y-92181717D01*
X149470233Y-92192233D01*
X149467073Y-92202249D01*
X149464891Y-92208018D01*
X149460860Y-92217161D01*
X149455456Y-92227488D01*
X149449434Y-92237111D01*
X149442793Y-92246030D01*
X149435535Y-92254244D01*
X149431674Y-92258087D01*
X149423539Y-92265163D01*
X149414890Y-92271551D01*
X149405725Y-92277253D01*
X149396045Y-92282267D01*
X149385849Y-92286595D01*
X149382337Y-92287885D01*
X149371692Y-92291288D01*
X149360824Y-92293987D01*
X149349733Y-92295982D01*
X149338419Y-92297273D01*
X149326881Y-92297860D01*
X149322986Y-92297899D01*
X149312491Y-92297620D01*
X149302378Y-92296785D01*
X149292646Y-92295392D01*
X149281018Y-92292867D01*
X149269987Y-92289472D01*
X149259552Y-92285206D01*
X149249713Y-92280069D01*
X149240339Y-92274211D01*
X149231299Y-92267781D01*
X149222593Y-92260778D01*
X149214221Y-92253203D01*
X149206183Y-92245055D01*
X149198479Y-92236335D01*
X149195491Y-92232686D01*
X149188277Y-92223260D01*
X149181289Y-92213452D01*
X149174529Y-92203263D01*
X149169283Y-92194836D01*
X149164183Y-92186166D01*
X149159227Y-92177251D01*
X149154417Y-92168092D01*
X149153237Y-92165764D01*
X149148535Y-92156345D01*
X149143833Y-92146896D01*
X149139132Y-92137416D01*
X149134430Y-92127906D01*
X149129728Y-92118365D01*
X149125027Y-92108794D01*
X149120325Y-92099192D01*
X149115623Y-92089560D01*
X149110876Y-92079874D01*
X149106037Y-92070234D01*
X149101106Y-92060640D01*
X149096084Y-92051092D01*
X149090970Y-92041589D01*
X149085765Y-92032132D01*
X149080468Y-92022721D01*
X149075079Y-92013356D01*
X149069523Y-92004079D01*
X149063722Y-91995053D01*
X149057677Y-91986279D01*
X149051387Y-91977758D01*
X149044854Y-91969488D01*
X149038076Y-91961470D01*
X149031054Y-91953704D01*
X149023788Y-91946189D01*
X149016243Y-91938984D01*
X149008385Y-91932145D01*
X149000215Y-91925673D01*
X148991731Y-91919567D01*
X148982935Y-91913827D01*
X148973825Y-91908454D01*
X148964403Y-91903447D01*
X148954667Y-91898806D01*
X148944653Y-91894627D01*
X148934273Y-91891006D01*
X148923526Y-91887941D01*
X148912413Y-91885434D01*
X148900934Y-91883484D01*
X148889088Y-91882091D01*
X148876876Y-91881255D01*
X148864297Y-91880976D01*
G37*
G36*
X148650829Y-91614019D02*
G01*
X148643258Y-91616217D01*
X148637640Y-91623056D01*
X148634787Y-91632854D01*
X148634221Y-91635757D01*
X148633233Y-91645940D01*
X148633000Y-91655785D01*
X148633268Y-91666024D01*
X148634221Y-91675812D01*
X148636467Y-91685615D01*
X148637640Y-91689002D01*
X148643258Y-91695840D01*
X148650829Y-91697794D01*
X149506168Y-91697794D01*
X149513739Y-91695352D01*
X149519113Y-91687780D01*
X149521951Y-91678126D01*
X149522532Y-91674836D01*
X149523717Y-91664841D01*
X149523997Y-91655785D01*
X149523717Y-91645940D01*
X149522532Y-91635757D01*
X149520272Y-91625937D01*
X149519113Y-91623056D01*
X149513739Y-91616217D01*
X149506168Y-91614019D01*
X148650829Y-91614019D01*
G37*
G36*
X149417752Y-90713984D02*
G01*
X149407803Y-90714677D01*
X149403586Y-90715450D01*
X149394022Y-90718380D01*
X149392595Y-90719113D01*
X149385756Y-90725464D01*
X149383314Y-90733279D01*
X149386534Y-90743372D01*
X149392258Y-90752665D01*
X149397968Y-90760390D01*
X149404603Y-90769238D01*
X149410476Y-90777807D01*
X149416521Y-90787287D01*
X149421690Y-90795882D01*
X149426978Y-90805109D01*
X149430208Y-90810949D01*
X149435562Y-90821123D01*
X149440784Y-90831952D01*
X149444867Y-90841089D01*
X149448867Y-90850645D01*
X149452782Y-90860620D01*
X149456614Y-90871016D01*
X149460362Y-90881831D01*
X149462204Y-90887397D01*
X149465696Y-90898899D01*
X149468722Y-90910935D01*
X149471283Y-90923506D01*
X149472898Y-90933285D01*
X149474251Y-90943364D01*
X149475342Y-90953744D01*
X149476172Y-90964425D01*
X149476739Y-90975406D01*
X149477045Y-90986687D01*
X149477103Y-90994375D01*
X149476983Y-91004169D01*
X149476351Y-91018611D01*
X149475179Y-91032752D01*
X149473466Y-91046592D01*
X149471212Y-91060132D01*
X149468417Y-91073371D01*
X149465081Y-91086309D01*
X149461205Y-91098948D01*
X149456787Y-91111285D01*
X149451828Y-91123322D01*
X149446328Y-91135059D01*
X149440402Y-91146478D01*
X149434072Y-91157562D01*
X149427339Y-91168311D01*
X149420202Y-91178725D01*
X149412661Y-91188804D01*
X149404717Y-91198549D01*
X149396370Y-91207958D01*
X149387618Y-91217033D01*
X149378463Y-91225773D01*
X149368905Y-91234178D01*
X149362309Y-91239595D01*
X149352106Y-91247387D01*
X149341555Y-91254827D01*
X149330656Y-91261916D01*
X149319410Y-91268652D01*
X149307816Y-91275036D01*
X149295874Y-91281068D01*
X149283584Y-91286748D01*
X149270947Y-91292076D01*
X149257961Y-91297052D01*
X149244628Y-91301676D01*
X149235547Y-91304563D01*
X149221709Y-91308535D01*
X149207674Y-91312117D01*
X149193442Y-91315307D01*
X149183844Y-91317217D01*
X149174158Y-91318954D01*
X149164385Y-91320517D01*
X149154523Y-91321906D01*
X149144574Y-91323121D01*
X149134537Y-91324163D01*
X149124413Y-91325031D01*
X149114200Y-91325726D01*
X149103900Y-91326247D01*
X149093512Y-91326594D01*
X149083037Y-91326768D01*
X149077766Y-91326789D01*
X149066031Y-91326690D01*
X149054456Y-91326393D01*
X149043041Y-91325896D01*
X149031787Y-91325202D01*
X149020693Y-91324309D01*
X149009759Y-91323217D01*
X148998986Y-91321927D01*
X148988373Y-91320439D01*
X148977920Y-91318752D01*
X148967627Y-91316867D01*
X148957495Y-91314783D01*
X148947523Y-91312501D01*
X148937712Y-91310021D01*
X148928060Y-91307342D01*
X148918569Y-91304464D01*
X148909238Y-91301388D01*
X148895564Y-91296454D01*
X148882293Y-91291176D01*
X148869426Y-91285554D01*
X148856963Y-91279590D01*
X148844903Y-91273281D01*
X148833246Y-91266629D01*
X148821993Y-91259634D01*
X148811144Y-91252295D01*
X148800698Y-91244613D01*
X148790656Y-91236588D01*
X148784186Y-91231046D01*
X148774871Y-91222426D01*
X148765976Y-91213509D01*
X148757503Y-91204297D01*
X148749450Y-91194788D01*
X148741818Y-91184982D01*
X148734606Y-91174881D01*
X148727816Y-91164483D01*
X148721446Y-91153789D01*
X148715497Y-91142799D01*
X148709968Y-91131513D01*
X148706517Y-91123824D01*
X148701759Y-91112047D01*
X148697469Y-91100073D01*
X148693647Y-91087901D01*
X148690294Y-91075532D01*
X148687408Y-91062966D01*
X148684990Y-91050202D01*
X148683040Y-91037240D01*
X148681558Y-91024081D01*
X148680544Y-91010724D01*
X148679998Y-90997170D01*
X148679894Y-90988025D01*
X148680096Y-90976156D01*
X148680703Y-90964241D01*
X148681714Y-90952281D01*
X148683130Y-90940275D01*
X148684951Y-90928223D01*
X148687176Y-90916126D01*
X148689805Y-90903982D01*
X148692839Y-90891793D01*
X148696350Y-90879680D01*
X148700288Y-90867766D01*
X148704654Y-90856050D01*
X148709448Y-90844532D01*
X148714668Y-90833213D01*
X148720316Y-90822092D01*
X148726392Y-90811170D01*
X148732895Y-90800446D01*
X149055051Y-90800446D01*
X149055051Y-91027103D01*
X149057066Y-91036751D01*
X149063111Y-91043712D01*
X149072170Y-91047569D01*
X149082452Y-91049001D01*
X149086070Y-91049085D01*
X149096114Y-91048508D01*
X149099992Y-91047864D01*
X149109053Y-91044205D01*
X149109762Y-91043712D01*
X149115623Y-91036873D01*
X149117577Y-91027103D01*
X149117577Y-90755017D01*
X149116236Y-90745029D01*
X149115379Y-90742072D01*
X149111192Y-90733130D01*
X149108296Y-90729371D01*
X149100663Y-90722998D01*
X149094618Y-90720090D01*
X149084849Y-90717526D01*
X149074697Y-90716684D01*
X149073125Y-90716671D01*
X148733139Y-90716671D01*
X148723083Y-90717172D01*
X148713124Y-90718880D01*
X148704318Y-90721800D01*
X148695480Y-90727536D01*
X148688324Y-90735202D01*
X148682737Y-90743224D01*
X148681360Y-90745491D01*
X148676446Y-90754209D01*
X148671322Y-90764118D01*
X148666762Y-90773560D01*
X148662048Y-90783879D01*
X148658002Y-90793146D01*
X148657180Y-90795073D01*
X148653236Y-90804744D01*
X148649494Y-90814522D01*
X148645956Y-90824407D01*
X148642620Y-90834400D01*
X148639487Y-90844500D01*
X148636557Y-90854707D01*
X148635442Y-90858820D01*
X148632796Y-90869136D01*
X148630352Y-90879476D01*
X148628111Y-90889839D01*
X148626073Y-90900227D01*
X148624238Y-90910638D01*
X148622605Y-90921073D01*
X148622009Y-90925254D01*
X148620672Y-90935611D01*
X148619561Y-90945919D01*
X148618678Y-90956181D01*
X148618021Y-90966394D01*
X148617590Y-90976560D01*
X148617386Y-90986677D01*
X148617368Y-90990711D01*
X148617497Y-91003266D01*
X148617883Y-91015651D01*
X148618527Y-91027866D01*
X148619429Y-91039911D01*
X148620588Y-91051786D01*
X148622005Y-91063492D01*
X148623679Y-91075028D01*
X148625611Y-91086393D01*
X148627801Y-91097589D01*
X148630248Y-91108616D01*
X148632953Y-91119472D01*
X148635915Y-91130159D01*
X148639135Y-91140675D01*
X148642613Y-91151022D01*
X148646348Y-91161199D01*
X148650341Y-91171207D01*
X148654598Y-91181033D01*
X148659065Y-91190666D01*
X148663742Y-91200107D01*
X148668628Y-91209354D01*
X148673725Y-91218410D01*
X148679032Y-91227272D01*
X148684548Y-91235942D01*
X148690274Y-91244419D01*
X148696211Y-91252703D01*
X148702357Y-91260794D01*
X148708713Y-91268693D01*
X148715279Y-91276399D01*
X148722055Y-91283912D01*
X148729040Y-91291233D01*
X148736236Y-91298361D01*
X148743642Y-91305296D01*
X148751272Y-91312004D01*
X148759082Y-91318512D01*
X148767072Y-91324819D01*
X148775240Y-91330926D01*
X148783589Y-91336833D01*
X148792116Y-91342539D01*
X148800823Y-91348045D01*
X148809709Y-91353351D01*
X148818775Y-91358456D01*
X148828020Y-91363361D01*
X148837444Y-91368066D01*
X148847048Y-91372570D01*
X148856831Y-91376874D01*
X148866793Y-91380977D01*
X148876935Y-91384880D01*
X148887256Y-91388583D01*
X148897734Y-91392073D01*
X148908345Y-91395338D01*
X148919090Y-91398377D01*
X148929968Y-91401192D01*
X148940980Y-91403781D01*
X148952126Y-91406145D01*
X148963405Y-91408285D01*
X148974817Y-91410198D01*
X148986364Y-91411887D01*
X148998043Y-91413351D01*
X149009857Y-91414589D01*
X149021804Y-91415602D01*
X149033884Y-91416390D01*
X149046098Y-91416953D01*
X149058446Y-91417291D01*
X149070927Y-91417404D01*
X149083983Y-91417281D01*
X149096897Y-91416915D01*
X149109667Y-91416304D01*
X149122294Y-91415450D01*
X149134778Y-91414351D01*
X149147119Y-91413007D01*
X149159317Y-91411420D01*
X149171372Y-91409588D01*
X149183283Y-91407512D01*
X149195052Y-91405191D01*
X149206677Y-91402627D01*
X149218160Y-91399818D01*
X149229499Y-91396765D01*
X149240695Y-91393468D01*
X149251748Y-91389926D01*
X149262658Y-91386140D01*
X149273397Y-91382133D01*
X149283937Y-91377928D01*
X149294279Y-91373524D01*
X149304423Y-91368921D01*
X149314368Y-91364120D01*
X149324115Y-91359121D01*
X149333664Y-91353923D01*
X149343013Y-91348527D01*
X149352165Y-91342932D01*
X149361118Y-91337139D01*
X149369873Y-91331148D01*
X149378429Y-91324958D01*
X149386786Y-91318569D01*
X149394946Y-91311982D01*
X149402906Y-91305197D01*
X149410669Y-91298213D01*
X149418224Y-91291043D01*
X149425564Y-91283700D01*
X149432688Y-91276183D01*
X149439596Y-91268492D01*
X149446289Y-91260627D01*
X149452766Y-91252589D01*
X149459028Y-91244378D01*
X149465074Y-91235992D01*
X149470904Y-91227433D01*
X149476519Y-91218701D01*
X149481918Y-91209794D01*
X149487101Y-91200714D01*
X149492069Y-91191461D01*
X149496822Y-91182034D01*
X149501358Y-91172433D01*
X149505679Y-91162658D01*
X149509790Y-91152702D01*
X149513636Y-91142619D01*
X149517217Y-91132407D01*
X149520532Y-91122068D01*
X149523582Y-91111601D01*
X149526367Y-91101006D01*
X149528887Y-91090283D01*
X149531142Y-91079433D01*
X149533131Y-91068454D01*
X149534855Y-91057348D01*
X149536314Y-91046113D01*
X149537507Y-91034751D01*
X149538435Y-91023261D01*
X149539098Y-91011644D01*
X149539496Y-90999898D01*
X149539629Y-90988025D01*
X149539484Y-90976080D01*
X149539049Y-90964303D01*
X149538324Y-90952693D01*
X149537309Y-90941252D01*
X149536003Y-90929979D01*
X149534408Y-90918873D01*
X149532523Y-90907936D01*
X149530348Y-90897166D01*
X149527963Y-90886553D01*
X149525448Y-90876207D01*
X149522803Y-90866128D01*
X149520028Y-90856317D01*
X149517124Y-90846772D01*
X149513312Y-90835217D01*
X149509296Y-90824079D01*
X149507633Y-90819741D01*
X149503458Y-90809236D01*
X149499175Y-90799243D01*
X149494785Y-90789763D01*
X149490288Y-90780796D01*
X149484750Y-90770712D01*
X149479057Y-90761367D01*
X149473510Y-90752932D01*
X149467603Y-90744459D01*
X149461596Y-90736578D01*
X149454632Y-90728883D01*
X149447219Y-90722311D01*
X149438512Y-90717159D01*
X149428457Y-90714592D01*
X149418600Y-90713987D01*
X149417752Y-90713984D01*
G37*
G36*
X148676230Y-89840572D02*
G01*
X148666126Y-89841320D01*
X148656524Y-89844006D01*
X148655470Y-89844480D01*
X148646932Y-89849605D01*
X148642281Y-89854005D01*
X148636811Y-89862330D01*
X148634953Y-89867194D01*
X148633154Y-89876871D01*
X148633000Y-89880383D01*
X148633000Y-89897480D01*
X148633480Y-89907429D01*
X148635087Y-89917510D01*
X148636419Y-89922637D01*
X148640242Y-89931685D01*
X148645758Y-89940572D01*
X148648875Y-89944619D01*
X148655613Y-89951868D01*
X148662940Y-89958509D01*
X148671412Y-89965197D01*
X148672323Y-89965868D01*
X148681321Y-89971969D01*
X148690358Y-89977716D01*
X148699067Y-89982996D01*
X148708524Y-89988509D01*
X148709936Y-89989316D01*
X149263635Y-90302679D01*
X149273805Y-90308545D01*
X149284044Y-90314418D01*
X149294352Y-90320299D01*
X149304728Y-90326188D01*
X149315174Y-90332084D01*
X149325687Y-90337988D01*
X149336270Y-90343899D01*
X149346921Y-90349818D01*
X149357573Y-90355703D01*
X149368155Y-90361511D01*
X149378669Y-90367243D01*
X149389114Y-90372899D01*
X149399491Y-90378478D01*
X149409799Y-90383982D01*
X149420038Y-90389408D01*
X149430208Y-90394759D01*
X149430208Y-90395491D01*
X149417653Y-90395320D01*
X149405021Y-90395171D01*
X149392312Y-90395045D01*
X149379528Y-90394942D01*
X149366667Y-90394862D01*
X149353730Y-90394805D01*
X149340716Y-90394770D01*
X149330906Y-90394759D01*
X149327626Y-90394759D01*
X149317845Y-90394759D01*
X149304864Y-90394759D01*
X149291952Y-90394759D01*
X149279108Y-90394759D01*
X149266333Y-90394759D01*
X149253627Y-90394759D01*
X149240989Y-90394759D01*
X149228420Y-90394759D01*
X149225288Y-90394759D01*
X148650829Y-90394759D01*
X148643258Y-90396957D01*
X148637640Y-90403796D01*
X148634787Y-90413594D01*
X148634221Y-90416496D01*
X148633233Y-90426680D01*
X148633000Y-90436524D01*
X148633268Y-90446764D01*
X148634221Y-90456552D01*
X148636467Y-90466354D01*
X148637640Y-90469741D01*
X148643258Y-90476580D01*
X148650829Y-90478534D01*
X149480766Y-90478534D01*
X149490823Y-90477915D01*
X149500512Y-90475690D01*
X149509919Y-90470633D01*
X149514716Y-90465589D01*
X149520000Y-90456637D01*
X149523263Y-90447135D01*
X149523997Y-90440188D01*
X149523997Y-90405750D01*
X149523735Y-90395918D01*
X149522728Y-90385568D01*
X149521311Y-90378150D01*
X149517933Y-90368329D01*
X149512839Y-90359474D01*
X149512030Y-90358367D01*
X149505231Y-90350553D01*
X149497766Y-90344004D01*
X149493467Y-90340781D01*
X149485343Y-90335271D01*
X149476930Y-90330027D01*
X149467474Y-90324512D01*
X149462937Y-90321974D01*
X149038687Y-90082372D01*
X149028784Y-90076732D01*
X149018980Y-90071168D01*
X149009275Y-90065680D01*
X148999669Y-90060268D01*
X148990163Y-90054933D01*
X148980756Y-90049674D01*
X148971448Y-90044492D01*
X148962239Y-90039385D01*
X148953099Y-90034336D01*
X148943997Y-90029326D01*
X148934933Y-90024353D01*
X148925908Y-90019419D01*
X148916920Y-90014522D01*
X148907971Y-90009664D01*
X148899060Y-90004844D01*
X148890187Y-90000062D01*
X148881406Y-89995246D01*
X148872648Y-89990445D01*
X148863912Y-89985660D01*
X148855199Y-89980889D01*
X148846510Y-89976134D01*
X148837843Y-89971394D01*
X148829199Y-89966670D01*
X148820578Y-89961960D01*
X148812018Y-89957205D01*
X148803435Y-89952465D01*
X148794829Y-89947741D01*
X148786201Y-89943032D01*
X148777549Y-89938338D01*
X148768875Y-89933659D01*
X148760178Y-89928995D01*
X148751457Y-89924347D01*
X148751457Y-89923614D01*
X148762262Y-89923745D01*
X148773153Y-89923863D01*
X148784130Y-89923968D01*
X148795192Y-89924061D01*
X148806340Y-89924140D01*
X148817575Y-89924207D01*
X148828895Y-89924260D01*
X148840301Y-89924301D01*
X148851792Y-89924329D01*
X148863370Y-89924344D01*
X148871136Y-89924347D01*
X148882773Y-89924347D01*
X148894329Y-89924347D01*
X148905803Y-89924347D01*
X148917195Y-89924347D01*
X148928506Y-89924347D01*
X148939735Y-89924347D01*
X148950883Y-89924347D01*
X148961949Y-89924347D01*
X148972933Y-89924347D01*
X148983836Y-89924347D01*
X148991060Y-89924347D01*
X149506168Y-89924347D01*
X149513739Y-89922393D01*
X149519601Y-89915554D01*
X149522523Y-89906133D01*
X149523020Y-89902854D01*
X149523783Y-89893049D01*
X149523996Y-89883111D01*
X149523997Y-89882337D01*
X149523753Y-89872201D01*
X149523020Y-89863286D01*
X149520984Y-89853600D01*
X149519601Y-89850341D01*
X149513739Y-89843014D01*
X149506168Y-89840572D01*
X148676230Y-89840572D01*
G37*
G36*
X148664018Y-89109064D02*
G01*
X148654018Y-89109821D01*
X148650585Y-89110530D01*
X148641340Y-89114537D01*
X148640815Y-89114926D01*
X148634953Y-89122254D01*
X148633000Y-89131046D01*
X148633000Y-89547236D01*
X148634531Y-89557320D01*
X148638664Y-89566914D01*
X148642281Y-89572637D01*
X148649608Y-89579464D01*
X148658813Y-89583446D01*
X148669071Y-89585266D01*
X148676475Y-89585582D01*
X149480522Y-89585582D01*
X149490674Y-89584963D01*
X149500443Y-89582738D01*
X149509908Y-89577681D01*
X149514716Y-89572637D01*
X149520000Y-89563685D01*
X149523263Y-89554183D01*
X149523997Y-89547236D01*
X149523997Y-89137152D01*
X149522043Y-89128360D01*
X149515937Y-89121521D01*
X149506678Y-89117528D01*
X149505923Y-89117369D01*
X149496137Y-89116019D01*
X149491757Y-89115903D01*
X149481981Y-89116660D01*
X149478568Y-89117369D01*
X149469538Y-89121161D01*
X149469043Y-89121521D01*
X149463425Y-89128360D01*
X149461471Y-89137152D01*
X149461471Y-89501807D01*
X149133209Y-89501807D01*
X149133209Y-89187222D01*
X149131011Y-89177697D01*
X149125149Y-89170858D01*
X149116060Y-89166950D01*
X149114891Y-89166706D01*
X149104978Y-89165356D01*
X149100480Y-89165240D01*
X149090381Y-89165997D01*
X149087047Y-89166706D01*
X149077997Y-89170676D01*
X149077766Y-89170858D01*
X149072392Y-89177697D01*
X149070683Y-89187222D01*
X149070683Y-89501807D01*
X148695526Y-89501807D01*
X148695526Y-89131046D01*
X148693572Y-89122254D01*
X148687710Y-89114926D01*
X148678694Y-89110690D01*
X148677940Y-89110530D01*
X148667911Y-89109156D01*
X148664018Y-89109064D01*
G37*
G36*
X149103828Y-88248702D02*
G01*
X149115826Y-88249017D01*
X149127680Y-88249541D01*
X149139391Y-88250276D01*
X149150959Y-88251221D01*
X149162384Y-88252375D01*
X149173666Y-88253739D01*
X149184805Y-88255314D01*
X149195801Y-88257098D01*
X149206653Y-88259092D01*
X149217363Y-88261296D01*
X149227929Y-88263709D01*
X149238353Y-88266333D01*
X149248633Y-88269167D01*
X149258770Y-88272210D01*
X149268764Y-88275464D01*
X149278627Y-88278893D01*
X149288311Y-88282528D01*
X149297815Y-88286366D01*
X149307140Y-88290408D01*
X149316286Y-88294655D01*
X149325252Y-88299106D01*
X149334039Y-88303760D01*
X149342647Y-88308620D01*
X149351075Y-88313683D01*
X149359324Y-88318950D01*
X149371361Y-88327234D01*
X149382995Y-88335978D01*
X149394225Y-88345180D01*
X149405051Y-88354842D01*
X149412064Y-88361506D01*
X149422203Y-88371873D01*
X149431887Y-88382686D01*
X149441117Y-88393946D01*
X149449891Y-88405653D01*
X149455487Y-88413705D01*
X149460882Y-88421956D01*
X149466074Y-88430405D01*
X149471063Y-88439053D01*
X149475851Y-88447899D01*
X149480436Y-88456944D01*
X149484819Y-88466187D01*
X149489000Y-88475628D01*
X149492979Y-88485268D01*
X149496735Y-88495146D01*
X149500249Y-88505300D01*
X149503520Y-88515731D01*
X149506549Y-88526438D01*
X149509336Y-88537423D01*
X149511881Y-88548684D01*
X149514183Y-88560221D01*
X149516243Y-88572035D01*
X149518060Y-88584126D01*
X149519635Y-88596494D01*
X149520968Y-88609138D01*
X149522059Y-88622059D01*
X149522907Y-88635257D01*
X149523513Y-88648732D01*
X149523876Y-88662483D01*
X149523997Y-88676510D01*
X149523997Y-88863356D01*
X149523263Y-88870303D01*
X149520000Y-88879805D01*
X149514716Y-88888757D01*
X149509908Y-88893801D01*
X149500443Y-88898858D01*
X149490674Y-88901083D01*
X149480522Y-88901702D01*
X148676475Y-88901702D01*
X148669071Y-88901386D01*
X148658813Y-88899566D01*
X148649608Y-88895584D01*
X148642281Y-88888757D01*
X148638664Y-88883034D01*
X148634531Y-88873440D01*
X148633000Y-88863356D01*
X148633000Y-88817927D01*
X148695526Y-88817927D01*
X149461471Y-88817927D01*
X149461471Y-88681151D01*
X149461362Y-88669194D01*
X149461032Y-88657505D01*
X149460484Y-88646083D01*
X149459716Y-88634928D01*
X149458728Y-88624040D01*
X149457521Y-88613419D01*
X149456095Y-88603066D01*
X149454449Y-88592979D01*
X149452584Y-88583160D01*
X149450499Y-88573608D01*
X149446961Y-88559780D01*
X149442929Y-88546554D01*
X149438403Y-88533929D01*
X149433383Y-88521905D01*
X149429787Y-88514174D01*
X149424075Y-88502896D01*
X149417981Y-88492000D01*
X149411504Y-88481486D01*
X149404646Y-88471355D01*
X149397405Y-88461605D01*
X149389782Y-88452238D01*
X149381777Y-88443253D01*
X149373390Y-88434650D01*
X149364621Y-88426429D01*
X149355470Y-88418590D01*
X149349167Y-88413545D01*
X149339434Y-88406292D01*
X149329366Y-88399417D01*
X149318964Y-88392920D01*
X149308226Y-88386800D01*
X149297154Y-88381059D01*
X149285746Y-88375695D01*
X149274004Y-88370709D01*
X149261927Y-88366101D01*
X149249515Y-88361870D01*
X149236768Y-88358018D01*
X149228143Y-88355652D01*
X149215034Y-88352389D01*
X149201719Y-88349469D01*
X149188198Y-88346893D01*
X149174471Y-88344661D01*
X149160537Y-88342772D01*
X149146398Y-88341226D01*
X149132053Y-88340024D01*
X149117501Y-88339165D01*
X149107685Y-88338784D01*
X149097778Y-88338555D01*
X149087780Y-88338478D01*
X149081442Y-88338499D01*
X149068930Y-88338663D01*
X149056638Y-88338991D01*
X149044565Y-88339483D01*
X149032711Y-88340140D01*
X149021077Y-88340960D01*
X149009663Y-88341945D01*
X148998468Y-88343094D01*
X148987492Y-88344406D01*
X148976736Y-88345883D01*
X148966199Y-88347524D01*
X148955882Y-88349329D01*
X148945784Y-88351299D01*
X148935905Y-88353432D01*
X148926246Y-88355729D01*
X148912169Y-88359483D01*
X148903077Y-88362191D01*
X148889803Y-88366560D01*
X148876968Y-88371298D01*
X148864570Y-88376406D01*
X148852610Y-88381883D01*
X148841088Y-88387729D01*
X148830004Y-88393944D01*
X148819358Y-88400529D01*
X148809150Y-88407483D01*
X148799380Y-88414806D01*
X148790048Y-88422498D01*
X148784101Y-88427800D01*
X148775549Y-88436062D01*
X148767440Y-88444693D01*
X148759773Y-88453694D01*
X148752548Y-88463063D01*
X148745765Y-88472802D01*
X148739425Y-88482910D01*
X148733526Y-88493387D01*
X148728070Y-88504233D01*
X148723056Y-88515449D01*
X148718484Y-88527034D01*
X148717072Y-88530984D01*
X148713104Y-88543165D01*
X148709539Y-88555840D01*
X148706377Y-88569008D01*
X148703620Y-88582670D01*
X148701265Y-88596826D01*
X148699920Y-88606538D01*
X148698754Y-88616469D01*
X148697768Y-88626619D01*
X148696961Y-88636989D01*
X148696333Y-88647578D01*
X148695884Y-88658387D01*
X148695615Y-88669415D01*
X148695526Y-88680662D01*
X148695526Y-88817927D01*
X148633000Y-88817927D01*
X148633000Y-88688234D01*
X148633115Y-88674344D01*
X148633461Y-88660699D01*
X148634038Y-88647301D01*
X148634847Y-88634149D01*
X148635886Y-88621244D01*
X148637155Y-88608584D01*
X148638656Y-88596171D01*
X148640388Y-88584003D01*
X148642350Y-88572082D01*
X148644544Y-88560407D01*
X148646968Y-88548978D01*
X148649623Y-88537796D01*
X148652509Y-88526859D01*
X148655626Y-88516169D01*
X148658974Y-88505724D01*
X148662553Y-88495526D01*
X148666358Y-88485523D01*
X148670384Y-88475724D01*
X148674631Y-88466128D01*
X148679100Y-88456738D01*
X148683791Y-88447551D01*
X148688702Y-88438568D01*
X148693835Y-88429790D01*
X148699189Y-88421215D01*
X148704765Y-88412845D01*
X148710562Y-88404679D01*
X148716580Y-88396718D01*
X148722820Y-88388960D01*
X148729281Y-88381407D01*
X148735963Y-88374058D01*
X148742867Y-88366912D01*
X148749992Y-88359972D01*
X148757336Y-88353207D01*
X148764898Y-88346653D01*
X148772678Y-88340308D01*
X148780675Y-88334173D01*
X148788889Y-88328249D01*
X148797322Y-88322534D01*
X148805971Y-88317029D01*
X148814838Y-88311734D01*
X148823923Y-88306648D01*
X148833225Y-88301773D01*
X148842745Y-88297108D01*
X148852482Y-88292652D01*
X148862437Y-88288407D01*
X148872609Y-88284371D01*
X148882999Y-88280545D01*
X148893607Y-88276929D01*
X148904427Y-88273498D01*
X148915455Y-88270289D01*
X148926691Y-88267301D01*
X148938135Y-88264534D01*
X148949787Y-88261988D01*
X148961647Y-88259664D01*
X148973715Y-88257561D01*
X148985991Y-88255680D01*
X148998476Y-88254020D01*
X149011168Y-88252581D01*
X149024068Y-88251364D01*
X149037176Y-88250368D01*
X149050492Y-88249593D01*
X149064016Y-88249040D01*
X149077748Y-88248708D01*
X149091688Y-88248597D01*
X149103828Y-88248702D01*
G37*
G36*
X148888790Y-87182202D02*
G01*
X148899621Y-87182843D01*
X148910223Y-87183912D01*
X148920595Y-87185408D01*
X148930739Y-87187331D01*
X148940654Y-87189682D01*
X148950340Y-87192460D01*
X148959796Y-87195666D01*
X148966767Y-87198318D01*
X148975808Y-87202129D01*
X148986701Y-87207332D01*
X148997141Y-87213025D01*
X149007128Y-87219206D01*
X149016662Y-87225876D01*
X149025742Y-87233035D01*
X149029275Y-87236028D01*
X149037765Y-87243786D01*
X149045766Y-87251937D01*
X149053278Y-87260482D01*
X149060301Y-87269421D01*
X149066836Y-87278753D01*
X149072881Y-87288478D01*
X149075155Y-87292433D01*
X149080441Y-87302461D01*
X149085154Y-87312693D01*
X149089295Y-87323127D01*
X149092863Y-87333763D01*
X149095859Y-87344603D01*
X149098282Y-87355645D01*
X149101919Y-87348383D01*
X149106734Y-87339659D01*
X149111846Y-87331329D01*
X149118375Y-87321852D01*
X149125333Y-87312942D01*
X149132720Y-87304598D01*
X149135273Y-87301910D01*
X149143162Y-87294187D01*
X149151393Y-87286980D01*
X149159969Y-87280288D01*
X149168887Y-87274112D01*
X149178150Y-87268450D01*
X149181341Y-87266678D01*
X149191110Y-87261703D01*
X149201170Y-87257244D01*
X149211523Y-87253300D01*
X149222168Y-87249871D01*
X149233104Y-87246957D01*
X149242405Y-87244846D01*
X149253740Y-87242785D01*
X149265263Y-87241240D01*
X149275010Y-87240345D01*
X149284888Y-87239809D01*
X149294898Y-87239630D01*
X149307755Y-87239874D01*
X149320314Y-87240607D01*
X149332576Y-87241828D01*
X149344540Y-87243538D01*
X149356206Y-87245736D01*
X149367575Y-87248422D01*
X149378646Y-87251598D01*
X149389420Y-87255261D01*
X149399846Y-87259356D01*
X149409875Y-87263947D01*
X149419507Y-87269034D01*
X149428743Y-87274617D01*
X149437581Y-87280697D01*
X149446023Y-87287272D01*
X149454068Y-87294344D01*
X149461715Y-87301912D01*
X149469008Y-87309933D01*
X149475866Y-87318490D01*
X149482289Y-87327580D01*
X149488277Y-87337205D01*
X149493830Y-87347364D01*
X149498947Y-87358057D01*
X149503630Y-87369284D01*
X149507877Y-87381046D01*
X149509829Y-87387176D01*
X149512521Y-87396804D01*
X149514930Y-87406951D01*
X149517055Y-87417618D01*
X149518897Y-87428804D01*
X149520455Y-87440510D01*
X149521731Y-87452735D01*
X149522722Y-87465480D01*
X149523431Y-87478744D01*
X149523856Y-87492528D01*
X149523997Y-87506831D01*
X149523997Y-87697829D01*
X149523263Y-87704776D01*
X149520000Y-87714278D01*
X149514716Y-87723230D01*
X149509908Y-87728274D01*
X149500443Y-87733331D01*
X149490674Y-87735556D01*
X149480522Y-87736175D01*
X148676475Y-87736175D01*
X148669071Y-87735859D01*
X148658813Y-87734039D01*
X148649608Y-87730057D01*
X148642281Y-87723230D01*
X148638664Y-87717507D01*
X148634531Y-87707913D01*
X148633000Y-87697829D01*
X148633000Y-87652400D01*
X148695526Y-87652400D01*
X149055051Y-87652400D01*
X149117577Y-87652400D01*
X149461471Y-87652400D01*
X149461471Y-87513670D01*
X149461460Y-87510181D01*
X149461284Y-87499977D01*
X149460899Y-87490168D01*
X149460057Y-87477704D01*
X149458842Y-87465943D01*
X149457252Y-87454883D01*
X149455289Y-87444526D01*
X149452951Y-87434870D01*
X149449503Y-87423789D01*
X149445589Y-87413572D01*
X149441174Y-87403987D01*
X149436258Y-87395034D01*
X149430842Y-87386713D01*
X149423680Y-87377563D01*
X149415798Y-87369323D01*
X149411643Y-87365485D01*
X149402856Y-87358415D01*
X149393433Y-87352153D01*
X149383375Y-87346697D01*
X149372682Y-87342049D01*
X149363286Y-87338792D01*
X149359411Y-87337609D01*
X149349483Y-87334985D01*
X149339209Y-87332839D01*
X149328589Y-87331169D01*
X149317623Y-87329977D01*
X149306311Y-87329261D01*
X149294653Y-87329023D01*
X149290328Y-87329061D01*
X149279597Y-87329490D01*
X149268985Y-87330396D01*
X149258493Y-87331780D01*
X149248119Y-87333640D01*
X149237865Y-87335978D01*
X149227731Y-87338792D01*
X149223730Y-87340024D01*
X149213988Y-87343462D01*
X149204616Y-87347413D01*
X149195613Y-87351877D01*
X149186979Y-87356854D01*
X149178716Y-87362343D01*
X149170822Y-87368346D01*
X149167808Y-87370862D01*
X149160616Y-87377539D01*
X149153912Y-87384763D01*
X149147698Y-87392537D01*
X149141972Y-87400859D01*
X149136735Y-87409729D01*
X149131988Y-87419148D01*
X149130243Y-87423070D01*
X149126373Y-87433535D01*
X149123206Y-87444942D01*
X149121180Y-87454747D01*
X149119604Y-87465154D01*
X149118478Y-87476164D01*
X149117802Y-87487777D01*
X149117577Y-87499993D01*
X149117577Y-87652400D01*
X149055051Y-87652400D01*
X149055051Y-87492421D01*
X149054944Y-87481508D01*
X149054622Y-87470934D01*
X149054085Y-87460700D01*
X149053334Y-87450804D01*
X149051998Y-87438138D01*
X149050281Y-87426075D01*
X149048182Y-87414614D01*
X149045701Y-87403757D01*
X149042839Y-87393503D01*
X149040494Y-87386150D01*
X149037054Y-87376693D01*
X149032249Y-87365430D01*
X149026883Y-87354787D01*
X149020957Y-87344765D01*
X149014471Y-87335362D01*
X149007424Y-87326580D01*
X149004448Y-87323213D01*
X148996616Y-87315255D01*
X148988224Y-87307953D01*
X148979271Y-87301306D01*
X148969758Y-87295316D01*
X148959684Y-87289982D01*
X148949050Y-87285303D01*
X148942407Y-87282771D01*
X148930915Y-87279105D01*
X148921343Y-87276671D01*
X148911436Y-87274678D01*
X148901193Y-87273129D01*
X148890615Y-87272022D01*
X148879700Y-87271358D01*
X148868450Y-87271137D01*
X148857924Y-87271370D01*
X148847719Y-87272068D01*
X148837835Y-87273232D01*
X148825931Y-87275342D01*
X148814527Y-87278179D01*
X148803625Y-87281744D01*
X148793223Y-87286036D01*
X148789234Y-87287909D01*
X148779620Y-87292950D01*
X148770520Y-87298504D01*
X148761932Y-87304570D01*
X148753857Y-87311150D01*
X148746295Y-87318242D01*
X148739245Y-87325847D01*
X148736570Y-87328992D01*
X148730249Y-87337121D01*
X148724453Y-87345631D01*
X148719182Y-87354523D01*
X148714435Y-87363797D01*
X148710214Y-87373452D01*
X148706517Y-87383489D01*
X148703350Y-87393890D01*
X148700721Y-87404793D01*
X148698628Y-87416197D01*
X148697071Y-87428101D01*
X148696213Y-87437985D01*
X148695697Y-87448190D01*
X148695526Y-87458715D01*
X148695526Y-87652400D01*
X148633000Y-87652400D01*
X148633000Y-87467752D01*
X148633064Y-87458834D01*
X148633350Y-87447263D01*
X148633865Y-87436058D01*
X148634609Y-87425220D01*
X148635583Y-87414748D01*
X148636785Y-87404642D01*
X148638216Y-87394903D01*
X148640327Y-87383244D01*
X148641300Y-87378715D01*
X148643967Y-87367568D01*
X148646967Y-87356672D01*
X148650302Y-87346025D01*
X148653970Y-87335629D01*
X148657972Y-87325484D01*
X148662309Y-87315589D01*
X148664165Y-87311707D01*
X148669024Y-87302227D01*
X148674193Y-87293069D01*
X148679671Y-87284233D01*
X148685460Y-87275719D01*
X148691559Y-87267527D01*
X148697968Y-87259658D01*
X148700617Y-87256574D01*
X148707438Y-87249132D01*
X148714546Y-87242072D01*
X148721940Y-87235394D01*
X148729620Y-87229097D01*
X148737587Y-87223181D01*
X148745840Y-87217648D01*
X148749252Y-87215541D01*
X148757993Y-87210542D01*
X148767032Y-87205924D01*
X148776368Y-87201688D01*
X148786003Y-87197834D01*
X148795936Y-87194361D01*
X148806168Y-87191270D01*
X148810340Y-87190146D01*
X148820946Y-87187653D01*
X148831802Y-87185614D01*
X148842908Y-87184028D01*
X148854265Y-87182895D01*
X148865873Y-87182215D01*
X148877731Y-87181988D01*
X148888790Y-87182202D01*
G37*
G36*
X148984953Y-86778743D02*
G01*
X148650829Y-86778743D01*
X148643258Y-86780942D01*
X148637640Y-86787780D01*
X148634885Y-86797267D01*
X148634221Y-86800725D01*
X148633268Y-86810514D01*
X148633000Y-86820753D01*
X148633233Y-86830644D01*
X148634146Y-86840518D01*
X148634221Y-86841025D01*
X148636580Y-86850873D01*
X148637640Y-86853970D01*
X148643258Y-86861297D01*
X148650829Y-86863251D01*
X148984953Y-86863251D01*
X149492002Y-87118729D01*
X149501222Y-87122393D01*
X149508366Y-87124103D01*
X149517891Y-87121172D01*
X149521892Y-87112084D01*
X149522532Y-87108471D01*
X149523631Y-87098274D01*
X149523985Y-87088280D01*
X149523997Y-87085757D01*
X149523860Y-87075224D01*
X149523352Y-87065019D01*
X149523020Y-87061332D01*
X149521430Y-87051516D01*
X149519845Y-87046189D01*
X149514684Y-87037812D01*
X149514472Y-87037641D01*
X149506168Y-87032023D01*
X149231394Y-86895980D01*
X149221640Y-86891164D01*
X149211794Y-86886363D01*
X149201856Y-86881577D01*
X149191827Y-86876807D01*
X149181706Y-86872052D01*
X149171494Y-86867312D01*
X149161190Y-86862587D01*
X149150794Y-86857878D01*
X149140403Y-86853169D01*
X149129988Y-86848444D01*
X149119550Y-86843704D01*
X149109090Y-86838949D01*
X149098607Y-86834179D01*
X149088100Y-86829393D01*
X149077571Y-86824592D01*
X149067019Y-86819776D01*
X149067019Y-86818311D01*
X149077102Y-86813842D01*
X149087200Y-86809350D01*
X149097313Y-86804835D01*
X149107441Y-86800298D01*
X149117585Y-86795737D01*
X149127744Y-86791154D01*
X149137918Y-86786548D01*
X149148108Y-86781919D01*
X149158354Y-86777270D01*
X149168578Y-86772607D01*
X149178779Y-86767928D01*
X149188957Y-86763234D01*
X149199112Y-86758525D01*
X149209245Y-86753800D01*
X149219354Y-86749060D01*
X149229441Y-86744305D01*
X149506168Y-86606796D01*
X149514472Y-86602156D01*
X149519845Y-86594584D01*
X149522535Y-86585163D01*
X149523020Y-86581884D01*
X149523810Y-86571657D01*
X149523997Y-86562100D01*
X149523824Y-86551571D01*
X149523240Y-86541731D01*
X149522532Y-86535478D01*
X149520308Y-86525749D01*
X149517403Y-86521067D01*
X149508012Y-86517607D01*
X149507633Y-86517648D01*
X149498146Y-86520292D01*
X149492002Y-86523021D01*
X148984953Y-86778743D01*
G37*
G36*
X148652050Y-85734849D02*
G01*
X148643515Y-85740196D01*
X148642769Y-85740956D01*
X148637630Y-85749701D01*
X148636907Y-85751702D01*
X148634764Y-85761515D01*
X148633976Y-85767578D01*
X148633244Y-85777470D01*
X148633000Y-85787853D01*
X148633000Y-85788583D01*
X148633105Y-85798741D01*
X148633244Y-85803726D01*
X148634305Y-85813666D01*
X148634709Y-85816182D01*
X148636907Y-85825708D01*
X148640327Y-85833035D01*
X148645212Y-85838653D01*
X148652050Y-85842072D01*
X149492002Y-86146399D01*
X149501798Y-86149379D01*
X149508610Y-86150062D01*
X149517720Y-86146269D01*
X149518624Y-86145177D01*
X149522278Y-86135758D01*
X149523020Y-86130767D01*
X149523722Y-86120266D01*
X149523974Y-86109934D01*
X149523997Y-86105122D01*
X149523810Y-86094777D01*
X149523081Y-86084854D01*
X149523020Y-86084361D01*
X149520985Y-86074667D01*
X149519845Y-86071905D01*
X149514472Y-86064822D01*
X149506168Y-86060425D01*
X148729231Y-85784431D01*
X148729231Y-85783698D01*
X149506168Y-85515764D01*
X149514472Y-85512344D01*
X149519845Y-85505017D01*
X149522456Y-85495262D01*
X149523020Y-85491095D01*
X149523753Y-85480715D01*
X149523989Y-85470303D01*
X149523997Y-85467648D01*
X149523824Y-85457512D01*
X149523173Y-85447544D01*
X149522532Y-85442491D01*
X149519982Y-85432728D01*
X149517891Y-85429546D01*
X149508745Y-85426100D01*
X149508366Y-85426127D01*
X149498563Y-85428130D01*
X149492002Y-85430523D01*
X148652050Y-85734849D01*
G37*
G36*
X148664018Y-84795736D02*
G01*
X148654018Y-84796493D01*
X148650585Y-84797201D01*
X148641340Y-84801208D01*
X148640815Y-84801598D01*
X148634953Y-84808925D01*
X148633000Y-84817718D01*
X148633000Y-85233907D01*
X148634531Y-85243991D01*
X148638664Y-85253585D01*
X148642281Y-85259309D01*
X148649608Y-85266135D01*
X148658813Y-85270117D01*
X148669071Y-85271937D01*
X148676475Y-85272254D01*
X149480522Y-85272254D01*
X149490674Y-85271634D01*
X149500443Y-85269409D01*
X149509908Y-85264353D01*
X149514716Y-85259309D01*
X149520000Y-85250357D01*
X149523263Y-85240854D01*
X149523997Y-85233907D01*
X149523997Y-84823824D01*
X149522043Y-84815031D01*
X149515937Y-84808192D01*
X149506678Y-84804199D01*
X149505923Y-84804040D01*
X149496137Y-84802690D01*
X149491757Y-84802575D01*
X149481981Y-84803332D01*
X149478568Y-84804040D01*
X149469538Y-84807832D01*
X149469043Y-84808192D01*
X149463425Y-84815031D01*
X149461471Y-84823824D01*
X149461471Y-85188478D01*
X149133209Y-85188478D01*
X149133209Y-84873893D01*
X149131011Y-84864368D01*
X149125149Y-84857529D01*
X149116060Y-84853621D01*
X149114891Y-84853377D01*
X149104978Y-84852027D01*
X149100480Y-84851912D01*
X149090381Y-84852669D01*
X149087047Y-84853377D01*
X149077997Y-84857348D01*
X149077766Y-84857529D01*
X149072392Y-84864368D01*
X149070683Y-84873893D01*
X149070683Y-85188478D01*
X148695526Y-85188478D01*
X148695526Y-84817718D01*
X148693572Y-84808925D01*
X148687710Y-84801598D01*
X148678694Y-84797361D01*
X148677940Y-84797201D01*
X148667911Y-84795827D01*
X148664018Y-84795736D01*
G37*
G36*
X148879441Y-84104284D02*
G01*
X148868717Y-84104452D01*
X148858160Y-84104954D01*
X148847771Y-84105791D01*
X148837549Y-84106963D01*
X148827495Y-84108470D01*
X148817608Y-84110312D01*
X148807889Y-84112489D01*
X148798337Y-84115000D01*
X148788952Y-84117847D01*
X148776700Y-84122163D01*
X148773683Y-84123335D01*
X148761914Y-84128323D01*
X148750541Y-84133883D01*
X148739566Y-84140016D01*
X148728987Y-84146721D01*
X148718805Y-84153999D01*
X148709020Y-84161849D01*
X148699632Y-84170272D01*
X148690641Y-84179267D01*
X148682153Y-84188781D01*
X148674154Y-84198883D01*
X148668476Y-84206845D01*
X148663072Y-84215137D01*
X148657943Y-84223760D01*
X148653088Y-84232714D01*
X148648509Y-84241998D01*
X148644204Y-84251613D01*
X148640174Y-84261559D01*
X148636419Y-84271835D01*
X148633014Y-84282426D01*
X148629945Y-84293319D01*
X148627210Y-84304511D01*
X148624810Y-84316005D01*
X148622745Y-84327798D01*
X148621014Y-84339893D01*
X148619619Y-84352288D01*
X148618559Y-84364983D01*
X148617833Y-84377979D01*
X148617442Y-84391275D01*
X148617368Y-84400307D01*
X148617482Y-84411214D01*
X148617826Y-84421953D01*
X148618398Y-84432524D01*
X148619200Y-84442927D01*
X148620230Y-84453162D01*
X148621490Y-84463230D01*
X148622978Y-84473129D01*
X148624695Y-84482861D01*
X148626974Y-84494635D01*
X148629385Y-84505992D01*
X148631926Y-84516932D01*
X148634599Y-84527454D01*
X148637402Y-84537559D01*
X148640337Y-84547246D01*
X148641548Y-84551004D01*
X148645320Y-84561835D01*
X148649127Y-84571979D01*
X148652968Y-84581436D01*
X148657493Y-84591600D01*
X148662064Y-84600830D01*
X148666903Y-84609791D01*
X148671793Y-84618372D01*
X148676475Y-84625498D01*
X148683558Y-84632346D01*
X148684290Y-84632826D01*
X148693327Y-84636978D01*
X148703039Y-84639272D01*
X148705784Y-84639665D01*
X148715808Y-84640480D01*
X148723858Y-84640642D01*
X148733982Y-84640294D01*
X148744354Y-84638748D01*
X148750725Y-84636245D01*
X148757186Y-84628892D01*
X148758052Y-84624033D01*
X148754938Y-84614752D01*
X148749829Y-84605726D01*
X148745595Y-84599120D01*
X148740147Y-84590271D01*
X148734489Y-84580394D01*
X148729472Y-84571109D01*
X148724300Y-84561068D01*
X148719871Y-84552124D01*
X148718973Y-84550272D01*
X148714517Y-84540721D01*
X148710157Y-84530694D01*
X148705893Y-84520190D01*
X148701723Y-84509208D01*
X148697649Y-84497750D01*
X148694459Y-84488240D01*
X148692106Y-84480907D01*
X148689244Y-84470881D01*
X148686763Y-84460589D01*
X148684664Y-84450029D01*
X148682947Y-84439202D01*
X148681611Y-84428108D01*
X148680657Y-84416747D01*
X148680085Y-84405119D01*
X148679894Y-84393224D01*
X148680108Y-84381080D01*
X148680749Y-84369318D01*
X148681818Y-84357938D01*
X148683314Y-84346939D01*
X148685237Y-84336323D01*
X148687588Y-84326087D01*
X148690366Y-84316234D01*
X148693572Y-84306762D01*
X148697163Y-84297663D01*
X148702135Y-84286806D01*
X148707643Y-84276521D01*
X148713689Y-84266809D01*
X148720271Y-84257669D01*
X148727389Y-84249101D01*
X148731918Y-84244235D01*
X148739853Y-84236608D01*
X148748242Y-84229600D01*
X148757084Y-84223212D01*
X148766379Y-84217445D01*
X148776127Y-84212298D01*
X148786329Y-84207771D01*
X148790536Y-84206133D01*
X148801371Y-84202475D01*
X148812504Y-84199436D01*
X148823935Y-84197017D01*
X148835664Y-84195219D01*
X148847691Y-84194041D01*
X148857528Y-84193544D01*
X148865030Y-84193433D01*
X148875647Y-84193692D01*
X148886005Y-84194471D01*
X148896102Y-84195768D01*
X148905941Y-84197585D01*
X148915520Y-84199921D01*
X148927128Y-84203570D01*
X148938332Y-84208030D01*
X148942699Y-84210041D01*
X148953370Y-84215513D01*
X148963551Y-84221700D01*
X148973243Y-84228603D01*
X148982446Y-84236221D01*
X148991160Y-84244555D01*
X148999386Y-84253604D01*
X149002539Y-84257424D01*
X149008649Y-84265336D01*
X149014400Y-84273682D01*
X149019792Y-84282463D01*
X149024826Y-84291680D01*
X149029501Y-84301331D01*
X149033817Y-84311417D01*
X149037775Y-84321939D01*
X149041374Y-84332896D01*
X149044579Y-84344241D01*
X149047357Y-84355931D01*
X149049708Y-84367963D01*
X149051632Y-84380340D01*
X149053128Y-84393059D01*
X149053969Y-84402825D01*
X149054570Y-84412783D01*
X149054931Y-84422935D01*
X149055051Y-84433279D01*
X149055051Y-84521207D01*
X149056761Y-84529755D01*
X149062378Y-84538060D01*
X149070713Y-84543536D01*
X149072148Y-84544166D01*
X149081929Y-84546369D01*
X149087291Y-84546608D01*
X149097166Y-84545599D01*
X149100480Y-84544654D01*
X149109056Y-84539872D01*
X149110006Y-84539036D01*
X149115623Y-84531221D01*
X149117575Y-84521542D01*
X149117577Y-84521207D01*
X149117577Y-84443538D01*
X149117795Y-84431654D01*
X149118447Y-84420060D01*
X149119535Y-84408756D01*
X149121058Y-84397742D01*
X149123016Y-84387018D01*
X149125408Y-84376584D01*
X149128236Y-84366441D01*
X149131499Y-84356587D01*
X149135228Y-84347058D01*
X149139330Y-84337887D01*
X149143807Y-84329075D01*
X149149928Y-84318565D01*
X149156634Y-84308615D01*
X149163925Y-84299226D01*
X149171799Y-84290397D01*
X149180217Y-84282088D01*
X149189135Y-84274412D01*
X149198554Y-84267367D01*
X149208474Y-84260955D01*
X149218895Y-84255174D01*
X149229816Y-84250026D01*
X149234325Y-84248143D01*
X149243557Y-84244651D01*
X149253056Y-84241625D01*
X149262822Y-84239064D01*
X149272855Y-84236969D01*
X149283155Y-84235340D01*
X149293722Y-84234176D01*
X149304557Y-84233477D01*
X149315658Y-84233244D01*
X149325943Y-84233489D01*
X149336037Y-84234222D01*
X149345941Y-84235445D01*
X149355653Y-84237156D01*
X149365175Y-84239356D01*
X149376349Y-84242642D01*
X149378184Y-84243258D01*
X149389001Y-84247349D01*
X149399285Y-84252108D01*
X149409036Y-84257538D01*
X149418256Y-84263637D01*
X149426942Y-84270407D01*
X149429720Y-84272812D01*
X149437711Y-84280508D01*
X149445015Y-84288943D01*
X149451633Y-84298117D01*
X149457563Y-84308029D01*
X149461981Y-84316853D01*
X149464402Y-84322393D01*
X149468061Y-84331949D01*
X149471100Y-84341995D01*
X149473518Y-84352529D01*
X149475317Y-84363552D01*
X149476495Y-84375064D01*
X149477053Y-84387065D01*
X149477103Y-84392002D01*
X149476912Y-84402329D01*
X149476340Y-84412427D01*
X149475385Y-84422296D01*
X149473656Y-84434310D01*
X149471331Y-84445967D01*
X149468409Y-84457265D01*
X149464891Y-84468206D01*
X149461015Y-84478707D01*
X149457020Y-84488838D01*
X149452905Y-84498599D01*
X149448671Y-84507991D01*
X149444318Y-84517013D01*
X149438937Y-84527351D01*
X149438024Y-84529023D01*
X149432614Y-84538579D01*
X149427376Y-84547467D01*
X149421483Y-84556989D01*
X149415823Y-84565599D01*
X149411157Y-84572254D01*
X149405254Y-84580941D01*
X149400388Y-84590060D01*
X149398945Y-84595945D01*
X149400166Y-84603517D01*
X149405295Y-84609378D01*
X149414585Y-84612602D01*
X149415798Y-84612798D01*
X149425758Y-84613637D01*
X149433383Y-84613775D01*
X149443174Y-84613328D01*
X149445595Y-84613042D01*
X149455055Y-84610595D01*
X149455609Y-84610355D01*
X149464158Y-84605715D01*
X149471540Y-84599197D01*
X149473928Y-84596678D01*
X149480132Y-84588690D01*
X149485880Y-84580008D01*
X149491269Y-84571277D01*
X149496256Y-84562426D01*
X149501173Y-84552757D01*
X149505332Y-84543818D01*
X149509439Y-84534279D01*
X149513495Y-84524138D01*
X149517413Y-84513422D01*
X149520508Y-84504072D01*
X149523448Y-84494340D01*
X149526233Y-84484227D01*
X149528862Y-84473732D01*
X149531337Y-84462856D01*
X149531813Y-84460635D01*
X149534065Y-84449372D01*
X149535935Y-84437870D01*
X149537423Y-84426130D01*
X149538530Y-84414152D01*
X149539140Y-84404398D01*
X149539507Y-84394491D01*
X149539629Y-84384431D01*
X149539481Y-84373080D01*
X149539036Y-84362017D01*
X149538296Y-84351241D01*
X149537259Y-84340753D01*
X149535926Y-84330553D01*
X149534297Y-84320640D01*
X149532371Y-84311016D01*
X149529343Y-84298630D01*
X149525788Y-84286755D01*
X149522776Y-84278185D01*
X149518365Y-84267190D01*
X149513556Y-84256676D01*
X149508351Y-84246643D01*
X149502748Y-84237091D01*
X149496749Y-84228020D01*
X149490353Y-84219429D01*
X149483560Y-84211320D01*
X149476370Y-84203691D01*
X149468810Y-84196539D01*
X149460906Y-84189861D01*
X149452659Y-84183656D01*
X149444069Y-84177923D01*
X149435135Y-84172665D01*
X149425858Y-84167879D01*
X149416237Y-84163567D01*
X149406272Y-84159727D01*
X149396033Y-84156350D01*
X149385588Y-84153423D01*
X149374937Y-84150946D01*
X149364079Y-84148920D01*
X149353016Y-84147343D01*
X149341746Y-84146218D01*
X149330271Y-84145542D01*
X149318589Y-84145317D01*
X149307808Y-84145496D01*
X149297203Y-84146034D01*
X149286773Y-84146931D01*
X149276518Y-84148187D01*
X149266440Y-84149801D01*
X149256536Y-84151774D01*
X149246808Y-84154106D01*
X149237256Y-84156796D01*
X149225705Y-84160570D01*
X149214559Y-84164868D01*
X149203818Y-84169691D01*
X149193483Y-84175038D01*
X149183554Y-84180911D01*
X149174030Y-84187308D01*
X149170334Y-84190013D01*
X149161478Y-84197127D01*
X149153075Y-84204730D01*
X149145125Y-84212822D01*
X149137628Y-84221402D01*
X149130585Y-84230472D01*
X149123994Y-84240031D01*
X149121485Y-84243991D01*
X149115683Y-84254146D01*
X149110489Y-84264766D01*
X149105904Y-84275851D01*
X149101927Y-84287401D01*
X149099183Y-84296977D01*
X149096828Y-84306849D01*
X149094863Y-84317020D01*
X149093397Y-84317020D01*
X149092199Y-84305651D01*
X149090558Y-84294504D01*
X149088474Y-84283578D01*
X149085948Y-84272873D01*
X149082979Y-84262389D01*
X149079567Y-84252127D01*
X149075713Y-84242087D01*
X149071415Y-84232267D01*
X149066798Y-84222723D01*
X149061859Y-84213507D01*
X149056601Y-84204618D01*
X149051021Y-84196058D01*
X149045121Y-84187827D01*
X149038901Y-84179923D01*
X149032359Y-84172348D01*
X149025498Y-84165101D01*
X149018331Y-84158151D01*
X149010874Y-84151591D01*
X149003127Y-84145420D01*
X148995090Y-84139638D01*
X148986762Y-84134246D01*
X148978145Y-84129243D01*
X148969238Y-84124629D01*
X148960041Y-84120404D01*
X148950607Y-84116626D01*
X148940990Y-84113352D01*
X148931189Y-84110581D01*
X148921206Y-84108314D01*
X148911039Y-84106551D01*
X148900690Y-84105292D01*
X148890157Y-84104536D01*
X148879441Y-84104284D01*
G37*
G36*
X148864297Y-83429197D02*
G01*
X148853549Y-83429384D01*
X148843011Y-83429944D01*
X148832684Y-83430878D01*
X148822566Y-83432185D01*
X148812659Y-83433866D01*
X148802963Y-83435920D01*
X148793477Y-83438348D01*
X148781156Y-83442166D01*
X148769209Y-83446649D01*
X148760494Y-83450446D01*
X148749290Y-83456029D01*
X148738512Y-83462155D01*
X148728163Y-83468822D01*
X148718240Y-83476031D01*
X148708745Y-83483781D01*
X148699678Y-83492074D01*
X148691038Y-83500909D01*
X148682825Y-83510286D01*
X148675120Y-83520101D01*
X148667880Y-83530375D01*
X148661107Y-83541106D01*
X148654798Y-83552295D01*
X148648955Y-83563943D01*
X148644879Y-83572979D01*
X148641064Y-83582272D01*
X148637512Y-83591824D01*
X148634221Y-83601632D01*
X148631209Y-83611610D01*
X148628493Y-83621760D01*
X148626074Y-83632081D01*
X148623951Y-83642574D01*
X148622124Y-83653238D01*
X148620594Y-83664075D01*
X148619359Y-83675083D01*
X148618421Y-83686263D01*
X148617779Y-83697614D01*
X148617434Y-83709137D01*
X148617368Y-83716915D01*
X148617494Y-83727524D01*
X148617872Y-83737981D01*
X148618501Y-83748285D01*
X148619383Y-83758436D01*
X148620516Y-83768435D01*
X148621902Y-83778281D01*
X148623539Y-83787974D01*
X148625428Y-83797515D01*
X148628024Y-83809073D01*
X148630776Y-83820236D01*
X148633682Y-83831007D01*
X148636743Y-83841384D01*
X148639960Y-83851367D01*
X148643331Y-83860956D01*
X148644723Y-83864682D01*
X148649028Y-83875438D01*
X148653333Y-83885542D01*
X148657637Y-83894993D01*
X148661942Y-83903791D01*
X148666965Y-83913231D01*
X148667682Y-83914508D01*
X148673315Y-83923850D01*
X148679104Y-83932462D01*
X148685393Y-83940260D01*
X148687466Y-83942351D01*
X148695129Y-83948537D01*
X148704074Y-83953342D01*
X148713844Y-83955907D01*
X148723995Y-83956748D01*
X148725568Y-83956762D01*
X148735674Y-83956331D01*
X148741199Y-83955540D01*
X148750442Y-83952228D01*
X148751457Y-83951632D01*
X148756586Y-83945526D01*
X148758052Y-83937466D01*
X148755668Y-83927589D01*
X148751045Y-83918644D01*
X148745595Y-83910355D01*
X148740147Y-83902183D01*
X148734489Y-83893051D01*
X148729472Y-83884462D01*
X148724300Y-83875168D01*
X148718973Y-83865170D01*
X148714517Y-83856201D01*
X148710157Y-83846695D01*
X148705893Y-83836652D01*
X148701723Y-83826073D01*
X148697649Y-83814956D01*
X148694459Y-83805677D01*
X148692106Y-83798492D01*
X148689244Y-83788585D01*
X148686763Y-83778281D01*
X148684664Y-83767580D01*
X148682947Y-83756482D01*
X148681611Y-83744988D01*
X148680657Y-83733096D01*
X148680085Y-83720808D01*
X148679894Y-83708122D01*
X148680089Y-83697731D01*
X148680673Y-83687560D01*
X148681646Y-83677611D01*
X148683008Y-83667883D01*
X148685259Y-83656035D01*
X148688117Y-83644532D01*
X148691584Y-83633376D01*
X148692351Y-83631186D01*
X148696511Y-83620433D01*
X148701209Y-83610158D01*
X148706443Y-83600360D01*
X148712214Y-83591038D01*
X148718522Y-83582194D01*
X148725366Y-83573827D01*
X148728254Y-83570614D01*
X148735850Y-83562956D01*
X148743982Y-83555859D01*
X148752651Y-83549322D01*
X148761857Y-83543346D01*
X148771599Y-83537931D01*
X148781878Y-83533076D01*
X148786140Y-83531290D01*
X148797134Y-83527209D01*
X148808594Y-83523820D01*
X148820519Y-83521122D01*
X148830393Y-83519462D01*
X148840566Y-83518245D01*
X148851036Y-83517470D01*
X148861803Y-83517138D01*
X148864542Y-83517124D01*
X148875037Y-83517403D01*
X148885150Y-83518239D01*
X148894881Y-83519632D01*
X148906509Y-83522156D01*
X148917541Y-83525552D01*
X148927976Y-83529818D01*
X148937815Y-83534954D01*
X148947170Y-83540806D01*
X148956157Y-83547219D01*
X148964773Y-83554192D01*
X148973020Y-83561725D01*
X148980897Y-83569820D01*
X148988404Y-83578474D01*
X148991304Y-83582093D01*
X148998447Y-83591373D01*
X149005376Y-83601046D01*
X149012091Y-83611112D01*
X149017308Y-83619449D01*
X149022387Y-83628038D01*
X149027329Y-83636878D01*
X149032134Y-83645970D01*
X149033314Y-83648283D01*
X149038015Y-83657591D01*
X149042717Y-83666952D01*
X149047419Y-83676367D01*
X149052120Y-83685835D01*
X149056822Y-83695357D01*
X149061524Y-83704932D01*
X149066225Y-83714560D01*
X149070927Y-83724242D01*
X149075678Y-83733924D01*
X149080529Y-83743553D01*
X149085478Y-83753128D01*
X149090527Y-83762650D01*
X149095676Y-83772118D01*
X149100923Y-83781533D01*
X149106270Y-83790894D01*
X149111715Y-83800202D01*
X149117383Y-83809361D01*
X149123271Y-83818276D01*
X149129381Y-83826946D01*
X149135712Y-83835373D01*
X149142265Y-83843555D01*
X149149039Y-83851493D01*
X149156034Y-83859187D01*
X149163251Y-83866636D01*
X149170799Y-83873727D01*
X149178669Y-83880466D01*
X149186858Y-83886855D01*
X149195369Y-83892892D01*
X149204200Y-83898578D01*
X149213351Y-83903913D01*
X149222823Y-83908898D01*
X149232616Y-83913531D01*
X149242756Y-83917709D01*
X149253269Y-83921331D01*
X149264157Y-83924396D01*
X149275419Y-83926903D01*
X149287055Y-83928853D01*
X149299065Y-83930246D01*
X149311449Y-83931082D01*
X149324207Y-83931360D01*
X149336621Y-83931070D01*
X149348707Y-83930200D01*
X149360465Y-83928750D01*
X149371895Y-83926720D01*
X149382997Y-83924109D01*
X149393770Y-83920919D01*
X149404215Y-83917148D01*
X149414332Y-83912798D01*
X149424156Y-83907924D01*
X149433597Y-83902585D01*
X149442657Y-83896781D01*
X149451335Y-83890511D01*
X149459632Y-83883775D01*
X149467547Y-83876574D01*
X149475080Y-83868907D01*
X149482232Y-83860774D01*
X149488987Y-83852138D01*
X149495329Y-83843082D01*
X149501260Y-83833606D01*
X149506778Y-83823710D01*
X149511884Y-83813395D01*
X149516579Y-83802660D01*
X149520860Y-83791505D01*
X149524730Y-83779930D01*
X149528222Y-83768004D01*
X149531248Y-83755795D01*
X149533809Y-83743305D01*
X149535904Y-83730532D01*
X149537170Y-83720766D01*
X149538174Y-83710842D01*
X149538916Y-83700759D01*
X149539396Y-83690518D01*
X149539614Y-83680117D01*
X149539629Y-83676615D01*
X149539431Y-83665973D01*
X149538839Y-83655297D01*
X149537852Y-83644587D01*
X149536469Y-83633842D01*
X149534692Y-83623063D01*
X149534011Y-83619462D01*
X149531885Y-83608766D01*
X149529535Y-83598293D01*
X149526962Y-83588044D01*
X149524165Y-83578017D01*
X149521146Y-83568214D01*
X149520090Y-83564996D01*
X149516807Y-83555485D01*
X149512781Y-83544888D01*
X149508545Y-83534828D01*
X149504099Y-83525306D01*
X149500794Y-83518834D01*
X149495681Y-83509568D01*
X149490548Y-83501224D01*
X149484294Y-83493060D01*
X149483453Y-83492212D01*
X149476343Y-83485255D01*
X149474660Y-83483907D01*
X149468310Y-83480976D01*
X149459029Y-83478778D01*
X149448920Y-83478071D01*
X149446084Y-83478046D01*
X149436146Y-83478595D01*
X149433139Y-83479023D01*
X149423651Y-83481928D01*
X149423125Y-83482198D01*
X149416775Y-83487327D01*
X149414577Y-83494410D01*
X149416958Y-83503996D01*
X149421358Y-83512925D01*
X149424102Y-83517613D01*
X149429771Y-83526906D01*
X149435103Y-83536237D01*
X149439993Y-83545228D01*
X149445094Y-83554990D01*
X149445840Y-83556448D01*
X149450242Y-83565466D01*
X149454472Y-83575121D01*
X149458531Y-83585410D01*
X149462418Y-83596335D01*
X149465526Y-83605925D01*
X149467333Y-83611891D01*
X149470148Y-83622186D01*
X149472485Y-83632923D01*
X149474346Y-83644101D01*
X149475729Y-83655721D01*
X149476635Y-83667781D01*
X149477017Y-83677748D01*
X149477103Y-83685408D01*
X149476912Y-83695384D01*
X149476137Y-83707402D01*
X149474765Y-83718921D01*
X149472798Y-83729938D01*
X149470233Y-83740454D01*
X149467073Y-83750469D01*
X149464891Y-83756238D01*
X149460860Y-83765382D01*
X149455456Y-83775709D01*
X149449434Y-83785331D01*
X149442793Y-83794250D01*
X149435535Y-83802465D01*
X149431674Y-83806308D01*
X149423539Y-83813383D01*
X149414890Y-83819772D01*
X149405725Y-83825473D01*
X149396045Y-83830488D01*
X149385849Y-83834816D01*
X149382337Y-83836106D01*
X149371692Y-83839509D01*
X149360824Y-83842208D01*
X149349733Y-83844203D01*
X149338419Y-83845494D01*
X149326881Y-83846080D01*
X149322986Y-83846120D01*
X149312491Y-83845841D01*
X149302378Y-83845005D01*
X149292646Y-83843612D01*
X149281018Y-83841088D01*
X149269987Y-83837692D01*
X149259552Y-83833426D01*
X149249713Y-83828290D01*
X149240339Y-83822432D01*
X149231299Y-83816001D01*
X149222593Y-83808998D01*
X149214221Y-83801423D01*
X149206183Y-83793275D01*
X149198479Y-83784555D01*
X149195491Y-83780907D01*
X149188277Y-83771480D01*
X149181289Y-83761673D01*
X149174529Y-83751483D01*
X149169283Y-83743057D01*
X149164183Y-83734386D01*
X149159227Y-83725471D01*
X149154417Y-83716312D01*
X149153237Y-83713984D01*
X149148535Y-83704566D01*
X149143833Y-83695116D01*
X149139132Y-83685637D01*
X149134430Y-83676127D01*
X149129728Y-83666586D01*
X149125027Y-83657015D01*
X149120325Y-83647413D01*
X149115623Y-83637780D01*
X149110876Y-83628095D01*
X149106037Y-83618455D01*
X149101106Y-83608860D01*
X149096084Y-83599312D01*
X149090970Y-83589810D01*
X149085765Y-83580353D01*
X149080468Y-83570942D01*
X149075079Y-83561577D01*
X149069523Y-83552299D01*
X149063722Y-83543274D01*
X149057677Y-83534500D01*
X149051387Y-83525978D01*
X149044854Y-83517708D01*
X149038076Y-83509690D01*
X149031054Y-83501924D01*
X149023788Y-83494410D01*
X149016243Y-83487205D01*
X149008385Y-83480366D01*
X149000215Y-83473893D01*
X148991731Y-83467787D01*
X148982935Y-83462048D01*
X148973825Y-83456674D01*
X148964403Y-83451667D01*
X148954667Y-83447027D01*
X148944653Y-83442848D01*
X148934273Y-83439226D01*
X148923526Y-83436162D01*
X148912413Y-83433654D01*
X148900934Y-83431704D01*
X148889088Y-83430311D01*
X148876876Y-83429476D01*
X148864297Y-83429197D01*
G37*
G36*
X148652050Y-82939734D02*
G01*
X148643515Y-82945081D01*
X148642769Y-82945840D01*
X148637630Y-82954586D01*
X148636907Y-82956587D01*
X148634764Y-82966399D01*
X148633976Y-82972463D01*
X148633244Y-82982355D01*
X148633000Y-82992737D01*
X148633000Y-82993468D01*
X148633105Y-83003626D01*
X148633244Y-83008611D01*
X148634305Y-83018551D01*
X148634709Y-83021067D01*
X148636907Y-83030593D01*
X148640327Y-83037920D01*
X148645212Y-83043538D01*
X148652050Y-83046957D01*
X149492002Y-83351284D01*
X149501798Y-83354264D01*
X149508610Y-83354947D01*
X149517720Y-83351154D01*
X149518624Y-83350062D01*
X149522278Y-83340643D01*
X149523020Y-83335652D01*
X149523722Y-83325151D01*
X149523974Y-83314819D01*
X149523997Y-83310006D01*
X149523810Y-83299661D01*
X149523081Y-83289739D01*
X149523020Y-83289246D01*
X149520985Y-83279552D01*
X149519845Y-83276789D01*
X149514472Y-83269706D01*
X149506168Y-83265310D01*
X148729231Y-82989316D01*
X148729231Y-82988583D01*
X149506168Y-82720648D01*
X149514472Y-82717229D01*
X149519845Y-82709902D01*
X149522456Y-82700147D01*
X149523020Y-82695980D01*
X149523753Y-82685600D01*
X149523989Y-82675187D01*
X149523997Y-82672533D01*
X149523824Y-82662397D01*
X149523173Y-82652428D01*
X149522532Y-82647376D01*
X149519982Y-82637613D01*
X149517891Y-82634431D01*
X149508745Y-82630985D01*
X149508366Y-82631011D01*
X149498563Y-82633015D01*
X149492002Y-82635408D01*
X148652050Y-82939734D01*
G37*
G36*
X149491757Y-82027243D02*
G01*
X149481981Y-82028000D01*
X149478568Y-82028709D01*
X149469538Y-82032716D01*
X149469043Y-82033105D01*
X149463425Y-82040432D01*
X149461471Y-82049225D01*
X149461471Y-82393363D01*
X149101946Y-82393363D01*
X149101946Y-82067055D01*
X149100480Y-82058262D01*
X149095351Y-82050935D01*
X149086205Y-82046616D01*
X149085826Y-82046538D01*
X149075759Y-82045189D01*
X149070927Y-82045073D01*
X149060800Y-82045830D01*
X149057249Y-82046538D01*
X149048230Y-82050356D01*
X149047480Y-82050935D01*
X149041374Y-82058262D01*
X149039420Y-82067055D01*
X149039420Y-82393363D01*
X148650829Y-82393363D01*
X148643258Y-82395561D01*
X148637640Y-82402400D01*
X148634787Y-82412198D01*
X148634221Y-82415101D01*
X148633233Y-82425284D01*
X148633000Y-82435129D01*
X148633268Y-82445368D01*
X148634221Y-82455157D01*
X148636467Y-82464959D01*
X148637640Y-82468346D01*
X148643258Y-82475184D01*
X148650829Y-82477138D01*
X149480766Y-82477138D01*
X149490823Y-82476519D01*
X149500512Y-82474294D01*
X149509919Y-82469237D01*
X149514716Y-82464193D01*
X149520000Y-82455241D01*
X149523263Y-82445739D01*
X149523997Y-82438792D01*
X149523997Y-82049225D01*
X149522043Y-82040432D01*
X149515937Y-82033105D01*
X149507049Y-82028955D01*
X149505923Y-82028709D01*
X149496137Y-82027359D01*
X149491757Y-82027243D01*
G37*
G36*
X148650829Y-81433000D02*
G01*
X148643258Y-81435198D01*
X148637640Y-81442037D01*
X148634787Y-81451836D01*
X148634221Y-81454738D01*
X148633233Y-81464922D01*
X148633000Y-81474766D01*
X148633268Y-81485005D01*
X148634221Y-81494794D01*
X148636467Y-81504596D01*
X148637640Y-81507983D01*
X148643258Y-81514822D01*
X148650829Y-81516775D01*
X149506168Y-81516775D01*
X149513739Y-81514333D01*
X149519113Y-81506762D01*
X149521951Y-81497108D01*
X149522532Y-81493817D01*
X149523717Y-81483822D01*
X149523997Y-81474766D01*
X149523717Y-81464922D01*
X149522532Y-81454738D01*
X149520272Y-81444918D01*
X149519113Y-81442037D01*
X149513739Y-81435198D01*
X149506168Y-81433000D01*
X148650829Y-81433000D01*
G37*
G36*
X148676230Y-80537850D02*
G01*
X148666126Y-80538598D01*
X148656524Y-80541285D01*
X148655470Y-80541758D01*
X148646932Y-80546884D01*
X148642281Y-80551284D01*
X148636811Y-80559608D01*
X148634953Y-80564473D01*
X148633154Y-80574150D01*
X148633000Y-80577662D01*
X148633000Y-80594759D01*
X148633480Y-80604708D01*
X148635087Y-80614788D01*
X148636419Y-80619916D01*
X148640242Y-80628964D01*
X148645758Y-80637850D01*
X148648875Y-80641898D01*
X148655613Y-80649147D01*
X148662940Y-80655787D01*
X148671412Y-80662475D01*
X148672323Y-80663147D01*
X148681321Y-80669248D01*
X148690358Y-80674995D01*
X148699067Y-80680274D01*
X148708524Y-80685787D01*
X148709936Y-80686594D01*
X149263635Y-80999958D01*
X149273805Y-81005823D01*
X149284044Y-81011697D01*
X149294352Y-81017577D01*
X149304728Y-81023466D01*
X149315174Y-81029362D01*
X149325687Y-81035266D01*
X149336270Y-81041177D01*
X149346921Y-81047096D01*
X149357573Y-81052981D01*
X149368155Y-81058790D01*
X149378669Y-81064522D01*
X149389114Y-81070177D01*
X149399491Y-81075757D01*
X149409799Y-81081260D01*
X149420038Y-81086687D01*
X149430208Y-81092037D01*
X149430208Y-81092770D01*
X149417653Y-81092598D01*
X149405021Y-81092449D01*
X149392312Y-81092323D01*
X149379528Y-81092220D01*
X149366667Y-81092140D01*
X149353730Y-81092083D01*
X149340716Y-81092049D01*
X149330906Y-81092038D01*
X149327626Y-81092037D01*
X149317845Y-81092037D01*
X149304864Y-81092037D01*
X149291952Y-81092037D01*
X149279108Y-81092037D01*
X149266333Y-81092037D01*
X149253627Y-81092037D01*
X149240989Y-81092037D01*
X149228420Y-81092037D01*
X149225288Y-81092037D01*
X148650829Y-81092037D01*
X148643258Y-81094235D01*
X148637640Y-81101074D01*
X148634787Y-81110873D01*
X148634221Y-81113775D01*
X148633233Y-81123959D01*
X148633000Y-81133803D01*
X148633268Y-81144042D01*
X148634221Y-81153831D01*
X148636467Y-81163633D01*
X148637640Y-81167020D01*
X148643258Y-81173859D01*
X148650829Y-81175812D01*
X149480766Y-81175812D01*
X149490823Y-81175193D01*
X149500512Y-81172968D01*
X149509919Y-81167912D01*
X149514716Y-81162868D01*
X149520000Y-81153916D01*
X149523263Y-81144413D01*
X149523997Y-81137466D01*
X149523997Y-81103028D01*
X149523735Y-81093196D01*
X149522728Y-81082847D01*
X149521311Y-81075429D01*
X149517933Y-81065608D01*
X149512839Y-81056753D01*
X149512030Y-81055645D01*
X149505231Y-81047831D01*
X149497766Y-81041282D01*
X149493467Y-81038060D01*
X149485343Y-81032550D01*
X149476930Y-81027305D01*
X149467474Y-81021791D01*
X149462937Y-81019253D01*
X149038687Y-80779651D01*
X149028784Y-80774010D01*
X149018980Y-80768446D01*
X149009275Y-80762958D01*
X148999669Y-80757547D01*
X148990163Y-80752211D01*
X148980756Y-80746953D01*
X148971448Y-80741770D01*
X148962239Y-80736664D01*
X148953099Y-80731615D01*
X148943997Y-80726604D01*
X148934933Y-80721631D01*
X148925908Y-80716697D01*
X148916920Y-80711801D01*
X148907971Y-80706943D01*
X148899060Y-80702123D01*
X148890187Y-80697341D01*
X148881406Y-80692525D01*
X148872648Y-80687724D01*
X148863912Y-80682938D01*
X148855199Y-80678168D01*
X148846510Y-80673413D01*
X148837843Y-80668673D01*
X148829199Y-80663948D01*
X148820578Y-80659239D01*
X148812018Y-80654484D01*
X148803435Y-80649744D01*
X148794829Y-80645019D01*
X148786201Y-80640310D01*
X148777549Y-80635616D01*
X148768875Y-80630937D01*
X148760178Y-80626274D01*
X148751457Y-80621625D01*
X148751457Y-80620893D01*
X148762262Y-80621024D01*
X148773153Y-80621142D01*
X148784130Y-80621247D01*
X148795192Y-80621339D01*
X148806340Y-80621419D01*
X148817575Y-80621485D01*
X148828895Y-80621539D01*
X148840301Y-80621580D01*
X148851792Y-80621608D01*
X148863370Y-80621623D01*
X148871136Y-80621625D01*
X148882773Y-80621625D01*
X148894329Y-80621625D01*
X148905803Y-80621625D01*
X148917195Y-80621625D01*
X148928506Y-80621625D01*
X148939735Y-80621625D01*
X148950883Y-80621625D01*
X148961949Y-80621625D01*
X148972933Y-80621625D01*
X148983836Y-80621625D01*
X148991060Y-80621625D01*
X149506168Y-80621625D01*
X149513739Y-80619672D01*
X149519601Y-80612833D01*
X149522523Y-80603411D01*
X149523020Y-80600132D01*
X149523783Y-80590328D01*
X149523996Y-80580390D01*
X149523997Y-80579616D01*
X149523753Y-80569480D01*
X149523020Y-80560565D01*
X149520984Y-80550878D01*
X149519601Y-80547620D01*
X149513739Y-80540293D01*
X149506168Y-80537850D01*
X148676230Y-80537850D01*
G37*
G36*
X148742176Y-79384535D02*
G01*
X148732329Y-79385057D01*
X148730697Y-79385268D01*
X148721904Y-79387466D01*
X148714577Y-79391130D01*
X148706924Y-79397840D01*
X148704563Y-79400167D01*
X148697794Y-79407906D01*
X148691455Y-79416287D01*
X148685589Y-79424515D01*
X148682825Y-79428499D01*
X148677164Y-79437146D01*
X148671536Y-79446600D01*
X148665944Y-79456861D01*
X148661309Y-79466028D01*
X148656699Y-79475756D01*
X148653027Y-79483942D01*
X148648549Y-79494567D01*
X148644274Y-79505681D01*
X148640999Y-79514924D01*
X148637855Y-79524480D01*
X148634840Y-79534349D01*
X148631955Y-79544531D01*
X148629199Y-79555026D01*
X148627870Y-79560390D01*
X148625409Y-79571339D01*
X148623276Y-79582571D01*
X148621470Y-79594084D01*
X148619994Y-79605881D01*
X148618845Y-79617959D01*
X148618024Y-79630320D01*
X148617532Y-79642963D01*
X148617368Y-79655889D01*
X148617483Y-79666300D01*
X148617830Y-79676589D01*
X148618407Y-79686755D01*
X148619215Y-79696800D01*
X148620254Y-79706722D01*
X148621524Y-79716523D01*
X148623025Y-79726201D01*
X148625709Y-79740489D01*
X148628912Y-79754502D01*
X148632635Y-79768241D01*
X148636878Y-79781705D01*
X148641640Y-79794894D01*
X148646921Y-79807808D01*
X148652749Y-79820363D01*
X148659057Y-79832567D01*
X148665846Y-79844418D01*
X148673116Y-79855917D01*
X148680867Y-79867063D01*
X148689099Y-79877858D01*
X148697812Y-79888301D01*
X148707005Y-79898392D01*
X148716679Y-79908131D01*
X148726835Y-79917517D01*
X148733872Y-79923579D01*
X148744866Y-79932318D01*
X148756323Y-79940675D01*
X148768244Y-79948650D01*
X148780629Y-79956243D01*
X148789143Y-79961093D01*
X148797863Y-79965772D01*
X148806790Y-79970282D01*
X148815922Y-79974622D01*
X148825261Y-79978793D01*
X148834805Y-79982793D01*
X148844556Y-79986624D01*
X148854512Y-79990284D01*
X148864675Y-79993775D01*
X148875044Y-79997096D01*
X148885638Y-80000202D01*
X148896415Y-80003107D01*
X148907376Y-80005812D01*
X148918519Y-80008316D01*
X148929846Y-80010620D01*
X148941356Y-80012724D01*
X148953049Y-80014628D01*
X148964926Y-80016331D01*
X148976985Y-80017833D01*
X148989228Y-80019136D01*
X149001654Y-80020238D01*
X149014263Y-80021139D01*
X149027055Y-80021840D01*
X149040030Y-80022341D01*
X149053189Y-80022642D01*
X149066531Y-80022742D01*
X149080242Y-80022635D01*
X149093775Y-80022315D01*
X149107131Y-80021780D01*
X149120310Y-80021032D01*
X149133311Y-80020071D01*
X149146135Y-80018895D01*
X149158781Y-80017506D01*
X149171250Y-80015903D01*
X149183541Y-80014087D01*
X149195655Y-80012056D01*
X149207591Y-80009812D01*
X149219350Y-80007355D01*
X149230932Y-80004683D01*
X149242336Y-80001798D01*
X149253562Y-79998699D01*
X149264612Y-79995387D01*
X149275468Y-79991850D01*
X149286116Y-79988140D01*
X149296557Y-79984256D01*
X149306789Y-79980198D01*
X149316814Y-79975967D01*
X149326630Y-79971562D01*
X149336239Y-79966983D01*
X149345639Y-79962231D01*
X149354832Y-79957305D01*
X149363816Y-79952205D01*
X149372593Y-79946932D01*
X149381161Y-79941485D01*
X149389522Y-79935865D01*
X149397674Y-79930071D01*
X149405619Y-79924103D01*
X149413355Y-79917962D01*
X149420906Y-79911656D01*
X149431810Y-79901908D01*
X149442207Y-79891813D01*
X149452097Y-79881369D01*
X149461481Y-79870578D01*
X149470358Y-79859439D01*
X149478729Y-79847952D01*
X149486592Y-79836117D01*
X149493950Y-79823935D01*
X149500801Y-79811405D01*
X149507145Y-79798527D01*
X149512950Y-79785301D01*
X149518184Y-79771817D01*
X149522848Y-79758075D01*
X149526940Y-79744076D01*
X149529351Y-79734600D01*
X149531508Y-79725010D01*
X149533411Y-79715305D01*
X149535061Y-79705486D01*
X149536457Y-79695552D01*
X149537599Y-79685504D01*
X149538487Y-79675341D01*
X149539121Y-79665064D01*
X149539502Y-79654672D01*
X149539629Y-79644166D01*
X149539499Y-79634251D01*
X149539110Y-79624412D01*
X149538461Y-79614650D01*
X149537285Y-79602555D01*
X149535704Y-79590579D01*
X149533717Y-79578722D01*
X149531325Y-79566985D01*
X149528699Y-79555450D01*
X149525858Y-79544202D01*
X149522802Y-79533239D01*
X149519532Y-79522563D01*
X149516048Y-79512173D01*
X149512348Y-79502070D01*
X149510808Y-79498108D01*
X149506820Y-79488353D01*
X149502641Y-79478931D01*
X149498272Y-79469844D01*
X149493711Y-79461090D01*
X149487987Y-79451027D01*
X149481988Y-79441444D01*
X149476157Y-79432568D01*
X149469898Y-79423624D01*
X149463460Y-79415263D01*
X149456485Y-79407601D01*
X149455854Y-79407006D01*
X149448400Y-79400194D01*
X149442665Y-79395282D01*
X149435337Y-79391618D01*
X149426056Y-79389420D01*
X149416145Y-79388699D01*
X149414577Y-79388688D01*
X149404702Y-79389192D01*
X149401387Y-79389665D01*
X149391879Y-79392933D01*
X149391618Y-79393084D01*
X149385512Y-79398946D01*
X149383314Y-79407250D01*
X149386072Y-79417128D01*
X149391419Y-79426072D01*
X149397724Y-79434361D01*
X149404287Y-79442581D01*
X149410155Y-79450463D01*
X149416246Y-79459118D01*
X149422560Y-79468547D01*
X149427992Y-79476994D01*
X149430208Y-79480523D01*
X149435696Y-79489693D01*
X149441018Y-79499495D01*
X149446172Y-79509929D01*
X149451160Y-79520995D01*
X149455029Y-79530303D01*
X149458792Y-79540015D01*
X149462448Y-79550132D01*
X149465883Y-79560696D01*
X149468860Y-79571748D01*
X149471378Y-79583288D01*
X149473439Y-79595317D01*
X149475042Y-79607834D01*
X149476187Y-79620840D01*
X149476745Y-79630915D01*
X149477046Y-79641265D01*
X149477103Y-79648318D01*
X149476869Y-79659951D01*
X149476167Y-79671404D01*
X149474997Y-79682677D01*
X149473359Y-79693770D01*
X149471253Y-79704682D01*
X149468679Y-79715414D01*
X149465637Y-79725965D01*
X149462128Y-79736337D01*
X149458150Y-79746528D01*
X149453704Y-79756538D01*
X149450480Y-79763112D01*
X149445311Y-79772781D01*
X149439695Y-79782189D01*
X149433633Y-79791334D01*
X149427125Y-79800218D01*
X149420169Y-79808839D01*
X149412768Y-79817199D01*
X149404919Y-79825297D01*
X149396625Y-79833133D01*
X149387884Y-79840707D01*
X149378696Y-79848020D01*
X149372323Y-79852749D01*
X149362447Y-79859612D01*
X149352147Y-79866187D01*
X149341421Y-79872475D01*
X149330271Y-79878475D01*
X149318695Y-79884187D01*
X149306695Y-79889612D01*
X149294269Y-79894748D01*
X149281418Y-79899598D01*
X149268143Y-79904159D01*
X149254442Y-79908433D01*
X149245072Y-79911123D01*
X149235520Y-79913667D01*
X149225792Y-79916046D01*
X149215889Y-79918261D01*
X149205810Y-79920313D01*
X149195556Y-79922200D01*
X149185126Y-79923923D01*
X149174520Y-79925482D01*
X149163739Y-79926877D01*
X149152783Y-79928107D01*
X149141650Y-79929174D01*
X149130343Y-79930077D01*
X149118860Y-79930815D01*
X149107201Y-79931389D01*
X149095366Y-79931800D01*
X149083357Y-79932046D01*
X149071171Y-79932128D01*
X149059530Y-79932053D01*
X149048052Y-79931826D01*
X149036739Y-79931450D01*
X149025589Y-79930922D01*
X149014604Y-79930244D01*
X149003783Y-79929415D01*
X148993126Y-79928435D01*
X148982633Y-79927304D01*
X148972304Y-79926023D01*
X148962140Y-79924591D01*
X148952139Y-79923008D01*
X148942303Y-79921274D01*
X148932630Y-79919390D01*
X148918429Y-79916281D01*
X148904598Y-79912833D01*
X148891152Y-79909065D01*
X148878111Y-79904996D01*
X148865472Y-79900627D01*
X148853238Y-79895957D01*
X148841407Y-79890987D01*
X148829979Y-79885716D01*
X148818956Y-79880145D01*
X148808335Y-79874273D01*
X148798119Y-79868100D01*
X148788306Y-79861628D01*
X148781988Y-79857145D01*
X148772854Y-79850172D01*
X148764136Y-79842897D01*
X148755835Y-79835322D01*
X148747950Y-79827447D01*
X148740482Y-79819271D01*
X148733430Y-79810795D01*
X148726795Y-79802018D01*
X148720576Y-79792940D01*
X148714773Y-79783562D01*
X148709387Y-79773883D01*
X148706028Y-79767264D01*
X148701358Y-79757064D01*
X148697147Y-79746616D01*
X148693395Y-79735918D01*
X148690103Y-79724972D01*
X148687270Y-79713776D01*
X148684896Y-79702332D01*
X148682982Y-79690638D01*
X148681528Y-79678695D01*
X148680532Y-79666504D01*
X148679996Y-79654063D01*
X148679894Y-79645631D01*
X148680021Y-79635314D01*
X148680401Y-79625246D01*
X148681034Y-79615427D01*
X148682272Y-79602723D01*
X148683961Y-79590461D01*
X148686100Y-79578642D01*
X148688689Y-79567266D01*
X148691729Y-79556332D01*
X148694304Y-79548422D01*
X148698018Y-79538229D01*
X148701830Y-79528410D01*
X148705742Y-79518964D01*
X148709753Y-79509893D01*
X148714906Y-79499080D01*
X148720214Y-79488851D01*
X148725677Y-79479206D01*
X148726789Y-79477348D01*
X148732277Y-79468375D01*
X148737598Y-79459926D01*
X148743764Y-79450481D01*
X148749688Y-79441791D01*
X148756297Y-79432608D01*
X148759029Y-79428988D01*
X148765440Y-79420012D01*
X148770463Y-79411228D01*
X148773555Y-79401679D01*
X148773683Y-79399678D01*
X148772218Y-79392840D01*
X148767089Y-79388443D01*
X148757698Y-79385574D01*
X148757319Y-79385512D01*
X148747538Y-79384631D01*
X148742176Y-79384535D01*
G37*
G36*
X148654955Y-78582759D02*
G01*
X148664751Y-78585861D01*
X149504946Y-78897027D01*
X149505611Y-78897279D01*
X149513983Y-78902889D01*
X149515380Y-78904365D01*
X149519845Y-78913147D01*
X149521430Y-78918948D01*
X149523020Y-78929023D01*
X149523139Y-78930195D01*
X149523810Y-78940469D01*
X149523997Y-78950760D01*
X149523996Y-78951475D01*
X149523753Y-78961690D01*
X149523020Y-78971521D01*
X149522204Y-78977584D01*
X149519845Y-78987397D01*
X149519044Y-78989784D01*
X149513983Y-78998143D01*
X149513281Y-78998902D01*
X149504946Y-79004249D01*
X148664751Y-79315170D01*
X148658189Y-79317506D01*
X148648387Y-79319078D01*
X148648023Y-79319059D01*
X148639106Y-79314438D01*
X148636650Y-79309861D01*
X148634221Y-79300272D01*
X148633806Y-79296519D01*
X148633171Y-79286361D01*
X148633000Y-79276092D01*
X148633001Y-79275287D01*
X148633268Y-79264922D01*
X148634221Y-79254598D01*
X148634999Y-79250553D01*
X148637884Y-79241165D01*
X148643746Y-79233593D01*
X148651806Y-79229441D01*
X148883104Y-79147620D01*
X148883104Y-78782965D01*
X148945630Y-78782965D01*
X148945630Y-79122951D01*
X149430208Y-78955401D01*
X149430208Y-78954668D01*
X148945630Y-78782965D01*
X148883104Y-78782965D01*
X148883104Y-78757564D01*
X148650585Y-78672323D01*
X148642525Y-78667927D01*
X148636907Y-78660844D01*
X148635679Y-78657053D01*
X148633976Y-78647411D01*
X148633695Y-78644526D01*
X148633137Y-78634225D01*
X148633000Y-78624207D01*
X148633008Y-78621553D01*
X148633244Y-78611140D01*
X148633976Y-78600760D01*
X148634618Y-78596425D01*
X148638373Y-78587083D01*
X148639040Y-78586251D01*
X148648143Y-78582198D01*
X148654955Y-78582759D01*
G37*
G36*
X148676230Y-77790607D02*
G01*
X148666126Y-77791355D01*
X148656524Y-77794041D01*
X148655470Y-77794515D01*
X148646932Y-77799640D01*
X148642281Y-77804040D01*
X148636811Y-77812365D01*
X148634953Y-77817229D01*
X148633154Y-77826906D01*
X148633000Y-77830418D01*
X148633000Y-77847515D01*
X148633480Y-77857464D01*
X148635087Y-77867545D01*
X148636419Y-77872672D01*
X148640242Y-77881720D01*
X148645758Y-77890607D01*
X148648875Y-77894654D01*
X148655613Y-77901903D01*
X148662940Y-77908544D01*
X148671412Y-77915232D01*
X148672323Y-77915903D01*
X148681321Y-77922004D01*
X148690358Y-77927751D01*
X148699067Y-77933031D01*
X148708524Y-77938544D01*
X148709936Y-77939351D01*
X149263635Y-78252714D01*
X149273805Y-78258580D01*
X149284044Y-78264453D01*
X149294352Y-78270334D01*
X149304728Y-78276222D01*
X149315174Y-78282119D01*
X149325687Y-78288022D01*
X149336270Y-78293934D01*
X149346921Y-78299853D01*
X149357573Y-78305738D01*
X149368155Y-78311546D01*
X149378669Y-78317278D01*
X149389114Y-78322934D01*
X149399491Y-78328513D01*
X149409799Y-78334016D01*
X149420038Y-78339443D01*
X149430208Y-78344794D01*
X149430208Y-78345526D01*
X149417653Y-78345355D01*
X149405021Y-78345206D01*
X149392312Y-78345080D01*
X149379528Y-78344977D01*
X149366667Y-78344897D01*
X149353730Y-78344839D01*
X149340716Y-78344805D01*
X149330906Y-78344794D01*
X149327626Y-78344794D01*
X149317845Y-78344794D01*
X149304864Y-78344794D01*
X149291952Y-78344794D01*
X149279108Y-78344794D01*
X149266333Y-78344794D01*
X149253627Y-78344794D01*
X149240989Y-78344794D01*
X149228420Y-78344794D01*
X149225288Y-78344794D01*
X148650829Y-78344794D01*
X148643258Y-78346992D01*
X148637640Y-78353831D01*
X148634787Y-78363629D01*
X148634221Y-78366531D01*
X148633233Y-78376715D01*
X148633000Y-78386559D01*
X148633268Y-78396799D01*
X148634221Y-78406587D01*
X148636467Y-78416389D01*
X148637640Y-78419776D01*
X148643258Y-78426615D01*
X148650829Y-78428569D01*
X149480766Y-78428569D01*
X149490823Y-78427950D01*
X149500512Y-78425725D01*
X149509919Y-78420668D01*
X149514716Y-78415624D01*
X149520000Y-78406672D01*
X149523263Y-78397169D01*
X149523997Y-78390223D01*
X149523997Y-78355785D01*
X149523735Y-78345953D01*
X149522728Y-78335603D01*
X149521311Y-78328185D01*
X149517933Y-78318364D01*
X149512839Y-78309509D01*
X149512030Y-78308401D01*
X149505231Y-78300588D01*
X149497766Y-78294039D01*
X149493467Y-78290816D01*
X149485343Y-78285306D01*
X149476930Y-78280062D01*
X149467474Y-78274547D01*
X149462937Y-78272009D01*
X149038687Y-78032407D01*
X149028784Y-78026767D01*
X149018980Y-78021202D01*
X149009275Y-78015715D01*
X148999669Y-78010303D01*
X148990163Y-78004968D01*
X148980756Y-77999709D01*
X148971448Y-77994526D01*
X148962239Y-77989420D01*
X148953099Y-77984371D01*
X148943997Y-77979361D01*
X148934933Y-77974388D01*
X148925908Y-77969453D01*
X148916920Y-77964557D01*
X148907971Y-77959699D01*
X148899060Y-77954879D01*
X148890187Y-77950097D01*
X148881406Y-77945281D01*
X148872648Y-77940480D01*
X148863912Y-77935695D01*
X148855199Y-77930924D01*
X148846510Y-77926169D01*
X148837843Y-77921429D01*
X148829199Y-77916705D01*
X148820578Y-77911995D01*
X148812018Y-77907240D01*
X148803435Y-77902500D01*
X148794829Y-77897776D01*
X148786201Y-77893066D01*
X148777549Y-77888372D01*
X148768875Y-77883694D01*
X148760178Y-77879030D01*
X148751457Y-77874382D01*
X148751457Y-77873649D01*
X148762262Y-77873780D01*
X148773153Y-77873898D01*
X148784130Y-77874003D01*
X148795192Y-77874096D01*
X148806340Y-77874175D01*
X148817575Y-77874242D01*
X148828895Y-77874295D01*
X148840301Y-77874336D01*
X148851792Y-77874364D01*
X148863370Y-77874379D01*
X148871136Y-77874382D01*
X148882773Y-77874382D01*
X148894329Y-77874382D01*
X148905803Y-77874382D01*
X148917195Y-77874382D01*
X148928506Y-77874382D01*
X148939735Y-77874382D01*
X148950883Y-77874382D01*
X148961949Y-77874382D01*
X148972933Y-77874382D01*
X148983836Y-77874382D01*
X148991060Y-77874382D01*
X149506168Y-77874382D01*
X149513739Y-77872428D01*
X149519601Y-77865589D01*
X149522523Y-77856168D01*
X149523020Y-77852889D01*
X149523783Y-77843084D01*
X149523996Y-77833146D01*
X149523997Y-77832372D01*
X149523753Y-77822236D01*
X149523020Y-77813321D01*
X149520984Y-77803634D01*
X149519601Y-77800376D01*
X149513739Y-77793049D01*
X149506168Y-77790607D01*
X148676230Y-77790607D01*
G37*
G36*
X148654955Y-76901392D02*
G01*
X148664751Y-76904494D01*
X149504946Y-77215659D01*
X149505611Y-77215911D01*
X149513983Y-77221521D01*
X149515380Y-77222998D01*
X149519845Y-77231779D01*
X149521430Y-77237580D01*
X149523020Y-77247655D01*
X149523139Y-77248827D01*
X149523810Y-77259101D01*
X149523997Y-77269392D01*
X149523996Y-77270108D01*
X149523753Y-77280322D01*
X149523020Y-77290153D01*
X149522204Y-77296216D01*
X149519845Y-77306029D01*
X149519044Y-77308416D01*
X149513983Y-77316775D01*
X149513281Y-77317535D01*
X149504946Y-77322882D01*
X148664751Y-77633803D01*
X148658189Y-77636138D01*
X148648387Y-77637711D01*
X148648023Y-77637691D01*
X148639106Y-77633070D01*
X148636650Y-77628493D01*
X148634221Y-77618904D01*
X148633806Y-77615152D01*
X148633171Y-77604994D01*
X148633000Y-77594724D01*
X148633001Y-77593919D01*
X148633268Y-77583554D01*
X148634221Y-77573230D01*
X148634999Y-77569185D01*
X148637884Y-77559797D01*
X148643746Y-77552226D01*
X148651806Y-77548073D01*
X148883104Y-77466252D01*
X148883104Y-77101598D01*
X148945630Y-77101598D01*
X148945630Y-77441584D01*
X149430208Y-77274033D01*
X149430208Y-77273300D01*
X148945630Y-77101598D01*
X148883104Y-77101598D01*
X148883104Y-77076196D01*
X148650585Y-76990956D01*
X148642525Y-76986559D01*
X148636907Y-76979476D01*
X148635679Y-76975685D01*
X148633976Y-76966043D01*
X148633695Y-76963158D01*
X148633137Y-76952857D01*
X148633000Y-76942840D01*
X148633008Y-76940185D01*
X148633244Y-76929773D01*
X148633976Y-76919392D01*
X148634618Y-76915057D01*
X148638373Y-76905715D01*
X148639040Y-76904883D01*
X148648143Y-76900830D01*
X148654955Y-76901392D01*
G37*
G36*
X149103828Y-76094201D02*
G01*
X149115826Y-76094516D01*
X149127680Y-76095040D01*
X149139391Y-76095775D01*
X149150959Y-76096720D01*
X149162384Y-76097874D01*
X149173666Y-76099238D01*
X149184805Y-76100812D01*
X149195801Y-76102597D01*
X149206653Y-76104591D01*
X149217363Y-76106795D01*
X149227929Y-76109208D01*
X149238353Y-76111832D01*
X149248633Y-76114666D01*
X149258770Y-76117709D01*
X149268764Y-76120963D01*
X149278627Y-76124392D01*
X149288311Y-76128026D01*
X149297815Y-76131865D01*
X149307140Y-76135907D01*
X149316286Y-76140154D01*
X149325252Y-76144604D01*
X149334039Y-76149259D01*
X149342647Y-76154118D01*
X149351075Y-76159182D01*
X149359324Y-76164449D01*
X149371361Y-76172733D01*
X149382995Y-76181477D01*
X149394225Y-76190679D01*
X149405051Y-76200341D01*
X149412064Y-76207005D01*
X149422203Y-76217372D01*
X149431887Y-76228185D01*
X149441117Y-76239445D01*
X149449891Y-76251152D01*
X149455487Y-76259204D01*
X149460882Y-76267455D01*
X149466074Y-76275904D01*
X149471063Y-76284552D01*
X149475851Y-76293398D01*
X149480436Y-76302443D01*
X149484819Y-76311686D01*
X149489000Y-76321127D01*
X149492979Y-76330767D01*
X149496735Y-76340645D01*
X149500249Y-76350799D01*
X149503520Y-76361230D01*
X149506549Y-76371937D01*
X149509336Y-76382922D01*
X149511881Y-76394182D01*
X149514183Y-76405720D01*
X149516243Y-76417534D01*
X149518060Y-76429625D01*
X149519635Y-76441993D01*
X149520968Y-76454637D01*
X149522059Y-76467558D01*
X149522907Y-76480756D01*
X149523513Y-76494230D01*
X149523876Y-76507982D01*
X149523997Y-76522009D01*
X149523997Y-76708855D01*
X149523263Y-76715802D01*
X149520000Y-76725304D01*
X149514716Y-76734256D01*
X149509908Y-76739300D01*
X149500443Y-76744357D01*
X149490674Y-76746582D01*
X149480522Y-76747201D01*
X148676475Y-76747201D01*
X148669071Y-76746885D01*
X148658813Y-76745065D01*
X148649608Y-76741083D01*
X148642281Y-76734256D01*
X148638664Y-76728533D01*
X148634531Y-76718939D01*
X148633000Y-76708855D01*
X148633000Y-76663426D01*
X148695526Y-76663426D01*
X149461471Y-76663426D01*
X149461471Y-76526650D01*
X149461362Y-76514693D01*
X149461032Y-76503004D01*
X149460484Y-76491582D01*
X149459716Y-76480427D01*
X149458728Y-76469539D01*
X149457521Y-76458918D01*
X149456095Y-76448565D01*
X149454449Y-76438478D01*
X149452584Y-76428659D01*
X149450499Y-76419107D01*
X149446961Y-76405279D01*
X149442929Y-76392053D01*
X149438403Y-76379428D01*
X149433383Y-76367404D01*
X149429787Y-76359673D01*
X149424075Y-76348395D01*
X149417981Y-76337499D01*
X149411504Y-76326985D01*
X149404646Y-76316854D01*
X149397405Y-76307104D01*
X149389782Y-76297737D01*
X149381777Y-76288752D01*
X149373390Y-76280149D01*
X149364621Y-76271928D01*
X149355470Y-76264089D01*
X149349167Y-76259044D01*
X149339434Y-76251791D01*
X149329366Y-76244916D01*
X149318964Y-76238419D01*
X149308226Y-76232299D01*
X149297154Y-76226557D01*
X149285746Y-76221194D01*
X149274004Y-76216208D01*
X149261927Y-76211600D01*
X149249515Y-76207369D01*
X149236768Y-76203517D01*
X149228143Y-76201150D01*
X149215034Y-76197888D01*
X149201719Y-76194968D01*
X149188198Y-76192392D01*
X149174471Y-76190160D01*
X149160537Y-76188271D01*
X149146398Y-76186725D01*
X149132053Y-76185523D01*
X149117501Y-76184664D01*
X149107685Y-76184282D01*
X149097778Y-76184053D01*
X149087780Y-76183977D01*
X149081442Y-76183998D01*
X149068930Y-76184162D01*
X149056638Y-76184490D01*
X149044565Y-76184982D01*
X149032711Y-76185639D01*
X149021077Y-76186459D01*
X149009663Y-76187444D01*
X148998468Y-76188593D01*
X148987492Y-76189905D01*
X148976736Y-76191382D01*
X148966199Y-76193023D01*
X148955882Y-76194828D01*
X148945784Y-76196798D01*
X148935905Y-76198931D01*
X148926246Y-76201228D01*
X148912169Y-76204982D01*
X148903077Y-76207690D01*
X148889803Y-76212059D01*
X148876968Y-76216797D01*
X148864570Y-76221905D01*
X148852610Y-76227382D01*
X148841088Y-76233228D01*
X148830004Y-76239443D01*
X148819358Y-76246028D01*
X148809150Y-76252981D01*
X148799380Y-76260304D01*
X148790048Y-76267997D01*
X148784101Y-76273299D01*
X148775549Y-76281561D01*
X148767440Y-76290192D01*
X148759773Y-76299193D01*
X148752548Y-76308562D01*
X148745765Y-76318301D01*
X148739425Y-76328409D01*
X148733526Y-76338886D01*
X148728070Y-76349732D01*
X148723056Y-76360948D01*
X148718484Y-76372533D01*
X148717072Y-76376483D01*
X148713104Y-76388664D01*
X148709539Y-76401339D01*
X148706377Y-76414507D01*
X148703620Y-76428169D01*
X148701265Y-76442325D01*
X148699920Y-76452037D01*
X148698754Y-76461968D01*
X148697768Y-76472118D01*
X148696961Y-76482488D01*
X148696333Y-76493077D01*
X148695884Y-76503886D01*
X148695615Y-76514914D01*
X148695526Y-76526161D01*
X148695526Y-76663426D01*
X148633000Y-76663426D01*
X148633000Y-76533733D01*
X148633115Y-76519843D01*
X148633461Y-76506198D01*
X148634038Y-76492800D01*
X148634847Y-76479648D01*
X148635886Y-76466743D01*
X148637155Y-76454083D01*
X148638656Y-76441670D01*
X148640388Y-76429502D01*
X148642350Y-76417581D01*
X148644544Y-76405906D01*
X148646968Y-76394477D01*
X148649623Y-76383295D01*
X148652509Y-76372358D01*
X148655626Y-76361668D01*
X148658974Y-76351223D01*
X148662553Y-76341025D01*
X148666358Y-76331022D01*
X148670384Y-76321223D01*
X148674631Y-76311627D01*
X148679100Y-76302237D01*
X148683791Y-76293050D01*
X148688702Y-76284067D01*
X148693835Y-76275289D01*
X148699189Y-76266714D01*
X148704765Y-76258344D01*
X148710562Y-76250178D01*
X148716580Y-76242217D01*
X148722820Y-76234459D01*
X148729281Y-76226906D01*
X148735963Y-76219556D01*
X148742867Y-76212411D01*
X148749992Y-76205471D01*
X148757336Y-76198706D01*
X148764898Y-76192152D01*
X148772678Y-76185807D01*
X148780675Y-76179672D01*
X148788889Y-76173748D01*
X148797322Y-76168033D01*
X148805971Y-76162528D01*
X148814838Y-76157233D01*
X148823923Y-76152147D01*
X148833225Y-76147272D01*
X148842745Y-76142607D01*
X148852482Y-76138151D01*
X148862437Y-76133905D01*
X148872609Y-76129870D01*
X148882999Y-76126044D01*
X148893607Y-76122428D01*
X148904427Y-76118997D01*
X148915455Y-76115788D01*
X148926691Y-76112799D01*
X148938135Y-76110033D01*
X148949787Y-76107487D01*
X148961647Y-76105163D01*
X148973715Y-76103060D01*
X148985991Y-76101179D01*
X148998476Y-76099519D01*
X149011168Y-76098080D01*
X149024068Y-76096863D01*
X149037176Y-76095867D01*
X149050492Y-76095092D01*
X149064016Y-76094538D01*
X149077748Y-76094206D01*
X149091688Y-76094096D01*
X149103828Y-76094201D01*
G37*
G36*
X148654955Y-75277665D02*
G01*
X148664751Y-75280767D01*
X149504946Y-75591933D01*
X149505611Y-75592184D01*
X149513983Y-75597794D01*
X149515380Y-75599271D01*
X149519845Y-75608053D01*
X149521430Y-75613854D01*
X149523020Y-75623928D01*
X149523139Y-75625101D01*
X149523810Y-75635374D01*
X149523997Y-75645666D01*
X149523996Y-75646381D01*
X149523753Y-75656596D01*
X149523020Y-75666427D01*
X149522204Y-75672490D01*
X149519845Y-75682302D01*
X149519044Y-75684689D01*
X149513983Y-75693049D01*
X149513281Y-75693808D01*
X149504946Y-75699155D01*
X148664751Y-76010076D01*
X148658189Y-76012411D01*
X148648387Y-76013984D01*
X148648023Y-76013965D01*
X148639106Y-76009344D01*
X148636650Y-76004767D01*
X148634221Y-75995177D01*
X148633806Y-75991425D01*
X148633171Y-75981267D01*
X148633000Y-75970997D01*
X148633001Y-75970193D01*
X148633268Y-75959828D01*
X148634221Y-75949504D01*
X148634999Y-75945459D01*
X148637884Y-75936071D01*
X148643746Y-75928499D01*
X148651806Y-75924347D01*
X148883104Y-75842526D01*
X148883104Y-75477871D01*
X148945630Y-75477871D01*
X148945630Y-75817857D01*
X149430208Y-75650307D01*
X149430208Y-75649574D01*
X148945630Y-75477871D01*
X148883104Y-75477871D01*
X148883104Y-75452470D01*
X148650585Y-75367229D01*
X148642525Y-75362833D01*
X148636907Y-75355750D01*
X148635679Y-75351958D01*
X148633976Y-75342316D01*
X148633695Y-75339431D01*
X148633137Y-75329131D01*
X148633000Y-75319113D01*
X148633008Y-75316459D01*
X148633244Y-75306046D01*
X148633976Y-75295666D01*
X148634618Y-75291331D01*
X148638373Y-75281988D01*
X148639040Y-75281157D01*
X148648143Y-75277103D01*
X148654955Y-75277665D01*
G37*
X146419649Y-83613866D02*
X146186316Y-83613866D01*
X146086316Y-83980533D02*
X146419649Y-83980533D01*
X146419649Y-83980533D02*
X146419649Y-83280533D01*
X146419649Y-83280533D02*
X146086316Y-83280533D01*
X145819649Y-83947200D02*
X145719649Y-83980533D01*
X145719649Y-83980533D02*
X145552983Y-83980533D01*
X145552983Y-83980533D02*
X145486316Y-83947200D01*
X145486316Y-83947200D02*
X145452983Y-83913866D01*
X145452983Y-83913866D02*
X145419649Y-83847200D01*
X145419649Y-83847200D02*
X145419649Y-83780533D01*
X145419649Y-83780533D02*
X145452983Y-83713866D01*
X145452983Y-83713866D02*
X145486316Y-83680533D01*
X145486316Y-83680533D02*
X145552983Y-83647200D01*
X145552983Y-83647200D02*
X145686316Y-83613866D01*
X145686316Y-83613866D02*
X145752983Y-83580533D01*
X145752983Y-83580533D02*
X145786316Y-83547200D01*
X145786316Y-83547200D02*
X145819649Y-83480533D01*
X145819649Y-83480533D02*
X145819649Y-83413866D01*
X145819649Y-83413866D02*
X145786316Y-83347200D01*
X145786316Y-83347200D02*
X145752983Y-83313866D01*
X145752983Y-83313866D02*
X145686316Y-83280533D01*
X145686316Y-83280533D02*
X145519649Y-83280533D01*
X145519649Y-83280533D02*
X145419649Y-83313866D01*
X145119649Y-83980533D02*
X145119649Y-83280533D01*
X145119649Y-83280533D02*
X144852982Y-83280533D01*
X144852982Y-83280533D02*
X144786316Y-83313866D01*
X144786316Y-83313866D02*
X144752982Y-83347200D01*
X144752982Y-83347200D02*
X144719649Y-83413866D01*
X144719649Y-83413866D02*
X144719649Y-83513866D01*
X144719649Y-83513866D02*
X144752982Y-83580533D01*
X144752982Y-83580533D02*
X144786316Y-83613866D01*
X144786316Y-83613866D02*
X144852982Y-83647200D01*
X144852982Y-83647200D02*
X145119649Y-83647200D01*
X144486316Y-83280533D02*
X144052982Y-83280533D01*
X144052982Y-83280533D02*
X144286316Y-83547200D01*
X144286316Y-83547200D02*
X144186316Y-83547200D01*
X144186316Y-83547200D02*
X144119649Y-83580533D01*
X144119649Y-83580533D02*
X144086316Y-83613866D01*
X144086316Y-83613866D02*
X144052982Y-83680533D01*
X144052982Y-83680533D02*
X144052982Y-83847200D01*
X144052982Y-83847200D02*
X144086316Y-83913866D01*
X144086316Y-83913866D02*
X144119649Y-83947200D01*
X144119649Y-83947200D02*
X144186316Y-83980533D01*
X144186316Y-83980533D02*
X144386316Y-83980533D01*
X144386316Y-83980533D02*
X144452982Y-83947200D01*
X144452982Y-83947200D02*
X144486316Y-83913866D01*
X143786315Y-83347200D02*
X143752982Y-83313866D01*
X143752982Y-83313866D02*
X143686315Y-83280533D01*
X143686315Y-83280533D02*
X143519649Y-83280533D01*
X143519649Y-83280533D02*
X143452982Y-83313866D01*
X143452982Y-83313866D02*
X143419649Y-83347200D01*
X143419649Y-83347200D02*
X143386315Y-83413866D01*
X143386315Y-83413866D02*
X143386315Y-83480533D01*
X143386315Y-83480533D02*
X143419649Y-83580533D01*
X143419649Y-83580533D02*
X143819649Y-83980533D01*
X143819649Y-83980533D02*
X143386315Y-83980533D01*
X142686315Y-83913866D02*
X142719648Y-83947200D01*
X142719648Y-83947200D02*
X142819648Y-83980533D01*
X142819648Y-83980533D02*
X142886315Y-83980533D01*
X142886315Y-83980533D02*
X142986315Y-83947200D01*
X142986315Y-83947200D02*
X143052982Y-83880533D01*
X143052982Y-83880533D02*
X143086315Y-83813866D01*
X143086315Y-83813866D02*
X143119648Y-83680533D01*
X143119648Y-83680533D02*
X143119648Y-83580533D01*
X143119648Y-83580533D02*
X143086315Y-83447200D01*
X143086315Y-83447200D02*
X143052982Y-83380533D01*
X143052982Y-83380533D02*
X142986315Y-83313866D01*
X142986315Y-83313866D02*
X142886315Y-83280533D01*
X142886315Y-83280533D02*
X142819648Y-83280533D01*
X142819648Y-83280533D02*
X142719648Y-83313866D01*
X142719648Y-83313866D02*
X142686315Y-83347200D01*
X142419648Y-83780533D02*
X142086315Y-83780533D01*
X142486315Y-83980533D02*
X142252982Y-83280533D01*
X142252982Y-83280533D02*
X142019648Y-83980533D01*
X141786315Y-83980533D02*
X141786315Y-83280533D01*
X141786315Y-83280533D02*
X141552982Y-83780533D01*
X141552982Y-83780533D02*
X141319648Y-83280533D01*
X141319648Y-83280533D02*
X141319648Y-83980533D01*
M02*
