%TF.GenerationSoftware,KiCad,Pcbnew,7.0.7*%
%TF.CreationDate,2024-01-13T12:59:24-05:00*%
%TF.ProjectId,sx7_footprints,7378375f-666f-46f7-9470-72696e74732e,rev?*%
%TF.SameCoordinates,Original*%
%TF.FileFunction,Copper,L4,Bot*%
%TF.FilePolarity,Positive*%
%FSLAX46Y46*%
G04 Gerber Fmt 4.6, Leading zero omitted, Abs format (unit mm)*
G04 Created by KiCad (PCBNEW 7.0.7) date 2024-01-13 12:59:24*
%MOMM*%
%LPD*%
G01*
G04 APERTURE LIST*
%TA.AperFunction,ComponentPad*%
%ADD10R,1.700000X1.700000*%
%TD*%
%TA.AperFunction,ComponentPad*%
%ADD11O,1.700000X1.700000*%
%TD*%
%TA.AperFunction,ComponentPad*%
%ADD12R,0.850000X0.850000*%
%TD*%
%TA.AperFunction,ComponentPad*%
%ADD13R,1.905000X2.000000*%
%TD*%
%TA.AperFunction,ComponentPad*%
%ADD14O,1.905000X2.000000*%
%TD*%
%TA.AperFunction,ComponentPad*%
%ADD15C,1.508000*%
%TD*%
%TA.AperFunction,ComponentPad*%
%ADD16C,1.920000*%
%TD*%
%TA.AperFunction,ComponentPad*%
%ADD17R,1.350000X1.350000*%
%TD*%
%TA.AperFunction,ComponentPad*%
%ADD18O,1.350000X1.350000*%
%TD*%
%TA.AperFunction,Conductor*%
%ADD19C,0.250000*%
%TD*%
G04 APERTURE END LIST*
D10*
%TO.P,PWR,1*%
%TO.N,N/C*%
X135763000Y-103378000D03*
D11*
%TO.P,PWR,2*%
X133223000Y-103378000D03*
%TD*%
D12*
%TO.P,REF\u002A\u002A,1*%
%TO.N,N/C*%
X135763000Y-72517000D03*
%TD*%
D10*
%TO.P,REF\u002A\u002A,1*%
%TO.N,N/C*%
X127127000Y-75184000D03*
D11*
%TO.P,REF\u002A\u002A,2*%
X127127000Y-77724000D03*
%TD*%
D13*
%TO.P,REF\u002A\u002A,1*%
%TO.N,N/C*%
X156464000Y-95194000D03*
D14*
%TO.P,REF\u002A\u002A,2*%
X153924000Y-95194000D03*
%TO.P,REF\u002A\u002A,3*%
X151384000Y-95194000D03*
%TD*%
D15*
%TO.P,RF OUT,1*%
%TO.N,N/C*%
X144399000Y-100203000D03*
D16*
%TO.P,RF OUT,G1*%
X141999000Y-97803000D03*
%TO.P,RF OUT,G2*%
X141999000Y-102603000D03*
%TO.P,RF OUT,G3*%
X146799000Y-102603000D03*
%TO.P,RF OUT,G4*%
X146799000Y-97803000D03*
%TD*%
D17*
%TO.P,REF\u002A\u002A,1*%
%TO.N,N/C*%
X151287000Y-77821000D03*
D18*
%TO.P,REF\u002A\u002A,2*%
X151287000Y-79821000D03*
%TO.P,REF\u002A\u002A,3*%
X151287000Y-81821000D03*
%TO.P,REF\u002A\u002A,4*%
X151287000Y-83821000D03*
%TO.P,REF\u002A\u002A,5*%
X151287000Y-85821000D03*
%TO.P,REF\u002A\u002A,6*%
X151287000Y-87821000D03*
%TO.P,REF\u002A\u002A,7*%
X151287000Y-89821000D03*
%TO.P,REF\u002A\u002A,8*%
X151287000Y-91821000D03*
%TD*%
D17*
%TO.P,REF\u002A\u002A,1*%
%TO.N,N/C*%
X137287000Y-77771000D03*
D18*
%TO.P,REF\u002A\u002A,2*%
X137287000Y-79771000D03*
%TO.P,REF\u002A\u002A,3*%
X137287000Y-81771000D03*
%TO.P,REF\u002A\u002A,4*%
X137287000Y-83771000D03*
%TO.P,REF\u002A\u002A,5*%
X137287000Y-85771000D03*
%TO.P,REF\u002A\u002A,6*%
X137287000Y-87771000D03*
%TO.P,REF\u002A\u002A,7*%
X137287000Y-89771000D03*
%TO.P,REF\u002A\u002A,8*%
X137287000Y-91771000D03*
%TD*%
D10*
%TO.P,REF\u002A\u002A,1*%
%TO.N,N/C*%
X127127000Y-88890000D03*
D11*
%TO.P,REF\u002A\u002A,2*%
X127127000Y-86350000D03*
%TO.P,REF\u002A\u002A,3*%
X127127000Y-83810000D03*
%TO.P,REF\u002A\u002A,4*%
X127127000Y-81270000D03*
%TD*%
D10*
%TO.P,REF\u002A\u002A,1*%
%TO.N,N/C*%
X155600400Y-73609200D03*
D11*
%TO.P,REF\u002A\u002A,2*%
X155600400Y-76149200D03*
%TO.P,REF\u002A\u002A,3*%
X155600400Y-78689200D03*
%TO.P,REF\u002A\u002A,4*%
X155600400Y-81229200D03*
%TO.P,REF\u002A\u002A,5*%
X155600400Y-83769200D03*
%TO.P,REF\u002A\u002A,6*%
X155600400Y-86309200D03*
%TO.P,REF\u002A\u002A,7*%
X155600400Y-88849200D03*
%TO.P,REF\u002A\u002A,8*%
X155600400Y-91389200D03*
%TD*%
D12*
%TO.P,REF\u002A\u002A,1*%
%TO.N,N/C*%
X151638000Y-72517000D03*
%TD*%
D11*
%TO.P,PWR,2*%
%TO.N,N/C*%
X133223000Y-95885000D03*
D10*
%TO.P,PWR,1*%
X135763000Y-95885000D03*
%TD*%
D17*
%TO.P,REF\u002A\u002A,1*%
%TO.N,N/C*%
X153289000Y-100219000D03*
D18*
%TO.P,REF\u002A\u002A,2*%
X153289000Y-102219000D03*
%TD*%
D10*
%TO.P,REF\u002A\u002A,1*%
%TO.N,N/C*%
X132740400Y-73609200D03*
D11*
%TO.P,REF\u002A\u002A,2*%
X132740400Y-76149200D03*
%TO.P,REF\u002A\u002A,3*%
X132740400Y-78689200D03*
%TO.P,REF\u002A\u002A,4*%
X132740400Y-81229200D03*
%TO.P,REF\u002A\u002A,5*%
X132740400Y-83769200D03*
%TO.P,REF\u002A\u002A,6*%
X132740400Y-86309200D03*
%TO.P,REF\u002A\u002A,7*%
X132740400Y-88849200D03*
%TO.P,REF\u002A\u002A,8*%
X132740400Y-91389200D03*
%TD*%
D10*
%TO.P,REF\u002A\u002A,1*%
%TO.N,N/C*%
X140716000Y-73533000D03*
D11*
%TO.P,REF\u002A\u002A,2*%
X143256000Y-73533000D03*
%TO.P,REF\u002A\u002A,3*%
X145796000Y-73533000D03*
%TO.P,REF\u002A\u002A,4*%
X148336000Y-73533000D03*
%TD*%
D17*
%TO.P,REF\u002A\u002A,1*%
%TO.N,N/C*%
X150114000Y-100219000D03*
D18*
%TO.P,REF\u002A\u002A,2*%
X150114000Y-102219000D03*
%TD*%
D19*
%TO.N,*%
X135763000Y-103378000D02*
X135763000Y-95885000D01*
X133985000Y-96647000D02*
X133223000Y-95885000D01*
X133223000Y-103378000D02*
X133985000Y-102616000D01*
X133985000Y-102616000D02*
X133985000Y-96647000D01*
X152019000Y-84709000D02*
X147193000Y-84709000D01*
X153035000Y-93726000D02*
X153670000Y-93726000D01*
X131181000Y-86350000D02*
X127127000Y-86350000D01*
X150495000Y-93472000D02*
X150749000Y-93726000D01*
X136017000Y-80772000D02*
X134493000Y-82296000D01*
X153741000Y-95194000D02*
X152273000Y-93726000D01*
X134620000Y-86868000D02*
X134620000Y-87630000D01*
X152958800Y-83769200D02*
X152019000Y-84709000D01*
X138684000Y-73533000D02*
X137287000Y-74930000D01*
X131445000Y-86086000D02*
X131181000Y-86350000D01*
X153670000Y-93726000D02*
X154559000Y-92837000D01*
X131445000Y-85090000D02*
X131445000Y-86086000D01*
X129296000Y-88890000D02*
X127127000Y-88890000D01*
X137287000Y-74930000D02*
X131445000Y-74930000D01*
X131435000Y-83810000D02*
X131435000Y-83068000D01*
X148336000Y-73533000D02*
X152984200Y-73533000D01*
X153924000Y-96393000D02*
X153924000Y-95194000D01*
X152984200Y-73533000D02*
X155600400Y-76149200D01*
X135763000Y-95885000D02*
X146304000Y-95885000D01*
X151638000Y-98679000D02*
X151638000Y-102108000D01*
X151638000Y-102108000D02*
X151527000Y-102219000D01*
X131445000Y-74930000D02*
X131445000Y-80899000D01*
X151749000Y-102219000D02*
X153289000Y-102219000D01*
X151287000Y-89821000D02*
X152559000Y-89821000D01*
X145796000Y-73533000D02*
X145796000Y-77724000D01*
X148717000Y-93472000D02*
X150495000Y-93472000D01*
X154559000Y-92837000D02*
X156972000Y-92837000D01*
X134493000Y-85090000D02*
X131445000Y-85090000D01*
X131435000Y-83068000D02*
X132080000Y-82423000D01*
X132080000Y-82423000D02*
X133350000Y-82423000D01*
X153035000Y-90297000D02*
X153035000Y-93726000D01*
X141351000Y-86868000D02*
X134620000Y-86868000D01*
X153924000Y-95194000D02*
X153741000Y-95194000D01*
X150749000Y-93726000D02*
X152273000Y-93726000D01*
X151638000Y-98679000D02*
X153924000Y-96393000D01*
X151638000Y-102108000D02*
X151749000Y-102219000D01*
X152559000Y-89821000D02*
X153035000Y-90297000D01*
X134493000Y-82296000D02*
X134493000Y-85090000D01*
X144131000Y-87771000D02*
X137287000Y-87771000D01*
X152273000Y-93726000D02*
X153035000Y-93726000D01*
X156972000Y-92837000D02*
X156972000Y-76327000D01*
X156972000Y-76327000D02*
X155778200Y-76327000D01*
X148336000Y-79883000D02*
X141351000Y-86868000D01*
X142748000Y-80772000D02*
X136017000Y-80772000D01*
X148336000Y-73533000D02*
X148336000Y-79883000D01*
X146304000Y-95885000D02*
X148717000Y-93472000D01*
X145796000Y-77724000D02*
X142748000Y-80772000D01*
X140716000Y-73533000D02*
X138684000Y-73533000D01*
X127127000Y-83810000D02*
X131435000Y-83810000D01*
X131445000Y-80899000D02*
X131074000Y-81270000D01*
X143256000Y-73533000D02*
X141224000Y-75565000D01*
X134620000Y-87630000D02*
X130556000Y-87630000D01*
X133350000Y-82423000D02*
X135128000Y-80645000D01*
X130556000Y-87630000D02*
X129296000Y-88890000D01*
X155600400Y-83769200D02*
X152958800Y-83769200D01*
X141224000Y-75565000D02*
X135128000Y-75565000D01*
X135128000Y-80645000D02*
X135128000Y-75565000D01*
X131074000Y-81270000D02*
X127127000Y-81270000D01*
X147193000Y-84709000D02*
X144131000Y-87771000D01*
X151527000Y-102219000D02*
X150114000Y-102219000D01*
X155778200Y-76327000D02*
X155600400Y-76149200D01*
%TD*%
M02*
