%TF.GenerationSoftware,KiCad,Pcbnew,7.0.7*%
%TF.CreationDate,2024-01-13T12:59:27-05:00*%
%TF.ProjectId,sx7_footprints,7378375f-666f-46f7-9470-72696e74732e,rev?*%
%TF.SameCoordinates,Original*%
%TF.FileFunction,Drillmap*%
%TF.FilePolarity,Positive*%
%FSLAX45Y45*%
G04 Gerber Fmt 4.5, Leading zero omitted, Abs format (unit mm)*
G04 Created by KiCad (PCBNEW 7.0.7) date 2024-01-13 12:59:27*
%MOMM*%
%LPD*%
G01*
G04 APERTURE LIST*
%ADD10C,0.100000*%
%ADD11C,0.200000*%
%ADD12C,0.050000*%
%ADD13C,0.080000*%
%ADD14C,0.110000*%
%ADD15C,0.128000*%
G04 APERTURE END LIST*
D10*
X13766800Y-9906000D02*
X14033500Y-9906000D01*
X13766800Y-10541000D02*
X13766800Y-9906000D01*
X13119100Y-10541000D02*
X13766800Y-10541000D01*
X13119100Y-10109200D02*
X13119100Y-10541000D01*
X13360400Y-10109200D02*
X13119100Y-10109200D01*
X13360400Y-9906000D02*
X13360400Y-10109200D01*
X13081000Y-9906000D02*
X13360400Y-9906000D01*
X14033500Y-9906000D02*
X14033500Y-10375900D01*
X13081000Y-7150100D02*
X15748000Y-7150100D01*
X12966700Y-7302500D02*
X12496800Y-7302500D01*
X14033500Y-10401300D02*
X14808200Y-10401300D01*
X12966700Y-9093200D02*
X12966700Y-8902700D01*
X12496800Y-9093200D02*
X12966700Y-9093200D01*
X12496800Y-7302500D02*
X12496800Y-7327900D01*
X15481300Y-10172700D02*
X15481300Y-9880600D01*
X15925800Y-9359900D02*
X15748000Y-9359900D01*
X14033500Y-10375900D02*
X14033500Y-10401300D01*
X12966700Y-7302500D02*
X12966700Y-7404100D01*
X14808200Y-10401300D02*
X15481300Y-10401300D01*
X15481300Y-9880600D02*
X15925800Y-9880600D01*
X13081000Y-7404100D02*
X13081000Y-7150100D01*
X13081000Y-8902700D02*
X13081000Y-9906000D01*
X12496800Y-7327900D02*
X12496800Y-9093200D01*
X12966700Y-7404100D02*
X13081000Y-7404100D01*
X12966700Y-8902700D02*
X13081000Y-8902700D01*
X15748000Y-9359900D02*
X15748000Y-7150100D01*
X15481300Y-10401300D02*
X15481300Y-10172700D01*
X15925800Y-9880600D02*
X15925800Y-9359900D01*
D11*
D12*
X13551300Y-7226700D02*
X13601300Y-7276700D01*
X13601300Y-7226700D02*
X13551300Y-7276700D01*
X15138800Y-7226700D02*
X15188800Y-7276700D01*
X15188800Y-7226700D02*
X15138800Y-7276700D01*
D13*
X13768700Y-7777100D02*
G75*
G03*
X13768700Y-7777100I-40000J0D01*
G01*
X13768700Y-7977100D02*
G75*
G03*
X13768700Y-7977100I-40000J0D01*
G01*
X13768700Y-8177100D02*
G75*
G03*
X13768700Y-8177100I-40000J0D01*
G01*
X13768700Y-8377100D02*
G75*
G03*
X13768700Y-8377100I-40000J0D01*
G01*
X13768700Y-8577100D02*
G75*
G03*
X13768700Y-8577100I-40000J0D01*
G01*
X13768700Y-8777100D02*
G75*
G03*
X13768700Y-8777100I-40000J0D01*
G01*
X13768700Y-8977100D02*
G75*
G03*
X13768700Y-8977100I-40000J0D01*
G01*
X13768700Y-9177100D02*
G75*
G03*
X13768700Y-9177100I-40000J0D01*
G01*
X15051400Y-10021900D02*
G75*
G03*
X15051400Y-10021900I-40000J0D01*
G01*
X15051400Y-10221900D02*
G75*
G03*
X15051400Y-10221900I-40000J0D01*
G01*
X15168700Y-7782100D02*
G75*
G03*
X15168700Y-7782100I-40000J0D01*
G01*
X15168700Y-7982100D02*
G75*
G03*
X15168700Y-7982100I-40000J0D01*
G01*
X15168700Y-8182100D02*
G75*
G03*
X15168700Y-8182100I-40000J0D01*
G01*
X15168700Y-8382100D02*
G75*
G03*
X15168700Y-8382100I-40000J0D01*
G01*
X15168700Y-8582100D02*
G75*
G03*
X15168700Y-8582100I-40000J0D01*
G01*
X15168700Y-8782100D02*
G75*
G03*
X15168700Y-8782100I-40000J0D01*
G01*
X15168700Y-8982100D02*
G75*
G03*
X15168700Y-8982100I-40000J0D01*
G01*
X15168700Y-9182100D02*
G75*
G03*
X15168700Y-9182100I-40000J0D01*
G01*
X15368900Y-10021900D02*
G75*
G03*
X15368900Y-10021900I-40000J0D01*
G01*
X15368900Y-10221900D02*
G75*
G03*
X15368900Y-10221900I-40000J0D01*
G01*
D10*
X12712700Y-7468400D02*
X12712700Y-7568400D01*
X12662700Y-7518400D02*
X12762700Y-7518400D01*
X12712700Y-7722400D02*
X12712700Y-7822400D01*
X12662700Y-7772400D02*
X12762700Y-7772400D01*
X12712700Y-8077000D02*
X12712700Y-8177000D01*
X12662700Y-8127000D02*
X12762700Y-8127000D01*
X12712700Y-8331000D02*
X12712700Y-8431000D01*
X12662700Y-8381000D02*
X12762700Y-8381000D01*
X12712700Y-8585000D02*
X12712700Y-8685000D01*
X12662700Y-8635000D02*
X12762700Y-8635000D01*
X12712700Y-8839000D02*
X12712700Y-8939000D01*
X12662700Y-8889000D02*
X12762700Y-8889000D01*
X13274040Y-7310920D02*
X13274040Y-7410920D01*
X13224040Y-7360920D02*
X13324040Y-7360920D01*
X13274040Y-7564920D02*
X13274040Y-7664920D01*
X13224040Y-7614920D02*
X13324040Y-7614920D01*
X13274040Y-7818920D02*
X13274040Y-7918920D01*
X13224040Y-7868920D02*
X13324040Y-7868920D01*
X13274040Y-8072920D02*
X13274040Y-8172920D01*
X13224040Y-8122920D02*
X13324040Y-8122920D01*
X13274040Y-8326920D02*
X13274040Y-8426920D01*
X13224040Y-8376920D02*
X13324040Y-8376920D01*
X13274040Y-8580920D02*
X13274040Y-8680920D01*
X13224040Y-8630920D02*
X13324040Y-8630920D01*
X13274040Y-8834920D02*
X13274040Y-8934920D01*
X13224040Y-8884920D02*
X13324040Y-8884920D01*
X13274040Y-9088920D02*
X13274040Y-9188920D01*
X13224040Y-9138920D02*
X13324040Y-9138920D01*
X13322300Y-9538500D02*
X13322300Y-9638500D01*
X13272300Y-9588500D02*
X13372300Y-9588500D01*
X13322300Y-10287800D02*
X13322300Y-10387800D01*
X13272300Y-10337800D02*
X13372300Y-10337800D01*
X13576300Y-9538500D02*
X13576300Y-9638500D01*
X13526300Y-9588500D02*
X13626300Y-9588500D01*
X13576300Y-10287800D02*
X13576300Y-10387800D01*
X13526300Y-10337800D02*
X13626300Y-10337800D01*
X14071600Y-7303300D02*
X14071600Y-7403300D01*
X14021600Y-7353300D02*
X14121600Y-7353300D01*
X14325600Y-7303300D02*
X14325600Y-7403300D01*
X14275600Y-7353300D02*
X14375600Y-7353300D01*
X14439900Y-9970300D02*
X14439900Y-10070300D01*
X14389900Y-10020300D02*
X14489900Y-10020300D01*
X14579600Y-7303300D02*
X14579600Y-7403300D01*
X14529600Y-7353300D02*
X14629600Y-7353300D01*
X14833600Y-7303300D02*
X14833600Y-7403300D01*
X14783600Y-7353300D02*
X14883600Y-7353300D01*
X15560040Y-7310920D02*
X15560040Y-7410920D01*
X15510040Y-7360920D02*
X15610040Y-7360920D01*
X15560040Y-7564920D02*
X15560040Y-7664920D01*
X15510040Y-7614920D02*
X15610040Y-7614920D01*
X15560040Y-7818920D02*
X15560040Y-7918920D01*
X15510040Y-7868920D02*
X15610040Y-7868920D01*
X15560040Y-8072920D02*
X15560040Y-8172920D01*
X15510040Y-8122920D02*
X15610040Y-8122920D01*
X15560040Y-8326920D02*
X15560040Y-8426920D01*
X15510040Y-8376920D02*
X15610040Y-8376920D01*
X15560040Y-8580920D02*
X15560040Y-8680920D01*
X15510040Y-8630920D02*
X15610040Y-8630920D01*
X15560040Y-8834920D02*
X15560040Y-8934920D01*
X15510040Y-8884920D02*
X15610040Y-8884920D01*
X15560040Y-9088920D02*
X15560040Y-9188920D01*
X15510040Y-9138920D02*
X15610040Y-9138920D01*
D14*
X15177291Y-9558291D02*
X15177291Y-9480509D01*
X15099509Y-9480509D01*
X15099509Y-9558291D01*
X15177291Y-9558291D01*
X15431291Y-9558291D02*
X15431291Y-9480509D01*
X15353509Y-9480509D01*
X15353509Y-9558291D01*
X15431291Y-9558291D01*
X15685291Y-9558291D02*
X15685291Y-9480509D01*
X15607509Y-9480509D01*
X15607509Y-9558291D01*
X15685291Y-9558291D01*
D15*
X14199900Y-9844300D02*
X14263900Y-9780300D01*
X14199900Y-9716300D01*
X14135900Y-9780300D01*
X14199900Y-9844300D01*
X14199900Y-10324300D02*
X14263900Y-10260300D01*
X14199900Y-10196300D01*
X14135900Y-10260300D01*
X14199900Y-10324300D01*
X14679900Y-9844300D02*
X14743900Y-9780300D01*
X14679900Y-9716300D01*
X14615900Y-9780300D01*
X14679900Y-9844300D01*
X14679900Y-10324300D02*
X14743900Y-10260300D01*
X14679900Y-10196300D01*
X14615900Y-10260300D01*
X14679900Y-10324300D01*
D11*
X12752577Y-10857484D02*
X12752577Y-10657484D01*
X12752577Y-10657484D02*
X12800196Y-10657484D01*
X12800196Y-10657484D02*
X12828767Y-10667008D01*
X12828767Y-10667008D02*
X12847815Y-10686055D01*
X12847815Y-10686055D02*
X12857339Y-10705103D01*
X12857339Y-10705103D02*
X12866862Y-10743198D01*
X12866862Y-10743198D02*
X12866862Y-10771770D01*
X12866862Y-10771770D02*
X12857339Y-10809865D01*
X12857339Y-10809865D02*
X12847815Y-10828912D01*
X12847815Y-10828912D02*
X12828767Y-10847960D01*
X12828767Y-10847960D02*
X12800196Y-10857484D01*
X12800196Y-10857484D02*
X12752577Y-10857484D01*
X12952577Y-10857484D02*
X12952577Y-10724150D01*
X12952577Y-10762246D02*
X12962101Y-10743198D01*
X12962101Y-10743198D02*
X12971624Y-10733674D01*
X12971624Y-10733674D02*
X12990672Y-10724150D01*
X12990672Y-10724150D02*
X13009720Y-10724150D01*
X13076386Y-10857484D02*
X13076386Y-10724150D01*
X13076386Y-10657484D02*
X13066862Y-10667008D01*
X13066862Y-10667008D02*
X13076386Y-10676531D01*
X13076386Y-10676531D02*
X13085910Y-10667008D01*
X13085910Y-10667008D02*
X13076386Y-10657484D01*
X13076386Y-10657484D02*
X13076386Y-10676531D01*
X13200196Y-10857484D02*
X13181148Y-10847960D01*
X13181148Y-10847960D02*
X13171624Y-10828912D01*
X13171624Y-10828912D02*
X13171624Y-10657484D01*
X13304958Y-10857484D02*
X13285910Y-10847960D01*
X13285910Y-10847960D02*
X13276386Y-10828912D01*
X13276386Y-10828912D02*
X13276386Y-10657484D01*
X13533529Y-10857484D02*
X13533529Y-10657484D01*
X13533529Y-10657484D02*
X13600196Y-10800341D01*
X13600196Y-10800341D02*
X13666862Y-10657484D01*
X13666862Y-10657484D02*
X13666862Y-10857484D01*
X13847815Y-10857484D02*
X13847815Y-10752722D01*
X13847815Y-10752722D02*
X13838291Y-10733674D01*
X13838291Y-10733674D02*
X13819243Y-10724150D01*
X13819243Y-10724150D02*
X13781148Y-10724150D01*
X13781148Y-10724150D02*
X13762101Y-10733674D01*
X13847815Y-10847960D02*
X13828767Y-10857484D01*
X13828767Y-10857484D02*
X13781148Y-10857484D01*
X13781148Y-10857484D02*
X13762101Y-10847960D01*
X13762101Y-10847960D02*
X13752577Y-10828912D01*
X13752577Y-10828912D02*
X13752577Y-10809865D01*
X13752577Y-10809865D02*
X13762101Y-10790817D01*
X13762101Y-10790817D02*
X13781148Y-10781293D01*
X13781148Y-10781293D02*
X13828767Y-10781293D01*
X13828767Y-10781293D02*
X13847815Y-10771770D01*
X13943053Y-10724150D02*
X13943053Y-10924150D01*
X13943053Y-10733674D02*
X13962101Y-10724150D01*
X13962101Y-10724150D02*
X14000196Y-10724150D01*
X14000196Y-10724150D02*
X14019243Y-10733674D01*
X14019243Y-10733674D02*
X14028767Y-10743198D01*
X14028767Y-10743198D02*
X14038291Y-10762246D01*
X14038291Y-10762246D02*
X14038291Y-10819389D01*
X14038291Y-10819389D02*
X14028767Y-10838436D01*
X14028767Y-10838436D02*
X14019243Y-10847960D01*
X14019243Y-10847960D02*
X14000196Y-10857484D01*
X14000196Y-10857484D02*
X13962101Y-10857484D01*
X13962101Y-10857484D02*
X13943053Y-10847960D01*
X14124005Y-10838436D02*
X14133529Y-10847960D01*
X14133529Y-10847960D02*
X14124005Y-10857484D01*
X14124005Y-10857484D02*
X14114482Y-10847960D01*
X14114482Y-10847960D02*
X14124005Y-10838436D01*
X14124005Y-10838436D02*
X14124005Y-10857484D01*
X14124005Y-10733674D02*
X14133529Y-10743198D01*
X14133529Y-10743198D02*
X14124005Y-10752722D01*
X14124005Y-10752722D02*
X14114482Y-10743198D01*
X14114482Y-10743198D02*
X14124005Y-10733674D01*
X14124005Y-10733674D02*
X14124005Y-10752722D01*
D12*
X12441800Y-11161000D02*
X12491800Y-11211000D01*
X12491800Y-11161000D02*
X12441800Y-11211000D01*
D11*
X12790672Y-11077484D02*
X12809720Y-11077484D01*
X12809720Y-11077484D02*
X12828767Y-11087008D01*
X12828767Y-11087008D02*
X12838291Y-11096531D01*
X12838291Y-11096531D02*
X12847815Y-11115579D01*
X12847815Y-11115579D02*
X12857339Y-11153674D01*
X12857339Y-11153674D02*
X12857339Y-11201293D01*
X12857339Y-11201293D02*
X12847815Y-11239388D01*
X12847815Y-11239388D02*
X12838291Y-11258436D01*
X12838291Y-11258436D02*
X12828767Y-11267960D01*
X12828767Y-11267960D02*
X12809720Y-11277484D01*
X12809720Y-11277484D02*
X12790672Y-11277484D01*
X12790672Y-11277484D02*
X12771624Y-11267960D01*
X12771624Y-11267960D02*
X12762101Y-11258436D01*
X12762101Y-11258436D02*
X12752577Y-11239388D01*
X12752577Y-11239388D02*
X12743053Y-11201293D01*
X12743053Y-11201293D02*
X12743053Y-11153674D01*
X12743053Y-11153674D02*
X12752577Y-11115579D01*
X12752577Y-11115579D02*
X12762101Y-11096531D01*
X12762101Y-11096531D02*
X12771624Y-11087008D01*
X12771624Y-11087008D02*
X12790672Y-11077484D01*
X12943053Y-11258436D02*
X12952577Y-11267960D01*
X12952577Y-11267960D02*
X12943053Y-11277484D01*
X12943053Y-11277484D02*
X12933529Y-11267960D01*
X12933529Y-11267960D02*
X12943053Y-11258436D01*
X12943053Y-11258436D02*
X12943053Y-11277484D01*
X13133529Y-11077484D02*
X13038291Y-11077484D01*
X13038291Y-11077484D02*
X13028767Y-11172722D01*
X13028767Y-11172722D02*
X13038291Y-11163198D01*
X13038291Y-11163198D02*
X13057339Y-11153674D01*
X13057339Y-11153674D02*
X13104958Y-11153674D01*
X13104958Y-11153674D02*
X13124005Y-11163198D01*
X13124005Y-11163198D02*
X13133529Y-11172722D01*
X13133529Y-11172722D02*
X13143053Y-11191769D01*
X13143053Y-11191769D02*
X13143053Y-11239388D01*
X13143053Y-11239388D02*
X13133529Y-11258436D01*
X13133529Y-11258436D02*
X13124005Y-11267960D01*
X13124005Y-11267960D02*
X13104958Y-11277484D01*
X13104958Y-11277484D02*
X13057339Y-11277484D01*
X13057339Y-11277484D02*
X13038291Y-11267960D01*
X13038291Y-11267960D02*
X13028767Y-11258436D01*
X13266862Y-11077484D02*
X13285910Y-11077484D01*
X13285910Y-11077484D02*
X13304958Y-11087008D01*
X13304958Y-11087008D02*
X13314482Y-11096531D01*
X13314482Y-11096531D02*
X13324005Y-11115579D01*
X13324005Y-11115579D02*
X13333529Y-11153674D01*
X13333529Y-11153674D02*
X13333529Y-11201293D01*
X13333529Y-11201293D02*
X13324005Y-11239388D01*
X13324005Y-11239388D02*
X13314482Y-11258436D01*
X13314482Y-11258436D02*
X13304958Y-11267960D01*
X13304958Y-11267960D02*
X13285910Y-11277484D01*
X13285910Y-11277484D02*
X13266862Y-11277484D01*
X13266862Y-11277484D02*
X13247815Y-11267960D01*
X13247815Y-11267960D02*
X13238291Y-11258436D01*
X13238291Y-11258436D02*
X13228767Y-11239388D01*
X13228767Y-11239388D02*
X13219243Y-11201293D01*
X13219243Y-11201293D02*
X13219243Y-11153674D01*
X13219243Y-11153674D02*
X13228767Y-11115579D01*
X13228767Y-11115579D02*
X13238291Y-11096531D01*
X13238291Y-11096531D02*
X13247815Y-11087008D01*
X13247815Y-11087008D02*
X13266862Y-11077484D01*
X13457339Y-11077484D02*
X13476386Y-11077484D01*
X13476386Y-11077484D02*
X13495434Y-11087008D01*
X13495434Y-11087008D02*
X13504958Y-11096531D01*
X13504958Y-11096531D02*
X13514482Y-11115579D01*
X13514482Y-11115579D02*
X13524005Y-11153674D01*
X13524005Y-11153674D02*
X13524005Y-11201293D01*
X13524005Y-11201293D02*
X13514482Y-11239388D01*
X13514482Y-11239388D02*
X13504958Y-11258436D01*
X13504958Y-11258436D02*
X13495434Y-11267960D01*
X13495434Y-11267960D02*
X13476386Y-11277484D01*
X13476386Y-11277484D02*
X13457339Y-11277484D01*
X13457339Y-11277484D02*
X13438291Y-11267960D01*
X13438291Y-11267960D02*
X13428767Y-11258436D01*
X13428767Y-11258436D02*
X13419243Y-11239388D01*
X13419243Y-11239388D02*
X13409720Y-11201293D01*
X13409720Y-11201293D02*
X13409720Y-11153674D01*
X13409720Y-11153674D02*
X13419243Y-11115579D01*
X13419243Y-11115579D02*
X13428767Y-11096531D01*
X13428767Y-11096531D02*
X13438291Y-11087008D01*
X13438291Y-11087008D02*
X13457339Y-11077484D01*
X13609720Y-11277484D02*
X13609720Y-11144150D01*
X13609720Y-11163198D02*
X13619243Y-11153674D01*
X13619243Y-11153674D02*
X13638291Y-11144150D01*
X13638291Y-11144150D02*
X13666863Y-11144150D01*
X13666863Y-11144150D02*
X13685910Y-11153674D01*
X13685910Y-11153674D02*
X13695434Y-11172722D01*
X13695434Y-11172722D02*
X13695434Y-11277484D01*
X13695434Y-11172722D02*
X13704958Y-11153674D01*
X13704958Y-11153674D02*
X13724005Y-11144150D01*
X13724005Y-11144150D02*
X13752577Y-11144150D01*
X13752577Y-11144150D02*
X13771624Y-11153674D01*
X13771624Y-11153674D02*
X13781148Y-11172722D01*
X13781148Y-11172722D02*
X13781148Y-11277484D01*
X13876386Y-11277484D02*
X13876386Y-11144150D01*
X13876386Y-11163198D02*
X13885910Y-11153674D01*
X13885910Y-11153674D02*
X13904958Y-11144150D01*
X13904958Y-11144150D02*
X13933529Y-11144150D01*
X13933529Y-11144150D02*
X13952577Y-11153674D01*
X13952577Y-11153674D02*
X13962101Y-11172722D01*
X13962101Y-11172722D02*
X13962101Y-11277484D01*
X13962101Y-11172722D02*
X13971624Y-11153674D01*
X13971624Y-11153674D02*
X13990672Y-11144150D01*
X13990672Y-11144150D02*
X14019243Y-11144150D01*
X14019243Y-11144150D02*
X14038291Y-11153674D01*
X14038291Y-11153674D02*
X14047815Y-11172722D01*
X14047815Y-11172722D02*
X14047815Y-11277484D01*
X14438291Y-11067960D02*
X14266863Y-11325103D01*
X14695434Y-11077484D02*
X14714482Y-11077484D01*
X14714482Y-11077484D02*
X14733529Y-11087008D01*
X14733529Y-11087008D02*
X14743053Y-11096531D01*
X14743053Y-11096531D02*
X14752577Y-11115579D01*
X14752577Y-11115579D02*
X14762101Y-11153674D01*
X14762101Y-11153674D02*
X14762101Y-11201293D01*
X14762101Y-11201293D02*
X14752577Y-11239388D01*
X14752577Y-11239388D02*
X14743053Y-11258436D01*
X14743053Y-11258436D02*
X14733529Y-11267960D01*
X14733529Y-11267960D02*
X14714482Y-11277484D01*
X14714482Y-11277484D02*
X14695434Y-11277484D01*
X14695434Y-11277484D02*
X14676386Y-11267960D01*
X14676386Y-11267960D02*
X14666863Y-11258436D01*
X14666863Y-11258436D02*
X14657339Y-11239388D01*
X14657339Y-11239388D02*
X14647815Y-11201293D01*
X14647815Y-11201293D02*
X14647815Y-11153674D01*
X14647815Y-11153674D02*
X14657339Y-11115579D01*
X14657339Y-11115579D02*
X14666863Y-11096531D01*
X14666863Y-11096531D02*
X14676386Y-11087008D01*
X14676386Y-11087008D02*
X14695434Y-11077484D01*
X14847815Y-11258436D02*
X14857339Y-11267960D01*
X14857339Y-11267960D02*
X14847815Y-11277484D01*
X14847815Y-11277484D02*
X14838291Y-11267960D01*
X14838291Y-11267960D02*
X14847815Y-11258436D01*
X14847815Y-11258436D02*
X14847815Y-11277484D01*
X14981148Y-11077484D02*
X15000196Y-11077484D01*
X15000196Y-11077484D02*
X15019244Y-11087008D01*
X15019244Y-11087008D02*
X15028767Y-11096531D01*
X15028767Y-11096531D02*
X15038291Y-11115579D01*
X15038291Y-11115579D02*
X15047815Y-11153674D01*
X15047815Y-11153674D02*
X15047815Y-11201293D01*
X15047815Y-11201293D02*
X15038291Y-11239388D01*
X15038291Y-11239388D02*
X15028767Y-11258436D01*
X15028767Y-11258436D02*
X15019244Y-11267960D01*
X15019244Y-11267960D02*
X15000196Y-11277484D01*
X15000196Y-11277484D02*
X14981148Y-11277484D01*
X14981148Y-11277484D02*
X14962101Y-11267960D01*
X14962101Y-11267960D02*
X14952577Y-11258436D01*
X14952577Y-11258436D02*
X14943053Y-11239388D01*
X14943053Y-11239388D02*
X14933529Y-11201293D01*
X14933529Y-11201293D02*
X14933529Y-11153674D01*
X14933529Y-11153674D02*
X14943053Y-11115579D01*
X14943053Y-11115579D02*
X14952577Y-11096531D01*
X14952577Y-11096531D02*
X14962101Y-11087008D01*
X14962101Y-11087008D02*
X14981148Y-11077484D01*
X15238291Y-11277484D02*
X15124006Y-11277484D01*
X15181148Y-11277484D02*
X15181148Y-11077484D01*
X15181148Y-11077484D02*
X15162101Y-11106055D01*
X15162101Y-11106055D02*
X15143053Y-11125103D01*
X15143053Y-11125103D02*
X15124006Y-11134627D01*
X15333529Y-11277484D02*
X15371625Y-11277484D01*
X15371625Y-11277484D02*
X15390672Y-11267960D01*
X15390672Y-11267960D02*
X15400196Y-11258436D01*
X15400196Y-11258436D02*
X15419244Y-11229865D01*
X15419244Y-11229865D02*
X15428767Y-11191769D01*
X15428767Y-11191769D02*
X15428767Y-11115579D01*
X15428767Y-11115579D02*
X15419244Y-11096531D01*
X15419244Y-11096531D02*
X15409720Y-11087008D01*
X15409720Y-11087008D02*
X15390672Y-11077484D01*
X15390672Y-11077484D02*
X15352577Y-11077484D01*
X15352577Y-11077484D02*
X15333529Y-11087008D01*
X15333529Y-11087008D02*
X15324006Y-11096531D01*
X15324006Y-11096531D02*
X15314482Y-11115579D01*
X15314482Y-11115579D02*
X15314482Y-11163198D01*
X15314482Y-11163198D02*
X15324006Y-11182246D01*
X15324006Y-11182246D02*
X15333529Y-11191769D01*
X15333529Y-11191769D02*
X15352577Y-11201293D01*
X15352577Y-11201293D02*
X15390672Y-11201293D01*
X15390672Y-11201293D02*
X15409720Y-11191769D01*
X15409720Y-11191769D02*
X15419244Y-11182246D01*
X15419244Y-11182246D02*
X15428767Y-11163198D01*
X15495434Y-11077484D02*
X15628767Y-11077484D01*
X15628767Y-11077484D02*
X15543053Y-11277484D01*
X15695434Y-11077484D02*
X15695434Y-11115579D01*
X15771625Y-11077484D02*
X15771625Y-11115579D01*
X16066863Y-11353674D02*
X16057339Y-11344150D01*
X16057339Y-11344150D02*
X16038291Y-11315579D01*
X16038291Y-11315579D02*
X16028768Y-11296531D01*
X16028768Y-11296531D02*
X16019244Y-11267960D01*
X16019244Y-11267960D02*
X16009720Y-11220341D01*
X16009720Y-11220341D02*
X16009720Y-11182246D01*
X16009720Y-11182246D02*
X16019244Y-11134627D01*
X16019244Y-11134627D02*
X16028768Y-11106055D01*
X16028768Y-11106055D02*
X16038291Y-11087008D01*
X16038291Y-11087008D02*
X16057339Y-11058436D01*
X16057339Y-11058436D02*
X16066863Y-11048912D01*
X16133529Y-11096531D02*
X16143053Y-11087008D01*
X16143053Y-11087008D02*
X16162101Y-11077484D01*
X16162101Y-11077484D02*
X16209720Y-11077484D01*
X16209720Y-11077484D02*
X16228768Y-11087008D01*
X16228768Y-11087008D02*
X16238291Y-11096531D01*
X16238291Y-11096531D02*
X16247815Y-11115579D01*
X16247815Y-11115579D02*
X16247815Y-11134627D01*
X16247815Y-11134627D02*
X16238291Y-11163198D01*
X16238291Y-11163198D02*
X16124006Y-11277484D01*
X16124006Y-11277484D02*
X16247815Y-11277484D01*
X16485910Y-11277484D02*
X16485910Y-11077484D01*
X16571625Y-11277484D02*
X16571625Y-11172722D01*
X16571625Y-11172722D02*
X16562101Y-11153674D01*
X16562101Y-11153674D02*
X16543053Y-11144150D01*
X16543053Y-11144150D02*
X16514482Y-11144150D01*
X16514482Y-11144150D02*
X16495434Y-11153674D01*
X16495434Y-11153674D02*
X16485910Y-11163198D01*
X16695434Y-11277484D02*
X16676387Y-11267960D01*
X16676387Y-11267960D02*
X16666863Y-11258436D01*
X16666863Y-11258436D02*
X16657339Y-11239388D01*
X16657339Y-11239388D02*
X16657339Y-11182246D01*
X16657339Y-11182246D02*
X16666863Y-11163198D01*
X16666863Y-11163198D02*
X16676387Y-11153674D01*
X16676387Y-11153674D02*
X16695434Y-11144150D01*
X16695434Y-11144150D02*
X16724006Y-11144150D01*
X16724006Y-11144150D02*
X16743053Y-11153674D01*
X16743053Y-11153674D02*
X16752577Y-11163198D01*
X16752577Y-11163198D02*
X16762101Y-11182246D01*
X16762101Y-11182246D02*
X16762101Y-11239388D01*
X16762101Y-11239388D02*
X16752577Y-11258436D01*
X16752577Y-11258436D02*
X16743053Y-11267960D01*
X16743053Y-11267960D02*
X16724006Y-11277484D01*
X16724006Y-11277484D02*
X16695434Y-11277484D01*
X16876387Y-11277484D02*
X16857339Y-11267960D01*
X16857339Y-11267960D02*
X16847815Y-11248912D01*
X16847815Y-11248912D02*
X16847815Y-11077484D01*
X17028768Y-11267960D02*
X17009720Y-11277484D01*
X17009720Y-11277484D02*
X16971625Y-11277484D01*
X16971625Y-11277484D02*
X16952577Y-11267960D01*
X16952577Y-11267960D02*
X16943053Y-11248912D01*
X16943053Y-11248912D02*
X16943053Y-11172722D01*
X16943053Y-11172722D02*
X16952577Y-11153674D01*
X16952577Y-11153674D02*
X16971625Y-11144150D01*
X16971625Y-11144150D02*
X17009720Y-11144150D01*
X17009720Y-11144150D02*
X17028768Y-11153674D01*
X17028768Y-11153674D02*
X17038292Y-11172722D01*
X17038292Y-11172722D02*
X17038292Y-11191769D01*
X17038292Y-11191769D02*
X16943053Y-11210817D01*
X17114482Y-11267960D02*
X17133530Y-11277484D01*
X17133530Y-11277484D02*
X17171625Y-11277484D01*
X17171625Y-11277484D02*
X17190673Y-11267960D01*
X17190673Y-11267960D02*
X17200196Y-11248912D01*
X17200196Y-11248912D02*
X17200196Y-11239388D01*
X17200196Y-11239388D02*
X17190673Y-11220341D01*
X17190673Y-11220341D02*
X17171625Y-11210817D01*
X17171625Y-11210817D02*
X17143053Y-11210817D01*
X17143053Y-11210817D02*
X17124006Y-11201293D01*
X17124006Y-11201293D02*
X17114482Y-11182246D01*
X17114482Y-11182246D02*
X17114482Y-11172722D01*
X17114482Y-11172722D02*
X17124006Y-11153674D01*
X17124006Y-11153674D02*
X17143053Y-11144150D01*
X17143053Y-11144150D02*
X17171625Y-11144150D01*
X17171625Y-11144150D02*
X17190673Y-11153674D01*
X17266863Y-11353674D02*
X17276387Y-11344150D01*
X17276387Y-11344150D02*
X17295434Y-11315579D01*
X17295434Y-11315579D02*
X17304958Y-11296531D01*
X17304958Y-11296531D02*
X17314482Y-11267960D01*
X17314482Y-11267960D02*
X17324006Y-11220341D01*
X17324006Y-11220341D02*
X17324006Y-11182246D01*
X17324006Y-11182246D02*
X17314482Y-11134627D01*
X17314482Y-11134627D02*
X17304958Y-11106055D01*
X17304958Y-11106055D02*
X17295434Y-11087008D01*
X17295434Y-11087008D02*
X17276387Y-11058436D01*
X17276387Y-11058436D02*
X17266863Y-11048912D01*
D13*
X12491800Y-11450000D02*
G75*
G03*
X12491800Y-11450000I-40000J0D01*
G01*
D11*
X12790672Y-11341484D02*
X12809720Y-11341484D01*
X12809720Y-11341484D02*
X12828767Y-11351008D01*
X12828767Y-11351008D02*
X12838291Y-11360531D01*
X12838291Y-11360531D02*
X12847815Y-11379579D01*
X12847815Y-11379579D02*
X12857339Y-11417674D01*
X12857339Y-11417674D02*
X12857339Y-11465293D01*
X12857339Y-11465293D02*
X12847815Y-11503388D01*
X12847815Y-11503388D02*
X12838291Y-11522436D01*
X12838291Y-11522436D02*
X12828767Y-11531960D01*
X12828767Y-11531960D02*
X12809720Y-11541484D01*
X12809720Y-11541484D02*
X12790672Y-11541484D01*
X12790672Y-11541484D02*
X12771624Y-11531960D01*
X12771624Y-11531960D02*
X12762101Y-11522436D01*
X12762101Y-11522436D02*
X12752577Y-11503388D01*
X12752577Y-11503388D02*
X12743053Y-11465293D01*
X12743053Y-11465293D02*
X12743053Y-11417674D01*
X12743053Y-11417674D02*
X12752577Y-11379579D01*
X12752577Y-11379579D02*
X12762101Y-11360531D01*
X12762101Y-11360531D02*
X12771624Y-11351008D01*
X12771624Y-11351008D02*
X12790672Y-11341484D01*
X12943053Y-11522436D02*
X12952577Y-11531960D01*
X12952577Y-11531960D02*
X12943053Y-11541484D01*
X12943053Y-11541484D02*
X12933529Y-11531960D01*
X12933529Y-11531960D02*
X12943053Y-11522436D01*
X12943053Y-11522436D02*
X12943053Y-11541484D01*
X13066862Y-11427198D02*
X13047815Y-11417674D01*
X13047815Y-11417674D02*
X13038291Y-11408150D01*
X13038291Y-11408150D02*
X13028767Y-11389103D01*
X13028767Y-11389103D02*
X13028767Y-11379579D01*
X13028767Y-11379579D02*
X13038291Y-11360531D01*
X13038291Y-11360531D02*
X13047815Y-11351008D01*
X13047815Y-11351008D02*
X13066862Y-11341484D01*
X13066862Y-11341484D02*
X13104958Y-11341484D01*
X13104958Y-11341484D02*
X13124005Y-11351008D01*
X13124005Y-11351008D02*
X13133529Y-11360531D01*
X13133529Y-11360531D02*
X13143053Y-11379579D01*
X13143053Y-11379579D02*
X13143053Y-11389103D01*
X13143053Y-11389103D02*
X13133529Y-11408150D01*
X13133529Y-11408150D02*
X13124005Y-11417674D01*
X13124005Y-11417674D02*
X13104958Y-11427198D01*
X13104958Y-11427198D02*
X13066862Y-11427198D01*
X13066862Y-11427198D02*
X13047815Y-11436722D01*
X13047815Y-11436722D02*
X13038291Y-11446246D01*
X13038291Y-11446246D02*
X13028767Y-11465293D01*
X13028767Y-11465293D02*
X13028767Y-11503388D01*
X13028767Y-11503388D02*
X13038291Y-11522436D01*
X13038291Y-11522436D02*
X13047815Y-11531960D01*
X13047815Y-11531960D02*
X13066862Y-11541484D01*
X13066862Y-11541484D02*
X13104958Y-11541484D01*
X13104958Y-11541484D02*
X13124005Y-11531960D01*
X13124005Y-11531960D02*
X13133529Y-11522436D01*
X13133529Y-11522436D02*
X13143053Y-11503388D01*
X13143053Y-11503388D02*
X13143053Y-11465293D01*
X13143053Y-11465293D02*
X13133529Y-11446246D01*
X13133529Y-11446246D02*
X13124005Y-11436722D01*
X13124005Y-11436722D02*
X13104958Y-11427198D01*
X13266862Y-11341484D02*
X13285910Y-11341484D01*
X13285910Y-11341484D02*
X13304958Y-11351008D01*
X13304958Y-11351008D02*
X13314482Y-11360531D01*
X13314482Y-11360531D02*
X13324005Y-11379579D01*
X13324005Y-11379579D02*
X13333529Y-11417674D01*
X13333529Y-11417674D02*
X13333529Y-11465293D01*
X13333529Y-11465293D02*
X13324005Y-11503388D01*
X13324005Y-11503388D02*
X13314482Y-11522436D01*
X13314482Y-11522436D02*
X13304958Y-11531960D01*
X13304958Y-11531960D02*
X13285910Y-11541484D01*
X13285910Y-11541484D02*
X13266862Y-11541484D01*
X13266862Y-11541484D02*
X13247815Y-11531960D01*
X13247815Y-11531960D02*
X13238291Y-11522436D01*
X13238291Y-11522436D02*
X13228767Y-11503388D01*
X13228767Y-11503388D02*
X13219243Y-11465293D01*
X13219243Y-11465293D02*
X13219243Y-11417674D01*
X13219243Y-11417674D02*
X13228767Y-11379579D01*
X13228767Y-11379579D02*
X13238291Y-11360531D01*
X13238291Y-11360531D02*
X13247815Y-11351008D01*
X13247815Y-11351008D02*
X13266862Y-11341484D01*
X13457339Y-11341484D02*
X13476386Y-11341484D01*
X13476386Y-11341484D02*
X13495434Y-11351008D01*
X13495434Y-11351008D02*
X13504958Y-11360531D01*
X13504958Y-11360531D02*
X13514482Y-11379579D01*
X13514482Y-11379579D02*
X13524005Y-11417674D01*
X13524005Y-11417674D02*
X13524005Y-11465293D01*
X13524005Y-11465293D02*
X13514482Y-11503388D01*
X13514482Y-11503388D02*
X13504958Y-11522436D01*
X13504958Y-11522436D02*
X13495434Y-11531960D01*
X13495434Y-11531960D02*
X13476386Y-11541484D01*
X13476386Y-11541484D02*
X13457339Y-11541484D01*
X13457339Y-11541484D02*
X13438291Y-11531960D01*
X13438291Y-11531960D02*
X13428767Y-11522436D01*
X13428767Y-11522436D02*
X13419243Y-11503388D01*
X13419243Y-11503388D02*
X13409720Y-11465293D01*
X13409720Y-11465293D02*
X13409720Y-11417674D01*
X13409720Y-11417674D02*
X13419243Y-11379579D01*
X13419243Y-11379579D02*
X13428767Y-11360531D01*
X13428767Y-11360531D02*
X13438291Y-11351008D01*
X13438291Y-11351008D02*
X13457339Y-11341484D01*
X13609720Y-11541484D02*
X13609720Y-11408150D01*
X13609720Y-11427198D02*
X13619243Y-11417674D01*
X13619243Y-11417674D02*
X13638291Y-11408150D01*
X13638291Y-11408150D02*
X13666863Y-11408150D01*
X13666863Y-11408150D02*
X13685910Y-11417674D01*
X13685910Y-11417674D02*
X13695434Y-11436722D01*
X13695434Y-11436722D02*
X13695434Y-11541484D01*
X13695434Y-11436722D02*
X13704958Y-11417674D01*
X13704958Y-11417674D02*
X13724005Y-11408150D01*
X13724005Y-11408150D02*
X13752577Y-11408150D01*
X13752577Y-11408150D02*
X13771624Y-11417674D01*
X13771624Y-11417674D02*
X13781148Y-11436722D01*
X13781148Y-11436722D02*
X13781148Y-11541484D01*
X13876386Y-11541484D02*
X13876386Y-11408150D01*
X13876386Y-11427198D02*
X13885910Y-11417674D01*
X13885910Y-11417674D02*
X13904958Y-11408150D01*
X13904958Y-11408150D02*
X13933529Y-11408150D01*
X13933529Y-11408150D02*
X13952577Y-11417674D01*
X13952577Y-11417674D02*
X13962101Y-11436722D01*
X13962101Y-11436722D02*
X13962101Y-11541484D01*
X13962101Y-11436722D02*
X13971624Y-11417674D01*
X13971624Y-11417674D02*
X13990672Y-11408150D01*
X13990672Y-11408150D02*
X14019243Y-11408150D01*
X14019243Y-11408150D02*
X14038291Y-11417674D01*
X14038291Y-11417674D02*
X14047815Y-11436722D01*
X14047815Y-11436722D02*
X14047815Y-11541484D01*
X14438291Y-11331960D02*
X14266863Y-11589103D01*
X14695434Y-11341484D02*
X14714482Y-11341484D01*
X14714482Y-11341484D02*
X14733529Y-11351008D01*
X14733529Y-11351008D02*
X14743053Y-11360531D01*
X14743053Y-11360531D02*
X14752577Y-11379579D01*
X14752577Y-11379579D02*
X14762101Y-11417674D01*
X14762101Y-11417674D02*
X14762101Y-11465293D01*
X14762101Y-11465293D02*
X14752577Y-11503388D01*
X14752577Y-11503388D02*
X14743053Y-11522436D01*
X14743053Y-11522436D02*
X14733529Y-11531960D01*
X14733529Y-11531960D02*
X14714482Y-11541484D01*
X14714482Y-11541484D02*
X14695434Y-11541484D01*
X14695434Y-11541484D02*
X14676386Y-11531960D01*
X14676386Y-11531960D02*
X14666863Y-11522436D01*
X14666863Y-11522436D02*
X14657339Y-11503388D01*
X14657339Y-11503388D02*
X14647815Y-11465293D01*
X14647815Y-11465293D02*
X14647815Y-11417674D01*
X14647815Y-11417674D02*
X14657339Y-11379579D01*
X14657339Y-11379579D02*
X14666863Y-11360531D01*
X14666863Y-11360531D02*
X14676386Y-11351008D01*
X14676386Y-11351008D02*
X14695434Y-11341484D01*
X14847815Y-11522436D02*
X14857339Y-11531960D01*
X14857339Y-11531960D02*
X14847815Y-11541484D01*
X14847815Y-11541484D02*
X14838291Y-11531960D01*
X14838291Y-11531960D02*
X14847815Y-11522436D01*
X14847815Y-11522436D02*
X14847815Y-11541484D01*
X14981148Y-11341484D02*
X15000196Y-11341484D01*
X15000196Y-11341484D02*
X15019244Y-11351008D01*
X15019244Y-11351008D02*
X15028767Y-11360531D01*
X15028767Y-11360531D02*
X15038291Y-11379579D01*
X15038291Y-11379579D02*
X15047815Y-11417674D01*
X15047815Y-11417674D02*
X15047815Y-11465293D01*
X15047815Y-11465293D02*
X15038291Y-11503388D01*
X15038291Y-11503388D02*
X15028767Y-11522436D01*
X15028767Y-11522436D02*
X15019244Y-11531960D01*
X15019244Y-11531960D02*
X15000196Y-11541484D01*
X15000196Y-11541484D02*
X14981148Y-11541484D01*
X14981148Y-11541484D02*
X14962101Y-11531960D01*
X14962101Y-11531960D02*
X14952577Y-11522436D01*
X14952577Y-11522436D02*
X14943053Y-11503388D01*
X14943053Y-11503388D02*
X14933529Y-11465293D01*
X14933529Y-11465293D02*
X14933529Y-11417674D01*
X14933529Y-11417674D02*
X14943053Y-11379579D01*
X14943053Y-11379579D02*
X14952577Y-11360531D01*
X14952577Y-11360531D02*
X14962101Y-11351008D01*
X14962101Y-11351008D02*
X14981148Y-11341484D01*
X15114482Y-11341484D02*
X15238291Y-11341484D01*
X15238291Y-11341484D02*
X15171625Y-11417674D01*
X15171625Y-11417674D02*
X15200196Y-11417674D01*
X15200196Y-11417674D02*
X15219244Y-11427198D01*
X15219244Y-11427198D02*
X15228767Y-11436722D01*
X15228767Y-11436722D02*
X15238291Y-11455769D01*
X15238291Y-11455769D02*
X15238291Y-11503388D01*
X15238291Y-11503388D02*
X15228767Y-11522436D01*
X15228767Y-11522436D02*
X15219244Y-11531960D01*
X15219244Y-11531960D02*
X15200196Y-11541484D01*
X15200196Y-11541484D02*
X15143053Y-11541484D01*
X15143053Y-11541484D02*
X15124006Y-11531960D01*
X15124006Y-11531960D02*
X15114482Y-11522436D01*
X15428767Y-11541484D02*
X15314482Y-11541484D01*
X15371625Y-11541484D02*
X15371625Y-11341484D01*
X15371625Y-11341484D02*
X15352577Y-11370055D01*
X15352577Y-11370055D02*
X15333529Y-11389103D01*
X15333529Y-11389103D02*
X15314482Y-11398627D01*
X15609720Y-11341484D02*
X15514482Y-11341484D01*
X15514482Y-11341484D02*
X15504958Y-11436722D01*
X15504958Y-11436722D02*
X15514482Y-11427198D01*
X15514482Y-11427198D02*
X15533529Y-11417674D01*
X15533529Y-11417674D02*
X15581148Y-11417674D01*
X15581148Y-11417674D02*
X15600196Y-11427198D01*
X15600196Y-11427198D02*
X15609720Y-11436722D01*
X15609720Y-11436722D02*
X15619244Y-11455769D01*
X15619244Y-11455769D02*
X15619244Y-11503388D01*
X15619244Y-11503388D02*
X15609720Y-11522436D01*
X15609720Y-11522436D02*
X15600196Y-11531960D01*
X15600196Y-11531960D02*
X15581148Y-11541484D01*
X15581148Y-11541484D02*
X15533529Y-11541484D01*
X15533529Y-11541484D02*
X15514482Y-11531960D01*
X15514482Y-11531960D02*
X15504958Y-11522436D01*
X15695434Y-11341484D02*
X15695434Y-11379579D01*
X15771625Y-11341484D02*
X15771625Y-11379579D01*
X16066863Y-11617674D02*
X16057339Y-11608150D01*
X16057339Y-11608150D02*
X16038291Y-11579579D01*
X16038291Y-11579579D02*
X16028768Y-11560531D01*
X16028768Y-11560531D02*
X16019244Y-11531960D01*
X16019244Y-11531960D02*
X16009720Y-11484341D01*
X16009720Y-11484341D02*
X16009720Y-11446246D01*
X16009720Y-11446246D02*
X16019244Y-11398627D01*
X16019244Y-11398627D02*
X16028768Y-11370055D01*
X16028768Y-11370055D02*
X16038291Y-11351008D01*
X16038291Y-11351008D02*
X16057339Y-11322436D01*
X16057339Y-11322436D02*
X16066863Y-11312912D01*
X16133529Y-11360531D02*
X16143053Y-11351008D01*
X16143053Y-11351008D02*
X16162101Y-11341484D01*
X16162101Y-11341484D02*
X16209720Y-11341484D01*
X16209720Y-11341484D02*
X16228768Y-11351008D01*
X16228768Y-11351008D02*
X16238291Y-11360531D01*
X16238291Y-11360531D02*
X16247815Y-11379579D01*
X16247815Y-11379579D02*
X16247815Y-11398627D01*
X16247815Y-11398627D02*
X16238291Y-11427198D01*
X16238291Y-11427198D02*
X16124006Y-11541484D01*
X16124006Y-11541484D02*
X16247815Y-11541484D01*
X16371625Y-11341484D02*
X16390672Y-11341484D01*
X16390672Y-11341484D02*
X16409720Y-11351008D01*
X16409720Y-11351008D02*
X16419244Y-11360531D01*
X16419244Y-11360531D02*
X16428768Y-11379579D01*
X16428768Y-11379579D02*
X16438291Y-11417674D01*
X16438291Y-11417674D02*
X16438291Y-11465293D01*
X16438291Y-11465293D02*
X16428768Y-11503388D01*
X16428768Y-11503388D02*
X16419244Y-11522436D01*
X16419244Y-11522436D02*
X16409720Y-11531960D01*
X16409720Y-11531960D02*
X16390672Y-11541484D01*
X16390672Y-11541484D02*
X16371625Y-11541484D01*
X16371625Y-11541484D02*
X16352577Y-11531960D01*
X16352577Y-11531960D02*
X16343053Y-11522436D01*
X16343053Y-11522436D02*
X16333529Y-11503388D01*
X16333529Y-11503388D02*
X16324006Y-11465293D01*
X16324006Y-11465293D02*
X16324006Y-11417674D01*
X16324006Y-11417674D02*
X16333529Y-11379579D01*
X16333529Y-11379579D02*
X16343053Y-11360531D01*
X16343053Y-11360531D02*
X16352577Y-11351008D01*
X16352577Y-11351008D02*
X16371625Y-11341484D01*
X16676387Y-11541484D02*
X16676387Y-11341484D01*
X16762101Y-11541484D02*
X16762101Y-11436722D01*
X16762101Y-11436722D02*
X16752577Y-11417674D01*
X16752577Y-11417674D02*
X16733530Y-11408150D01*
X16733530Y-11408150D02*
X16704958Y-11408150D01*
X16704958Y-11408150D02*
X16685910Y-11417674D01*
X16685910Y-11417674D02*
X16676387Y-11427198D01*
X16885911Y-11541484D02*
X16866863Y-11531960D01*
X16866863Y-11531960D02*
X16857339Y-11522436D01*
X16857339Y-11522436D02*
X16847815Y-11503388D01*
X16847815Y-11503388D02*
X16847815Y-11446246D01*
X16847815Y-11446246D02*
X16857339Y-11427198D01*
X16857339Y-11427198D02*
X16866863Y-11417674D01*
X16866863Y-11417674D02*
X16885911Y-11408150D01*
X16885911Y-11408150D02*
X16914482Y-11408150D01*
X16914482Y-11408150D02*
X16933530Y-11417674D01*
X16933530Y-11417674D02*
X16943053Y-11427198D01*
X16943053Y-11427198D02*
X16952577Y-11446246D01*
X16952577Y-11446246D02*
X16952577Y-11503388D01*
X16952577Y-11503388D02*
X16943053Y-11522436D01*
X16943053Y-11522436D02*
X16933530Y-11531960D01*
X16933530Y-11531960D02*
X16914482Y-11541484D01*
X16914482Y-11541484D02*
X16885911Y-11541484D01*
X17066863Y-11541484D02*
X17047815Y-11531960D01*
X17047815Y-11531960D02*
X17038292Y-11512912D01*
X17038292Y-11512912D02*
X17038292Y-11341484D01*
X17219244Y-11531960D02*
X17200196Y-11541484D01*
X17200196Y-11541484D02*
X17162101Y-11541484D01*
X17162101Y-11541484D02*
X17143053Y-11531960D01*
X17143053Y-11531960D02*
X17133530Y-11512912D01*
X17133530Y-11512912D02*
X17133530Y-11436722D01*
X17133530Y-11436722D02*
X17143053Y-11417674D01*
X17143053Y-11417674D02*
X17162101Y-11408150D01*
X17162101Y-11408150D02*
X17200196Y-11408150D01*
X17200196Y-11408150D02*
X17219244Y-11417674D01*
X17219244Y-11417674D02*
X17228768Y-11436722D01*
X17228768Y-11436722D02*
X17228768Y-11455769D01*
X17228768Y-11455769D02*
X17133530Y-11474817D01*
X17304958Y-11531960D02*
X17324006Y-11541484D01*
X17324006Y-11541484D02*
X17362101Y-11541484D01*
X17362101Y-11541484D02*
X17381149Y-11531960D01*
X17381149Y-11531960D02*
X17390673Y-11512912D01*
X17390673Y-11512912D02*
X17390673Y-11503388D01*
X17390673Y-11503388D02*
X17381149Y-11484341D01*
X17381149Y-11484341D02*
X17362101Y-11474817D01*
X17362101Y-11474817D02*
X17333530Y-11474817D01*
X17333530Y-11474817D02*
X17314482Y-11465293D01*
X17314482Y-11465293D02*
X17304958Y-11446246D01*
X17304958Y-11446246D02*
X17304958Y-11436722D01*
X17304958Y-11436722D02*
X17314482Y-11417674D01*
X17314482Y-11417674D02*
X17333530Y-11408150D01*
X17333530Y-11408150D02*
X17362101Y-11408150D01*
X17362101Y-11408150D02*
X17381149Y-11417674D01*
X17457339Y-11617674D02*
X17466863Y-11608150D01*
X17466863Y-11608150D02*
X17485911Y-11579579D01*
X17485911Y-11579579D02*
X17495434Y-11560531D01*
X17495434Y-11560531D02*
X17504958Y-11531960D01*
X17504958Y-11531960D02*
X17514482Y-11484341D01*
X17514482Y-11484341D02*
X17514482Y-11446246D01*
X17514482Y-11446246D02*
X17504958Y-11398627D01*
X17504958Y-11398627D02*
X17495434Y-11370055D01*
X17495434Y-11370055D02*
X17485911Y-11351008D01*
X17485911Y-11351008D02*
X17466863Y-11322436D01*
X17466863Y-11322436D02*
X17457339Y-11312912D01*
D10*
X12441800Y-11664000D02*
X12441800Y-11764000D01*
X12391800Y-11714000D02*
X12491800Y-11714000D01*
D11*
X12857339Y-11805484D02*
X12743053Y-11805484D01*
X12800196Y-11805484D02*
X12800196Y-11605484D01*
X12800196Y-11605484D02*
X12781148Y-11634055D01*
X12781148Y-11634055D02*
X12762101Y-11653103D01*
X12762101Y-11653103D02*
X12743053Y-11662627D01*
X12943053Y-11786436D02*
X12952577Y-11795960D01*
X12952577Y-11795960D02*
X12943053Y-11805484D01*
X12943053Y-11805484D02*
X12933529Y-11795960D01*
X12933529Y-11795960D02*
X12943053Y-11786436D01*
X12943053Y-11786436D02*
X12943053Y-11805484D01*
X13076386Y-11605484D02*
X13095434Y-11605484D01*
X13095434Y-11605484D02*
X13114482Y-11615008D01*
X13114482Y-11615008D02*
X13124005Y-11624531D01*
X13124005Y-11624531D02*
X13133529Y-11643579D01*
X13133529Y-11643579D02*
X13143053Y-11681674D01*
X13143053Y-11681674D02*
X13143053Y-11729293D01*
X13143053Y-11729293D02*
X13133529Y-11767388D01*
X13133529Y-11767388D02*
X13124005Y-11786436D01*
X13124005Y-11786436D02*
X13114482Y-11795960D01*
X13114482Y-11795960D02*
X13095434Y-11805484D01*
X13095434Y-11805484D02*
X13076386Y-11805484D01*
X13076386Y-11805484D02*
X13057339Y-11795960D01*
X13057339Y-11795960D02*
X13047815Y-11786436D01*
X13047815Y-11786436D02*
X13038291Y-11767388D01*
X13038291Y-11767388D02*
X13028767Y-11729293D01*
X13028767Y-11729293D02*
X13028767Y-11681674D01*
X13028767Y-11681674D02*
X13038291Y-11643579D01*
X13038291Y-11643579D02*
X13047815Y-11624531D01*
X13047815Y-11624531D02*
X13057339Y-11615008D01*
X13057339Y-11615008D02*
X13076386Y-11605484D01*
X13266862Y-11605484D02*
X13285910Y-11605484D01*
X13285910Y-11605484D02*
X13304958Y-11615008D01*
X13304958Y-11615008D02*
X13314482Y-11624531D01*
X13314482Y-11624531D02*
X13324005Y-11643579D01*
X13324005Y-11643579D02*
X13333529Y-11681674D01*
X13333529Y-11681674D02*
X13333529Y-11729293D01*
X13333529Y-11729293D02*
X13324005Y-11767388D01*
X13324005Y-11767388D02*
X13314482Y-11786436D01*
X13314482Y-11786436D02*
X13304958Y-11795960D01*
X13304958Y-11795960D02*
X13285910Y-11805484D01*
X13285910Y-11805484D02*
X13266862Y-11805484D01*
X13266862Y-11805484D02*
X13247815Y-11795960D01*
X13247815Y-11795960D02*
X13238291Y-11786436D01*
X13238291Y-11786436D02*
X13228767Y-11767388D01*
X13228767Y-11767388D02*
X13219243Y-11729293D01*
X13219243Y-11729293D02*
X13219243Y-11681674D01*
X13219243Y-11681674D02*
X13228767Y-11643579D01*
X13228767Y-11643579D02*
X13238291Y-11624531D01*
X13238291Y-11624531D02*
X13247815Y-11615008D01*
X13247815Y-11615008D02*
X13266862Y-11605484D01*
X13457339Y-11605484D02*
X13476386Y-11605484D01*
X13476386Y-11605484D02*
X13495434Y-11615008D01*
X13495434Y-11615008D02*
X13504958Y-11624531D01*
X13504958Y-11624531D02*
X13514482Y-11643579D01*
X13514482Y-11643579D02*
X13524005Y-11681674D01*
X13524005Y-11681674D02*
X13524005Y-11729293D01*
X13524005Y-11729293D02*
X13514482Y-11767388D01*
X13514482Y-11767388D02*
X13504958Y-11786436D01*
X13504958Y-11786436D02*
X13495434Y-11795960D01*
X13495434Y-11795960D02*
X13476386Y-11805484D01*
X13476386Y-11805484D02*
X13457339Y-11805484D01*
X13457339Y-11805484D02*
X13438291Y-11795960D01*
X13438291Y-11795960D02*
X13428767Y-11786436D01*
X13428767Y-11786436D02*
X13419243Y-11767388D01*
X13419243Y-11767388D02*
X13409720Y-11729293D01*
X13409720Y-11729293D02*
X13409720Y-11681674D01*
X13409720Y-11681674D02*
X13419243Y-11643579D01*
X13419243Y-11643579D02*
X13428767Y-11624531D01*
X13428767Y-11624531D02*
X13438291Y-11615008D01*
X13438291Y-11615008D02*
X13457339Y-11605484D01*
X13609720Y-11805484D02*
X13609720Y-11672150D01*
X13609720Y-11691198D02*
X13619243Y-11681674D01*
X13619243Y-11681674D02*
X13638291Y-11672150D01*
X13638291Y-11672150D02*
X13666863Y-11672150D01*
X13666863Y-11672150D02*
X13685910Y-11681674D01*
X13685910Y-11681674D02*
X13695434Y-11700722D01*
X13695434Y-11700722D02*
X13695434Y-11805484D01*
X13695434Y-11700722D02*
X13704958Y-11681674D01*
X13704958Y-11681674D02*
X13724005Y-11672150D01*
X13724005Y-11672150D02*
X13752577Y-11672150D01*
X13752577Y-11672150D02*
X13771624Y-11681674D01*
X13771624Y-11681674D02*
X13781148Y-11700722D01*
X13781148Y-11700722D02*
X13781148Y-11805484D01*
X13876386Y-11805484D02*
X13876386Y-11672150D01*
X13876386Y-11691198D02*
X13885910Y-11681674D01*
X13885910Y-11681674D02*
X13904958Y-11672150D01*
X13904958Y-11672150D02*
X13933529Y-11672150D01*
X13933529Y-11672150D02*
X13952577Y-11681674D01*
X13952577Y-11681674D02*
X13962101Y-11700722D01*
X13962101Y-11700722D02*
X13962101Y-11805484D01*
X13962101Y-11700722D02*
X13971624Y-11681674D01*
X13971624Y-11681674D02*
X13990672Y-11672150D01*
X13990672Y-11672150D02*
X14019243Y-11672150D01*
X14019243Y-11672150D02*
X14038291Y-11681674D01*
X14038291Y-11681674D02*
X14047815Y-11700722D01*
X14047815Y-11700722D02*
X14047815Y-11805484D01*
X14438291Y-11595960D02*
X14266863Y-11853103D01*
X14695434Y-11605484D02*
X14714482Y-11605484D01*
X14714482Y-11605484D02*
X14733529Y-11615008D01*
X14733529Y-11615008D02*
X14743053Y-11624531D01*
X14743053Y-11624531D02*
X14752577Y-11643579D01*
X14752577Y-11643579D02*
X14762101Y-11681674D01*
X14762101Y-11681674D02*
X14762101Y-11729293D01*
X14762101Y-11729293D02*
X14752577Y-11767388D01*
X14752577Y-11767388D02*
X14743053Y-11786436D01*
X14743053Y-11786436D02*
X14733529Y-11795960D01*
X14733529Y-11795960D02*
X14714482Y-11805484D01*
X14714482Y-11805484D02*
X14695434Y-11805484D01*
X14695434Y-11805484D02*
X14676386Y-11795960D01*
X14676386Y-11795960D02*
X14666863Y-11786436D01*
X14666863Y-11786436D02*
X14657339Y-11767388D01*
X14657339Y-11767388D02*
X14647815Y-11729293D01*
X14647815Y-11729293D02*
X14647815Y-11681674D01*
X14647815Y-11681674D02*
X14657339Y-11643579D01*
X14657339Y-11643579D02*
X14666863Y-11624531D01*
X14666863Y-11624531D02*
X14676386Y-11615008D01*
X14676386Y-11615008D02*
X14695434Y-11605484D01*
X14847815Y-11786436D02*
X14857339Y-11795960D01*
X14857339Y-11795960D02*
X14847815Y-11805484D01*
X14847815Y-11805484D02*
X14838291Y-11795960D01*
X14838291Y-11795960D02*
X14847815Y-11786436D01*
X14847815Y-11786436D02*
X14847815Y-11805484D01*
X14981148Y-11605484D02*
X15000196Y-11605484D01*
X15000196Y-11605484D02*
X15019244Y-11615008D01*
X15019244Y-11615008D02*
X15028767Y-11624531D01*
X15028767Y-11624531D02*
X15038291Y-11643579D01*
X15038291Y-11643579D02*
X15047815Y-11681674D01*
X15047815Y-11681674D02*
X15047815Y-11729293D01*
X15047815Y-11729293D02*
X15038291Y-11767388D01*
X15038291Y-11767388D02*
X15028767Y-11786436D01*
X15028767Y-11786436D02*
X15019244Y-11795960D01*
X15019244Y-11795960D02*
X15000196Y-11805484D01*
X15000196Y-11805484D02*
X14981148Y-11805484D01*
X14981148Y-11805484D02*
X14962101Y-11795960D01*
X14962101Y-11795960D02*
X14952577Y-11786436D01*
X14952577Y-11786436D02*
X14943053Y-11767388D01*
X14943053Y-11767388D02*
X14933529Y-11729293D01*
X14933529Y-11729293D02*
X14933529Y-11681674D01*
X14933529Y-11681674D02*
X14943053Y-11643579D01*
X14943053Y-11643579D02*
X14952577Y-11624531D01*
X14952577Y-11624531D02*
X14962101Y-11615008D01*
X14962101Y-11615008D02*
X14981148Y-11605484D01*
X15114482Y-11605484D02*
X15238291Y-11605484D01*
X15238291Y-11605484D02*
X15171625Y-11681674D01*
X15171625Y-11681674D02*
X15200196Y-11681674D01*
X15200196Y-11681674D02*
X15219244Y-11691198D01*
X15219244Y-11691198D02*
X15228767Y-11700722D01*
X15228767Y-11700722D02*
X15238291Y-11719769D01*
X15238291Y-11719769D02*
X15238291Y-11767388D01*
X15238291Y-11767388D02*
X15228767Y-11786436D01*
X15228767Y-11786436D02*
X15219244Y-11795960D01*
X15219244Y-11795960D02*
X15200196Y-11805484D01*
X15200196Y-11805484D02*
X15143053Y-11805484D01*
X15143053Y-11805484D02*
X15124006Y-11795960D01*
X15124006Y-11795960D02*
X15114482Y-11786436D01*
X15333529Y-11805484D02*
X15371625Y-11805484D01*
X15371625Y-11805484D02*
X15390672Y-11795960D01*
X15390672Y-11795960D02*
X15400196Y-11786436D01*
X15400196Y-11786436D02*
X15419244Y-11757865D01*
X15419244Y-11757865D02*
X15428767Y-11719769D01*
X15428767Y-11719769D02*
X15428767Y-11643579D01*
X15428767Y-11643579D02*
X15419244Y-11624531D01*
X15419244Y-11624531D02*
X15409720Y-11615008D01*
X15409720Y-11615008D02*
X15390672Y-11605484D01*
X15390672Y-11605484D02*
X15352577Y-11605484D01*
X15352577Y-11605484D02*
X15333529Y-11615008D01*
X15333529Y-11615008D02*
X15324006Y-11624531D01*
X15324006Y-11624531D02*
X15314482Y-11643579D01*
X15314482Y-11643579D02*
X15314482Y-11691198D01*
X15314482Y-11691198D02*
X15324006Y-11710246D01*
X15324006Y-11710246D02*
X15333529Y-11719769D01*
X15333529Y-11719769D02*
X15352577Y-11729293D01*
X15352577Y-11729293D02*
X15390672Y-11729293D01*
X15390672Y-11729293D02*
X15409720Y-11719769D01*
X15409720Y-11719769D02*
X15419244Y-11710246D01*
X15419244Y-11710246D02*
X15428767Y-11691198D01*
X15600196Y-11672150D02*
X15600196Y-11805484D01*
X15552577Y-11595960D02*
X15504958Y-11738817D01*
X15504958Y-11738817D02*
X15628767Y-11738817D01*
X15695434Y-11605484D02*
X15695434Y-11643579D01*
X15771625Y-11605484D02*
X15771625Y-11643579D01*
X16066863Y-11881674D02*
X16057339Y-11872150D01*
X16057339Y-11872150D02*
X16038291Y-11843579D01*
X16038291Y-11843579D02*
X16028768Y-11824531D01*
X16028768Y-11824531D02*
X16019244Y-11795960D01*
X16019244Y-11795960D02*
X16009720Y-11748341D01*
X16009720Y-11748341D02*
X16009720Y-11710246D01*
X16009720Y-11710246D02*
X16019244Y-11662627D01*
X16019244Y-11662627D02*
X16028768Y-11634055D01*
X16028768Y-11634055D02*
X16038291Y-11615008D01*
X16038291Y-11615008D02*
X16057339Y-11586436D01*
X16057339Y-11586436D02*
X16066863Y-11576912D01*
X16124006Y-11605484D02*
X16247815Y-11605484D01*
X16247815Y-11605484D02*
X16181148Y-11681674D01*
X16181148Y-11681674D02*
X16209720Y-11681674D01*
X16209720Y-11681674D02*
X16228768Y-11691198D01*
X16228768Y-11691198D02*
X16238291Y-11700722D01*
X16238291Y-11700722D02*
X16247815Y-11719769D01*
X16247815Y-11719769D02*
X16247815Y-11767388D01*
X16247815Y-11767388D02*
X16238291Y-11786436D01*
X16238291Y-11786436D02*
X16228768Y-11795960D01*
X16228768Y-11795960D02*
X16209720Y-11805484D01*
X16209720Y-11805484D02*
X16152577Y-11805484D01*
X16152577Y-11805484D02*
X16133529Y-11795960D01*
X16133529Y-11795960D02*
X16124006Y-11786436D01*
X16438291Y-11805484D02*
X16324006Y-11805484D01*
X16381148Y-11805484D02*
X16381148Y-11605484D01*
X16381148Y-11605484D02*
X16362101Y-11634055D01*
X16362101Y-11634055D02*
X16343053Y-11653103D01*
X16343053Y-11653103D02*
X16324006Y-11662627D01*
X16676387Y-11805484D02*
X16676387Y-11605484D01*
X16762101Y-11805484D02*
X16762101Y-11700722D01*
X16762101Y-11700722D02*
X16752577Y-11681674D01*
X16752577Y-11681674D02*
X16733530Y-11672150D01*
X16733530Y-11672150D02*
X16704958Y-11672150D01*
X16704958Y-11672150D02*
X16685910Y-11681674D01*
X16685910Y-11681674D02*
X16676387Y-11691198D01*
X16885911Y-11805484D02*
X16866863Y-11795960D01*
X16866863Y-11795960D02*
X16857339Y-11786436D01*
X16857339Y-11786436D02*
X16847815Y-11767388D01*
X16847815Y-11767388D02*
X16847815Y-11710246D01*
X16847815Y-11710246D02*
X16857339Y-11691198D01*
X16857339Y-11691198D02*
X16866863Y-11681674D01*
X16866863Y-11681674D02*
X16885911Y-11672150D01*
X16885911Y-11672150D02*
X16914482Y-11672150D01*
X16914482Y-11672150D02*
X16933530Y-11681674D01*
X16933530Y-11681674D02*
X16943053Y-11691198D01*
X16943053Y-11691198D02*
X16952577Y-11710246D01*
X16952577Y-11710246D02*
X16952577Y-11767388D01*
X16952577Y-11767388D02*
X16943053Y-11786436D01*
X16943053Y-11786436D02*
X16933530Y-11795960D01*
X16933530Y-11795960D02*
X16914482Y-11805484D01*
X16914482Y-11805484D02*
X16885911Y-11805484D01*
X17066863Y-11805484D02*
X17047815Y-11795960D01*
X17047815Y-11795960D02*
X17038292Y-11776912D01*
X17038292Y-11776912D02*
X17038292Y-11605484D01*
X17219244Y-11795960D02*
X17200196Y-11805484D01*
X17200196Y-11805484D02*
X17162101Y-11805484D01*
X17162101Y-11805484D02*
X17143053Y-11795960D01*
X17143053Y-11795960D02*
X17133530Y-11776912D01*
X17133530Y-11776912D02*
X17133530Y-11700722D01*
X17133530Y-11700722D02*
X17143053Y-11681674D01*
X17143053Y-11681674D02*
X17162101Y-11672150D01*
X17162101Y-11672150D02*
X17200196Y-11672150D01*
X17200196Y-11672150D02*
X17219244Y-11681674D01*
X17219244Y-11681674D02*
X17228768Y-11700722D01*
X17228768Y-11700722D02*
X17228768Y-11719769D01*
X17228768Y-11719769D02*
X17133530Y-11738817D01*
X17304958Y-11795960D02*
X17324006Y-11805484D01*
X17324006Y-11805484D02*
X17362101Y-11805484D01*
X17362101Y-11805484D02*
X17381149Y-11795960D01*
X17381149Y-11795960D02*
X17390673Y-11776912D01*
X17390673Y-11776912D02*
X17390673Y-11767388D01*
X17390673Y-11767388D02*
X17381149Y-11748341D01*
X17381149Y-11748341D02*
X17362101Y-11738817D01*
X17362101Y-11738817D02*
X17333530Y-11738817D01*
X17333530Y-11738817D02*
X17314482Y-11729293D01*
X17314482Y-11729293D02*
X17304958Y-11710246D01*
X17304958Y-11710246D02*
X17304958Y-11700722D01*
X17304958Y-11700722D02*
X17314482Y-11681674D01*
X17314482Y-11681674D02*
X17333530Y-11672150D01*
X17333530Y-11672150D02*
X17362101Y-11672150D01*
X17362101Y-11672150D02*
X17381149Y-11681674D01*
X17457339Y-11881674D02*
X17466863Y-11872150D01*
X17466863Y-11872150D02*
X17485911Y-11843579D01*
X17485911Y-11843579D02*
X17495434Y-11824531D01*
X17495434Y-11824531D02*
X17504958Y-11795960D01*
X17504958Y-11795960D02*
X17514482Y-11748341D01*
X17514482Y-11748341D02*
X17514482Y-11710246D01*
X17514482Y-11710246D02*
X17504958Y-11662627D01*
X17504958Y-11662627D02*
X17495434Y-11634055D01*
X17495434Y-11634055D02*
X17485911Y-11615008D01*
X17485911Y-11615008D02*
X17466863Y-11586436D01*
X17466863Y-11586436D02*
X17457339Y-11576912D01*
D14*
X12475691Y-12016891D02*
X12475691Y-11939109D01*
X12397909Y-11939109D01*
X12397909Y-12016891D01*
X12475691Y-12016891D01*
D11*
X12857339Y-12069484D02*
X12743053Y-12069484D01*
X12800196Y-12069484D02*
X12800196Y-11869484D01*
X12800196Y-11869484D02*
X12781148Y-11898055D01*
X12781148Y-11898055D02*
X12762101Y-11917103D01*
X12762101Y-11917103D02*
X12743053Y-11926627D01*
X12943053Y-12050436D02*
X12952577Y-12059960D01*
X12952577Y-12059960D02*
X12943053Y-12069484D01*
X12943053Y-12069484D02*
X12933529Y-12059960D01*
X12933529Y-12059960D02*
X12943053Y-12050436D01*
X12943053Y-12050436D02*
X12943053Y-12069484D01*
X13143053Y-12069484D02*
X13028767Y-12069484D01*
X13085910Y-12069484D02*
X13085910Y-11869484D01*
X13085910Y-11869484D02*
X13066862Y-11898055D01*
X13066862Y-11898055D02*
X13047815Y-11917103D01*
X13047815Y-11917103D02*
X13028767Y-11926627D01*
X13266862Y-11869484D02*
X13285910Y-11869484D01*
X13285910Y-11869484D02*
X13304958Y-11879008D01*
X13304958Y-11879008D02*
X13314482Y-11888531D01*
X13314482Y-11888531D02*
X13324005Y-11907579D01*
X13324005Y-11907579D02*
X13333529Y-11945674D01*
X13333529Y-11945674D02*
X13333529Y-11993293D01*
X13333529Y-11993293D02*
X13324005Y-12031388D01*
X13324005Y-12031388D02*
X13314482Y-12050436D01*
X13314482Y-12050436D02*
X13304958Y-12059960D01*
X13304958Y-12059960D02*
X13285910Y-12069484D01*
X13285910Y-12069484D02*
X13266862Y-12069484D01*
X13266862Y-12069484D02*
X13247815Y-12059960D01*
X13247815Y-12059960D02*
X13238291Y-12050436D01*
X13238291Y-12050436D02*
X13228767Y-12031388D01*
X13228767Y-12031388D02*
X13219243Y-11993293D01*
X13219243Y-11993293D02*
X13219243Y-11945674D01*
X13219243Y-11945674D02*
X13228767Y-11907579D01*
X13228767Y-11907579D02*
X13238291Y-11888531D01*
X13238291Y-11888531D02*
X13247815Y-11879008D01*
X13247815Y-11879008D02*
X13266862Y-11869484D01*
X13457339Y-11869484D02*
X13476386Y-11869484D01*
X13476386Y-11869484D02*
X13495434Y-11879008D01*
X13495434Y-11879008D02*
X13504958Y-11888531D01*
X13504958Y-11888531D02*
X13514482Y-11907579D01*
X13514482Y-11907579D02*
X13524005Y-11945674D01*
X13524005Y-11945674D02*
X13524005Y-11993293D01*
X13524005Y-11993293D02*
X13514482Y-12031388D01*
X13514482Y-12031388D02*
X13504958Y-12050436D01*
X13504958Y-12050436D02*
X13495434Y-12059960D01*
X13495434Y-12059960D02*
X13476386Y-12069484D01*
X13476386Y-12069484D02*
X13457339Y-12069484D01*
X13457339Y-12069484D02*
X13438291Y-12059960D01*
X13438291Y-12059960D02*
X13428767Y-12050436D01*
X13428767Y-12050436D02*
X13419243Y-12031388D01*
X13419243Y-12031388D02*
X13409720Y-11993293D01*
X13409720Y-11993293D02*
X13409720Y-11945674D01*
X13409720Y-11945674D02*
X13419243Y-11907579D01*
X13419243Y-11907579D02*
X13428767Y-11888531D01*
X13428767Y-11888531D02*
X13438291Y-11879008D01*
X13438291Y-11879008D02*
X13457339Y-11869484D01*
X13609720Y-12069484D02*
X13609720Y-11936150D01*
X13609720Y-11955198D02*
X13619243Y-11945674D01*
X13619243Y-11945674D02*
X13638291Y-11936150D01*
X13638291Y-11936150D02*
X13666863Y-11936150D01*
X13666863Y-11936150D02*
X13685910Y-11945674D01*
X13685910Y-11945674D02*
X13695434Y-11964722D01*
X13695434Y-11964722D02*
X13695434Y-12069484D01*
X13695434Y-11964722D02*
X13704958Y-11945674D01*
X13704958Y-11945674D02*
X13724005Y-11936150D01*
X13724005Y-11936150D02*
X13752577Y-11936150D01*
X13752577Y-11936150D02*
X13771624Y-11945674D01*
X13771624Y-11945674D02*
X13781148Y-11964722D01*
X13781148Y-11964722D02*
X13781148Y-12069484D01*
X13876386Y-12069484D02*
X13876386Y-11936150D01*
X13876386Y-11955198D02*
X13885910Y-11945674D01*
X13885910Y-11945674D02*
X13904958Y-11936150D01*
X13904958Y-11936150D02*
X13933529Y-11936150D01*
X13933529Y-11936150D02*
X13952577Y-11945674D01*
X13952577Y-11945674D02*
X13962101Y-11964722D01*
X13962101Y-11964722D02*
X13962101Y-12069484D01*
X13962101Y-11964722D02*
X13971624Y-11945674D01*
X13971624Y-11945674D02*
X13990672Y-11936150D01*
X13990672Y-11936150D02*
X14019243Y-11936150D01*
X14019243Y-11936150D02*
X14038291Y-11945674D01*
X14038291Y-11945674D02*
X14047815Y-11964722D01*
X14047815Y-11964722D02*
X14047815Y-12069484D01*
X14438291Y-11859960D02*
X14266863Y-12117103D01*
X14695434Y-11869484D02*
X14714482Y-11869484D01*
X14714482Y-11869484D02*
X14733529Y-11879008D01*
X14733529Y-11879008D02*
X14743053Y-11888531D01*
X14743053Y-11888531D02*
X14752577Y-11907579D01*
X14752577Y-11907579D02*
X14762101Y-11945674D01*
X14762101Y-11945674D02*
X14762101Y-11993293D01*
X14762101Y-11993293D02*
X14752577Y-12031388D01*
X14752577Y-12031388D02*
X14743053Y-12050436D01*
X14743053Y-12050436D02*
X14733529Y-12059960D01*
X14733529Y-12059960D02*
X14714482Y-12069484D01*
X14714482Y-12069484D02*
X14695434Y-12069484D01*
X14695434Y-12069484D02*
X14676386Y-12059960D01*
X14676386Y-12059960D02*
X14666863Y-12050436D01*
X14666863Y-12050436D02*
X14657339Y-12031388D01*
X14657339Y-12031388D02*
X14647815Y-11993293D01*
X14647815Y-11993293D02*
X14647815Y-11945674D01*
X14647815Y-11945674D02*
X14657339Y-11907579D01*
X14657339Y-11907579D02*
X14666863Y-11888531D01*
X14666863Y-11888531D02*
X14676386Y-11879008D01*
X14676386Y-11879008D02*
X14695434Y-11869484D01*
X14847815Y-12050436D02*
X14857339Y-12059960D01*
X14857339Y-12059960D02*
X14847815Y-12069484D01*
X14847815Y-12069484D02*
X14838291Y-12059960D01*
X14838291Y-12059960D02*
X14847815Y-12050436D01*
X14847815Y-12050436D02*
X14847815Y-12069484D01*
X14981148Y-11869484D02*
X15000196Y-11869484D01*
X15000196Y-11869484D02*
X15019244Y-11879008D01*
X15019244Y-11879008D02*
X15028767Y-11888531D01*
X15028767Y-11888531D02*
X15038291Y-11907579D01*
X15038291Y-11907579D02*
X15047815Y-11945674D01*
X15047815Y-11945674D02*
X15047815Y-11993293D01*
X15047815Y-11993293D02*
X15038291Y-12031388D01*
X15038291Y-12031388D02*
X15028767Y-12050436D01*
X15028767Y-12050436D02*
X15019244Y-12059960D01*
X15019244Y-12059960D02*
X15000196Y-12069484D01*
X15000196Y-12069484D02*
X14981148Y-12069484D01*
X14981148Y-12069484D02*
X14962101Y-12059960D01*
X14962101Y-12059960D02*
X14952577Y-12050436D01*
X14952577Y-12050436D02*
X14943053Y-12031388D01*
X14943053Y-12031388D02*
X14933529Y-11993293D01*
X14933529Y-11993293D02*
X14933529Y-11945674D01*
X14933529Y-11945674D02*
X14943053Y-11907579D01*
X14943053Y-11907579D02*
X14952577Y-11888531D01*
X14952577Y-11888531D02*
X14962101Y-11879008D01*
X14962101Y-11879008D02*
X14981148Y-11869484D01*
X15219244Y-11936150D02*
X15219244Y-12069484D01*
X15171625Y-11859960D02*
X15124006Y-12002817D01*
X15124006Y-12002817D02*
X15247815Y-12002817D01*
X15304958Y-11869484D02*
X15428767Y-11869484D01*
X15428767Y-11869484D02*
X15362101Y-11945674D01*
X15362101Y-11945674D02*
X15390672Y-11945674D01*
X15390672Y-11945674D02*
X15409720Y-11955198D01*
X15409720Y-11955198D02*
X15419244Y-11964722D01*
X15419244Y-11964722D02*
X15428767Y-11983769D01*
X15428767Y-11983769D02*
X15428767Y-12031388D01*
X15428767Y-12031388D02*
X15419244Y-12050436D01*
X15419244Y-12050436D02*
X15409720Y-12059960D01*
X15409720Y-12059960D02*
X15390672Y-12069484D01*
X15390672Y-12069484D02*
X15333529Y-12069484D01*
X15333529Y-12069484D02*
X15314482Y-12059960D01*
X15314482Y-12059960D02*
X15304958Y-12050436D01*
X15495434Y-11869484D02*
X15619244Y-11869484D01*
X15619244Y-11869484D02*
X15552577Y-11945674D01*
X15552577Y-11945674D02*
X15581148Y-11945674D01*
X15581148Y-11945674D02*
X15600196Y-11955198D01*
X15600196Y-11955198D02*
X15609720Y-11964722D01*
X15609720Y-11964722D02*
X15619244Y-11983769D01*
X15619244Y-11983769D02*
X15619244Y-12031388D01*
X15619244Y-12031388D02*
X15609720Y-12050436D01*
X15609720Y-12050436D02*
X15600196Y-12059960D01*
X15600196Y-12059960D02*
X15581148Y-12069484D01*
X15581148Y-12069484D02*
X15524006Y-12069484D01*
X15524006Y-12069484D02*
X15504958Y-12059960D01*
X15504958Y-12059960D02*
X15495434Y-12050436D01*
X15695434Y-11869484D02*
X15695434Y-11907579D01*
X15771625Y-11869484D02*
X15771625Y-11907579D01*
X16066863Y-12145674D02*
X16057339Y-12136150D01*
X16057339Y-12136150D02*
X16038291Y-12107579D01*
X16038291Y-12107579D02*
X16028768Y-12088531D01*
X16028768Y-12088531D02*
X16019244Y-12059960D01*
X16019244Y-12059960D02*
X16009720Y-12012341D01*
X16009720Y-12012341D02*
X16009720Y-11974246D01*
X16009720Y-11974246D02*
X16019244Y-11926627D01*
X16019244Y-11926627D02*
X16028768Y-11898055D01*
X16028768Y-11898055D02*
X16038291Y-11879008D01*
X16038291Y-11879008D02*
X16057339Y-11850436D01*
X16057339Y-11850436D02*
X16066863Y-11840912D01*
X16124006Y-11869484D02*
X16247815Y-11869484D01*
X16247815Y-11869484D02*
X16181148Y-11945674D01*
X16181148Y-11945674D02*
X16209720Y-11945674D01*
X16209720Y-11945674D02*
X16228768Y-11955198D01*
X16228768Y-11955198D02*
X16238291Y-11964722D01*
X16238291Y-11964722D02*
X16247815Y-11983769D01*
X16247815Y-11983769D02*
X16247815Y-12031388D01*
X16247815Y-12031388D02*
X16238291Y-12050436D01*
X16238291Y-12050436D02*
X16228768Y-12059960D01*
X16228768Y-12059960D02*
X16209720Y-12069484D01*
X16209720Y-12069484D02*
X16152577Y-12069484D01*
X16152577Y-12069484D02*
X16133529Y-12059960D01*
X16133529Y-12059960D02*
X16124006Y-12050436D01*
X16485910Y-12069484D02*
X16485910Y-11869484D01*
X16571625Y-12069484D02*
X16571625Y-11964722D01*
X16571625Y-11964722D02*
X16562101Y-11945674D01*
X16562101Y-11945674D02*
X16543053Y-11936150D01*
X16543053Y-11936150D02*
X16514482Y-11936150D01*
X16514482Y-11936150D02*
X16495434Y-11945674D01*
X16495434Y-11945674D02*
X16485910Y-11955198D01*
X16695434Y-12069484D02*
X16676387Y-12059960D01*
X16676387Y-12059960D02*
X16666863Y-12050436D01*
X16666863Y-12050436D02*
X16657339Y-12031388D01*
X16657339Y-12031388D02*
X16657339Y-11974246D01*
X16657339Y-11974246D02*
X16666863Y-11955198D01*
X16666863Y-11955198D02*
X16676387Y-11945674D01*
X16676387Y-11945674D02*
X16695434Y-11936150D01*
X16695434Y-11936150D02*
X16724006Y-11936150D01*
X16724006Y-11936150D02*
X16743053Y-11945674D01*
X16743053Y-11945674D02*
X16752577Y-11955198D01*
X16752577Y-11955198D02*
X16762101Y-11974246D01*
X16762101Y-11974246D02*
X16762101Y-12031388D01*
X16762101Y-12031388D02*
X16752577Y-12050436D01*
X16752577Y-12050436D02*
X16743053Y-12059960D01*
X16743053Y-12059960D02*
X16724006Y-12069484D01*
X16724006Y-12069484D02*
X16695434Y-12069484D01*
X16876387Y-12069484D02*
X16857339Y-12059960D01*
X16857339Y-12059960D02*
X16847815Y-12040912D01*
X16847815Y-12040912D02*
X16847815Y-11869484D01*
X17028768Y-12059960D02*
X17009720Y-12069484D01*
X17009720Y-12069484D02*
X16971625Y-12069484D01*
X16971625Y-12069484D02*
X16952577Y-12059960D01*
X16952577Y-12059960D02*
X16943053Y-12040912D01*
X16943053Y-12040912D02*
X16943053Y-11964722D01*
X16943053Y-11964722D02*
X16952577Y-11945674D01*
X16952577Y-11945674D02*
X16971625Y-11936150D01*
X16971625Y-11936150D02*
X17009720Y-11936150D01*
X17009720Y-11936150D02*
X17028768Y-11945674D01*
X17028768Y-11945674D02*
X17038292Y-11964722D01*
X17038292Y-11964722D02*
X17038292Y-11983769D01*
X17038292Y-11983769D02*
X16943053Y-12002817D01*
X17114482Y-12059960D02*
X17133530Y-12069484D01*
X17133530Y-12069484D02*
X17171625Y-12069484D01*
X17171625Y-12069484D02*
X17190673Y-12059960D01*
X17190673Y-12059960D02*
X17200196Y-12040912D01*
X17200196Y-12040912D02*
X17200196Y-12031388D01*
X17200196Y-12031388D02*
X17190673Y-12012341D01*
X17190673Y-12012341D02*
X17171625Y-12002817D01*
X17171625Y-12002817D02*
X17143053Y-12002817D01*
X17143053Y-12002817D02*
X17124006Y-11993293D01*
X17124006Y-11993293D02*
X17114482Y-11974246D01*
X17114482Y-11974246D02*
X17114482Y-11964722D01*
X17114482Y-11964722D02*
X17124006Y-11945674D01*
X17124006Y-11945674D02*
X17143053Y-11936150D01*
X17143053Y-11936150D02*
X17171625Y-11936150D01*
X17171625Y-11936150D02*
X17190673Y-11945674D01*
X17266863Y-12145674D02*
X17276387Y-12136150D01*
X17276387Y-12136150D02*
X17295434Y-12107579D01*
X17295434Y-12107579D02*
X17304958Y-12088531D01*
X17304958Y-12088531D02*
X17314482Y-12059960D01*
X17314482Y-12059960D02*
X17324006Y-12012341D01*
X17324006Y-12012341D02*
X17324006Y-11974246D01*
X17324006Y-11974246D02*
X17314482Y-11926627D01*
X17314482Y-11926627D02*
X17304958Y-11898055D01*
X17304958Y-11898055D02*
X17295434Y-11879008D01*
X17295434Y-11879008D02*
X17276387Y-11850436D01*
X17276387Y-11850436D02*
X17266863Y-11840912D01*
D15*
X12427800Y-12306000D02*
X12491800Y-12242000D01*
X12427800Y-12178000D01*
X12363800Y-12242000D01*
X12427800Y-12306000D01*
D11*
X12857339Y-12333484D02*
X12743053Y-12333484D01*
X12800196Y-12333484D02*
X12800196Y-12133484D01*
X12800196Y-12133484D02*
X12781148Y-12162055D01*
X12781148Y-12162055D02*
X12762101Y-12181103D01*
X12762101Y-12181103D02*
X12743053Y-12190627D01*
X12943053Y-12314436D02*
X12952577Y-12323960D01*
X12952577Y-12323960D02*
X12943053Y-12333484D01*
X12943053Y-12333484D02*
X12933529Y-12323960D01*
X12933529Y-12323960D02*
X12943053Y-12314436D01*
X12943053Y-12314436D02*
X12943053Y-12333484D01*
X13028767Y-12152531D02*
X13038291Y-12143008D01*
X13038291Y-12143008D02*
X13057339Y-12133484D01*
X13057339Y-12133484D02*
X13104958Y-12133484D01*
X13104958Y-12133484D02*
X13124005Y-12143008D01*
X13124005Y-12143008D02*
X13133529Y-12152531D01*
X13133529Y-12152531D02*
X13143053Y-12171579D01*
X13143053Y-12171579D02*
X13143053Y-12190627D01*
X13143053Y-12190627D02*
X13133529Y-12219198D01*
X13133529Y-12219198D02*
X13019243Y-12333484D01*
X13019243Y-12333484D02*
X13143053Y-12333484D01*
X13257339Y-12219198D02*
X13238291Y-12209674D01*
X13238291Y-12209674D02*
X13228767Y-12200150D01*
X13228767Y-12200150D02*
X13219243Y-12181103D01*
X13219243Y-12181103D02*
X13219243Y-12171579D01*
X13219243Y-12171579D02*
X13228767Y-12152531D01*
X13228767Y-12152531D02*
X13238291Y-12143008D01*
X13238291Y-12143008D02*
X13257339Y-12133484D01*
X13257339Y-12133484D02*
X13295434Y-12133484D01*
X13295434Y-12133484D02*
X13314482Y-12143008D01*
X13314482Y-12143008D02*
X13324005Y-12152531D01*
X13324005Y-12152531D02*
X13333529Y-12171579D01*
X13333529Y-12171579D02*
X13333529Y-12181103D01*
X13333529Y-12181103D02*
X13324005Y-12200150D01*
X13324005Y-12200150D02*
X13314482Y-12209674D01*
X13314482Y-12209674D02*
X13295434Y-12219198D01*
X13295434Y-12219198D02*
X13257339Y-12219198D01*
X13257339Y-12219198D02*
X13238291Y-12228722D01*
X13238291Y-12228722D02*
X13228767Y-12238246D01*
X13228767Y-12238246D02*
X13219243Y-12257293D01*
X13219243Y-12257293D02*
X13219243Y-12295388D01*
X13219243Y-12295388D02*
X13228767Y-12314436D01*
X13228767Y-12314436D02*
X13238291Y-12323960D01*
X13238291Y-12323960D02*
X13257339Y-12333484D01*
X13257339Y-12333484D02*
X13295434Y-12333484D01*
X13295434Y-12333484D02*
X13314482Y-12323960D01*
X13314482Y-12323960D02*
X13324005Y-12314436D01*
X13324005Y-12314436D02*
X13333529Y-12295388D01*
X13333529Y-12295388D02*
X13333529Y-12257293D01*
X13333529Y-12257293D02*
X13324005Y-12238246D01*
X13324005Y-12238246D02*
X13314482Y-12228722D01*
X13314482Y-12228722D02*
X13295434Y-12219198D01*
X13457339Y-12133484D02*
X13476386Y-12133484D01*
X13476386Y-12133484D02*
X13495434Y-12143008D01*
X13495434Y-12143008D02*
X13504958Y-12152531D01*
X13504958Y-12152531D02*
X13514482Y-12171579D01*
X13514482Y-12171579D02*
X13524005Y-12209674D01*
X13524005Y-12209674D02*
X13524005Y-12257293D01*
X13524005Y-12257293D02*
X13514482Y-12295388D01*
X13514482Y-12295388D02*
X13504958Y-12314436D01*
X13504958Y-12314436D02*
X13495434Y-12323960D01*
X13495434Y-12323960D02*
X13476386Y-12333484D01*
X13476386Y-12333484D02*
X13457339Y-12333484D01*
X13457339Y-12333484D02*
X13438291Y-12323960D01*
X13438291Y-12323960D02*
X13428767Y-12314436D01*
X13428767Y-12314436D02*
X13419243Y-12295388D01*
X13419243Y-12295388D02*
X13409720Y-12257293D01*
X13409720Y-12257293D02*
X13409720Y-12209674D01*
X13409720Y-12209674D02*
X13419243Y-12171579D01*
X13419243Y-12171579D02*
X13428767Y-12152531D01*
X13428767Y-12152531D02*
X13438291Y-12143008D01*
X13438291Y-12143008D02*
X13457339Y-12133484D01*
X13609720Y-12333484D02*
X13609720Y-12200150D01*
X13609720Y-12219198D02*
X13619243Y-12209674D01*
X13619243Y-12209674D02*
X13638291Y-12200150D01*
X13638291Y-12200150D02*
X13666863Y-12200150D01*
X13666863Y-12200150D02*
X13685910Y-12209674D01*
X13685910Y-12209674D02*
X13695434Y-12228722D01*
X13695434Y-12228722D02*
X13695434Y-12333484D01*
X13695434Y-12228722D02*
X13704958Y-12209674D01*
X13704958Y-12209674D02*
X13724005Y-12200150D01*
X13724005Y-12200150D02*
X13752577Y-12200150D01*
X13752577Y-12200150D02*
X13771624Y-12209674D01*
X13771624Y-12209674D02*
X13781148Y-12228722D01*
X13781148Y-12228722D02*
X13781148Y-12333484D01*
X13876386Y-12333484D02*
X13876386Y-12200150D01*
X13876386Y-12219198D02*
X13885910Y-12209674D01*
X13885910Y-12209674D02*
X13904958Y-12200150D01*
X13904958Y-12200150D02*
X13933529Y-12200150D01*
X13933529Y-12200150D02*
X13952577Y-12209674D01*
X13952577Y-12209674D02*
X13962101Y-12228722D01*
X13962101Y-12228722D02*
X13962101Y-12333484D01*
X13962101Y-12228722D02*
X13971624Y-12209674D01*
X13971624Y-12209674D02*
X13990672Y-12200150D01*
X13990672Y-12200150D02*
X14019243Y-12200150D01*
X14019243Y-12200150D02*
X14038291Y-12209674D01*
X14038291Y-12209674D02*
X14047815Y-12228722D01*
X14047815Y-12228722D02*
X14047815Y-12333484D01*
X14438291Y-12123960D02*
X14266863Y-12381103D01*
X14695434Y-12133484D02*
X14714482Y-12133484D01*
X14714482Y-12133484D02*
X14733529Y-12143008D01*
X14733529Y-12143008D02*
X14743053Y-12152531D01*
X14743053Y-12152531D02*
X14752577Y-12171579D01*
X14752577Y-12171579D02*
X14762101Y-12209674D01*
X14762101Y-12209674D02*
X14762101Y-12257293D01*
X14762101Y-12257293D02*
X14752577Y-12295388D01*
X14752577Y-12295388D02*
X14743053Y-12314436D01*
X14743053Y-12314436D02*
X14733529Y-12323960D01*
X14733529Y-12323960D02*
X14714482Y-12333484D01*
X14714482Y-12333484D02*
X14695434Y-12333484D01*
X14695434Y-12333484D02*
X14676386Y-12323960D01*
X14676386Y-12323960D02*
X14666863Y-12314436D01*
X14666863Y-12314436D02*
X14657339Y-12295388D01*
X14657339Y-12295388D02*
X14647815Y-12257293D01*
X14647815Y-12257293D02*
X14647815Y-12209674D01*
X14647815Y-12209674D02*
X14657339Y-12171579D01*
X14657339Y-12171579D02*
X14666863Y-12152531D01*
X14666863Y-12152531D02*
X14676386Y-12143008D01*
X14676386Y-12143008D02*
X14695434Y-12133484D01*
X14847815Y-12314436D02*
X14857339Y-12323960D01*
X14857339Y-12323960D02*
X14847815Y-12333484D01*
X14847815Y-12333484D02*
X14838291Y-12323960D01*
X14838291Y-12323960D02*
X14847815Y-12314436D01*
X14847815Y-12314436D02*
X14847815Y-12333484D01*
X14981148Y-12133484D02*
X15000196Y-12133484D01*
X15000196Y-12133484D02*
X15019244Y-12143008D01*
X15019244Y-12143008D02*
X15028767Y-12152531D01*
X15028767Y-12152531D02*
X15038291Y-12171579D01*
X15038291Y-12171579D02*
X15047815Y-12209674D01*
X15047815Y-12209674D02*
X15047815Y-12257293D01*
X15047815Y-12257293D02*
X15038291Y-12295388D01*
X15038291Y-12295388D02*
X15028767Y-12314436D01*
X15028767Y-12314436D02*
X15019244Y-12323960D01*
X15019244Y-12323960D02*
X15000196Y-12333484D01*
X15000196Y-12333484D02*
X14981148Y-12333484D01*
X14981148Y-12333484D02*
X14962101Y-12323960D01*
X14962101Y-12323960D02*
X14952577Y-12314436D01*
X14952577Y-12314436D02*
X14943053Y-12295388D01*
X14943053Y-12295388D02*
X14933529Y-12257293D01*
X14933529Y-12257293D02*
X14933529Y-12209674D01*
X14933529Y-12209674D02*
X14943053Y-12171579D01*
X14943053Y-12171579D02*
X14952577Y-12152531D01*
X14952577Y-12152531D02*
X14962101Y-12143008D01*
X14962101Y-12143008D02*
X14981148Y-12133484D01*
X15228767Y-12133484D02*
X15133529Y-12133484D01*
X15133529Y-12133484D02*
X15124006Y-12228722D01*
X15124006Y-12228722D02*
X15133529Y-12219198D01*
X15133529Y-12219198D02*
X15152577Y-12209674D01*
X15152577Y-12209674D02*
X15200196Y-12209674D01*
X15200196Y-12209674D02*
X15219244Y-12219198D01*
X15219244Y-12219198D02*
X15228767Y-12228722D01*
X15228767Y-12228722D02*
X15238291Y-12247769D01*
X15238291Y-12247769D02*
X15238291Y-12295388D01*
X15238291Y-12295388D02*
X15228767Y-12314436D01*
X15228767Y-12314436D02*
X15219244Y-12323960D01*
X15219244Y-12323960D02*
X15200196Y-12333484D01*
X15200196Y-12333484D02*
X15152577Y-12333484D01*
X15152577Y-12333484D02*
X15133529Y-12323960D01*
X15133529Y-12323960D02*
X15124006Y-12314436D01*
X15362101Y-12133484D02*
X15381148Y-12133484D01*
X15381148Y-12133484D02*
X15400196Y-12143008D01*
X15400196Y-12143008D02*
X15409720Y-12152531D01*
X15409720Y-12152531D02*
X15419244Y-12171579D01*
X15419244Y-12171579D02*
X15428767Y-12209674D01*
X15428767Y-12209674D02*
X15428767Y-12257293D01*
X15428767Y-12257293D02*
X15419244Y-12295388D01*
X15419244Y-12295388D02*
X15409720Y-12314436D01*
X15409720Y-12314436D02*
X15400196Y-12323960D01*
X15400196Y-12323960D02*
X15381148Y-12333484D01*
X15381148Y-12333484D02*
X15362101Y-12333484D01*
X15362101Y-12333484D02*
X15343053Y-12323960D01*
X15343053Y-12323960D02*
X15333529Y-12314436D01*
X15333529Y-12314436D02*
X15324006Y-12295388D01*
X15324006Y-12295388D02*
X15314482Y-12257293D01*
X15314482Y-12257293D02*
X15314482Y-12209674D01*
X15314482Y-12209674D02*
X15324006Y-12171579D01*
X15324006Y-12171579D02*
X15333529Y-12152531D01*
X15333529Y-12152531D02*
X15343053Y-12143008D01*
X15343053Y-12143008D02*
X15362101Y-12133484D01*
X15600196Y-12200150D02*
X15600196Y-12333484D01*
X15552577Y-12123960D02*
X15504958Y-12266817D01*
X15504958Y-12266817D02*
X15628767Y-12266817D01*
X15695434Y-12133484D02*
X15695434Y-12171579D01*
X15771625Y-12133484D02*
X15771625Y-12171579D01*
X16066863Y-12409674D02*
X16057339Y-12400150D01*
X16057339Y-12400150D02*
X16038291Y-12371579D01*
X16038291Y-12371579D02*
X16028768Y-12352531D01*
X16028768Y-12352531D02*
X16019244Y-12323960D01*
X16019244Y-12323960D02*
X16009720Y-12276341D01*
X16009720Y-12276341D02*
X16009720Y-12238246D01*
X16009720Y-12238246D02*
X16019244Y-12190627D01*
X16019244Y-12190627D02*
X16028768Y-12162055D01*
X16028768Y-12162055D02*
X16038291Y-12143008D01*
X16038291Y-12143008D02*
X16057339Y-12114436D01*
X16057339Y-12114436D02*
X16066863Y-12104912D01*
X16228768Y-12200150D02*
X16228768Y-12333484D01*
X16181148Y-12123960D02*
X16133529Y-12266817D01*
X16133529Y-12266817D02*
X16257339Y-12266817D01*
X16485910Y-12333484D02*
X16485910Y-12133484D01*
X16571625Y-12333484D02*
X16571625Y-12228722D01*
X16571625Y-12228722D02*
X16562101Y-12209674D01*
X16562101Y-12209674D02*
X16543053Y-12200150D01*
X16543053Y-12200150D02*
X16514482Y-12200150D01*
X16514482Y-12200150D02*
X16495434Y-12209674D01*
X16495434Y-12209674D02*
X16485910Y-12219198D01*
X16695434Y-12333484D02*
X16676387Y-12323960D01*
X16676387Y-12323960D02*
X16666863Y-12314436D01*
X16666863Y-12314436D02*
X16657339Y-12295388D01*
X16657339Y-12295388D02*
X16657339Y-12238246D01*
X16657339Y-12238246D02*
X16666863Y-12219198D01*
X16666863Y-12219198D02*
X16676387Y-12209674D01*
X16676387Y-12209674D02*
X16695434Y-12200150D01*
X16695434Y-12200150D02*
X16724006Y-12200150D01*
X16724006Y-12200150D02*
X16743053Y-12209674D01*
X16743053Y-12209674D02*
X16752577Y-12219198D01*
X16752577Y-12219198D02*
X16762101Y-12238246D01*
X16762101Y-12238246D02*
X16762101Y-12295388D01*
X16762101Y-12295388D02*
X16752577Y-12314436D01*
X16752577Y-12314436D02*
X16743053Y-12323960D01*
X16743053Y-12323960D02*
X16724006Y-12333484D01*
X16724006Y-12333484D02*
X16695434Y-12333484D01*
X16876387Y-12333484D02*
X16857339Y-12323960D01*
X16857339Y-12323960D02*
X16847815Y-12304912D01*
X16847815Y-12304912D02*
X16847815Y-12133484D01*
X17028768Y-12323960D02*
X17009720Y-12333484D01*
X17009720Y-12333484D02*
X16971625Y-12333484D01*
X16971625Y-12333484D02*
X16952577Y-12323960D01*
X16952577Y-12323960D02*
X16943053Y-12304912D01*
X16943053Y-12304912D02*
X16943053Y-12228722D01*
X16943053Y-12228722D02*
X16952577Y-12209674D01*
X16952577Y-12209674D02*
X16971625Y-12200150D01*
X16971625Y-12200150D02*
X17009720Y-12200150D01*
X17009720Y-12200150D02*
X17028768Y-12209674D01*
X17028768Y-12209674D02*
X17038292Y-12228722D01*
X17038292Y-12228722D02*
X17038292Y-12247769D01*
X17038292Y-12247769D02*
X16943053Y-12266817D01*
X17114482Y-12323960D02*
X17133530Y-12333484D01*
X17133530Y-12333484D02*
X17171625Y-12333484D01*
X17171625Y-12333484D02*
X17190673Y-12323960D01*
X17190673Y-12323960D02*
X17200196Y-12304912D01*
X17200196Y-12304912D02*
X17200196Y-12295388D01*
X17200196Y-12295388D02*
X17190673Y-12276341D01*
X17190673Y-12276341D02*
X17171625Y-12266817D01*
X17171625Y-12266817D02*
X17143053Y-12266817D01*
X17143053Y-12266817D02*
X17124006Y-12257293D01*
X17124006Y-12257293D02*
X17114482Y-12238246D01*
X17114482Y-12238246D02*
X17114482Y-12228722D01*
X17114482Y-12228722D02*
X17124006Y-12209674D01*
X17124006Y-12209674D02*
X17143053Y-12200150D01*
X17143053Y-12200150D02*
X17171625Y-12200150D01*
X17171625Y-12200150D02*
X17190673Y-12209674D01*
X17266863Y-12409674D02*
X17276387Y-12400150D01*
X17276387Y-12400150D02*
X17295434Y-12371579D01*
X17295434Y-12371579D02*
X17304958Y-12352531D01*
X17304958Y-12352531D02*
X17314482Y-12323960D01*
X17314482Y-12323960D02*
X17324006Y-12276341D01*
X17324006Y-12276341D02*
X17324006Y-12238246D01*
X17324006Y-12238246D02*
X17314482Y-12190627D01*
X17314482Y-12190627D02*
X17304958Y-12162055D01*
X17304958Y-12162055D02*
X17295434Y-12143008D01*
X17295434Y-12143008D02*
X17276387Y-12114436D01*
X17276387Y-12114436D02*
X17266863Y-12104912D01*
M02*
