%TF.GenerationSoftware,KiCad,Pcbnew,7.0.7*%
%TF.CreationDate,2024-01-13T12:59:25-05:00*%
%TF.ProjectId,sx7_footprints,7378375f-666f-46f7-9470-72696e74732e,rev?*%
%TF.SameCoordinates,Original*%
%TF.FileFunction,Soldermask,Top*%
%TF.FilePolarity,Negative*%
%FSLAX46Y46*%
G04 Gerber Fmt 4.6, Leading zero omitted, Abs format (unit mm)*
G04 Created by KiCad (PCBNEW 7.0.7) date 2024-01-13 12:59:25*
%MOMM*%
%LPD*%
G01*
G04 APERTURE LIST*
%ADD10R,1.700000X1.700000*%
%ADD11O,1.700000X1.700000*%
%ADD12R,0.850000X0.850000*%
%ADD13R,1.905000X2.000000*%
%ADD14O,1.905000X2.000000*%
%ADD15C,1.712000*%
%ADD16C,2.124000*%
%ADD17R,1.350000X1.350000*%
%ADD18O,1.350000X1.350000*%
G04 APERTURE END LIST*
D10*
%TO.C,PWR*%
X135763000Y-103378000D03*
D11*
X133223000Y-103378000D03*
%TD*%
D12*
%TO.C,REF\u002A\u002A*%
X135763000Y-72517000D03*
%TD*%
D10*
%TO.C,REF\u002A\u002A*%
X127127000Y-75184000D03*
D11*
X127127000Y-77724000D03*
%TD*%
D13*
%TO.C,REF\u002A\u002A*%
X156464000Y-95194000D03*
D14*
X153924000Y-95194000D03*
X151384000Y-95194000D03*
%TD*%
D15*
%TO.C,RF OUT*%
X144399000Y-100203000D03*
D16*
X141999000Y-97803000D03*
X141999000Y-102603000D03*
X146799000Y-102603000D03*
X146799000Y-97803000D03*
%TD*%
D17*
%TO.C,REF\u002A\u002A*%
X151287000Y-77821000D03*
D18*
X151287000Y-79821000D03*
X151287000Y-81821000D03*
X151287000Y-83821000D03*
X151287000Y-85821000D03*
X151287000Y-87821000D03*
X151287000Y-89821000D03*
X151287000Y-91821000D03*
%TD*%
D17*
%TO.C,REF\u002A\u002A*%
X137287000Y-77771000D03*
D18*
X137287000Y-79771000D03*
X137287000Y-81771000D03*
X137287000Y-83771000D03*
X137287000Y-85771000D03*
X137287000Y-87771000D03*
X137287000Y-89771000D03*
X137287000Y-91771000D03*
%TD*%
D10*
%TO.C,REF\u002A\u002A*%
X127127000Y-88890000D03*
D11*
X127127000Y-86350000D03*
X127127000Y-83810000D03*
X127127000Y-81270000D03*
%TD*%
D10*
%TO.C,REF\u002A\u002A*%
X155600400Y-73609200D03*
D11*
X155600400Y-76149200D03*
X155600400Y-78689200D03*
X155600400Y-81229200D03*
X155600400Y-83769200D03*
X155600400Y-86309200D03*
X155600400Y-88849200D03*
X155600400Y-91389200D03*
%TD*%
D12*
%TO.C,REF\u002A\u002A*%
X151638000Y-72517000D03*
%TD*%
D11*
%TO.C,PWR*%
X133223000Y-95885000D03*
D10*
X135763000Y-95885000D03*
%TD*%
D17*
%TO.C,REF\u002A\u002A*%
X153289000Y-100219000D03*
D18*
X153289000Y-102219000D03*
%TD*%
D10*
%TO.C,REF\u002A\u002A*%
X132740400Y-73609200D03*
D11*
X132740400Y-76149200D03*
X132740400Y-78689200D03*
X132740400Y-81229200D03*
X132740400Y-83769200D03*
X132740400Y-86309200D03*
X132740400Y-88849200D03*
X132740400Y-91389200D03*
%TD*%
D10*
%TO.C,REF\u002A\u002A*%
X140716000Y-73533000D03*
D11*
X143256000Y-73533000D03*
X145796000Y-73533000D03*
X148336000Y-73533000D03*
%TD*%
D17*
%TO.C,REF\u002A\u002A*%
X150114000Y-100219000D03*
D18*
X150114000Y-102219000D03*
%TD*%
M02*
