%TF.GenerationSoftware,KiCad,Pcbnew,7.0.7*%
%TF.CreationDate,2024-01-13T12:59:24-05:00*%
%TF.ProjectId,sx7_footprints,7378375f-666f-46f7-9470-72696e74732e,rev?*%
%TF.SameCoordinates,Original*%
%TF.FileFunction,Legend,Top*%
%TF.FilePolarity,Positive*%
%FSLAX46Y46*%
G04 Gerber Fmt 4.6, Leading zero omitted, Abs format (unit mm)*
G04 Created by KiCad (PCBNEW 7.0.7) date 2024-01-13 12:59:24*
%MOMM*%
%LPD*%
G01*
G04 APERTURE LIST*
%ADD10C,0.150000*%
%ADD11C,0.100000*%
%ADD12C,0.125000*%
%ADD13C,0.120000*%
%ADD14C,0.127000*%
G04 APERTURE END LIST*
D10*
X130806819Y-86150220D02*
X129806819Y-86150220D01*
X129806819Y-86150220D02*
X129806819Y-85769268D01*
X129806819Y-85769268D02*
X129854438Y-85674030D01*
X129854438Y-85674030D02*
X129902057Y-85626411D01*
X129902057Y-85626411D02*
X129997295Y-85578792D01*
X129997295Y-85578792D02*
X130140152Y-85578792D01*
X130140152Y-85578792D02*
X130235390Y-85626411D01*
X130235390Y-85626411D02*
X130283009Y-85674030D01*
X130283009Y-85674030D02*
X130330628Y-85769268D01*
X130330628Y-85769268D02*
X130330628Y-86150220D01*
X130806819Y-84578792D02*
X130330628Y-84912125D01*
X130806819Y-85150220D02*
X129806819Y-85150220D01*
X129806819Y-85150220D02*
X129806819Y-84769268D01*
X129806819Y-84769268D02*
X129854438Y-84674030D01*
X129854438Y-84674030D02*
X129902057Y-84626411D01*
X129902057Y-84626411D02*
X129997295Y-84578792D01*
X129997295Y-84578792D02*
X130140152Y-84578792D01*
X130140152Y-84578792D02*
X130235390Y-84626411D01*
X130235390Y-84626411D02*
X130283009Y-84674030D01*
X130283009Y-84674030D02*
X130330628Y-84769268D01*
X130330628Y-84769268D02*
X130330628Y-85150220D01*
X129806819Y-83959744D02*
X129806819Y-83769268D01*
X129806819Y-83769268D02*
X129854438Y-83674030D01*
X129854438Y-83674030D02*
X129949676Y-83578792D01*
X129949676Y-83578792D02*
X130140152Y-83531173D01*
X130140152Y-83531173D02*
X130473485Y-83531173D01*
X130473485Y-83531173D02*
X130663961Y-83578792D01*
X130663961Y-83578792D02*
X130759200Y-83674030D01*
X130759200Y-83674030D02*
X130806819Y-83769268D01*
X130806819Y-83769268D02*
X130806819Y-83959744D01*
X130806819Y-83959744D02*
X130759200Y-84054982D01*
X130759200Y-84054982D02*
X130663961Y-84150220D01*
X130663961Y-84150220D02*
X130473485Y-84197839D01*
X130473485Y-84197839D02*
X130140152Y-84197839D01*
X130140152Y-84197839D02*
X129949676Y-84150220D01*
X129949676Y-84150220D02*
X129854438Y-84054982D01*
X129854438Y-84054982D02*
X129806819Y-83959744D01*
X129854438Y-82578792D02*
X129806819Y-82674030D01*
X129806819Y-82674030D02*
X129806819Y-82816887D01*
X129806819Y-82816887D02*
X129854438Y-82959744D01*
X129854438Y-82959744D02*
X129949676Y-83054982D01*
X129949676Y-83054982D02*
X130044914Y-83102601D01*
X130044914Y-83102601D02*
X130235390Y-83150220D01*
X130235390Y-83150220D02*
X130378247Y-83150220D01*
X130378247Y-83150220D02*
X130568723Y-83102601D01*
X130568723Y-83102601D02*
X130663961Y-83054982D01*
X130663961Y-83054982D02*
X130759200Y-82959744D01*
X130759200Y-82959744D02*
X130806819Y-82816887D01*
X130806819Y-82816887D02*
X130806819Y-82721649D01*
X130806819Y-82721649D02*
X130759200Y-82578792D01*
X130759200Y-82578792D02*
X130711580Y-82531173D01*
X130711580Y-82531173D02*
X130378247Y-82531173D01*
X130378247Y-82531173D02*
X130378247Y-82721649D01*
X133051779Y-101850866D02*
X133813684Y-101850866D01*
X133432731Y-102231819D02*
X133432731Y-101469914D01*
X135051779Y-101850866D02*
X135813684Y-101850866D01*
X143891000Y-82042000D02*
X143256000Y-82677000D01*
X143891000Y-83820000D02*
X143891000Y-82042000D01*
X143891000Y-82042000D02*
X144526000Y-82677000D01*
X145318350Y-75979533D02*
X145085017Y-75646200D01*
X144918350Y-75979533D02*
X144918350Y-75279533D01*
X144918350Y-75279533D02*
X145185017Y-75279533D01*
X145185017Y-75279533D02*
X145251684Y-75312866D01*
X145251684Y-75312866D02*
X145285017Y-75346200D01*
X145285017Y-75346200D02*
X145318350Y-75412866D01*
X145318350Y-75412866D02*
X145318350Y-75512866D01*
X145318350Y-75512866D02*
X145285017Y-75579533D01*
X145285017Y-75579533D02*
X145251684Y-75612866D01*
X145251684Y-75612866D02*
X145185017Y-75646200D01*
X145185017Y-75646200D02*
X144918350Y-75646200D01*
X145551684Y-75279533D02*
X146018350Y-75979533D01*
X146018350Y-75279533D02*
X145551684Y-75979533D01*
X146285017Y-75979533D02*
X146285017Y-75279533D01*
X146285017Y-75279533D02*
X146451684Y-75279533D01*
X146451684Y-75279533D02*
X146551684Y-75312866D01*
X146551684Y-75312866D02*
X146618351Y-75379533D01*
X146618351Y-75379533D02*
X146651684Y-75446200D01*
X146651684Y-75446200D02*
X146685017Y-75579533D01*
X146685017Y-75579533D02*
X146685017Y-75679533D01*
X146685017Y-75679533D02*
X146651684Y-75812866D01*
X146651684Y-75812866D02*
X146618351Y-75879533D01*
X146618351Y-75879533D02*
X146551684Y-75946200D01*
X146551684Y-75946200D02*
X146451684Y-75979533D01*
X146451684Y-75979533D02*
X146285017Y-75979533D01*
X147952017Y-75312866D02*
X147885350Y-75279533D01*
X147885350Y-75279533D02*
X147785350Y-75279533D01*
X147785350Y-75279533D02*
X147685350Y-75312866D01*
X147685350Y-75312866D02*
X147618684Y-75379533D01*
X147618684Y-75379533D02*
X147585350Y-75446200D01*
X147585350Y-75446200D02*
X147552017Y-75579533D01*
X147552017Y-75579533D02*
X147552017Y-75679533D01*
X147552017Y-75679533D02*
X147585350Y-75812866D01*
X147585350Y-75812866D02*
X147618684Y-75879533D01*
X147618684Y-75879533D02*
X147685350Y-75946200D01*
X147685350Y-75946200D02*
X147785350Y-75979533D01*
X147785350Y-75979533D02*
X147852017Y-75979533D01*
X147852017Y-75979533D02*
X147952017Y-75946200D01*
X147952017Y-75946200D02*
X147985350Y-75912866D01*
X147985350Y-75912866D02*
X147985350Y-75679533D01*
X147985350Y-75679533D02*
X147852017Y-75679533D01*
X148285350Y-75979533D02*
X148285350Y-75279533D01*
X148285350Y-75279533D02*
X148685350Y-75979533D01*
X148685350Y-75979533D02*
X148685350Y-75279533D01*
X149018683Y-75979533D02*
X149018683Y-75279533D01*
X149018683Y-75279533D02*
X149185350Y-75279533D01*
X149185350Y-75279533D02*
X149285350Y-75312866D01*
X149285350Y-75312866D02*
X149352017Y-75379533D01*
X149352017Y-75379533D02*
X149385350Y-75446200D01*
X149385350Y-75446200D02*
X149418683Y-75579533D01*
X149418683Y-75579533D02*
X149418683Y-75679533D01*
X149418683Y-75679533D02*
X149385350Y-75812866D01*
X149385350Y-75812866D02*
X149352017Y-75879533D01*
X149352017Y-75879533D02*
X149285350Y-75946200D01*
X149285350Y-75946200D02*
X149185350Y-75979533D01*
X149185350Y-75979533D02*
X149018683Y-75979533D01*
X139457350Y-75979533D02*
X139457350Y-75279533D01*
X139457350Y-75279533D02*
X139624017Y-75279533D01*
X139624017Y-75279533D02*
X139724017Y-75312866D01*
X139724017Y-75312866D02*
X139790684Y-75379533D01*
X139790684Y-75379533D02*
X139824017Y-75446200D01*
X139824017Y-75446200D02*
X139857350Y-75579533D01*
X139857350Y-75579533D02*
X139857350Y-75679533D01*
X139857350Y-75679533D02*
X139824017Y-75812866D01*
X139824017Y-75812866D02*
X139790684Y-75879533D01*
X139790684Y-75879533D02*
X139724017Y-75946200D01*
X139724017Y-75946200D02*
X139624017Y-75979533D01*
X139624017Y-75979533D02*
X139457350Y-75979533D01*
X140157350Y-75979533D02*
X140157350Y-75279533D01*
X140157350Y-75279533D02*
X140424017Y-75279533D01*
X140424017Y-75279533D02*
X140490684Y-75312866D01*
X140490684Y-75312866D02*
X140524017Y-75346200D01*
X140524017Y-75346200D02*
X140557350Y-75412866D01*
X140557350Y-75412866D02*
X140557350Y-75512866D01*
X140557350Y-75512866D02*
X140524017Y-75579533D01*
X140524017Y-75579533D02*
X140490684Y-75612866D01*
X140490684Y-75612866D02*
X140424017Y-75646200D01*
X140424017Y-75646200D02*
X140157350Y-75646200D01*
X140790684Y-75279533D02*
X140957350Y-75979533D01*
X140957350Y-75979533D02*
X141090684Y-75479533D01*
X141090684Y-75479533D02*
X141224017Y-75979533D01*
X141224017Y-75979533D02*
X141390684Y-75279533D01*
X142057350Y-75979533D02*
X141824017Y-75646200D01*
X141657350Y-75979533D02*
X141657350Y-75279533D01*
X141657350Y-75279533D02*
X141924017Y-75279533D01*
X141924017Y-75279533D02*
X141990684Y-75312866D01*
X141990684Y-75312866D02*
X142024017Y-75346200D01*
X142024017Y-75346200D02*
X142057350Y-75412866D01*
X142057350Y-75412866D02*
X142057350Y-75512866D01*
X142057350Y-75512866D02*
X142024017Y-75579533D01*
X142024017Y-75579533D02*
X141990684Y-75612866D01*
X141990684Y-75612866D02*
X141924017Y-75646200D01*
X141924017Y-75646200D02*
X141657350Y-75646200D01*
X128779866Y-89709683D02*
X128746533Y-89776350D01*
X128746533Y-89776350D02*
X128746533Y-89876350D01*
X128746533Y-89876350D02*
X128779866Y-89976350D01*
X128779866Y-89976350D02*
X128846533Y-90043017D01*
X128846533Y-90043017D02*
X128913200Y-90076350D01*
X128913200Y-90076350D02*
X129046533Y-90109683D01*
X129046533Y-90109683D02*
X129146533Y-90109683D01*
X129146533Y-90109683D02*
X129279866Y-90076350D01*
X129279866Y-90076350D02*
X129346533Y-90043017D01*
X129346533Y-90043017D02*
X129413200Y-89976350D01*
X129413200Y-89976350D02*
X129446533Y-89876350D01*
X129446533Y-89876350D02*
X129446533Y-89809683D01*
X129446533Y-89809683D02*
X129413200Y-89709683D01*
X129413200Y-89709683D02*
X129379866Y-89676350D01*
X129379866Y-89676350D02*
X129146533Y-89676350D01*
X129146533Y-89676350D02*
X129146533Y-89809683D01*
X129446533Y-89376350D02*
X128746533Y-89376350D01*
X128746533Y-89376350D02*
X129446533Y-88976350D01*
X129446533Y-88976350D02*
X128746533Y-88976350D01*
X129446533Y-88643017D02*
X128746533Y-88643017D01*
X128746533Y-88643017D02*
X128746533Y-88476350D01*
X128746533Y-88476350D02*
X128779866Y-88376350D01*
X128779866Y-88376350D02*
X128846533Y-88309684D01*
X128846533Y-88309684D02*
X128913200Y-88276350D01*
X128913200Y-88276350D02*
X129046533Y-88243017D01*
X129046533Y-88243017D02*
X129146533Y-88243017D01*
X129146533Y-88243017D02*
X129279866Y-88276350D01*
X129279866Y-88276350D02*
X129346533Y-88309684D01*
X129346533Y-88309684D02*
X129413200Y-88376350D01*
X129413200Y-88376350D02*
X129446533Y-88476350D01*
X129446533Y-88476350D02*
X129446533Y-88643017D01*
X129446533Y-82315017D02*
X129113200Y-82548350D01*
X129446533Y-82715017D02*
X128746533Y-82715017D01*
X128746533Y-82715017D02*
X128746533Y-82448350D01*
X128746533Y-82448350D02*
X128779866Y-82381684D01*
X128779866Y-82381684D02*
X128813200Y-82348350D01*
X128813200Y-82348350D02*
X128879866Y-82315017D01*
X128879866Y-82315017D02*
X128979866Y-82315017D01*
X128979866Y-82315017D02*
X129046533Y-82348350D01*
X129046533Y-82348350D02*
X129079866Y-82381684D01*
X129079866Y-82381684D02*
X129113200Y-82448350D01*
X129113200Y-82448350D02*
X129113200Y-82715017D01*
X129446533Y-82015017D02*
X128746533Y-82015017D01*
X128746533Y-82015017D02*
X128746533Y-81748350D01*
X128746533Y-81748350D02*
X128779866Y-81681684D01*
X128779866Y-81681684D02*
X128813200Y-81648350D01*
X128813200Y-81648350D02*
X128879866Y-81615017D01*
X128879866Y-81615017D02*
X128979866Y-81615017D01*
X128979866Y-81615017D02*
X129046533Y-81648350D01*
X129046533Y-81648350D02*
X129079866Y-81681684D01*
X129079866Y-81681684D02*
X129113200Y-81748350D01*
X129113200Y-81748350D02*
X129113200Y-82015017D01*
X128746533Y-81381684D02*
X129446533Y-81215017D01*
X129446533Y-81215017D02*
X128946533Y-81081684D01*
X128946533Y-81081684D02*
X129446533Y-80948350D01*
X129446533Y-80948350D02*
X128746533Y-80781684D01*
X129446533Y-80115017D02*
X129113200Y-80348350D01*
X129446533Y-80515017D02*
X128746533Y-80515017D01*
X128746533Y-80515017D02*
X128746533Y-80248350D01*
X128746533Y-80248350D02*
X128779866Y-80181684D01*
X128779866Y-80181684D02*
X128813200Y-80148350D01*
X128813200Y-80148350D02*
X128879866Y-80115017D01*
X128879866Y-80115017D02*
X128979866Y-80115017D01*
X128979866Y-80115017D02*
X129046533Y-80148350D01*
X129046533Y-80148350D02*
X129079866Y-80181684D01*
X129079866Y-80181684D02*
X129113200Y-80248350D01*
X129113200Y-80248350D02*
X129113200Y-80515017D01*
D11*
X149886074Y-98067895D02*
X149886074Y-97267895D01*
X150314645Y-98067895D02*
X150314645Y-97267895D01*
X150314645Y-97267895D02*
X150828931Y-98067895D01*
X150828931Y-98067895D02*
X150828931Y-97267895D01*
X153100359Y-97305990D02*
X153014645Y-97267895D01*
X153014645Y-97267895D02*
X152886073Y-97267895D01*
X152886073Y-97267895D02*
X152757502Y-97305990D01*
X152757502Y-97305990D02*
X152671787Y-97382180D01*
X152671787Y-97382180D02*
X152628930Y-97458371D01*
X152628930Y-97458371D02*
X152586073Y-97610752D01*
X152586073Y-97610752D02*
X152586073Y-97725038D01*
X152586073Y-97725038D02*
X152628930Y-97877419D01*
X152628930Y-97877419D02*
X152671787Y-97953609D01*
X152671787Y-97953609D02*
X152757502Y-98029800D01*
X152757502Y-98029800D02*
X152886073Y-98067895D01*
X152886073Y-98067895D02*
X152971787Y-98067895D01*
X152971787Y-98067895D02*
X153100359Y-98029800D01*
X153100359Y-98029800D02*
X153143216Y-97991704D01*
X153143216Y-97991704D02*
X153143216Y-97725038D01*
X153143216Y-97725038D02*
X152971787Y-97725038D01*
X153528930Y-98067895D02*
X153528930Y-97267895D01*
X153528930Y-97267895D02*
X154043216Y-98067895D01*
X154043216Y-98067895D02*
X154043216Y-97267895D01*
X154471787Y-98067895D02*
X154471787Y-97267895D01*
X154471787Y-97267895D02*
X154686073Y-97267895D01*
X154686073Y-97267895D02*
X154814644Y-97305990D01*
X154814644Y-97305990D02*
X154900359Y-97382180D01*
X154900359Y-97382180D02*
X154943216Y-97458371D01*
X154943216Y-97458371D02*
X154986073Y-97610752D01*
X154986073Y-97610752D02*
X154986073Y-97725038D01*
X154986073Y-97725038D02*
X154943216Y-97877419D01*
X154943216Y-97877419D02*
X154900359Y-97953609D01*
X154900359Y-97953609D02*
X154814644Y-98029800D01*
X154814644Y-98029800D02*
X154686073Y-98067895D01*
X154686073Y-98067895D02*
X154471787Y-98067895D01*
X156228930Y-97267895D02*
X156400358Y-97267895D01*
X156400358Y-97267895D02*
X156486073Y-97305990D01*
X156486073Y-97305990D02*
X156571787Y-97382180D01*
X156571787Y-97382180D02*
X156614644Y-97534561D01*
X156614644Y-97534561D02*
X156614644Y-97801228D01*
X156614644Y-97801228D02*
X156571787Y-97953609D01*
X156571787Y-97953609D02*
X156486073Y-98029800D01*
X156486073Y-98029800D02*
X156400358Y-98067895D01*
X156400358Y-98067895D02*
X156228930Y-98067895D01*
X156228930Y-98067895D02*
X156143216Y-98029800D01*
X156143216Y-98029800D02*
X156057501Y-97953609D01*
X156057501Y-97953609D02*
X156014644Y-97801228D01*
X156014644Y-97801228D02*
X156014644Y-97534561D01*
X156014644Y-97534561D02*
X156057501Y-97382180D01*
X156057501Y-97382180D02*
X156143216Y-97305990D01*
X156143216Y-97305990D02*
X156228930Y-97267895D01*
X157000358Y-97267895D02*
X157000358Y-97915514D01*
X157000358Y-97915514D02*
X157043215Y-97991704D01*
X157043215Y-97991704D02*
X157086073Y-98029800D01*
X157086073Y-98029800D02*
X157171787Y-98067895D01*
X157171787Y-98067895D02*
X157343215Y-98067895D01*
X157343215Y-98067895D02*
X157428930Y-98029800D01*
X157428930Y-98029800D02*
X157471787Y-97991704D01*
X157471787Y-97991704D02*
X157514644Y-97915514D01*
X157514644Y-97915514D02*
X157514644Y-97267895D01*
X157814644Y-97267895D02*
X158328930Y-97267895D01*
X158071787Y-98067895D02*
X158071787Y-97267895D01*
D12*
X142201569Y-85091500D02*
X142301569Y-85124833D01*
X142301569Y-85124833D02*
X142468236Y-85124833D01*
X142468236Y-85124833D02*
X142534902Y-85091500D01*
X142534902Y-85091500D02*
X142568236Y-85058166D01*
X142568236Y-85058166D02*
X142601569Y-84991500D01*
X142601569Y-84991500D02*
X142601569Y-84924833D01*
X142601569Y-84924833D02*
X142568236Y-84858166D01*
X142568236Y-84858166D02*
X142534902Y-84824833D01*
X142534902Y-84824833D02*
X142468236Y-84791500D01*
X142468236Y-84791500D02*
X142334902Y-84758166D01*
X142334902Y-84758166D02*
X142268236Y-84724833D01*
X142268236Y-84724833D02*
X142234902Y-84691500D01*
X142234902Y-84691500D02*
X142201569Y-84624833D01*
X142201569Y-84624833D02*
X142201569Y-84558166D01*
X142201569Y-84558166D02*
X142234902Y-84491500D01*
X142234902Y-84491500D02*
X142268236Y-84458166D01*
X142268236Y-84458166D02*
X142334902Y-84424833D01*
X142334902Y-84424833D02*
X142501569Y-84424833D01*
X142501569Y-84424833D02*
X142601569Y-84458166D01*
X142834903Y-84424833D02*
X143301569Y-85124833D01*
X143301569Y-84424833D02*
X142834903Y-85124833D01*
X143934903Y-85124833D02*
X143534903Y-85124833D01*
X143734903Y-85124833D02*
X143734903Y-84424833D01*
X143734903Y-84424833D02*
X143668236Y-84524833D01*
X143668236Y-84524833D02*
X143601570Y-84591500D01*
X143601570Y-84591500D02*
X143534903Y-84624833D01*
X144201570Y-84491500D02*
X144234903Y-84458166D01*
X144234903Y-84458166D02*
X144301570Y-84424833D01*
X144301570Y-84424833D02*
X144468237Y-84424833D01*
X144468237Y-84424833D02*
X144534903Y-84458166D01*
X144534903Y-84458166D02*
X144568237Y-84491500D01*
X144568237Y-84491500D02*
X144601570Y-84558166D01*
X144601570Y-84558166D02*
X144601570Y-84624833D01*
X144601570Y-84624833D02*
X144568237Y-84724833D01*
X144568237Y-84724833D02*
X144168237Y-85124833D01*
X144168237Y-85124833D02*
X144601570Y-85124833D01*
X144834904Y-84424833D02*
X145301570Y-84424833D01*
X145301570Y-84424833D02*
X145001570Y-85124833D01*
X145501571Y-84424833D02*
X145968237Y-85124833D01*
X145968237Y-84424833D02*
X145501571Y-85124833D01*
D11*
X134016646Y-74113847D02*
X134066646Y-73713847D01*
X134066646Y-73713847D02*
X134164265Y-73999561D01*
X134164265Y-73999561D02*
X134333312Y-73713847D01*
X134333312Y-73713847D02*
X134283312Y-74113847D01*
X134599979Y-73713847D02*
X134676170Y-73713847D01*
X134676170Y-73713847D02*
X134711884Y-73732895D01*
X134711884Y-73732895D02*
X134745217Y-73770990D01*
X134745217Y-73770990D02*
X134754741Y-73847180D01*
X134754741Y-73847180D02*
X134738074Y-73980514D01*
X134738074Y-73980514D02*
X134709503Y-74056704D01*
X134709503Y-74056704D02*
X134666646Y-74094800D01*
X134666646Y-74094800D02*
X134626170Y-74113847D01*
X134626170Y-74113847D02*
X134549979Y-74113847D01*
X134549979Y-74113847D02*
X134514265Y-74094800D01*
X134514265Y-74094800D02*
X134480932Y-74056704D01*
X134480932Y-74056704D02*
X134471408Y-73980514D01*
X134471408Y-73980514D02*
X134488074Y-73847180D01*
X134488074Y-73847180D02*
X134516646Y-73770990D01*
X134516646Y-73770990D02*
X134559503Y-73732895D01*
X134559503Y-73732895D02*
X134599979Y-73713847D01*
X134942837Y-73713847D02*
X134902360Y-74037657D01*
X134902360Y-74037657D02*
X134916646Y-74075752D01*
X134916646Y-74075752D02*
X134933313Y-74094800D01*
X134933313Y-74094800D02*
X134969027Y-74113847D01*
X134969027Y-74113847D02*
X135045218Y-74113847D01*
X135045218Y-74113847D02*
X135085694Y-74094800D01*
X135085694Y-74094800D02*
X135107122Y-74075752D01*
X135107122Y-74075752D02*
X135130932Y-74037657D01*
X135130932Y-74037657D02*
X135171408Y-73713847D01*
X135311885Y-74113847D02*
X135361885Y-73713847D01*
X135361885Y-73713847D02*
X135540456Y-74113847D01*
X135540456Y-74113847D02*
X135590456Y-73713847D01*
X135723790Y-73713847D02*
X135952361Y-73713847D01*
X135788076Y-74113847D02*
X135838076Y-73713847D01*
D10*
X135556826Y-74404342D02*
X135499684Y-74375771D01*
X135499684Y-74375771D02*
X135413969Y-74375771D01*
X135413969Y-74375771D02*
X135328255Y-74404342D01*
X135328255Y-74404342D02*
X135271112Y-74461485D01*
X135271112Y-74461485D02*
X135242541Y-74518628D01*
X135242541Y-74518628D02*
X135213969Y-74632914D01*
X135213969Y-74632914D02*
X135213969Y-74718628D01*
X135213969Y-74718628D02*
X135242541Y-74832914D01*
X135242541Y-74832914D02*
X135271112Y-74890057D01*
X135271112Y-74890057D02*
X135328255Y-74947200D01*
X135328255Y-74947200D02*
X135413969Y-74975771D01*
X135413969Y-74975771D02*
X135471112Y-74975771D01*
X135471112Y-74975771D02*
X135556826Y-74947200D01*
X135556826Y-74947200D02*
X135585398Y-74918628D01*
X135585398Y-74918628D02*
X135585398Y-74718628D01*
X135585398Y-74718628D02*
X135471112Y-74718628D01*
X135842541Y-74975771D02*
X135842541Y-74375771D01*
X135842541Y-74375771D02*
X136071112Y-74375771D01*
X136071112Y-74375771D02*
X136128255Y-74404342D01*
X136128255Y-74404342D02*
X136156826Y-74432914D01*
X136156826Y-74432914D02*
X136185398Y-74490057D01*
X136185398Y-74490057D02*
X136185398Y-74575771D01*
X136185398Y-74575771D02*
X136156826Y-74632914D01*
X136156826Y-74632914D02*
X136128255Y-74661485D01*
X136128255Y-74661485D02*
X136071112Y-74690057D01*
X136071112Y-74690057D02*
X135842541Y-74690057D01*
X136413969Y-74947200D02*
X136499684Y-74975771D01*
X136499684Y-74975771D02*
X136642541Y-74975771D01*
X136642541Y-74975771D02*
X136699684Y-74947200D01*
X136699684Y-74947200D02*
X136728255Y-74918628D01*
X136728255Y-74918628D02*
X136756826Y-74861485D01*
X136756826Y-74861485D02*
X136756826Y-74804342D01*
X136756826Y-74804342D02*
X136728255Y-74747200D01*
X136728255Y-74747200D02*
X136699684Y-74718628D01*
X136699684Y-74718628D02*
X136642541Y-74690057D01*
X136642541Y-74690057D02*
X136528255Y-74661485D01*
X136528255Y-74661485D02*
X136471112Y-74632914D01*
X136471112Y-74632914D02*
X136442541Y-74604342D01*
X136442541Y-74604342D02*
X136413969Y-74547200D01*
X136413969Y-74547200D02*
X136413969Y-74490057D01*
X136413969Y-74490057D02*
X136442541Y-74432914D01*
X136442541Y-74432914D02*
X136471112Y-74404342D01*
X136471112Y-74404342D02*
X136528255Y-74375771D01*
X136528255Y-74375771D02*
X136671112Y-74375771D01*
X136671112Y-74375771D02*
X136756826Y-74404342D01*
X137442541Y-74947200D02*
X137528256Y-74975771D01*
X137528256Y-74975771D02*
X137671113Y-74975771D01*
X137671113Y-74975771D02*
X137728256Y-74947200D01*
X137728256Y-74947200D02*
X137756827Y-74918628D01*
X137756827Y-74918628D02*
X137785398Y-74861485D01*
X137785398Y-74861485D02*
X137785398Y-74804342D01*
X137785398Y-74804342D02*
X137756827Y-74747200D01*
X137756827Y-74747200D02*
X137728256Y-74718628D01*
X137728256Y-74718628D02*
X137671113Y-74690057D01*
X137671113Y-74690057D02*
X137556827Y-74661485D01*
X137556827Y-74661485D02*
X137499684Y-74632914D01*
X137499684Y-74632914D02*
X137471113Y-74604342D01*
X137471113Y-74604342D02*
X137442541Y-74547200D01*
X137442541Y-74547200D02*
X137442541Y-74490057D01*
X137442541Y-74490057D02*
X137471113Y-74432914D01*
X137471113Y-74432914D02*
X137499684Y-74404342D01*
X137499684Y-74404342D02*
X137556827Y-74375771D01*
X137556827Y-74375771D02*
X137699684Y-74375771D01*
X137699684Y-74375771D02*
X137785398Y-74404342D01*
X138385399Y-74975771D02*
X138185399Y-74690057D01*
X138042542Y-74975771D02*
X138042542Y-74375771D01*
X138042542Y-74375771D02*
X138271113Y-74375771D01*
X138271113Y-74375771D02*
X138328256Y-74404342D01*
X138328256Y-74404342D02*
X138356827Y-74432914D01*
X138356827Y-74432914D02*
X138385399Y-74490057D01*
X138385399Y-74490057D02*
X138385399Y-74575771D01*
X138385399Y-74575771D02*
X138356827Y-74632914D01*
X138356827Y-74632914D02*
X138328256Y-74661485D01*
X138328256Y-74661485D02*
X138271113Y-74690057D01*
X138271113Y-74690057D02*
X138042542Y-74690057D01*
X138928256Y-74975771D02*
X138642542Y-74975771D01*
X138642542Y-74975771D02*
X138642542Y-74375771D01*
D11*
X150653646Y-74113847D02*
X150703646Y-73713847D01*
X150703646Y-73713847D02*
X150801265Y-73999561D01*
X150801265Y-73999561D02*
X150970312Y-73713847D01*
X150970312Y-73713847D02*
X150920312Y-74113847D01*
X151236979Y-73713847D02*
X151313170Y-73713847D01*
X151313170Y-73713847D02*
X151348884Y-73732895D01*
X151348884Y-73732895D02*
X151382217Y-73770990D01*
X151382217Y-73770990D02*
X151391741Y-73847180D01*
X151391741Y-73847180D02*
X151375074Y-73980514D01*
X151375074Y-73980514D02*
X151346503Y-74056704D01*
X151346503Y-74056704D02*
X151303646Y-74094800D01*
X151303646Y-74094800D02*
X151263170Y-74113847D01*
X151263170Y-74113847D02*
X151186979Y-74113847D01*
X151186979Y-74113847D02*
X151151265Y-74094800D01*
X151151265Y-74094800D02*
X151117932Y-74056704D01*
X151117932Y-74056704D02*
X151108408Y-73980514D01*
X151108408Y-73980514D02*
X151125074Y-73847180D01*
X151125074Y-73847180D02*
X151153646Y-73770990D01*
X151153646Y-73770990D02*
X151196503Y-73732895D01*
X151196503Y-73732895D02*
X151236979Y-73713847D01*
X151579837Y-73713847D02*
X151539360Y-74037657D01*
X151539360Y-74037657D02*
X151553646Y-74075752D01*
X151553646Y-74075752D02*
X151570313Y-74094800D01*
X151570313Y-74094800D02*
X151606027Y-74113847D01*
X151606027Y-74113847D02*
X151682218Y-74113847D01*
X151682218Y-74113847D02*
X151722694Y-74094800D01*
X151722694Y-74094800D02*
X151744122Y-74075752D01*
X151744122Y-74075752D02*
X151767932Y-74037657D01*
X151767932Y-74037657D02*
X151808408Y-73713847D01*
X151948885Y-74113847D02*
X151998885Y-73713847D01*
X151998885Y-73713847D02*
X152177456Y-74113847D01*
X152177456Y-74113847D02*
X152227456Y-73713847D01*
X152360790Y-73713847D02*
X152589361Y-73713847D01*
X152425076Y-74113847D02*
X152475076Y-73713847D01*
D10*
X142405350Y-75279533D02*
X142805350Y-75279533D01*
X142605350Y-75979533D02*
X142605350Y-75279533D01*
X142972017Y-75279533D02*
X143438683Y-75979533D01*
X143438683Y-75279533D02*
X142972017Y-75979533D01*
X143705350Y-75979533D02*
X143705350Y-75279533D01*
X143705350Y-75279533D02*
X143872017Y-75279533D01*
X143872017Y-75279533D02*
X143972017Y-75312866D01*
X143972017Y-75312866D02*
X144038684Y-75379533D01*
X144038684Y-75379533D02*
X144072017Y-75446200D01*
X144072017Y-75446200D02*
X144105350Y-75579533D01*
X144105350Y-75579533D02*
X144105350Y-75679533D01*
X144105350Y-75679533D02*
X144072017Y-75812866D01*
X144072017Y-75812866D02*
X144038684Y-75879533D01*
X144038684Y-75879533D02*
X143972017Y-75946200D01*
X143972017Y-75946200D02*
X143872017Y-75979533D01*
X143872017Y-75979533D02*
X143705350Y-75979533D01*
D12*
X139401188Y-91785119D02*
X139353569Y-91761309D01*
X139353569Y-91761309D02*
X139282140Y-91761309D01*
X139282140Y-91761309D02*
X139210712Y-91785119D01*
X139210712Y-91785119D02*
X139163093Y-91832738D01*
X139163093Y-91832738D02*
X139139283Y-91880357D01*
X139139283Y-91880357D02*
X139115474Y-91975595D01*
X139115474Y-91975595D02*
X139115474Y-92047023D01*
X139115474Y-92047023D02*
X139139283Y-92142261D01*
X139139283Y-92142261D02*
X139163093Y-92189880D01*
X139163093Y-92189880D02*
X139210712Y-92237500D01*
X139210712Y-92237500D02*
X139282140Y-92261309D01*
X139282140Y-92261309D02*
X139329759Y-92261309D01*
X139329759Y-92261309D02*
X139401188Y-92237500D01*
X139401188Y-92237500D02*
X139424997Y-92213690D01*
X139424997Y-92213690D02*
X139424997Y-92047023D01*
X139424997Y-92047023D02*
X139329759Y-92047023D01*
X139639283Y-92261309D02*
X139639283Y-91761309D01*
X139639283Y-91761309D02*
X139924997Y-92261309D01*
X139924997Y-92261309D02*
X139924997Y-91761309D01*
X140163093Y-92261309D02*
X140163093Y-91761309D01*
X140163093Y-91761309D02*
X140282141Y-91761309D01*
X140282141Y-91761309D02*
X140353569Y-91785119D01*
X140353569Y-91785119D02*
X140401188Y-91832738D01*
X140401188Y-91832738D02*
X140424998Y-91880357D01*
X140424998Y-91880357D02*
X140448807Y-91975595D01*
X140448807Y-91975595D02*
X140448807Y-92047023D01*
X140448807Y-92047023D02*
X140424998Y-92142261D01*
X140424998Y-92142261D02*
X140401188Y-92189880D01*
X140401188Y-92189880D02*
X140353569Y-92237500D01*
X140353569Y-92237500D02*
X140282141Y-92261309D01*
X140282141Y-92261309D02*
X140163093Y-92261309D01*
X148767474Y-91991452D02*
X149005569Y-91991452D01*
X148719855Y-92134309D02*
X148886521Y-91634309D01*
X148886521Y-91634309D02*
X149053188Y-92134309D01*
X149219854Y-92134309D02*
X149219854Y-91634309D01*
X149219854Y-91634309D02*
X149505568Y-92134309D01*
X149505568Y-92134309D02*
X149505568Y-91634309D01*
X149672236Y-91634309D02*
X149957950Y-91634309D01*
X149815093Y-92134309D02*
X149815093Y-91634309D01*
D10*
X129446533Y-86942684D02*
X129113200Y-87176017D01*
X129446533Y-87342684D02*
X128746533Y-87342684D01*
X128746533Y-87342684D02*
X128746533Y-87076017D01*
X128746533Y-87076017D02*
X128779866Y-87009351D01*
X128779866Y-87009351D02*
X128813200Y-86976017D01*
X128813200Y-86976017D02*
X128879866Y-86942684D01*
X128879866Y-86942684D02*
X128979866Y-86942684D01*
X128979866Y-86942684D02*
X129046533Y-86976017D01*
X129046533Y-86976017D02*
X129079866Y-87009351D01*
X129079866Y-87009351D02*
X129113200Y-87076017D01*
X129113200Y-87076017D02*
X129113200Y-87342684D01*
X128746533Y-86709351D02*
X129446533Y-86242684D01*
X128746533Y-86242684D02*
X129446533Y-86709351D01*
X129446533Y-85976017D02*
X128746533Y-85976017D01*
X128746533Y-85976017D02*
X128746533Y-85809350D01*
X128746533Y-85809350D02*
X128779866Y-85709350D01*
X128779866Y-85709350D02*
X128846533Y-85642684D01*
X128846533Y-85642684D02*
X128913200Y-85609350D01*
X128913200Y-85609350D02*
X129046533Y-85576017D01*
X129046533Y-85576017D02*
X129146533Y-85576017D01*
X129146533Y-85576017D02*
X129279866Y-85609350D01*
X129279866Y-85609350D02*
X129346533Y-85642684D01*
X129346533Y-85642684D02*
X129413200Y-85709350D01*
X129413200Y-85709350D02*
X129446533Y-85809350D01*
X129446533Y-85809350D02*
X129446533Y-85976017D01*
X128746533Y-84863017D02*
X128746533Y-84463017D01*
X129446533Y-84663017D02*
X128746533Y-84663017D01*
X128746533Y-84296351D02*
X129446533Y-83829684D01*
X128746533Y-83829684D02*
X129446533Y-84296351D01*
X129446533Y-83563017D02*
X128746533Y-83563017D01*
X128746533Y-83563017D02*
X128746533Y-83396350D01*
X128746533Y-83396350D02*
X128779866Y-83296350D01*
X128779866Y-83296350D02*
X128846533Y-83229684D01*
X128846533Y-83229684D02*
X128913200Y-83196350D01*
X128913200Y-83196350D02*
X129046533Y-83163017D01*
X129046533Y-83163017D02*
X129146533Y-83163017D01*
X129146533Y-83163017D02*
X129279866Y-83196350D01*
X129279866Y-83196350D02*
X129346533Y-83229684D01*
X129346533Y-83229684D02*
X129413200Y-83296350D01*
X129413200Y-83296350D02*
X129446533Y-83396350D01*
X129446533Y-83396350D02*
X129446533Y-83563017D01*
D11*
X148702895Y-90777353D02*
X148702895Y-90624972D01*
X148702895Y-90624972D02*
X148740990Y-90548782D01*
X148740990Y-90548782D02*
X148817180Y-90472591D01*
X148817180Y-90472591D02*
X148969561Y-90434496D01*
X148969561Y-90434496D02*
X149236228Y-90434496D01*
X149236228Y-90434496D02*
X149388609Y-90472591D01*
X149388609Y-90472591D02*
X149464800Y-90548782D01*
X149464800Y-90548782D02*
X149502895Y-90624972D01*
X149502895Y-90624972D02*
X149502895Y-90777353D01*
X149502895Y-90777353D02*
X149464800Y-90853544D01*
X149464800Y-90853544D02*
X149388609Y-90929734D01*
X149388609Y-90929734D02*
X149236228Y-90967830D01*
X149236228Y-90967830D02*
X148969561Y-90967830D01*
X148969561Y-90967830D02*
X148817180Y-90929734D01*
X148817180Y-90929734D02*
X148740990Y-90853544D01*
X148740990Y-90853544D02*
X148702895Y-90777353D01*
X149464800Y-90129735D02*
X149502895Y-90015449D01*
X149502895Y-90015449D02*
X149502895Y-89824973D01*
X149502895Y-89824973D02*
X149464800Y-89748782D01*
X149464800Y-89748782D02*
X149426704Y-89710687D01*
X149426704Y-89710687D02*
X149350514Y-89672592D01*
X149350514Y-89672592D02*
X149274323Y-89672592D01*
X149274323Y-89672592D02*
X149198133Y-89710687D01*
X149198133Y-89710687D02*
X149160038Y-89748782D01*
X149160038Y-89748782D02*
X149121942Y-89824973D01*
X149121942Y-89824973D02*
X149083847Y-89977354D01*
X149083847Y-89977354D02*
X149045752Y-90053544D01*
X149045752Y-90053544D02*
X149007657Y-90091639D01*
X149007657Y-90091639D02*
X148931466Y-90129735D01*
X148931466Y-90129735D02*
X148855276Y-90129735D01*
X148855276Y-90129735D02*
X148779085Y-90091639D01*
X148779085Y-90091639D02*
X148740990Y-90053544D01*
X148740990Y-90053544D02*
X148702895Y-89977354D01*
X148702895Y-89977354D02*
X148702895Y-89786877D01*
X148702895Y-89786877D02*
X148740990Y-89672592D01*
X149198133Y-89329734D02*
X149198133Y-88720211D01*
X148969561Y-87996401D02*
X149502895Y-87996401D01*
X148664800Y-88186877D02*
X149236228Y-88377354D01*
X149236228Y-88377354D02*
X149236228Y-87882115D01*
X148779085Y-87615449D02*
X148740990Y-87577353D01*
X148740990Y-87577353D02*
X148702895Y-87501163D01*
X148702895Y-87501163D02*
X148702895Y-87310687D01*
X148702895Y-87310687D02*
X148740990Y-87234496D01*
X148740990Y-87234496D02*
X148779085Y-87196401D01*
X148779085Y-87196401D02*
X148855276Y-87158306D01*
X148855276Y-87158306D02*
X148931466Y-87158306D01*
X148931466Y-87158306D02*
X149045752Y-87196401D01*
X149045752Y-87196401D02*
X149502895Y-87653544D01*
X149502895Y-87653544D02*
X149502895Y-87158306D01*
X148702895Y-86320210D02*
X148702895Y-85863067D01*
X149502895Y-86091639D02*
X148702895Y-86091639D01*
X149502895Y-85139257D02*
X149121942Y-85405924D01*
X149502895Y-85596400D02*
X148702895Y-85596400D01*
X148702895Y-85596400D02*
X148702895Y-85291638D01*
X148702895Y-85291638D02*
X148740990Y-85215448D01*
X148740990Y-85215448D02*
X148779085Y-85177353D01*
X148779085Y-85177353D02*
X148855276Y-85139257D01*
X148855276Y-85139257D02*
X148969561Y-85139257D01*
X148969561Y-85139257D02*
X149045752Y-85177353D01*
X149045752Y-85177353D02*
X149083847Y-85215448D01*
X149083847Y-85215448D02*
X149121942Y-85291638D01*
X149121942Y-85291638D02*
X149121942Y-85596400D01*
X149274323Y-84834496D02*
X149274323Y-84453543D01*
X149502895Y-84910686D02*
X148702895Y-84644019D01*
X148702895Y-84644019D02*
X149502895Y-84377353D01*
X149426704Y-83653543D02*
X149464800Y-83691639D01*
X149464800Y-83691639D02*
X149502895Y-83805924D01*
X149502895Y-83805924D02*
X149502895Y-83882115D01*
X149502895Y-83882115D02*
X149464800Y-83996401D01*
X149464800Y-83996401D02*
X149388609Y-84072591D01*
X149388609Y-84072591D02*
X149312419Y-84110686D01*
X149312419Y-84110686D02*
X149160038Y-84148782D01*
X149160038Y-84148782D02*
X149045752Y-84148782D01*
X149045752Y-84148782D02*
X148893371Y-84110686D01*
X148893371Y-84110686D02*
X148817180Y-84072591D01*
X148817180Y-84072591D02*
X148740990Y-83996401D01*
X148740990Y-83996401D02*
X148702895Y-83882115D01*
X148702895Y-83882115D02*
X148702895Y-83805924D01*
X148702895Y-83805924D02*
X148740990Y-83691639D01*
X148740990Y-83691639D02*
X148779085Y-83653543D01*
X149502895Y-83310686D02*
X148702895Y-83310686D01*
X149502895Y-82853543D02*
X149045752Y-83196401D01*
X148702895Y-82853543D02*
X149160038Y-83310686D01*
X149083847Y-82510686D02*
X149083847Y-82244020D01*
X149502895Y-82129734D02*
X149502895Y-82510686D01*
X149502895Y-82510686D02*
X148702895Y-82510686D01*
X148702895Y-82510686D02*
X148702895Y-82129734D01*
X149502895Y-81329733D02*
X149121942Y-81596400D01*
X149502895Y-81786876D02*
X148702895Y-81786876D01*
X148702895Y-81786876D02*
X148702895Y-81482114D01*
X148702895Y-81482114D02*
X148740990Y-81405924D01*
X148740990Y-81405924D02*
X148779085Y-81367829D01*
X148779085Y-81367829D02*
X148855276Y-81329733D01*
X148855276Y-81329733D02*
X148969561Y-81329733D01*
X148969561Y-81329733D02*
X149045752Y-81367829D01*
X149045752Y-81367829D02*
X149083847Y-81405924D01*
X149083847Y-81405924D02*
X149121942Y-81482114D01*
X149121942Y-81482114D02*
X149121942Y-81786876D01*
X148702895Y-80491638D02*
X149502895Y-80224971D01*
X149502895Y-80224971D02*
X148702895Y-79958305D01*
X148702895Y-79539257D02*
X148702895Y-79463067D01*
X148702895Y-79463067D02*
X148740990Y-79386876D01*
X148740990Y-79386876D02*
X148779085Y-79348781D01*
X148779085Y-79348781D02*
X148855276Y-79310686D01*
X148855276Y-79310686D02*
X149007657Y-79272591D01*
X149007657Y-79272591D02*
X149198133Y-79272591D01*
X149198133Y-79272591D02*
X149350514Y-79310686D01*
X149350514Y-79310686D02*
X149426704Y-79348781D01*
X149426704Y-79348781D02*
X149464800Y-79386876D01*
X149464800Y-79386876D02*
X149502895Y-79463067D01*
X149502895Y-79463067D02*
X149502895Y-79539257D01*
X149502895Y-79539257D02*
X149464800Y-79615448D01*
X149464800Y-79615448D02*
X149426704Y-79653543D01*
X149426704Y-79653543D02*
X149350514Y-79691638D01*
X149350514Y-79691638D02*
X149198133Y-79729734D01*
X149198133Y-79729734D02*
X149007657Y-79729734D01*
X149007657Y-79729734D02*
X148855276Y-79691638D01*
X148855276Y-79691638D02*
X148779085Y-79653543D01*
X148779085Y-79653543D02*
X148740990Y-79615448D01*
X148740990Y-79615448D02*
X148702895Y-79539257D01*
X149426704Y-78929733D02*
X149464800Y-78891638D01*
X149464800Y-78891638D02*
X149502895Y-78929733D01*
X149502895Y-78929733D02*
X149464800Y-78967829D01*
X149464800Y-78967829D02*
X149426704Y-78929733D01*
X149426704Y-78929733D02*
X149502895Y-78929733D01*
X149502895Y-78129734D02*
X149502895Y-78586877D01*
X149502895Y-78358305D02*
X148702895Y-78358305D01*
X148702895Y-78358305D02*
X148817180Y-78434496D01*
X148817180Y-78434496D02*
X148893371Y-78510686D01*
X148893371Y-78510686D02*
X148931466Y-78586877D01*
X149426704Y-77786876D02*
X149464800Y-77748781D01*
X149464800Y-77748781D02*
X149502895Y-77786876D01*
X149502895Y-77786876D02*
X149464800Y-77824972D01*
X149464800Y-77824972D02*
X149426704Y-77786876D01*
X149426704Y-77786876D02*
X149502895Y-77786876D01*
X149502895Y-77367829D02*
X149502895Y-77215448D01*
X149502895Y-77215448D02*
X149464800Y-77139258D01*
X149464800Y-77139258D02*
X149426704Y-77101162D01*
X149426704Y-77101162D02*
X149312419Y-77024972D01*
X149312419Y-77024972D02*
X149160038Y-76986877D01*
X149160038Y-76986877D02*
X148855276Y-76986877D01*
X148855276Y-76986877D02*
X148779085Y-77024972D01*
X148779085Y-77024972D02*
X148740990Y-77063067D01*
X148740990Y-77063067D02*
X148702895Y-77139258D01*
X148702895Y-77139258D02*
X148702895Y-77291639D01*
X148702895Y-77291639D02*
X148740990Y-77367829D01*
X148740990Y-77367829D02*
X148779085Y-77405924D01*
X148779085Y-77405924D02*
X148855276Y-77444020D01*
X148855276Y-77444020D02*
X149045752Y-77444020D01*
X149045752Y-77444020D02*
X149121942Y-77405924D01*
X149121942Y-77405924D02*
X149160038Y-77367829D01*
X149160038Y-77367829D02*
X149198133Y-77291639D01*
X149198133Y-77291639D02*
X149198133Y-77139258D01*
X149198133Y-77139258D02*
X149160038Y-77063067D01*
X149160038Y-77063067D02*
X149121942Y-77024972D01*
X149121942Y-77024972D02*
X149045752Y-76986877D01*
D10*
X129206866Y-78493683D02*
X129240200Y-78393683D01*
X129240200Y-78393683D02*
X129273533Y-78360349D01*
X129273533Y-78360349D02*
X129340200Y-78327016D01*
X129340200Y-78327016D02*
X129440200Y-78327016D01*
X129440200Y-78327016D02*
X129506866Y-78360349D01*
X129506866Y-78360349D02*
X129540200Y-78393683D01*
X129540200Y-78393683D02*
X129573533Y-78460349D01*
X129573533Y-78460349D02*
X129573533Y-78727016D01*
X129573533Y-78727016D02*
X128873533Y-78727016D01*
X128873533Y-78727016D02*
X128873533Y-78493683D01*
X128873533Y-78493683D02*
X128906866Y-78427016D01*
X128906866Y-78427016D02*
X128940200Y-78393683D01*
X128940200Y-78393683D02*
X129006866Y-78360349D01*
X129006866Y-78360349D02*
X129073533Y-78360349D01*
X129073533Y-78360349D02*
X129140200Y-78393683D01*
X129140200Y-78393683D02*
X129173533Y-78427016D01*
X129173533Y-78427016D02*
X129206866Y-78493683D01*
X129206866Y-78493683D02*
X129206866Y-78727016D01*
X128873533Y-77893683D02*
X128873533Y-77760349D01*
X128873533Y-77760349D02*
X128906866Y-77693683D01*
X128906866Y-77693683D02*
X128973533Y-77627016D01*
X128973533Y-77627016D02*
X129106866Y-77593683D01*
X129106866Y-77593683D02*
X129340200Y-77593683D01*
X129340200Y-77593683D02*
X129473533Y-77627016D01*
X129473533Y-77627016D02*
X129540200Y-77693683D01*
X129540200Y-77693683D02*
X129573533Y-77760349D01*
X129573533Y-77760349D02*
X129573533Y-77893683D01*
X129573533Y-77893683D02*
X129540200Y-77960349D01*
X129540200Y-77960349D02*
X129473533Y-78027016D01*
X129473533Y-78027016D02*
X129340200Y-78060349D01*
X129340200Y-78060349D02*
X129106866Y-78060349D01*
X129106866Y-78060349D02*
X128973533Y-78027016D01*
X128973533Y-78027016D02*
X128906866Y-77960349D01*
X128906866Y-77960349D02*
X128873533Y-77893683D01*
X128873533Y-77160350D02*
X128873533Y-77027016D01*
X128873533Y-77027016D02*
X128906866Y-76960350D01*
X128906866Y-76960350D02*
X128973533Y-76893683D01*
X128973533Y-76893683D02*
X129106866Y-76860350D01*
X129106866Y-76860350D02*
X129340200Y-76860350D01*
X129340200Y-76860350D02*
X129473533Y-76893683D01*
X129473533Y-76893683D02*
X129540200Y-76960350D01*
X129540200Y-76960350D02*
X129573533Y-77027016D01*
X129573533Y-77027016D02*
X129573533Y-77160350D01*
X129573533Y-77160350D02*
X129540200Y-77227016D01*
X129540200Y-77227016D02*
X129473533Y-77293683D01*
X129473533Y-77293683D02*
X129340200Y-77327016D01*
X129340200Y-77327016D02*
X129106866Y-77327016D01*
X129106866Y-77327016D02*
X128973533Y-77293683D01*
X128973533Y-77293683D02*
X128906866Y-77227016D01*
X128906866Y-77227016D02*
X128873533Y-77160350D01*
X128873533Y-76660350D02*
X128873533Y-76260350D01*
X129573533Y-76460350D02*
X128873533Y-76460350D01*
X129506866Y-75627017D02*
X129540200Y-75660350D01*
X129540200Y-75660350D02*
X129573533Y-75760350D01*
X129573533Y-75760350D02*
X129573533Y-75827017D01*
X129573533Y-75827017D02*
X129540200Y-75927017D01*
X129540200Y-75927017D02*
X129473533Y-75993684D01*
X129473533Y-75993684D02*
X129406866Y-76027017D01*
X129406866Y-76027017D02*
X129273533Y-76060350D01*
X129273533Y-76060350D02*
X129173533Y-76060350D01*
X129173533Y-76060350D02*
X129040200Y-76027017D01*
X129040200Y-76027017D02*
X128973533Y-75993684D01*
X128973533Y-75993684D02*
X128906866Y-75927017D01*
X128906866Y-75927017D02*
X128873533Y-75827017D01*
X128873533Y-75827017D02*
X128873533Y-75760350D01*
X128873533Y-75760350D02*
X128906866Y-75660350D01*
X128906866Y-75660350D02*
X128940200Y-75627017D01*
X128873533Y-75427017D02*
X128873533Y-75027017D01*
X129573533Y-75227017D02*
X128873533Y-75227017D01*
X129573533Y-74460351D02*
X129573533Y-74793684D01*
X129573533Y-74793684D02*
X128873533Y-74793684D01*
X134429667Y-100911819D02*
X134429667Y-99911819D01*
X134429667Y-99911819D02*
X134810619Y-99911819D01*
X134810619Y-99911819D02*
X134905857Y-99959438D01*
X134905857Y-99959438D02*
X134953476Y-100007057D01*
X134953476Y-100007057D02*
X135001095Y-100102295D01*
X135001095Y-100102295D02*
X135001095Y-100245152D01*
X135001095Y-100245152D02*
X134953476Y-100340390D01*
X134953476Y-100340390D02*
X134905857Y-100388009D01*
X134905857Y-100388009D02*
X134810619Y-100435628D01*
X134810619Y-100435628D02*
X134429667Y-100435628D01*
X135334429Y-99911819D02*
X135572524Y-100911819D01*
X135572524Y-100911819D02*
X135763000Y-100197533D01*
X135763000Y-100197533D02*
X135953476Y-100911819D01*
X135953476Y-100911819D02*
X136191572Y-99911819D01*
X137143952Y-100911819D02*
X136810619Y-100435628D01*
X136572524Y-100911819D02*
X136572524Y-99911819D01*
X136572524Y-99911819D02*
X136953476Y-99911819D01*
X136953476Y-99911819D02*
X137048714Y-99959438D01*
X137048714Y-99959438D02*
X137096333Y-100007057D01*
X137096333Y-100007057D02*
X137143952Y-100102295D01*
X137143952Y-100102295D02*
X137143952Y-100245152D01*
X137143952Y-100245152D02*
X137096333Y-100340390D01*
X137096333Y-100340390D02*
X137048714Y-100388009D01*
X137048714Y-100388009D02*
X136953476Y-100435628D01*
X136953476Y-100435628D02*
X136572524Y-100435628D01*
X142470428Y-96022819D02*
X142137095Y-95546628D01*
X141899000Y-96022819D02*
X141899000Y-95022819D01*
X141899000Y-95022819D02*
X142279952Y-95022819D01*
X142279952Y-95022819D02*
X142375190Y-95070438D01*
X142375190Y-95070438D02*
X142422809Y-95118057D01*
X142422809Y-95118057D02*
X142470428Y-95213295D01*
X142470428Y-95213295D02*
X142470428Y-95356152D01*
X142470428Y-95356152D02*
X142422809Y-95451390D01*
X142422809Y-95451390D02*
X142375190Y-95499009D01*
X142375190Y-95499009D02*
X142279952Y-95546628D01*
X142279952Y-95546628D02*
X141899000Y-95546628D01*
X143232333Y-95499009D02*
X142899000Y-95499009D01*
X142899000Y-96022819D02*
X142899000Y-95022819D01*
X142899000Y-95022819D02*
X143375190Y-95022819D01*
X144708524Y-95022819D02*
X144899000Y-95022819D01*
X144899000Y-95022819D02*
X144994238Y-95070438D01*
X144994238Y-95070438D02*
X145089476Y-95165676D01*
X145089476Y-95165676D02*
X145137095Y-95356152D01*
X145137095Y-95356152D02*
X145137095Y-95689485D01*
X145137095Y-95689485D02*
X145089476Y-95879961D01*
X145089476Y-95879961D02*
X144994238Y-95975200D01*
X144994238Y-95975200D02*
X144899000Y-96022819D01*
X144899000Y-96022819D02*
X144708524Y-96022819D01*
X144708524Y-96022819D02*
X144613286Y-95975200D01*
X144613286Y-95975200D02*
X144518048Y-95879961D01*
X144518048Y-95879961D02*
X144470429Y-95689485D01*
X144470429Y-95689485D02*
X144470429Y-95356152D01*
X144470429Y-95356152D02*
X144518048Y-95165676D01*
X144518048Y-95165676D02*
X144613286Y-95070438D01*
X144613286Y-95070438D02*
X144708524Y-95022819D01*
X145565667Y-95022819D02*
X145565667Y-95832342D01*
X145565667Y-95832342D02*
X145613286Y-95927580D01*
X145613286Y-95927580D02*
X145660905Y-95975200D01*
X145660905Y-95975200D02*
X145756143Y-96022819D01*
X145756143Y-96022819D02*
X145946619Y-96022819D01*
X145946619Y-96022819D02*
X146041857Y-95975200D01*
X146041857Y-95975200D02*
X146089476Y-95927580D01*
X146089476Y-95927580D02*
X146137095Y-95832342D01*
X146137095Y-95832342D02*
X146137095Y-95022819D01*
X146470429Y-95022819D02*
X147041857Y-95022819D01*
X146756143Y-96022819D02*
X146756143Y-95022819D01*
X139011819Y-97218332D02*
X138011819Y-97218332D01*
X138011819Y-97218332D02*
X138011819Y-96837380D01*
X138011819Y-96837380D02*
X138059438Y-96742142D01*
X138059438Y-96742142D02*
X138107057Y-96694523D01*
X138107057Y-96694523D02*
X138202295Y-96646904D01*
X138202295Y-96646904D02*
X138345152Y-96646904D01*
X138345152Y-96646904D02*
X138440390Y-96694523D01*
X138440390Y-96694523D02*
X138488009Y-96742142D01*
X138488009Y-96742142D02*
X138535628Y-96837380D01*
X138535628Y-96837380D02*
X138535628Y-97218332D01*
X138011819Y-96313570D02*
X139011819Y-96075475D01*
X139011819Y-96075475D02*
X138297533Y-95884999D01*
X138297533Y-95884999D02*
X139011819Y-95694523D01*
X139011819Y-95694523D02*
X138011819Y-95456428D01*
X139011819Y-94504047D02*
X138535628Y-94837380D01*
X139011819Y-95075475D02*
X138011819Y-95075475D01*
X138011819Y-95075475D02*
X138011819Y-94694523D01*
X138011819Y-94694523D02*
X138059438Y-94599285D01*
X138059438Y-94599285D02*
X138107057Y-94551666D01*
X138107057Y-94551666D02*
X138202295Y-94504047D01*
X138202295Y-94504047D02*
X138345152Y-94504047D01*
X138345152Y-94504047D02*
X138440390Y-94551666D01*
X138440390Y-94551666D02*
X138488009Y-94599285D01*
X138488009Y-94599285D02*
X138535628Y-94694523D01*
X138535628Y-94694523D02*
X138535628Y-95075475D01*
D11*
X153719884Y-99405666D02*
X154481789Y-99405666D01*
X154100836Y-99786619D02*
X154100836Y-99024714D01*
X150544884Y-99405666D02*
X151306789Y-99405666D01*
X150925836Y-99786619D02*
X150925836Y-99024714D01*
D13*
%TO.C,REF\u002A\u002A*%
X135068000Y-73202000D02*
X135068000Y-73077000D01*
X135068000Y-73202000D02*
X135154724Y-73202000D01*
X136371276Y-73202000D02*
X136458000Y-73202000D01*
X136458000Y-73202000D02*
X136458000Y-73077000D01*
X125797000Y-73854000D02*
X127127000Y-73854000D01*
X125797000Y-75184000D02*
X125797000Y-73854000D01*
X125797000Y-76454000D02*
X125797000Y-79054000D01*
X125797000Y-76454000D02*
X128457000Y-76454000D01*
X125797000Y-79054000D02*
X128457000Y-79054000D01*
X128457000Y-76454000D02*
X128457000Y-79054000D01*
X159044000Y-98464000D02*
X159044000Y-93823000D01*
X159044000Y-98464000D02*
X148804000Y-98464000D01*
X159044000Y-96954000D02*
X148804000Y-96954000D01*
X159044000Y-93823000D02*
X148804000Y-93823000D01*
X155774000Y-98464000D02*
X155774000Y-96954000D01*
X152073000Y-98464000D02*
X152073000Y-96954000D01*
X148804000Y-98464000D02*
X148804000Y-93823000D01*
%TO.C,G\u002A\u002A\u002A*%
G36*
X143683217Y-76974782D02*
G01*
X143683217Y-76996521D01*
X143659304Y-76996521D01*
X143635391Y-76996521D01*
X143635391Y-76974782D01*
X143635391Y-76953043D01*
X143659304Y-76953043D01*
X143683217Y-76953043D01*
X143683217Y-76974782D01*
G37*
G36*
X144574521Y-76974782D02*
G01*
X144574521Y-76996521D01*
X144550608Y-76996521D01*
X144526695Y-76996521D01*
X144526695Y-76974782D01*
X144526695Y-76953043D01*
X144550608Y-76953043D01*
X144574521Y-76953043D01*
X144574521Y-76974782D01*
G37*
G36*
X143904956Y-80561739D02*
G01*
X143904956Y-80626956D01*
X143924521Y-80626956D01*
X143944086Y-80626956D01*
X143944086Y-80561739D01*
X143944086Y-80496521D01*
X143968000Y-80496521D01*
X143991913Y-80496521D01*
X143991913Y-80572608D01*
X143991913Y-80648695D01*
X143935391Y-80648695D01*
X143878869Y-80648695D01*
X143878869Y-80637826D01*
X143877073Y-80629552D01*
X143870003Y-80627002D01*
X143868000Y-80626956D01*
X143857130Y-80626956D01*
X143857130Y-80561739D01*
X143857130Y-80496521D01*
X143881043Y-80496521D01*
X143904956Y-80496521D01*
X143904956Y-80561739D01*
G37*
G36*
X143683217Y-77083478D02*
G01*
X143683217Y-77148695D01*
X143704956Y-77148695D01*
X143717858Y-77149048D01*
X143724294Y-77150846D01*
X143726489Y-77155203D01*
X143726695Y-77159565D01*
X143726695Y-77170434D01*
X143659304Y-77170434D01*
X143591913Y-77170434D01*
X143591913Y-77159565D01*
X143592617Y-77153114D01*
X143596214Y-77149895D01*
X143604927Y-77148798D01*
X143613652Y-77148695D01*
X143635391Y-77148695D01*
X143635391Y-77094347D01*
X143635391Y-77040000D01*
X143613652Y-77040000D01*
X143600750Y-77039647D01*
X143594313Y-77037849D01*
X143592118Y-77033492D01*
X143591913Y-77029130D01*
X143591913Y-77018260D01*
X143637565Y-77018260D01*
X143683217Y-77018260D01*
X143683217Y-77083478D01*
G37*
G36*
X144574521Y-77083478D02*
G01*
X144574521Y-77148695D01*
X144596260Y-77148695D01*
X144609162Y-77149048D01*
X144615599Y-77150846D01*
X144617794Y-77155203D01*
X144618000Y-77159565D01*
X144618000Y-77170434D01*
X144550608Y-77170434D01*
X144483217Y-77170434D01*
X144483217Y-77159565D01*
X144483922Y-77153114D01*
X144487519Y-77149895D01*
X144496232Y-77148798D01*
X144504956Y-77148695D01*
X144526695Y-77148695D01*
X144526695Y-77094347D01*
X144526695Y-77040000D01*
X144504956Y-77040000D01*
X144492054Y-77039647D01*
X144485618Y-77037849D01*
X144483423Y-77033492D01*
X144483217Y-77029130D01*
X144483217Y-77018260D01*
X144528869Y-77018260D01*
X144574521Y-77018260D01*
X144574521Y-77083478D01*
G37*
G36*
X143548434Y-77072608D02*
G01*
X143548434Y-77170434D01*
X143491913Y-77170434D01*
X143435391Y-77170434D01*
X143435391Y-77159565D01*
X143433595Y-77151291D01*
X143426524Y-77148741D01*
X143424521Y-77148695D01*
X143413652Y-77148695D01*
X143413652Y-77094347D01*
X143413652Y-77040000D01*
X143424521Y-77040000D01*
X143461478Y-77040000D01*
X143461478Y-77094347D01*
X143461478Y-77148695D01*
X143481043Y-77148695D01*
X143500608Y-77148695D01*
X143500608Y-77094347D01*
X143500608Y-77040000D01*
X143481043Y-77040000D01*
X143461478Y-77040000D01*
X143424521Y-77040000D01*
X143432795Y-77038204D01*
X143435345Y-77031133D01*
X143435391Y-77029130D01*
X143435797Y-77023601D01*
X143438237Y-77020360D01*
X143444543Y-77018797D01*
X143456546Y-77018300D01*
X143468000Y-77018260D01*
X143500608Y-77018260D01*
X143500608Y-76996521D01*
X143500608Y-76974782D01*
X143524521Y-76974782D01*
X143548434Y-76974782D01*
X143548434Y-77072608D01*
G37*
G36*
X143883217Y-77029130D02*
G01*
X143885013Y-77037404D01*
X143892083Y-77039954D01*
X143894086Y-77040000D01*
X143904956Y-77040000D01*
X143904956Y-77094347D01*
X143904956Y-77148695D01*
X143894086Y-77148695D01*
X143885812Y-77150491D01*
X143883263Y-77157562D01*
X143883217Y-77159565D01*
X143883217Y-77170434D01*
X143837565Y-77170434D01*
X143791913Y-77170434D01*
X143791913Y-77159565D01*
X143790117Y-77151291D01*
X143783046Y-77148741D01*
X143781043Y-77148695D01*
X143770173Y-77148695D01*
X143770173Y-77094347D01*
X143770173Y-77040000D01*
X143781043Y-77040000D01*
X143818000Y-77040000D01*
X143818000Y-77094347D01*
X143818000Y-77148695D01*
X143837565Y-77148695D01*
X143857130Y-77148695D01*
X143857130Y-77094347D01*
X143857130Y-77040000D01*
X143837565Y-77040000D01*
X143818000Y-77040000D01*
X143781043Y-77040000D01*
X143789317Y-77038204D01*
X143791867Y-77031133D01*
X143791913Y-77029130D01*
X143791913Y-77018260D01*
X143837565Y-77018260D01*
X143883217Y-77018260D01*
X143883217Y-77029130D01*
G37*
G36*
X144709304Y-77072608D02*
G01*
X144709304Y-77126956D01*
X144728869Y-77126956D01*
X144748434Y-77126956D01*
X144748434Y-77072608D01*
X144748434Y-77018260D01*
X144772347Y-77018260D01*
X144796260Y-77018260D01*
X144796260Y-77072608D01*
X144796260Y-77126956D01*
X144785391Y-77126956D01*
X144777117Y-77128752D01*
X144774567Y-77135822D01*
X144774521Y-77137826D01*
X144772725Y-77146100D01*
X144765655Y-77148649D01*
X144763652Y-77148695D01*
X144755378Y-77150491D01*
X144752828Y-77157562D01*
X144752782Y-77159565D01*
X144752161Y-77165790D01*
X144748881Y-77169031D01*
X144740812Y-77170256D01*
X144728869Y-77170434D01*
X144715174Y-77170152D01*
X144708042Y-77168661D01*
X144705348Y-77164993D01*
X144704956Y-77159565D01*
X144703160Y-77151291D01*
X144696090Y-77148741D01*
X144694086Y-77148695D01*
X144685812Y-77146899D01*
X144683263Y-77139829D01*
X144683217Y-77137826D01*
X144681421Y-77129552D01*
X144674350Y-77127002D01*
X144672347Y-77126956D01*
X144661478Y-77126956D01*
X144661478Y-77072608D01*
X144661478Y-77018260D01*
X144685391Y-77018260D01*
X144709304Y-77018260D01*
X144709304Y-77072608D01*
G37*
G36*
X143813652Y-80594347D02*
G01*
X143813652Y-80692173D01*
X143802782Y-80692173D01*
X143794508Y-80693969D01*
X143791958Y-80701040D01*
X143791913Y-80703043D01*
X143791913Y-80713913D01*
X143735391Y-80713913D01*
X143678869Y-80713913D01*
X143678869Y-80703043D01*
X143678869Y-80692173D01*
X143722347Y-80692173D01*
X143765826Y-80692173D01*
X143765826Y-80670434D01*
X143765826Y-80648695D01*
X143733217Y-80648695D01*
X143716631Y-80648560D01*
X143706908Y-80647746D01*
X143702218Y-80645644D01*
X143700728Y-80641643D01*
X143700608Y-80637826D01*
X143698812Y-80629552D01*
X143691742Y-80627002D01*
X143689739Y-80626956D01*
X143678869Y-80626956D01*
X143678869Y-80572608D01*
X143678869Y-80518260D01*
X143689739Y-80518260D01*
X143726695Y-80518260D01*
X143726695Y-80572608D01*
X143726695Y-80626956D01*
X143746260Y-80626956D01*
X143765826Y-80626956D01*
X143765826Y-80572608D01*
X143765826Y-80518260D01*
X143746260Y-80518260D01*
X143726695Y-80518260D01*
X143689739Y-80518260D01*
X143698013Y-80516465D01*
X143700562Y-80509394D01*
X143700608Y-80507391D01*
X143700608Y-80496521D01*
X143757130Y-80496521D01*
X143813652Y-80496521D01*
X143813652Y-80594347D01*
G37*
G36*
X144283217Y-80474782D02*
G01*
X144283217Y-80496521D01*
X144315826Y-80496521D01*
X144332412Y-80496657D01*
X144342134Y-80497470D01*
X144346824Y-80499572D01*
X144348314Y-80503573D01*
X144348434Y-80507391D01*
X144348028Y-80512920D01*
X144345588Y-80516160D01*
X144339282Y-80517724D01*
X144327279Y-80518220D01*
X144315826Y-80518260D01*
X144283217Y-80518260D01*
X144283217Y-80572608D01*
X144283217Y-80626956D01*
X144315826Y-80626956D01*
X144332412Y-80627091D01*
X144342134Y-80627905D01*
X144346824Y-80630007D01*
X144348314Y-80634008D01*
X144348434Y-80637826D01*
X144348434Y-80648695D01*
X144302782Y-80648695D01*
X144257130Y-80648695D01*
X144257130Y-80637826D01*
X144255334Y-80629552D01*
X144248263Y-80627002D01*
X144246260Y-80626956D01*
X144235391Y-80626956D01*
X144235391Y-80572608D01*
X144235391Y-80518260D01*
X144224521Y-80518260D01*
X144216247Y-80516465D01*
X144213698Y-80509394D01*
X144213652Y-80507391D01*
X144215447Y-80499117D01*
X144222518Y-80496567D01*
X144224521Y-80496521D01*
X144230972Y-80495816D01*
X144234190Y-80492219D01*
X144235288Y-80483507D01*
X144235391Y-80474782D01*
X144235391Y-80453043D01*
X144259304Y-80453043D01*
X144283217Y-80453043D01*
X144283217Y-80474782D01*
G37*
G36*
X144374521Y-76996521D02*
G01*
X144374521Y-77018260D01*
X144407130Y-77018260D01*
X144423716Y-77018396D01*
X144433438Y-77019209D01*
X144438129Y-77021311D01*
X144439619Y-77025312D01*
X144439739Y-77029130D01*
X144439332Y-77034659D01*
X144436892Y-77037899D01*
X144430586Y-77039463D01*
X144418583Y-77039960D01*
X144407130Y-77040000D01*
X144374521Y-77040000D01*
X144374521Y-77094347D01*
X144374521Y-77148695D01*
X144407130Y-77148695D01*
X144423716Y-77148831D01*
X144433438Y-77149644D01*
X144438129Y-77151746D01*
X144439619Y-77155747D01*
X144439739Y-77159565D01*
X144439739Y-77170434D01*
X144394086Y-77170434D01*
X144348434Y-77170434D01*
X144348434Y-77159565D01*
X144346639Y-77151291D01*
X144339568Y-77148741D01*
X144337565Y-77148695D01*
X144326695Y-77148695D01*
X144326695Y-77094347D01*
X144326695Y-77040000D01*
X144315826Y-77040000D01*
X144307552Y-77038204D01*
X144305002Y-77031133D01*
X144304956Y-77029130D01*
X144306752Y-77020856D01*
X144313822Y-77018306D01*
X144315826Y-77018260D01*
X144322277Y-77017556D01*
X144325495Y-77013959D01*
X144326592Y-77005246D01*
X144326695Y-76996521D01*
X144326695Y-76974782D01*
X144350608Y-76974782D01*
X144374521Y-76974782D01*
X144374521Y-76996521D01*
G37*
G36*
X144461478Y-80474782D02*
G01*
X144461478Y-80496521D01*
X144494086Y-80496521D01*
X144510673Y-80496657D01*
X144520395Y-80497470D01*
X144525085Y-80499572D01*
X144526575Y-80503573D01*
X144526695Y-80507391D01*
X144526289Y-80512920D01*
X144523849Y-80516160D01*
X144517543Y-80517724D01*
X144505540Y-80518220D01*
X144494086Y-80518260D01*
X144461478Y-80518260D01*
X144461478Y-80572608D01*
X144461478Y-80626956D01*
X144494086Y-80626956D01*
X144510673Y-80627091D01*
X144520395Y-80627905D01*
X144525085Y-80630007D01*
X144526575Y-80634008D01*
X144526695Y-80637826D01*
X144526695Y-80648695D01*
X144481043Y-80648695D01*
X144435391Y-80648695D01*
X144435391Y-80637826D01*
X144433595Y-80629552D01*
X144426524Y-80627002D01*
X144424521Y-80626956D01*
X144413652Y-80626956D01*
X144413652Y-80572608D01*
X144413652Y-80518260D01*
X144402782Y-80518260D01*
X144394508Y-80516465D01*
X144391958Y-80509394D01*
X144391913Y-80507391D01*
X144393708Y-80499117D01*
X144400779Y-80496567D01*
X144402782Y-80496521D01*
X144409233Y-80495816D01*
X144412451Y-80492219D01*
X144413549Y-80483507D01*
X144413652Y-80474782D01*
X144413652Y-80453043D01*
X144437565Y-80453043D01*
X144461478Y-80453043D01*
X144461478Y-80474782D01*
G37*
G36*
X144148434Y-80507391D02*
G01*
X144150230Y-80515665D01*
X144157301Y-80518214D01*
X144159304Y-80518260D01*
X144164833Y-80518667D01*
X144168073Y-80521107D01*
X144169637Y-80527413D01*
X144170133Y-80539416D01*
X144170173Y-80550869D01*
X144170173Y-80583478D01*
X144126695Y-80583478D01*
X144083217Y-80583478D01*
X144083217Y-80605217D01*
X144083217Y-80626956D01*
X144115826Y-80626956D01*
X144132412Y-80627091D01*
X144142134Y-80627905D01*
X144146824Y-80630007D01*
X144148314Y-80634008D01*
X144148434Y-80637826D01*
X144148434Y-80648695D01*
X144102782Y-80648695D01*
X144057130Y-80648695D01*
X144057130Y-80637826D01*
X144055334Y-80629552D01*
X144048263Y-80627002D01*
X144046260Y-80626956D01*
X144035391Y-80626956D01*
X144035391Y-80572608D01*
X144035391Y-80518260D01*
X144046260Y-80518260D01*
X144083217Y-80518260D01*
X144083217Y-80540000D01*
X144083217Y-80561739D01*
X144102782Y-80561739D01*
X144122347Y-80561739D01*
X144122347Y-80540000D01*
X144122347Y-80518260D01*
X144102782Y-80518260D01*
X144083217Y-80518260D01*
X144046260Y-80518260D01*
X144054534Y-80516465D01*
X144057084Y-80509394D01*
X144057130Y-80507391D01*
X144057130Y-80496521D01*
X144102782Y-80496521D01*
X144148434Y-80496521D01*
X144148434Y-80507391D01*
G37*
G36*
X144683217Y-80507391D02*
G01*
X144685013Y-80515665D01*
X144692083Y-80518214D01*
X144694086Y-80518260D01*
X144699615Y-80518667D01*
X144702856Y-80521107D01*
X144704419Y-80527413D01*
X144704916Y-80539416D01*
X144704956Y-80550869D01*
X144704956Y-80583478D01*
X144661478Y-80583478D01*
X144618000Y-80583478D01*
X144618000Y-80605217D01*
X144618000Y-80626956D01*
X144650608Y-80626956D01*
X144667194Y-80627091D01*
X144676917Y-80627905D01*
X144681607Y-80630007D01*
X144683097Y-80634008D01*
X144683217Y-80637826D01*
X144683217Y-80648695D01*
X144637565Y-80648695D01*
X144591913Y-80648695D01*
X144591913Y-80637826D01*
X144590117Y-80629552D01*
X144583046Y-80627002D01*
X144581043Y-80626956D01*
X144570173Y-80626956D01*
X144570173Y-80572608D01*
X144570173Y-80518260D01*
X144581043Y-80518260D01*
X144618000Y-80518260D01*
X144618000Y-80540000D01*
X144618000Y-80561739D01*
X144637565Y-80561739D01*
X144657130Y-80561739D01*
X144657130Y-80540000D01*
X144657130Y-80518260D01*
X144637565Y-80518260D01*
X144618000Y-80518260D01*
X144581043Y-80518260D01*
X144589317Y-80516465D01*
X144591867Y-80509394D01*
X144591913Y-80507391D01*
X144591913Y-80496521D01*
X144637565Y-80496521D01*
X144683217Y-80496521D01*
X144683217Y-80507391D01*
G37*
G36*
X144952782Y-77029130D02*
G01*
X144954578Y-77037404D01*
X144961649Y-77039954D01*
X144963652Y-77040000D01*
X144969180Y-77040406D01*
X144972421Y-77042846D01*
X144973985Y-77049152D01*
X144974481Y-77061155D01*
X144974521Y-77072608D01*
X144974521Y-77105217D01*
X144931043Y-77105217D01*
X144887565Y-77105217D01*
X144887565Y-77126956D01*
X144887565Y-77148695D01*
X144920173Y-77148695D01*
X144936760Y-77148831D01*
X144946482Y-77149644D01*
X144951172Y-77151746D01*
X144952662Y-77155747D01*
X144952782Y-77159565D01*
X144952782Y-77170434D01*
X144907130Y-77170434D01*
X144861478Y-77170434D01*
X144861478Y-77159565D01*
X144859682Y-77151291D01*
X144852611Y-77148741D01*
X144850608Y-77148695D01*
X144839739Y-77148695D01*
X144839739Y-77094347D01*
X144839739Y-77040000D01*
X144850608Y-77040000D01*
X144887565Y-77040000D01*
X144887565Y-77061739D01*
X144887565Y-77083478D01*
X144907130Y-77083478D01*
X144926695Y-77083478D01*
X144926695Y-77061739D01*
X144926695Y-77040000D01*
X144907130Y-77040000D01*
X144887565Y-77040000D01*
X144850608Y-77040000D01*
X144858882Y-77038204D01*
X144861432Y-77031133D01*
X144861478Y-77029130D01*
X144861478Y-77018260D01*
X144907130Y-77018260D01*
X144952782Y-77018260D01*
X144952782Y-77029130D01*
G37*
G36*
X143348434Y-77029130D02*
G01*
X143350230Y-77037404D01*
X143357301Y-77039954D01*
X143359304Y-77040000D01*
X143370173Y-77040000D01*
X143370173Y-77105217D01*
X143370173Y-77170434D01*
X143313652Y-77170434D01*
X143257130Y-77170434D01*
X143257130Y-77159565D01*
X143255334Y-77151291D01*
X143248263Y-77148741D01*
X143246260Y-77148695D01*
X143239809Y-77147990D01*
X143236591Y-77144393D01*
X143235494Y-77135680D01*
X143235391Y-77126956D01*
X143235743Y-77114054D01*
X143237542Y-77107618D01*
X143241898Y-77105423D01*
X143246260Y-77105217D01*
X143283217Y-77105217D01*
X143283217Y-77126956D01*
X143283217Y-77148695D01*
X143302782Y-77148695D01*
X143322347Y-77148695D01*
X143322347Y-77126956D01*
X143322347Y-77105217D01*
X143302782Y-77105217D01*
X143283217Y-77105217D01*
X143246260Y-77105217D01*
X143254534Y-77103421D01*
X143257084Y-77096350D01*
X143257130Y-77094347D01*
X143257536Y-77088819D01*
X143259977Y-77085578D01*
X143266282Y-77084014D01*
X143278285Y-77083518D01*
X143289739Y-77083478D01*
X143322347Y-77083478D01*
X143322347Y-77061739D01*
X143322347Y-77040000D01*
X143289739Y-77040000D01*
X143273152Y-77039864D01*
X143263430Y-77039051D01*
X143258740Y-77036949D01*
X143257250Y-77032948D01*
X143257130Y-77029130D01*
X143257130Y-77018260D01*
X143302782Y-77018260D01*
X143348434Y-77018260D01*
X143348434Y-77029130D01*
G37*
G36*
X143613652Y-80507391D02*
G01*
X143615447Y-80515665D01*
X143622518Y-80518214D01*
X143624521Y-80518260D01*
X143635391Y-80518260D01*
X143635391Y-80583478D01*
X143635391Y-80648695D01*
X143578869Y-80648695D01*
X143522347Y-80648695D01*
X143522347Y-80637826D01*
X143520552Y-80629552D01*
X143513481Y-80627002D01*
X143511478Y-80626956D01*
X143505027Y-80626251D01*
X143501809Y-80622654D01*
X143500711Y-80613941D01*
X143500608Y-80605217D01*
X143500961Y-80592315D01*
X143502759Y-80585878D01*
X143507116Y-80583684D01*
X143511478Y-80583478D01*
X143548434Y-80583478D01*
X143548434Y-80605217D01*
X143548434Y-80626956D01*
X143568000Y-80626956D01*
X143587565Y-80626956D01*
X143587565Y-80605217D01*
X143587565Y-80583478D01*
X143568000Y-80583478D01*
X143548434Y-80583478D01*
X143511478Y-80583478D01*
X143519752Y-80581682D01*
X143522301Y-80574611D01*
X143522347Y-80572608D01*
X143522754Y-80567079D01*
X143525194Y-80563839D01*
X143531500Y-80562275D01*
X143543503Y-80561779D01*
X143554956Y-80561739D01*
X143587565Y-80561739D01*
X143587565Y-80540000D01*
X143587565Y-80518260D01*
X143554956Y-80518260D01*
X143538370Y-80518125D01*
X143528647Y-80517311D01*
X143523957Y-80515210D01*
X143522467Y-80511209D01*
X143522347Y-80507391D01*
X143522347Y-80496521D01*
X143568000Y-80496521D01*
X143613652Y-80496521D01*
X143613652Y-80507391D01*
G37*
G36*
X144061478Y-77029130D02*
G01*
X144063274Y-77037404D01*
X144070344Y-77039954D01*
X144072347Y-77040000D01*
X144083217Y-77040000D01*
X144083217Y-77105217D01*
X144083217Y-77170434D01*
X144026695Y-77170434D01*
X143970173Y-77170434D01*
X143970173Y-77159565D01*
X143968378Y-77151291D01*
X143961307Y-77148741D01*
X143959304Y-77148695D01*
X143952853Y-77147990D01*
X143949635Y-77144393D01*
X143948537Y-77135680D01*
X143948434Y-77126956D01*
X143948787Y-77114054D01*
X143950585Y-77107618D01*
X143954942Y-77105423D01*
X143959304Y-77105217D01*
X143996260Y-77105217D01*
X143996260Y-77126956D01*
X143996260Y-77148695D01*
X144015826Y-77148695D01*
X144035391Y-77148695D01*
X144035391Y-77126956D01*
X144035391Y-77105217D01*
X144015826Y-77105217D01*
X143996260Y-77105217D01*
X143959304Y-77105217D01*
X143967578Y-77103421D01*
X143970128Y-77096350D01*
X143970173Y-77094347D01*
X143970580Y-77088819D01*
X143973020Y-77085578D01*
X143979326Y-77084014D01*
X143991329Y-77083518D01*
X144002782Y-77083478D01*
X144035391Y-77083478D01*
X144035391Y-77061739D01*
X144035391Y-77040000D01*
X144002782Y-77040000D01*
X143986196Y-77039864D01*
X143976474Y-77039051D01*
X143971783Y-77036949D01*
X143970293Y-77032948D01*
X143970173Y-77029130D01*
X143970173Y-77018260D01*
X144015826Y-77018260D01*
X144061478Y-77018260D01*
X144061478Y-77029130D01*
G37*
G36*
X144239739Y-77029130D02*
G01*
X144241534Y-77037404D01*
X144248605Y-77039954D01*
X144250608Y-77040000D01*
X144258882Y-77041795D01*
X144261432Y-77048866D01*
X144261478Y-77050869D01*
X144260857Y-77057094D01*
X144257576Y-77060336D01*
X144249507Y-77061561D01*
X144237565Y-77061739D01*
X144223869Y-77061456D01*
X144216738Y-77059965D01*
X144214043Y-77056298D01*
X144213652Y-77050869D01*
X144212841Y-77044162D01*
X144208855Y-77040984D01*
X144199364Y-77040041D01*
X144194086Y-77040000D01*
X144174521Y-77040000D01*
X144174521Y-77094347D01*
X144174521Y-77148695D01*
X144194086Y-77148695D01*
X144206160Y-77148245D01*
X144211880Y-77146030D01*
X144213577Y-77140757D01*
X144213652Y-77137826D01*
X144214272Y-77131600D01*
X144217553Y-77128359D01*
X144225622Y-77127134D01*
X144237565Y-77126956D01*
X144251260Y-77127238D01*
X144258391Y-77128729D01*
X144261086Y-77132397D01*
X144261478Y-77137826D01*
X144259682Y-77146100D01*
X144252611Y-77148649D01*
X144250608Y-77148695D01*
X144242334Y-77150491D01*
X144239785Y-77157562D01*
X144239739Y-77159565D01*
X144239739Y-77170434D01*
X144194086Y-77170434D01*
X144148434Y-77170434D01*
X144148434Y-77159565D01*
X144146639Y-77151291D01*
X144139568Y-77148741D01*
X144137565Y-77148695D01*
X144126695Y-77148695D01*
X144126695Y-77094347D01*
X144126695Y-77040000D01*
X144137565Y-77040000D01*
X144145839Y-77038204D01*
X144148388Y-77031133D01*
X144148434Y-77029130D01*
X144148434Y-77018260D01*
X144194086Y-77018260D01*
X144239739Y-77018260D01*
X144239739Y-77029130D01*
G37*
G36*
X143435391Y-80463913D02*
G01*
X143437187Y-80472187D01*
X143444257Y-80474736D01*
X143446260Y-80474782D01*
X143451789Y-80475188D01*
X143455030Y-80477629D01*
X143456593Y-80483935D01*
X143457090Y-80495938D01*
X143457130Y-80507391D01*
X143456994Y-80523977D01*
X143456181Y-80533699D01*
X143454079Y-80538390D01*
X143450078Y-80539880D01*
X143446260Y-80540000D01*
X143437986Y-80541795D01*
X143435437Y-80548866D01*
X143435391Y-80550869D01*
X143437187Y-80559143D01*
X143444257Y-80561693D01*
X143446260Y-80561739D01*
X143451789Y-80562145D01*
X143455030Y-80564585D01*
X143456593Y-80570891D01*
X143457090Y-80582894D01*
X143457130Y-80594347D01*
X143456994Y-80610933D01*
X143456181Y-80620656D01*
X143454079Y-80625346D01*
X143450078Y-80626836D01*
X143446260Y-80626956D01*
X143437986Y-80628752D01*
X143435437Y-80635822D01*
X143435391Y-80637826D01*
X143435391Y-80648695D01*
X143378869Y-80648695D01*
X143322347Y-80648695D01*
X143322347Y-80561739D01*
X143370173Y-80561739D01*
X143370173Y-80594347D01*
X143370173Y-80626956D01*
X143389739Y-80626956D01*
X143409304Y-80626956D01*
X143409304Y-80594347D01*
X143409304Y-80561739D01*
X143389739Y-80561739D01*
X143370173Y-80561739D01*
X143322347Y-80561739D01*
X143322347Y-80550869D01*
X143322347Y-80474782D01*
X143370173Y-80474782D01*
X143370173Y-80507391D01*
X143370173Y-80540000D01*
X143389739Y-80540000D01*
X143409304Y-80540000D01*
X143409304Y-80507391D01*
X143409304Y-80474782D01*
X143389739Y-80474782D01*
X143370173Y-80474782D01*
X143322347Y-80474782D01*
X143322347Y-80453043D01*
X143378869Y-80453043D01*
X143435391Y-80453043D01*
X143435391Y-80463913D01*
G37*
G36*
X143170173Y-76985652D02*
G01*
X143171969Y-76993926D01*
X143179040Y-76996475D01*
X143181043Y-76996521D01*
X143186572Y-76996928D01*
X143189812Y-76999368D01*
X143191376Y-77005674D01*
X143191873Y-77017677D01*
X143191913Y-77029130D01*
X143191777Y-77045716D01*
X143190964Y-77055438D01*
X143188862Y-77060129D01*
X143184861Y-77061619D01*
X143181043Y-77061739D01*
X143174592Y-77062443D01*
X143171374Y-77066040D01*
X143170276Y-77074753D01*
X143170173Y-77083478D01*
X143170526Y-77096380D01*
X143172324Y-77102816D01*
X143176681Y-77105011D01*
X143181043Y-77105217D01*
X143186572Y-77105623D01*
X143189812Y-77108064D01*
X143191376Y-77114369D01*
X143191873Y-77126372D01*
X143191913Y-77137826D01*
X143191913Y-77170434D01*
X143168000Y-77170434D01*
X143144086Y-77170434D01*
X143144086Y-77137826D01*
X143143951Y-77121239D01*
X143143138Y-77111517D01*
X143141036Y-77106827D01*
X143137035Y-77105337D01*
X143133217Y-77105217D01*
X143124943Y-77103421D01*
X143122393Y-77096350D01*
X143122347Y-77094347D01*
X143120309Y-77085824D01*
X143113652Y-77083478D01*
X143109694Y-77084074D01*
X143107160Y-77086914D01*
X143105736Y-77093570D01*
X143105107Y-77105617D01*
X143104957Y-77124627D01*
X143104956Y-77126956D01*
X143104956Y-77170434D01*
X143081043Y-77170434D01*
X143057130Y-77170434D01*
X143057130Y-77072608D01*
X143057130Y-76996521D01*
X143104956Y-76996521D01*
X143104956Y-77029130D01*
X143104956Y-77061739D01*
X143124521Y-77061739D01*
X143144086Y-77061739D01*
X143144086Y-77029130D01*
X143144086Y-76996521D01*
X143124521Y-76996521D01*
X143104956Y-76996521D01*
X143057130Y-76996521D01*
X143057130Y-76974782D01*
X143113652Y-76974782D01*
X143170173Y-76974782D01*
X143170173Y-76985652D01*
G37*
G36*
X144020173Y-78407686D02*
G01*
X144046409Y-78407939D01*
X144066092Y-78408600D01*
X144081361Y-78409930D01*
X144094359Y-78412190D01*
X144107226Y-78415641D01*
X144120173Y-78419881D01*
X144161835Y-78437071D01*
X144199362Y-78459171D01*
X144235033Y-78487636D01*
X144252959Y-78504787D01*
X144271441Y-78524131D01*
X144285295Y-78540788D01*
X144296599Y-78557604D01*
X144307433Y-78577424D01*
X144310457Y-78583478D01*
X144325963Y-78618071D01*
X144336438Y-78649902D01*
X144342630Y-78682208D01*
X144345283Y-78718224D01*
X144345522Y-78735652D01*
X144342844Y-78783575D01*
X144334341Y-78826729D01*
X144319311Y-78867315D01*
X144297051Y-78907535D01*
X144284986Y-78925400D01*
X144251579Y-78965087D01*
X144211971Y-78998773D01*
X144166447Y-79026247D01*
X144123376Y-79044537D01*
X144104682Y-79050722D01*
X144088337Y-79054849D01*
X144071333Y-79057420D01*
X144050663Y-79058939D01*
X144033217Y-79059620D01*
X144010306Y-79059972D01*
X143988284Y-79059662D01*
X143969897Y-79058764D01*
X143959304Y-79057616D01*
X143916411Y-79046607D01*
X143873278Y-79028462D01*
X143832246Y-79004346D01*
X143797233Y-78976867D01*
X143760482Y-78937956D01*
X143731188Y-78895094D01*
X143709484Y-78849022D01*
X143695506Y-78800482D01*
X143689388Y-78750216D01*
X143691267Y-78698964D01*
X143701275Y-78647470D01*
X143719550Y-78596473D01*
X143725627Y-78583478D01*
X143736577Y-78562498D01*
X143747423Y-78545288D01*
X143760231Y-78529017D01*
X143777067Y-78510856D01*
X143783040Y-78504787D01*
X143817652Y-78473352D01*
X143852740Y-78448868D01*
X143890723Y-78429809D01*
X143918000Y-78419644D01*
X143933184Y-78414823D01*
X143946159Y-78411471D01*
X143959093Y-78409335D01*
X143974155Y-78408161D01*
X143993513Y-78407694D01*
X144019335Y-78407682D01*
X144020173Y-78407686D01*
G37*
G36*
X143185061Y-77300146D02*
G01*
X143191755Y-77310409D01*
X143201634Y-77326387D01*
X143214140Y-77347161D01*
X143228716Y-77371811D01*
X143244804Y-77399415D01*
X143251292Y-77410652D01*
X143270821Y-77444543D01*
X143291693Y-77480728D01*
X143312743Y-77517190D01*
X143332804Y-77551910D01*
X143350712Y-77582870D01*
X143363656Y-77605217D01*
X143381258Y-77635598D01*
X143401490Y-77670558D01*
X143422643Y-77707142D01*
X143443009Y-77742395D01*
X143459191Y-77770434D01*
X143496811Y-77835658D01*
X143532710Y-77897883D01*
X143566621Y-77956645D01*
X143598276Y-78011481D01*
X143627405Y-78061926D01*
X143653742Y-78107516D01*
X143677018Y-78147787D01*
X143696965Y-78182276D01*
X143713315Y-78210517D01*
X143725800Y-78232048D01*
X143732647Y-78243824D01*
X143743368Y-78262606D01*
X143752242Y-78278885D01*
X143758448Y-78291101D01*
X143761167Y-78297696D01*
X143761223Y-78298171D01*
X143757672Y-78302627D01*
X143748457Y-78310178D01*
X143735348Y-78319414D01*
X143730941Y-78322289D01*
X143713075Y-78335270D01*
X143691897Y-78353002D01*
X143669552Y-78373463D01*
X143648184Y-78394634D01*
X143629938Y-78414494D01*
X143619856Y-78426956D01*
X143586317Y-78476685D01*
X143559948Y-78526552D01*
X143540117Y-78578282D01*
X143526191Y-78633601D01*
X143517537Y-78694234D01*
X143516190Y-78709565D01*
X143514654Y-78729130D01*
X142936158Y-78730233D01*
X142865943Y-78730340D01*
X142798135Y-78730392D01*
X142733243Y-78730391D01*
X142671773Y-78730338D01*
X142614232Y-78730237D01*
X142561128Y-78730088D01*
X142512968Y-78729895D01*
X142470259Y-78729660D01*
X142433508Y-78729384D01*
X142403223Y-78729071D01*
X142379911Y-78728721D01*
X142364079Y-78728337D01*
X142356233Y-78727922D01*
X142355446Y-78727749D01*
X142354871Y-78722230D01*
X142354865Y-78709545D01*
X142355351Y-78691200D01*
X142356252Y-78668700D01*
X142357488Y-78643552D01*
X142358983Y-78617262D01*
X142360658Y-78591334D01*
X142362436Y-78567276D01*
X142364238Y-78546591D01*
X142365388Y-78535652D01*
X142381957Y-78422345D01*
X142405000Y-78313942D01*
X142434886Y-78209150D01*
X142471986Y-78106679D01*
X142516669Y-78005238D01*
X142518675Y-78001067D01*
X142571798Y-77899954D01*
X142631047Y-77804275D01*
X142696817Y-77713533D01*
X142769506Y-77627233D01*
X142849511Y-77544879D01*
X142937228Y-77465974D01*
X142966004Y-77442173D01*
X142983973Y-77428093D01*
X143005543Y-77411988D01*
X143029628Y-77394591D01*
X143055142Y-77376632D01*
X143081001Y-77358844D01*
X143106121Y-77341957D01*
X143129415Y-77326703D01*
X143149798Y-77313813D01*
X143166186Y-77304018D01*
X143177494Y-77298050D01*
X143182111Y-77296521D01*
X143185061Y-77300146D01*
G37*
G36*
X144855710Y-77297956D02*
G01*
X144866386Y-77303332D01*
X144882119Y-77312555D01*
X144901933Y-77324970D01*
X144924857Y-77339921D01*
X144949916Y-77356756D01*
X144976137Y-77374818D01*
X145002546Y-77393454D01*
X145028170Y-77412008D01*
X145052036Y-77429828D01*
X145073170Y-77446257D01*
X145074465Y-77447292D01*
X145104568Y-77472485D01*
X145138150Y-77502421D01*
X145173595Y-77535520D01*
X145209287Y-77570198D01*
X145243608Y-77604874D01*
X145274943Y-77637965D01*
X145301675Y-77667889D01*
X145310443Y-77678286D01*
X145381863Y-77771482D01*
X145445893Y-77869141D01*
X145502429Y-77970981D01*
X145551369Y-78076719D01*
X145592608Y-78186075D01*
X145626046Y-78298767D01*
X145651577Y-78414513D01*
X145669100Y-78533032D01*
X145678511Y-78654042D01*
X145679666Y-78687826D01*
X145680693Y-78729130D01*
X145103564Y-78730233D01*
X145018058Y-78730382D01*
X144940875Y-78730483D01*
X144871641Y-78730533D01*
X144809983Y-78730530D01*
X144755528Y-78730471D01*
X144707903Y-78730354D01*
X144666734Y-78730174D01*
X144631650Y-78729930D01*
X144602276Y-78729619D01*
X144578239Y-78729237D01*
X144559166Y-78728783D01*
X144544685Y-78728253D01*
X144534421Y-78727645D01*
X144528003Y-78726955D01*
X144525056Y-78726181D01*
X144524774Y-78725885D01*
X144523543Y-78719396D01*
X144521610Y-78706483D01*
X144519297Y-78689360D01*
X144518001Y-78679130D01*
X144508933Y-78624314D01*
X144495519Y-78574651D01*
X144476820Y-78527616D01*
X144451897Y-78480686D01*
X144433130Y-78450869D01*
X144409914Y-78418952D01*
X144383481Y-78388899D01*
X144352522Y-78359442D01*
X144315729Y-78329315D01*
X144281490Y-78304075D01*
X144279656Y-78302922D01*
X144278189Y-78301790D01*
X144277396Y-78300094D01*
X144277585Y-78297248D01*
X144279063Y-78292668D01*
X144282139Y-78285768D01*
X144287120Y-78275962D01*
X144294313Y-78262664D01*
X144304026Y-78245290D01*
X144316568Y-78223254D01*
X144332244Y-78195970D01*
X144351364Y-78162853D01*
X144374234Y-78123318D01*
X144398545Y-78081304D01*
X144410777Y-78060134D01*
X144425489Y-78034634D01*
X144440831Y-78008013D01*
X144454952Y-77983481D01*
X144454954Y-77983478D01*
X144469409Y-77958362D01*
X144486216Y-77929191D01*
X144503372Y-77899436D01*
X144518877Y-77872569D01*
X144520110Y-77870434D01*
X144534425Y-77845637D01*
X144551374Y-77816260D01*
X144569251Y-77785258D01*
X144586354Y-77755588D01*
X144594082Y-77742173D01*
X144609149Y-77716032D01*
X144624884Y-77688752D01*
X144639910Y-77662724D01*
X144652848Y-77640333D01*
X144659330Y-77629130D01*
X144678162Y-77596575D01*
X144700094Y-77558612D01*
X144723895Y-77517371D01*
X144748337Y-77474987D01*
X144772190Y-77433591D01*
X144794224Y-77395315D01*
X144813209Y-77362292D01*
X144813527Y-77361739D01*
X144825613Y-77340735D01*
X144836149Y-77322500D01*
X144844392Y-77308314D01*
X144849600Y-77299454D01*
X144851063Y-77297080D01*
X144855710Y-77297956D01*
G37*
G36*
X143776715Y-79176609D02*
G01*
X143787426Y-79181288D01*
X143795318Y-79185126D01*
X143847584Y-79207065D01*
X143904531Y-79222892D01*
X143964302Y-79232230D01*
X144025039Y-79234701D01*
X144037172Y-79234336D01*
X144077880Y-79231662D01*
X144113121Y-79226953D01*
X144146012Y-79219545D01*
X144179675Y-79208774D01*
X144207130Y-79198161D01*
X144226509Y-79190297D01*
X144243363Y-79183541D01*
X144255816Y-79178642D01*
X144261839Y-79176393D01*
X144264789Y-79177132D01*
X144269200Y-79181272D01*
X144275448Y-79189403D01*
X144283905Y-79202115D01*
X144294945Y-79220000D01*
X144308942Y-79243646D01*
X144326270Y-79273645D01*
X144347302Y-79310586D01*
X144351647Y-79318260D01*
X144356209Y-79326227D01*
X144364422Y-79340472D01*
X144375569Y-79359756D01*
X144388932Y-79382836D01*
X144403795Y-79408475D01*
X144414518Y-79426956D01*
X144441698Y-79473815D01*
X144468421Y-79519967D01*
X144495524Y-79566861D01*
X144523845Y-79615949D01*
X144554220Y-79668681D01*
X144587487Y-79726507D01*
X144612737Y-79770434D01*
X144665980Y-79862926D01*
X144721882Y-79959726D01*
X144778624Y-80057688D01*
X144789805Y-80076956D01*
X144807104Y-80106809D01*
X144820455Y-80129990D01*
X144830319Y-80147323D01*
X144837154Y-80159632D01*
X144841419Y-80167742D01*
X144843573Y-80172478D01*
X144844086Y-80174479D01*
X144840378Y-80177573D01*
X144830109Y-80183761D01*
X144814561Y-80192382D01*
X144795018Y-80202778D01*
X144772761Y-80214288D01*
X144749074Y-80226253D01*
X144725239Y-80238012D01*
X144702538Y-80248907D01*
X144682255Y-80258276D01*
X144674521Y-80261705D01*
X144625840Y-80281889D01*
X144573921Y-80301548D01*
X144520628Y-80320087D01*
X144467819Y-80336908D01*
X144417358Y-80351416D01*
X144371105Y-80363015D01*
X144335391Y-80370336D01*
X144265085Y-80381996D01*
X144201050Y-80390852D01*
X144141375Y-80397051D01*
X144084153Y-80400743D01*
X144027474Y-80402075D01*
X143969429Y-80401196D01*
X143948434Y-80400393D01*
X143874497Y-80395642D01*
X143806409Y-80388158D01*
X143760162Y-80380864D01*
X143740049Y-80377232D01*
X143720072Y-80373662D01*
X143704205Y-80370863D01*
X143702782Y-80370616D01*
X143660730Y-80361963D01*
X143612778Y-80349747D01*
X143560679Y-80334531D01*
X143506187Y-80316876D01*
X143451057Y-80297344D01*
X143397042Y-80276499D01*
X143357130Y-80259826D01*
X143340093Y-80252130D01*
X143319681Y-80242423D01*
X143297211Y-80231386D01*
X143274000Y-80219702D01*
X143251364Y-80208051D01*
X143230619Y-80197116D01*
X143213082Y-80187577D01*
X143200069Y-80180116D01*
X143192897Y-80175414D01*
X143191913Y-80174300D01*
X143191937Y-80173495D01*
X143192228Y-80172342D01*
X143193112Y-80170269D01*
X143194915Y-80166703D01*
X143197964Y-80161069D01*
X143202584Y-80152794D01*
X143209103Y-80141304D01*
X143217845Y-80126026D01*
X143229138Y-80106386D01*
X143243309Y-80081812D01*
X143260682Y-80051728D01*
X143281585Y-80015562D01*
X143306344Y-79972740D01*
X143320875Y-79947608D01*
X143333977Y-79924941D01*
X143350020Y-79897169D01*
X143367602Y-79866722D01*
X143385320Y-79836029D01*
X143400592Y-79809565D01*
X143413579Y-79787058D01*
X143427660Y-79762664D01*
X143443190Y-79735766D01*
X143460527Y-79705748D01*
X143480027Y-79671992D01*
X143502045Y-79633881D01*
X143526940Y-79590799D01*
X143555066Y-79542128D01*
X143586780Y-79487251D01*
X143622440Y-79425553D01*
X143627911Y-79416086D01*
X143642371Y-79391064D01*
X143655778Y-79367857D01*
X143667372Y-79347780D01*
X143676395Y-79332148D01*
X143682088Y-79322274D01*
X143683146Y-79320434D01*
X143705016Y-79282402D01*
X143722981Y-79251306D01*
X143737422Y-79226519D01*
X143748716Y-79207409D01*
X143757243Y-79193346D01*
X143763383Y-79183702D01*
X143767515Y-79177846D01*
X143770019Y-79175148D01*
X143770856Y-79174782D01*
X143776715Y-79176609D01*
G37*
D14*
%TO.C,RF OUT*%
X141199000Y-101203000D02*
X141199000Y-99203000D01*
X143399000Y-97003000D02*
X145399000Y-97003000D01*
X145399000Y-103403000D02*
X143399000Y-103403000D01*
X147599000Y-99203000D02*
X147599000Y-101203000D01*
D13*
%TO.C,REF\u002A\u002A*%
X150227000Y-76761000D02*
X151287000Y-76761000D01*
X150227000Y-77821000D02*
X150227000Y-76761000D01*
X150227000Y-78821000D02*
X150227000Y-92881000D01*
X150227000Y-78821000D02*
X152347000Y-78821000D01*
X150227000Y-92881000D02*
X152347000Y-92881000D01*
X152347000Y-78821000D02*
X152347000Y-92881000D01*
X136227000Y-76711000D02*
X137287000Y-76711000D01*
X136227000Y-77771000D02*
X136227000Y-76711000D01*
X136227000Y-78771000D02*
X136227000Y-92831000D01*
X136227000Y-78771000D02*
X138347000Y-78771000D01*
X136227000Y-92831000D02*
X138347000Y-92831000D01*
X138347000Y-78771000D02*
X138347000Y-92831000D01*
X128457000Y-90220000D02*
X127127000Y-90220000D01*
X128457000Y-88890000D02*
X128457000Y-90220000D01*
X128457000Y-87620000D02*
X128457000Y-79940000D01*
X128457000Y-87620000D02*
X125797000Y-87620000D01*
X128457000Y-79940000D02*
X125797000Y-79940000D01*
X125797000Y-87620000D02*
X125797000Y-79940000D01*
X154270400Y-72279200D02*
X155600400Y-72279200D01*
X154270400Y-73609200D02*
X154270400Y-72279200D01*
X154270400Y-74879200D02*
X154270400Y-92719200D01*
X154270400Y-74879200D02*
X156930400Y-74879200D01*
X154270400Y-92719200D02*
X156930400Y-92719200D01*
X156930400Y-74879200D02*
X156930400Y-92719200D01*
X150943000Y-73202000D02*
X150943000Y-73077000D01*
X150943000Y-73202000D02*
X151029724Y-73202000D01*
X152246276Y-73202000D02*
X152333000Y-73202000D01*
X152333000Y-73202000D02*
X152333000Y-73077000D01*
%TO.C,PWR*%
X134493000Y-97215000D02*
X131893000Y-97215000D01*
X131893000Y-94555000D02*
X131893000Y-97215000D01*
X134493000Y-94555000D02*
X134493000Y-97215000D01*
X134493000Y-94555000D02*
X131893000Y-94555000D01*
X135763000Y-94555000D02*
X137093000Y-94555000D01*
X137093000Y-94555000D02*
X137093000Y-95885000D01*
%TO.C,REF\u002A\u002A*%
X152229000Y-99159000D02*
X153289000Y-99159000D01*
X152229000Y-100219000D02*
X152229000Y-99159000D01*
X152229000Y-101219000D02*
X152229000Y-103279000D01*
X152229000Y-101219000D02*
X154349000Y-101219000D01*
X152229000Y-103279000D02*
X154349000Y-103279000D01*
X154349000Y-101219000D02*
X154349000Y-103279000D01*
%TO.C,G\u002A\u002A\u002A*%
G36*
X145812793Y-94189311D02*
G01*
X145813983Y-94238215D01*
X145804996Y-94305505D01*
X145786831Y-94386086D01*
X145760488Y-94474865D01*
X145726968Y-94566747D01*
X145687269Y-94656636D01*
X145674987Y-94681133D01*
X145603284Y-94800561D01*
X145527694Y-94890130D01*
X145450324Y-94947895D01*
X145373280Y-94971910D01*
X145359536Y-94972498D01*
X145321864Y-94967709D01*
X145312944Y-94955109D01*
X145313479Y-94954146D01*
X145336688Y-94935285D01*
X145378416Y-94913464D01*
X145384239Y-94910967D01*
X145434502Y-94882152D01*
X145488765Y-94839917D01*
X145505031Y-94824602D01*
X145557317Y-94758378D01*
X145610979Y-94667080D01*
X145661788Y-94560805D01*
X145705512Y-94449648D01*
X145737918Y-94343706D01*
X145754777Y-94253074D01*
X145756227Y-94225226D01*
X145763212Y-94185783D01*
X145775881Y-94167040D01*
X145800426Y-94163888D01*
X145812793Y-94189311D01*
G37*
G36*
X143659381Y-94122916D02*
G01*
X143675375Y-94169901D01*
X143692568Y-94252222D01*
X143693606Y-94258074D01*
X143733987Y-94423889D01*
X143793754Y-94564131D01*
X143876357Y-94685682D01*
X143944635Y-94758603D01*
X144026558Y-94830726D01*
X144095336Y-94876696D01*
X144147260Y-94898186D01*
X144210576Y-94918449D01*
X144269134Y-94940168D01*
X144282847Y-94945984D01*
X144312014Y-94959772D01*
X144317073Y-94966942D01*
X144294031Y-94969605D01*
X144238895Y-94969871D01*
X144237651Y-94969867D01*
X144167570Y-94964560D01*
X144101245Y-94951425D01*
X144074946Y-94942545D01*
X144033660Y-94917683D01*
X143977214Y-94874240D01*
X143915289Y-94819904D01*
X143889656Y-94795371D01*
X143818835Y-94720672D01*
X143768344Y-94653397D01*
X143728853Y-94580298D01*
X143713662Y-94545538D01*
X143682678Y-94460579D01*
X143656574Y-94369346D01*
X143637182Y-94280834D01*
X143626333Y-94204041D01*
X143625858Y-94147963D01*
X143629480Y-94131978D01*
X143644209Y-94110522D01*
X143659381Y-94122916D01*
G37*
G36*
X144228136Y-94114214D02*
G01*
X144264724Y-94153520D01*
X144264800Y-94153621D01*
X144333075Y-94235292D01*
X144402805Y-94292881D01*
X144482091Y-94330003D01*
X144579032Y-94350272D01*
X144701727Y-94357305D01*
X144721442Y-94357439D01*
X144835976Y-94354035D01*
X144926141Y-94340382D01*
X145003236Y-94312153D01*
X145078561Y-94265023D01*
X145163414Y-94194665D01*
X145175879Y-94183456D01*
X145230949Y-94135026D01*
X145265809Y-94108990D01*
X145285950Y-94102313D01*
X145296865Y-94111961D01*
X145298478Y-94115722D01*
X145291991Y-94144378D01*
X145261603Y-94186664D01*
X145213750Y-94236536D01*
X145154867Y-94287952D01*
X145091390Y-94334868D01*
X145029755Y-94371243D01*
X145022729Y-94374640D01*
X144957208Y-94394585D01*
X144866819Y-94407798D01*
X144762181Y-94414214D01*
X144653911Y-94413769D01*
X144552628Y-94406400D01*
X144468949Y-94392042D01*
X144427473Y-94378232D01*
X144371404Y-94344776D01*
X144310218Y-94296358D01*
X144253317Y-94241836D01*
X144210105Y-94190073D01*
X144191455Y-94155824D01*
X144186045Y-94115530D01*
X144200091Y-94101605D01*
X144228136Y-94114214D01*
G37*
G36*
X143913262Y-94067372D02*
G01*
X143938175Y-94124921D01*
X143946823Y-94149936D01*
X143986228Y-94254313D01*
X144033811Y-94358616D01*
X144084604Y-94453302D01*
X144133639Y-94528828D01*
X144161666Y-94562562D01*
X144271554Y-94650443D01*
X144404689Y-94710980D01*
X144561413Y-94744314D01*
X144608662Y-94748729D01*
X144798018Y-94746808D01*
X144970045Y-94713482D01*
X145123917Y-94649213D01*
X145258806Y-94554467D01*
X145373885Y-94429708D01*
X145468328Y-94275399D01*
X145474406Y-94262958D01*
X145506841Y-94198294D01*
X145535140Y-94146838D01*
X145554630Y-94116918D01*
X145558559Y-94113042D01*
X145579710Y-94110120D01*
X145584717Y-94134930D01*
X145574289Y-94183215D01*
X145549134Y-94250720D01*
X145527843Y-94297486D01*
X145470616Y-94400451D01*
X145400465Y-94493710D01*
X145332179Y-94566954D01*
X145230972Y-94657318D01*
X145129020Y-94722646D01*
X145017826Y-94766333D01*
X144888893Y-94791775D01*
X144743843Y-94802092D01*
X144654218Y-94803030D01*
X144568566Y-94800972D01*
X144499336Y-94796348D01*
X144471573Y-94792653D01*
X144374189Y-94763909D01*
X144269832Y-94715415D01*
X144173455Y-94655128D01*
X144107431Y-94598958D01*
X144067743Y-94548858D01*
X144024979Y-94480134D01*
X143982050Y-94399553D01*
X143941866Y-94313882D01*
X143907337Y-94229890D01*
X143881372Y-94154344D01*
X143866883Y-94094011D01*
X143866778Y-94055660D01*
X143870776Y-94048582D01*
X143891355Y-94042671D01*
X143913262Y-94067372D01*
G37*
G36*
X144877949Y-92287936D02*
G01*
X144969822Y-92320913D01*
X145095560Y-92397507D01*
X145203164Y-92500048D01*
X145285002Y-92620942D01*
X145297967Y-92647442D01*
X145323719Y-92709131D01*
X145339064Y-92764478D01*
X145346546Y-92827183D01*
X145348713Y-92910940D01*
X145348735Y-92920612D01*
X145347177Y-93006581D01*
X145340637Y-93069962D01*
X145326617Y-93124235D01*
X145302622Y-93182883D01*
X145298521Y-93191786D01*
X145217600Y-93326489D01*
X145112886Y-93434084D01*
X144985233Y-93513845D01*
X144871248Y-93556002D01*
X144761921Y-93586397D01*
X144761921Y-93746138D01*
X144761921Y-93905879D01*
X144870391Y-93905879D01*
X144978861Y-93905879D01*
X144978861Y-94050505D01*
X144978861Y-94195131D01*
X144716726Y-94195131D01*
X144454590Y-94195131D01*
X144454590Y-94050505D01*
X144454590Y-93960114D01*
X144508825Y-93960114D01*
X144508825Y-94050505D01*
X144508825Y-94140897D01*
X144716726Y-94140897D01*
X144924626Y-94140897D01*
X144924626Y-94050505D01*
X144924626Y-93960114D01*
X144716726Y-93960114D01*
X144508825Y-93960114D01*
X144454590Y-93960114D01*
X144454590Y-93905879D01*
X144563060Y-93905879D01*
X144671530Y-93905879D01*
X144671530Y-93745320D01*
X144671530Y-93584762D01*
X144587962Y-93563719D01*
X144443452Y-93510274D01*
X144319251Y-93430137D01*
X144218084Y-93327451D01*
X144142672Y-93206362D01*
X144095741Y-93071016D01*
X144080013Y-92925557D01*
X144080575Y-92919627D01*
X144172396Y-92919627D01*
X144184126Y-93042073D01*
X144217260Y-93151721D01*
X144223298Y-93164669D01*
X144301928Y-93286635D01*
X144404667Y-93382049D01*
X144519488Y-93445294D01*
X144644889Y-93481936D01*
X144766339Y-93484865D01*
X144892434Y-93454215D01*
X144900436Y-93451274D01*
X145010851Y-93393494D01*
X145110045Y-93310630D01*
X145188065Y-93211883D01*
X145215996Y-93159494D01*
X145247270Y-93057218D01*
X145260182Y-92940322D01*
X145254621Y-92822623D01*
X145230477Y-92717941D01*
X145219739Y-92691457D01*
X145145040Y-92568081D01*
X145048047Y-92471509D01*
X144932090Y-92403925D01*
X144800499Y-92367514D01*
X144716726Y-92361537D01*
X144577521Y-92378512D01*
X144451923Y-92427904D01*
X144343432Y-92507416D01*
X144255547Y-92614749D01*
X144214205Y-92691457D01*
X144182334Y-92798162D01*
X144172396Y-92919627D01*
X144080575Y-92919627D01*
X144091184Y-92807610D01*
X144135683Y-92656930D01*
X144208947Y-92526116D01*
X144308902Y-92417901D01*
X144433475Y-92335016D01*
X144459394Y-92322521D01*
X144595303Y-92279244D01*
X144737752Y-92267706D01*
X144877949Y-92287936D01*
G37*
%TO.C,REF\u002A\u002A*%
X131410400Y-72279200D02*
X132740400Y-72279200D01*
X131410400Y-73609200D02*
X131410400Y-72279200D01*
X131410400Y-74879200D02*
X131410400Y-92719200D01*
X131410400Y-74879200D02*
X134070400Y-74879200D01*
X131410400Y-92719200D02*
X134070400Y-92719200D01*
X134070400Y-74879200D02*
X134070400Y-92719200D01*
X139386000Y-74863000D02*
X139386000Y-73533000D01*
X140716000Y-74863000D02*
X139386000Y-74863000D01*
X141986000Y-74863000D02*
X149666000Y-74863000D01*
X141986000Y-74863000D02*
X141986000Y-72203000D01*
X149666000Y-74863000D02*
X149666000Y-72203000D01*
X141986000Y-72203000D02*
X149666000Y-72203000D01*
X149054000Y-99159000D02*
X150114000Y-99159000D01*
X149054000Y-100219000D02*
X149054000Y-99159000D01*
X149054000Y-101219000D02*
X149054000Y-103279000D01*
X149054000Y-101219000D02*
X151174000Y-101219000D01*
X149054000Y-103279000D02*
X151174000Y-103279000D01*
X151174000Y-101219000D02*
X151174000Y-103279000D01*
%TD*%
M02*
