%TF.GenerationSoftware,KiCad,Pcbnew,7.0.7*%
%TF.CreationDate,2024-01-13T12:59:25-05:00*%
%TF.ProjectId,sx7_footprints,7378375f-666f-46f7-9470-72696e74732e,rev?*%
%TF.SameCoordinates,Original*%
%TF.FileFunction,Profile,NP*%
%FSLAX46Y46*%
G04 Gerber Fmt 4.6, Leading zero omitted, Abs format (unit mm)*
G04 Created by KiCad (PCBNEW 7.0.7) date 2024-01-13 12:59:25*
%MOMM*%
%LPD*%
G01*
G04 APERTURE LIST*
%TA.AperFunction,Profile*%
%ADD10C,0.100000*%
%TD*%
G04 APERTURE END LIST*
D10*
X137668000Y-99060000D02*
X140335000Y-99060000D01*
X137668000Y-105410000D02*
X137668000Y-99060000D01*
X131191000Y-105410000D02*
X137668000Y-105410000D01*
X131191000Y-101092000D02*
X131191000Y-105410000D01*
X133604000Y-101092000D02*
X131191000Y-101092000D01*
X133604000Y-99060000D02*
X133604000Y-101092000D01*
X130810000Y-99060000D02*
X133604000Y-99060000D01*
X140335000Y-99060000D02*
X140335000Y-103759000D01*
X130810000Y-71501000D02*
X157480000Y-71501000D01*
X129667000Y-73025000D02*
X124968000Y-73025000D01*
X140335000Y-104013000D02*
X148082000Y-104013000D01*
X129667000Y-90932000D02*
X129667000Y-89027000D01*
X124968000Y-90932000D02*
X129667000Y-90932000D01*
X124968000Y-73025000D02*
X124968000Y-73279000D01*
X154813000Y-101727000D02*
X154813000Y-98806000D01*
X159258000Y-93599000D02*
X157480000Y-93599000D01*
X140335000Y-103759000D02*
X140335000Y-104013000D01*
X129667000Y-73025000D02*
X129667000Y-74041000D01*
X148082000Y-104013000D02*
X154813000Y-104013000D01*
X154813000Y-98806000D02*
X159258000Y-98806000D01*
X130810000Y-74041000D02*
X130810000Y-71501000D01*
X130810000Y-89027000D02*
X130810000Y-99060000D01*
X124968000Y-73279000D02*
X124968000Y-90932000D01*
X129667000Y-74041000D02*
X130810000Y-74041000D01*
X129667000Y-89027000D02*
X130810000Y-89027000D01*
X157480000Y-93599000D02*
X157480000Y-71501000D01*
X154813000Y-104013000D02*
X154813000Y-101727000D01*
X159258000Y-98806000D02*
X159258000Y-93599000D01*
M02*
