%TF.GenerationSoftware,KiCad,Pcbnew,7.0.7*%
%TF.CreationDate,2024-01-13T12:59:24-05:00*%
%TF.ProjectId,sx7_footprints,7378375f-666f-46f7-9470-72696e74732e,rev?*%
%TF.SameCoordinates,Original*%
%TF.FileFunction,Copper,L3,Inr*%
%TF.FilePolarity,Positive*%
%FSLAX46Y46*%
G04 Gerber Fmt 4.6, Leading zero omitted, Abs format (unit mm)*
G04 Created by KiCad (PCBNEW 7.0.7) date 2024-01-13 12:59:24*
%MOMM*%
%LPD*%
G01*
G04 APERTURE LIST*
%TA.AperFunction,ComponentPad*%
%ADD10R,1.700000X1.700000*%
%TD*%
%TA.AperFunction,ComponentPad*%
%ADD11O,1.700000X1.700000*%
%TD*%
%TA.AperFunction,ComponentPad*%
%ADD12R,0.850000X0.850000*%
%TD*%
%TA.AperFunction,ComponentPad*%
%ADD13R,1.905000X2.000000*%
%TD*%
%TA.AperFunction,ComponentPad*%
%ADD14O,1.905000X2.000000*%
%TD*%
%TA.AperFunction,ComponentPad*%
%ADD15C,1.508000*%
%TD*%
%TA.AperFunction,ComponentPad*%
%ADD16C,1.920000*%
%TD*%
%TA.AperFunction,ComponentPad*%
%ADD17R,1.350000X1.350000*%
%TD*%
%TA.AperFunction,ComponentPad*%
%ADD18O,1.350000X1.350000*%
%TD*%
%TA.AperFunction,Conductor*%
%ADD19C,0.250000*%
%TD*%
G04 APERTURE END LIST*
D10*
%TO.N,N/C*%
%TO.C,PWR*%
X135763000Y-103378000D03*
D11*
X133223000Y-103378000D03*
%TD*%
D12*
%TO.N,N/C*%
%TO.C,REF\u002A\u002A*%
X135763000Y-72517000D03*
%TD*%
D10*
%TO.N,N/C*%
%TO.C,REF\u002A\u002A*%
X127127000Y-75184000D03*
D11*
X127127000Y-77724000D03*
%TD*%
D13*
%TO.N,N/C*%
%TO.C,REF\u002A\u002A*%
X156464000Y-95194000D03*
D14*
X153924000Y-95194000D03*
X151384000Y-95194000D03*
%TD*%
D15*
%TO.N,N/C*%
%TO.C,RF OUT*%
X144399000Y-100203000D03*
D16*
X141999000Y-97803000D03*
X141999000Y-102603000D03*
X146799000Y-102603000D03*
X146799000Y-97803000D03*
%TD*%
D17*
%TO.N,N/C*%
%TO.C,REF\u002A\u002A*%
X151287000Y-77821000D03*
D18*
X151287000Y-79821000D03*
X151287000Y-81821000D03*
X151287000Y-83821000D03*
X151287000Y-85821000D03*
X151287000Y-87821000D03*
X151287000Y-89821000D03*
X151287000Y-91821000D03*
%TD*%
D17*
%TO.N,N/C*%
%TO.C,REF\u002A\u002A*%
X137287000Y-77771000D03*
D18*
X137287000Y-79771000D03*
X137287000Y-81771000D03*
X137287000Y-83771000D03*
X137287000Y-85771000D03*
X137287000Y-87771000D03*
X137287000Y-89771000D03*
X137287000Y-91771000D03*
%TD*%
D10*
%TO.N,N/C*%
%TO.C,REF\u002A\u002A*%
X127127000Y-88890000D03*
D11*
X127127000Y-86350000D03*
X127127000Y-83810000D03*
X127127000Y-81270000D03*
%TD*%
D10*
%TO.N,N/C*%
%TO.C,REF\u002A\u002A*%
X155600400Y-73609200D03*
D11*
X155600400Y-76149200D03*
X155600400Y-78689200D03*
X155600400Y-81229200D03*
X155600400Y-83769200D03*
X155600400Y-86309200D03*
X155600400Y-88849200D03*
X155600400Y-91389200D03*
%TD*%
D12*
%TO.N,N/C*%
%TO.C,REF\u002A\u002A*%
X151638000Y-72517000D03*
%TD*%
D11*
%TO.N,N/C*%
%TO.C,PWR*%
X133223000Y-95885000D03*
D10*
X135763000Y-95885000D03*
%TD*%
D17*
%TO.N,N/C*%
%TO.C,REF\u002A\u002A*%
X153289000Y-100219000D03*
D18*
X153289000Y-102219000D03*
%TD*%
D10*
%TO.N,N/C*%
%TO.C,REF\u002A\u002A*%
X132740400Y-73609200D03*
D11*
X132740400Y-76149200D03*
X132740400Y-78689200D03*
X132740400Y-81229200D03*
X132740400Y-83769200D03*
X132740400Y-86309200D03*
X132740400Y-88849200D03*
X132740400Y-91389200D03*
%TD*%
D10*
%TO.N,N/C*%
%TO.C,REF\u002A\u002A*%
X140716000Y-73533000D03*
D11*
X143256000Y-73533000D03*
X145796000Y-73533000D03*
X148336000Y-73533000D03*
%TD*%
D17*
%TO.N,N/C*%
%TO.C,REF\u002A\u002A*%
X150114000Y-100219000D03*
D18*
X150114000Y-102219000D03*
%TD*%
D19*
%TO.N,*%
X151287000Y-83821000D02*
X147065000Y-83821000D01*
X147065000Y-83821000D02*
X145415000Y-85471000D01*
X149352000Y-80899000D02*
X149225000Y-81026000D01*
X145415000Y-85471000D02*
X145415000Y-95377000D01*
X149225000Y-81026000D02*
X141859000Y-81026000D01*
X155600400Y-81229200D02*
X152349200Y-81229200D01*
X149479000Y-95377000D02*
X153289000Y-99187000D01*
X140574000Y-79771000D02*
X137287000Y-79771000D01*
X131368800Y-73609200D02*
X132740400Y-73609200D01*
X152019000Y-80899000D02*
X149352000Y-80899000D01*
X156464000Y-98298000D02*
X156464000Y-95194000D01*
X153289000Y-99187000D02*
X153670000Y-98806000D01*
X141732000Y-75057000D02*
X135128000Y-75057000D01*
X134747000Y-88900000D02*
X134696200Y-88849200D01*
X141097000Y-95377000D02*
X138303000Y-98171000D01*
X138303000Y-98171000D02*
X131318000Y-98171000D01*
X131064000Y-73914000D02*
X131368800Y-73609200D01*
X134696200Y-88849200D02*
X132740400Y-88849200D01*
X153670000Y-98298000D02*
X156464000Y-98298000D01*
X135128000Y-75057000D02*
X134747000Y-75438000D01*
X145415000Y-95377000D02*
X141097000Y-95377000D01*
X131318000Y-98171000D02*
X131064000Y-97917000D01*
X153670000Y-98806000D02*
X153670000Y-98298000D01*
X153289000Y-99187000D02*
X153289000Y-100219000D01*
X143256000Y-73533000D02*
X141732000Y-75057000D01*
X145415000Y-95377000D02*
X149479000Y-95377000D01*
X151384000Y-95758000D02*
X151384000Y-95194000D01*
X134747000Y-75438000D02*
X134747000Y-88900000D01*
X131064000Y-97917000D02*
X131064000Y-73914000D01*
X141859000Y-81026000D02*
X140589000Y-79756000D01*
X152349200Y-81229200D02*
X152019000Y-80899000D01*
X140589000Y-79756000D02*
X140574000Y-79771000D01*
%TD*%
M02*
